<?xml version="1.0" encoding="UTF-8" standalone="no"?>
<!DOCTYPE svg PUBLIC "-//W3C//DTD SVG 1.1//EN"
 "http://www.w3.org/Graphics/SVG/1.1/DTD/svg11.dtd">
<!-- Generated by graphviz version 2.40.1 (20161225.0304)
 -->
<!-- Title: AnalogToDigitalController.cpp Pages: 1 -->
<svg width="720pt" height="86pt"
 viewBox="0.00 0.00 719.95 86.00" xmlns="http://www.w3.org/2000/svg" xmlns:xlink="http://www.w3.org/1999/xlink">
<g id="graph0" class="graph" transform="scale(1 1) rotate(0) translate(4 82)">
<title>AnalogToDigitalController.cpp</title>
<polygon fill="#ffffff" stroke="transparent" points="-4,4 -4,-82 715.953,-82 715.953,4 -4,4"/>
<!-- Node0 -->
<g id="node1" class="node">
<title>Node0</title>
<polygon fill="#bfbfbf" stroke="#000000" points="352.7205,-57.5 352.7205,-77.5 501.5125,-77.5 501.5125,-57.5 352.7205,-57.5"/>
<text text-anchor="middle" x="427.1165" y="-64.5" font-family="Helvetica,sans-Serif" font-size="10.00" fill="#000000">AnalogToDigitalController.cpp</text>
</g>
<!-- Node1 -->
<g id="node2" class="node">
<title>Node1</title>
<g id="a_node2"><a xlink:href="AnalogToDigitalController_8h.html" target="_top" xlink:title="AnalogToDigitalController.h">
<polygon fill="#ffffff" stroke="#000000" points="0,-.5 0,-20.5 138.233,-20.5 138.233,-.5 0,-.5"/>
<text text-anchor="middle" x="69.1165" y="-7.5" font-family="Helvetica,sans-Serif" font-size="10.00" fill="#000000">AnalogToDigitalController.h</text>
</a>
</g>
</g>
<!-- Node0&#45;&gt;Node1 -->
<g id="edge1" class="edge">
<title>Node0&#45;&gt;Node1</title>
<path fill="none" stroke="#191970" d="M363.9374,-57.4408C301.9171,-47.566 207.3876,-32.5152 142.1702,-22.1315"/>
<polygon fill="#191970" stroke="#191970" points="142.3903,-18.6225 131.9643,-20.5065 141.2896,-25.5354 142.3903,-18.6225"/>
</g>
<!-- Node2 -->
<g id="node3" class="node">
<title>Node2</title>
<polygon fill="#ffffff" stroke="#bfbfbf" points="156.17,-.5 156.17,-20.5 226.063,-20.5 226.063,-.5 156.17,-.5"/>
<text text-anchor="middle" x="191.1165" y="-7.5" font-family="Helvetica,sans-Serif" font-size="10.00" fill="#000000">sys/mman.h</text>
</g>
<!-- Node0&#45;&gt;Node2 -->
<g id="edge2" class="edge">
<title>Node0&#45;&gt;Node2</title>
<path fill="none" stroke="#191970" d="M385.4677,-57.4408C343.571,-47.3216 279.1697,-31.7671 236.1189,-21.3692"/>
<polygon fill="#191970" stroke="#191970" points="236.7415,-17.919 226.1992,-18.9734 235.098,-24.7234 236.7415,-17.919"/>
</g>
<!-- Node3 -->
<g id="node4" class="node">
<title>Node3</title>
<g id="a_node4"><a xlink:href="ADCMacros_8h.html" target="_top" xlink:title="ADCMacros.h">
<polygon fill="#ffffff" stroke="#000000" points="244.006,-.5 244.006,-20.5 322.227,-20.5 322.227,-.5 244.006,-.5"/>
<text text-anchor="middle" x="283.1165" y="-7.5" font-family="Helvetica,sans-Serif" font-size="10.00" fill="#000000">ADCMacros.h</text>
</a>
</g>
</g>
<!-- Node0&#45;&gt;Node3 -->
<g id="edge3" class="edge">
<title>Node0&#45;&gt;Node3</title>
<path fill="none" stroke="#191970" d="M401.7037,-57.4408C378.5069,-48.2587 344.0041,-34.6013 318.1872,-24.3822"/>
<polygon fill="#191970" stroke="#191970" points="319.3459,-21.0766 308.7597,-20.6504 316.7695,-27.5853 319.3459,-21.0766"/>
</g>
<!-- Node4 -->
<g id="node5" class="node">
<title>Node4</title>
<polygon fill="#ffffff" stroke="#bfbfbf" points="340,-.5 340,-20.5 388.233,-20.5 388.233,-.5 340,-.5"/>
<text text-anchor="middle" x="364.1165" y="-7.5" font-family="Helvetica,sans-Serif" font-size="10.00" fill="#000000">stdint.h</text>
</g>
<!-- Node0&#45;&gt;Node4 -->
<g id="edge4" class="edge">
<title>Node0&#45;&gt;Node4</title>
<path fill="none" stroke="#191970" d="M415.8534,-57.3095C406.7154,-49.0419 393.6373,-37.2093 382.9165,-27.5096"/>
<polygon fill="#191970" stroke="#191970" points="385.0457,-24.716 375.2821,-20.6022 380.3493,-29.9068 385.0457,-24.716"/>
</g>
<!-- Node5 -->
<g id="node6" class="node">
<title>Node5</title>
<polygon fill="#ffffff" stroke="#bfbfbf" points="405.7795,-.5 405.7795,-20.5 448.4535,-20.5 448.4535,-.5 405.7795,-.5"/>
<text text-anchor="middle" x="427.1165" y="-7.5" font-family="Helvetica,sans-Serif" font-size="10.00" fill="#000000">fcntl.h</text>
</g>
<!-- Node0&#45;&gt;Node5 -->
<g id="edge5" class="edge">
<title>Node0&#45;&gt;Node5</title>
<path fill="none" stroke="#191970" d="M427.1165,-57.3095C427.1165,-49.9335 427.1165,-39.72 427.1165,-30.715"/>
<polygon fill="#191970" stroke="#191970" points="430.6166,-30.6022 427.1165,-20.6022 423.6166,-30.6023 430.6166,-30.6022"/>
</g>
<!-- Node6 -->
<g id="node7" class="node">
<title>Node6</title>
<polygon fill="#ffffff" stroke="#bfbfbf" points="466.28,-.5 466.28,-20.5 513.953,-20.5 513.953,-.5 466.28,-.5"/>
<text text-anchor="middle" x="490.1165" y="-7.5" font-family="Helvetica,sans-Serif" font-size="10.00" fill="#000000">errno.h</text>
</g>
<!-- Node0&#45;&gt;Node6 -->
<g id="edge6" class="edge">
<title>Node0&#45;&gt;Node6</title>
<path fill="none" stroke="#191970" d="M438.3796,-57.3095C447.5176,-49.0419 460.5957,-37.2093 471.3165,-27.5096"/>
<polygon fill="#191970" stroke="#191970" points="473.8837,-29.9068 478.9509,-20.6022 469.1873,-24.716 473.8837,-29.9068"/>
</g>
<!-- Node7 -->
<g id="node8" class="node">
<title>Node7</title>
<polygon fill="#ffffff" stroke="#bfbfbf" points="531.61,-.5 531.61,-20.5 582.623,-20.5 582.623,-.5 531.61,-.5"/>
<text text-anchor="middle" x="557.1165" y="-7.5" font-family="Helvetica,sans-Serif" font-size="10.00" fill="#000000">unistd.h</text>
</g>
<!-- Node0&#45;&gt;Node7 -->
<g id="edge7" class="edge">
<title>Node0&#45;&gt;Node7</title>
<path fill="none" stroke="#191970" d="M450.0586,-57.4408C470.7234,-48.3801 501.327,-34.9615 524.5273,-24.7891"/>
<polygon fill="#191970" stroke="#191970" points="526.2136,-27.8715 533.9664,-20.6504 523.4026,-21.4606 526.2136,-27.8715"/>
</g>
<!-- Node8 -->
<g id="node9" class="node">
<title>Node8</title>
<polygon fill="#ffffff" stroke="#bfbfbf" points="600.3895,-.5 600.3895,-20.5 645.8435,-20.5 645.8435,-.5 600.3895,-.5"/>
<text text-anchor="middle" x="623.1165" y="-7.5" font-family="Helvetica,sans-Serif" font-size="10.00" fill="#000000">stdio.h</text>
</g>
<!-- Node0&#45;&gt;Node8 -->
<g id="edge8" class="edge">
<title>Node0&#45;&gt;Node8</title>
<path fill="none" stroke="#191970" d="M464.9614,-57.4345C496.4142,-48.9354 542.5491,-36.1624 590.5216,-21.408"/>
<polygon fill="#191970" stroke="#191970" points="591.6191,-24.7322 600.1368,-18.4314 589.549,-18.0453 591.6191,-24.7322"/>
</g>
<!-- Node9 -->
<g id="node10" class="node">
<title>Node9</title>
<polygon fill="#ffffff" stroke="#bfbfbf" points="664.28,-.5 664.28,-20.5 711.953,-20.5 711.953,-.5 664.28,-.5"/>
<text text-anchor="middle" x="688.1165" y="-7.5" font-family="Helvetica,sans-Serif" font-size="10.00" fill="#000000">stdlib.h</text>
</g>
<!-- Node0&#45;&gt;Node9 -->
<g id="edge9" class="edge">
<title>Node0&#45;&gt;Node9</title>
<path fill="none" stroke="#191970" d="M485.1371,-57.4374C529.1906,-49.3936 591.4059,-37.1727 654.3547,-21.005"/>
<polygon fill="#191970" stroke="#191970" points="655.2549,-24.3875 664.0526,-18.484 653.4936,-17.6126 655.2549,-24.3875"/>
</g>
</g>
</svg>
