<?xml version="1.0" encoding="UTF-8" standalone="no"?>
<!DOCTYPE svg PUBLIC "-//W3C//DTD SVG 1.1//EN"
 "http://www.w3.org/Graphics/SVG/1.1/DTD/svg11.dtd">
<!-- Generated by graphviz version 2.40.1 (20161225.0304)
 -->
<!-- Title: BluetoothInterface.h Pages: 1 -->
<svg width="114pt" height="143pt"
 viewBox="0.00 0.00 114.03 143.00" xmlns="http://www.w3.org/2000/svg" xmlns:xlink="http://www.w3.org/1999/xlink">
<g id="graph0" class="graph" transform="scale(1 1) rotate(0) translate(4 139)">
<title>BluetoothInterface.h</title>
<polygon fill="#ffffff" stroke="transparent" points="-4,4 -4,-139 110.032,-139 110.032,4 -4,4"/>
<!-- Node0 -->
<g id="node1" class="node">
<title>Node0</title>
<polygon fill="#bfbfbf" stroke="#000000" points=".2755,-114.5 .2755,-134.5 105.7565,-134.5 105.7565,-114.5 .2755,-114.5"/>
<text text-anchor="middle" x="53.016" y="-121.5" font-family="Helvetica,sans-Serif" font-size="10.00" fill="#000000">BluetoothInterface.h</text>
</g>
<!-- Node1 -->
<g id="node2" class="node">
<title>Node1</title>
<g id="a_node2"><a xlink:href="BluetoothManager_8h.html" target="_top" xlink:title="BluetoothManager.h">
<polygon fill="#ffffff" stroke="#000000" points="0,-57.5 0,-77.5 106.032,-77.5 106.032,-57.5 0,-57.5"/>
<text text-anchor="middle" x="53.016" y="-64.5" font-family="Helvetica,sans-Serif" font-size="10.00" fill="#000000">BluetoothManager.h</text>
</a>
</g>
</g>
<!-- Node0&#45;&gt;Node1 -->
<g id="edge1" class="edge">
<title>Node0&#45;&gt;Node1</title>
<path fill="none" stroke="#191970" d="M53.016,-114.3095C53.016,-106.9335 53.016,-96.72 53.016,-87.715"/>
<polygon fill="#191970" stroke="#191970" points="56.5161,-87.6022 53.016,-77.6022 49.5161,-87.6023 56.5161,-87.6022"/>
</g>
<!-- Node2 -->
<g id="node3" class="node">
<title>Node2</title>
<polygon fill="#ffffff" stroke="#bfbfbf" points="32.7935,-.5 32.7935,-20.5 73.2385,-20.5 73.2385,-.5 32.7935,-.5"/>
<text text-anchor="middle" x="53.016" y="-7.5" font-family="Helvetica,sans-Serif" font-size="10.00" fill="#000000">string</text>
</g>
<!-- Node1&#45;&gt;Node2 -->
<g id="edge2" class="edge">
<title>Node1&#45;&gt;Node2</title>
<path fill="none" stroke="#191970" d="M53.016,-57.3095C53.016,-49.9335 53.016,-39.72 53.016,-30.715"/>
<polygon fill="#191970" stroke="#191970" points="56.5161,-30.6022 53.016,-20.6022 49.5161,-30.6023 56.5161,-30.6022"/>
</g>
</g>
</svg>
