<?xml version="1.0" encoding="UTF-8" standalone="no"?>
<!DOCTYPE svg PUBLIC "-//W3C//DTD SVG 1.1//EN"
 "http://www.w3.org/Graphics/SVG/1.1/DTD/svg11.dtd">
<!-- Generated by graphviz version 2.40.1 (20161225.0304)
 -->
<!-- Title: BluetoothManager.cpp Pages: 1 -->
<svg width="701pt" height="200pt"
 viewBox="0.00 0.00 700.71 200.00" xmlns="http://www.w3.org/2000/svg" xmlns:xlink="http://www.w3.org/1999/xlink">
<g id="graph0" class="graph" transform="scale(1 1) rotate(0) translate(4 196)">
<title>BluetoothManager.cpp</title>
<polygon fill="#ffffff" stroke="transparent" points="-4,4 -4,-196 696.7122,-196 696.7122,4 -4,4"/>
<!-- Node0 -->
<g id="node1" class="node">
<title>Node0</title>
<polygon fill="#bfbfbf" stroke="#000000" points="267.7972,-171.5 267.7972,-191.5 384.3882,-191.5 384.3882,-171.5 267.7972,-171.5"/>
<text text-anchor="middle" x="326.0927" y="-178.5" font-family="Helvetica,sans-Serif" font-size="10.00" fill="#000000">BluetoothManager.cpp</text>
</g>
<!-- Node1 -->
<g id="node2" class="node">
<title>Node1</title>
<g id="a_node2"><a xlink:href="BluetoothManager_8h.html" target="_top" xlink:title="BluetoothManager.h">
<polygon fill="#ffffff" stroke="#000000" points="136.0767,-57.5 136.0767,-77.5 242.1087,-77.5 242.1087,-57.5 136.0767,-57.5"/>
<text text-anchor="middle" x="189.0927" y="-64.5" font-family="Helvetica,sans-Serif" font-size="10.00" fill="#000000">BluetoothManager.h</text>
</a>
</g>
</g>
<!-- Node0&#45;&gt;Node1 -->
<g id="edge1" class="edge">
<title>Node0&#45;&gt;Node1</title>
<path fill="none" stroke="#191970" d="M267.5223,-177.0104C180.5687,-169.7435 25.7301,-154.2559 9.0927,-135 -27.3086,-92.8695 60.1719,-76.9839 125.5345,-71.0289"/>
<polygon fill="#191970" stroke="#191970" points="126.1447,-74.4898 135.8126,-70.1559 125.5522,-67.5149 126.1447,-74.4898"/>
</g>
<!-- Node4 -->
<g id="node5" class="node">
<title>Node4</title>
<polygon fill="#ffffff" stroke="#bfbfbf" points="18.5862,-114.5 18.5862,-134.5 69.5992,-134.5 69.5992,-114.5 18.5862,-114.5"/>
<text text-anchor="middle" x="44.0927" y="-121.5" font-family="Helvetica,sans-Serif" font-size="10.00" fill="#000000">unistd.h</text>
</g>
<!-- Node0&#45;&gt;Node4 -->
<g id="edge4" class="edge">
<title>Node0&#45;&gt;Node4</title>
<path fill="none" stroke="#191970" d="M267.5619,-172.4635C219.3191,-164.5756 148.9715,-152.0669 79.4297,-135.1446"/>
<polygon fill="#191970" stroke="#191970" points="80.1719,-131.7228 69.6248,-132.7275 78.4964,-138.5194 80.1719,-131.7228"/>
</g>
<!-- Node5 -->
<g id="node6" class="node">
<title>Node5</title>
<polygon fill="#ffffff" stroke="#bfbfbf" points="87.4032,-114.5 87.4032,-134.5 196.7822,-134.5 196.7822,-114.5 87.4032,-114.5"/>
<text text-anchor="middle" x="142.0927" y="-121.5" font-family="Helvetica,sans-Serif" font-size="10.00" fill="#000000">bluetooth/bluetooth.h</text>
</g>
<!-- Node0&#45;&gt;Node5 -->
<g id="edge5" class="edge">
<title>Node0&#45;&gt;Node5</title>
<path fill="none" stroke="#191970" d="M293.6207,-171.4408C263.2341,-162.0275 217.6641,-147.9107 184.4348,-137.6169"/>
<polygon fill="#191970" stroke="#191970" points="185.1368,-134.1703 174.549,-134.5544 183.0654,-140.8568 185.1368,-134.1703"/>
</g>
<!-- Node6 -->
<g id="node7" class="node">
<title>Node6</title>
<polygon fill="#ffffff" stroke="#bfbfbf" points="214.3062,-114.5 214.3062,-134.5 315.8792,-134.5 315.8792,-114.5 214.3062,-114.5"/>
<text text-anchor="middle" x="265.0927" y="-121.5" font-family="Helvetica,sans-Serif" font-size="10.00" fill="#000000">bluetooth/rfcomm.h</text>
</g>
<!-- Node0&#45;&gt;Node6 -->
<g id="edge6" class="edge">
<title>Node0&#45;&gt;Node6</title>
<path fill="none" stroke="#191970" d="M315.1871,-171.3095C306.3393,-163.0419 293.6763,-151.2093 283.2959,-141.5096"/>
<polygon fill="#191970" stroke="#191970" points="285.6001,-138.8724 275.9039,-134.6022 280.8208,-143.987 285.6001,-138.8724"/>
</g>
<!-- Node7 -->
<g id="node8" class="node">
<title>Node7</title>
<g id="a_node8"><a xlink:href="ThreadHelper_8h.html" target="_top" xlink:title="ThreadHelper.h">
<polygon fill="#ffffff" stroke="#000000" points="457.3647,-114.5 457.3647,-134.5 542.8207,-134.5 542.8207,-114.5 457.3647,-114.5"/>
<text text-anchor="middle" x="500.0927" y="-121.5" font-family="Helvetica,sans-Serif" font-size="10.00" fill="#000000">ThreadHelper.h</text>
</a>
</g>
</g>
<!-- Node0&#45;&gt;Node7 -->
<g id="edge7" class="edge">
<title>Node0&#45;&gt;Node7</title>
<path fill="none" stroke="#191970" d="M356.7999,-171.4408C385.4112,-162.0681 428.2573,-148.0323 459.6448,-137.7502"/>
<polygon fill="#191970" stroke="#191970" points="460.9869,-140.9936 469.4004,-134.5544 458.8077,-134.3415 460.9869,-140.9936"/>
</g>
<!-- Node9 -->
<g id="node10" class="node">
<title>Node9</title>
<g id="a_node10"><a xlink:href="BluetoothInterface_8h.html" target="_top" xlink:title="BluetoothInterface.h">
<polygon fill="#ffffff" stroke="#000000" points="334.3522,-114.5 334.3522,-134.5 439.8332,-134.5 439.8332,-114.5 334.3522,-114.5"/>
<text text-anchor="middle" x="387.0927" y="-121.5" font-family="Helvetica,sans-Serif" font-size="10.00" fill="#000000">BluetoothInterface.h</text>
</a>
</g>
</g>
<!-- Node0&#45;&gt;Node9 -->
<g id="edge9" class="edge">
<title>Node0&#45;&gt;Node9</title>
<path fill="none" stroke="#191970" d="M336.9983,-171.3095C345.8461,-163.0419 358.5091,-151.2093 368.8895,-141.5096"/>
<polygon fill="#191970" stroke="#191970" points="371.3646,-143.987 376.2815,-134.6022 366.5853,-138.8724 371.3646,-143.987"/>
</g>
<!-- Node10 -->
<g id="node11" class="node">
<title>Node10</title>
<polygon fill="#ffffff" stroke="#bfbfbf" points="560.8662,-114.5 560.8662,-134.5 611.3192,-134.5 611.3192,-114.5 560.8662,-114.5"/>
<text text-anchor="middle" x="586.0927" y="-121.5" font-family="Helvetica,sans-Serif" font-size="10.00" fill="#000000">signal.h</text>
</g>
<!-- Node0&#45;&gt;Node10 -->
<g id="edge11" class="edge">
<title>Node0&#45;&gt;Node10</title>
<path fill="none" stroke="#191970" d="M382.6291,-171.4372C426.2224,-163.3215 488.1801,-151.0167 550.5393,-135.2403"/>
<polygon fill="#191970" stroke="#191970" points="551.7284,-138.5489 560.5483,-132.6786 549.9927,-131.7675 551.7284,-138.5489"/>
</g>
<!-- Node11 -->
<g id="node12" class="node">
<title>Node11</title>
<polygon fill="#ffffff" stroke="#bfbfbf" points="629.4732,-114.5 629.4732,-134.5 692.7122,-134.5 692.7122,-114.5 629.4732,-114.5"/>
<text text-anchor="middle" x="661.0927" y="-121.5" font-family="Helvetica,sans-Serif" font-size="10.00" fill="#000000">arpa/inet.h</text>
</g>
<!-- Node0&#45;&gt;Node11 -->
<g id="edge12" class="edge">
<title>Node0&#45;&gt;Node11</title>
<path fill="none" stroke="#191970" d="M384.3991,-173.9224C441.7784,-166.0947 532.0541,-152.7905 619.5506,-134.9599"/>
<polygon fill="#191970" stroke="#191970" points="620.2889,-138.3814 629.377,-132.9356 618.8764,-131.5253 620.2889,-138.3814"/>
</g>
<!-- Node2 -->
<g id="node3" class="node">
<title>Node2</title>
<polygon fill="#ffffff" stroke="#bfbfbf" points="138.8702,-.5 138.8702,-20.5 179.3152,-20.5 179.3152,-.5 138.8702,-.5"/>
<text text-anchor="middle" x="159.0927" y="-7.5" font-family="Helvetica,sans-Serif" font-size="10.00" fill="#000000">string</text>
</g>
<!-- Node1&#45;&gt;Node2 -->
<g id="edge2" class="edge">
<title>Node1&#45;&gt;Node2</title>
<path fill="none" stroke="#191970" d="M183.7293,-57.3095C179.6765,-49.6093 173.9962,-38.8166 169.111,-29.5349"/>
<polygon fill="#191970" stroke="#191970" points="172.1644,-27.8213 164.4097,-20.6022 165.97,-31.0816 172.1644,-27.8213"/>
</g>
<!-- Node3 -->
<g id="node4" class="node">
<title>Node3</title>
<polygon fill="#ffffff" stroke="#bfbfbf" points="197.4807,-.5 197.4807,-20.5 240.7047,-20.5 240.7047,-.5 197.4807,-.5"/>
<text text-anchor="middle" x="219.0927" y="-7.5" font-family="Helvetica,sans-Serif" font-size="10.00" fill="#000000">time.h</text>
</g>
<!-- Node1&#45;&gt;Node3 -->
<g id="edge3" class="edge">
<title>Node1&#45;&gt;Node3</title>
<path fill="none" stroke="#191970" d="M194.4561,-57.3095C198.5089,-49.6093 204.1892,-38.8166 209.0744,-29.5349"/>
<polygon fill="#191970" stroke="#191970" points="212.2154,-31.0816 213.7757,-20.6022 206.021,-27.8213 212.2154,-31.0816"/>
</g>
<!-- Node8 -->
<g id="node9" class="node">
<title>Node8</title>
<polygon fill="#ffffff" stroke="#bfbfbf" points="470.9722,-57.5 470.9722,-77.5 529.2132,-77.5 529.2132,-57.5 470.9722,-57.5"/>
<text text-anchor="middle" x="500.0927" y="-64.5" font-family="Helvetica,sans-Serif" font-size="10.00" fill="#000000">pthread.h</text>
</g>
<!-- Node7&#45;&gt;Node8 -->
<g id="edge8" class="edge">
<title>Node7&#45;&gt;Node8</title>
<path fill="none" stroke="#191970" d="M500.0927,-114.3095C500.0927,-106.9335 500.0927,-96.72 500.0927,-87.715"/>
<polygon fill="#191970" stroke="#191970" points="503.5928,-87.6022 500.0927,-77.6022 496.5928,-87.6023 503.5928,-87.6022"/>
</g>
<!-- Node9&#45;&gt;Node1 -->
<g id="edge10" class="edge">
<title>Node9&#45;&gt;Node1</title>
<path fill="none" stroke="#191970" d="M352.1501,-114.4408C319.1695,-104.9464 269.5674,-90.6669 233.7347,-80.3515"/>
<polygon fill="#191970" stroke="#191970" points="234.5965,-76.9575 224.0185,-77.5544 232.6599,-83.6843 234.5965,-76.9575"/>
</g>
</g>
</svg>
