<?xml version="1.0" encoding="UTF-8" standalone="no"?>
<!DOCTYPE svg PUBLIC "-//W3C//DTD SVG 1.1//EN"
 "http://www.w3.org/Graphics/SVG/1.1/DTD/svg11.dtd">
<!-- Generated by graphviz version 2.40.1 (20161225.0304)
 -->
<!-- Title: BluetoothManager.cpp Pages: 1 -->
<svg width="550pt" height="200pt"
 viewBox="0.00 0.00 550.05 200.00" xmlns="http://www.w3.org/2000/svg" xmlns:xlink="http://www.w3.org/1999/xlink">
<g id="graph0" class="graph" transform="scale(1 1) rotate(0) translate(4 196)">
<title>BluetoothManager.cpp</title>
<polygon fill="#ffffff" stroke="transparent" points="-4,4 -4,-196 546.0453,-196 546.0453,4 -4,4"/>
<!-- Node0 -->
<g id="node1" class="node">
<title>Node0</title>
<polygon fill="#bfbfbf" stroke="#000000" points="144.0218,-171.5 144.0218,-191.5 260.6128,-191.5 260.6128,-171.5 144.0218,-171.5"/>
<text text-anchor="middle" x="202.3173" y="-178.5" font-family="Helvetica,sans-Serif" font-size="10.00" fill="#000000">BluetoothManager.cpp</text>
</g>
<!-- Node1 -->
<g id="node2" class="node">
<title>Node1</title>
<g id="a_node2"><a xlink:href="BluetoothManager_8h.html" target="_top" xlink:title="BluetoothManager.h">
<polygon fill="#ffffff" stroke="#000000" points="135.3013,-57.5 135.3013,-77.5 241.3333,-77.5 241.3333,-57.5 135.3013,-57.5"/>
<text text-anchor="middle" x="188.3173" y="-64.5" font-family="Helvetica,sans-Serif" font-size="10.00" fill="#000000">BluetoothManager.h</text>
</a>
</g>
</g>
<!-- Node0&#45;&gt;Node1 -->
<g id="edge1" class="edge">
<title>Node0&#45;&gt;Node1</title>
<path fill="none" stroke="#191970" d="M143.8059,-175.4035C92.9884,-168.7582 24.9924,-156.1442 8.3173,-135 -26.0625,-91.4059 60.243,-75.9655 124.9064,-70.4974"/>
<polygon fill="#191970" stroke="#191970" points="125.3799,-73.9712 135.0768,-69.7026 124.8345,-66.9924 125.3799,-73.9712"/>
</g>
<!-- Node4 -->
<g id="node5" class="node">
<title>Node4</title>
<polygon fill="#ffffff" stroke="#bfbfbf" points="17.8108,-114.5 17.8108,-134.5 68.8238,-134.5 68.8238,-114.5 17.8108,-114.5"/>
<text text-anchor="middle" x="43.3173" y="-121.5" font-family="Helvetica,sans-Serif" font-size="10.00" fill="#000000">unistd.h</text>
</g>
<!-- Node0&#45;&gt;Node4 -->
<g id="edge4" class="edge">
<title>Node0&#45;&gt;Node4</title>
<path fill="none" stroke="#191970" d="M174.2573,-171.4408C147.6211,-161.8919 107.4838,-147.5031 78.6724,-137.1745"/>
<polygon fill="#191970" stroke="#191970" points="79.5891,-133.785 68.9945,-133.705 77.2268,-140.3744 79.5891,-133.785"/>
</g>
<!-- Node5 -->
<g id="node6" class="node">
<title>Node5</title>
<polygon fill="#ffffff" stroke="#bfbfbf" points="86.6278,-114.5 86.6278,-134.5 196.0068,-134.5 196.0068,-114.5 86.6278,-114.5"/>
<text text-anchor="middle" x="141.3173" y="-121.5" font-family="Helvetica,sans-Serif" font-size="10.00" fill="#000000">bluetooth/bluetooth.h</text>
</g>
<!-- Node0&#45;&gt;Node5 -->
<g id="edge5" class="edge">
<title>Node0&#45;&gt;Node5</title>
<path fill="none" stroke="#191970" d="M191.4118,-171.3095C182.5639,-163.0419 169.901,-151.2093 159.5205,-141.5096"/>
<polygon fill="#191970" stroke="#191970" points="161.8247,-138.8724 152.1285,-134.6022 157.0455,-143.987 161.8247,-138.8724"/>
</g>
<!-- Node6 -->
<g id="node7" class="node">
<title>Node6</title>
<polygon fill="#ffffff" stroke="#bfbfbf" points="213.5308,-114.5 213.5308,-134.5 315.1038,-134.5 315.1038,-114.5 213.5308,-114.5"/>
<text text-anchor="middle" x="264.3173" y="-121.5" font-family="Helvetica,sans-Serif" font-size="10.00" fill="#000000">bluetooth/rfcomm.h</text>
</g>
<!-- Node0&#45;&gt;Node6 -->
<g id="edge6" class="edge">
<title>Node0&#45;&gt;Node6</title>
<path fill="none" stroke="#191970" d="M213.4017,-171.3095C222.3946,-163.0419 235.2651,-151.2093 245.8157,-141.5096"/>
<polygon fill="#191970" stroke="#191970" points="248.336,-143.9469 253.3289,-134.6022 243.5984,-138.7937 248.336,-143.9469"/>
</g>
<!-- Node7 -->
<g id="node8" class="node">
<title>Node7</title>
<g id="a_node8"><a xlink:href="ThreadHelper_8h.html" target="_top" xlink:title="ThreadHelper.h">
<polygon fill="#ffffff" stroke="#000000" points="456.5893,-114.5 456.5893,-134.5 542.0453,-134.5 542.0453,-114.5 456.5893,-114.5"/>
<text text-anchor="middle" x="499.3173" y="-121.5" font-family="Helvetica,sans-Serif" font-size="10.00" fill="#000000">ThreadHelper.h</text>
</a>
</g>
</g>
<!-- Node0&#45;&gt;Node7 -->
<g id="edge7" class="edge">
<title>Node0&#45;&gt;Node7</title>
<path fill="none" stroke="#191970" d="M257.0814,-171.4114C304.7255,-162.5748 375.9019,-149.2307 446.5171,-135.3367"/>
<polygon fill="#191970" stroke="#191970" points="447.3411,-138.7417 456.475,-133.373 445.9867,-131.874 447.3411,-138.7417"/>
</g>
<!-- Node9 -->
<g id="node10" class="node">
<title>Node9</title>
<g id="a_node10"><a xlink:href="BluetoothInterface_8h.html" target="_top" xlink:title="BluetoothInterface.h">
<polygon fill="#ffffff" stroke="#000000" points="333.5768,-114.5 333.5768,-134.5 439.0578,-134.5 439.0578,-114.5 333.5768,-114.5"/>
<text text-anchor="middle" x="386.3173" y="-121.5" font-family="Helvetica,sans-Serif" font-size="10.00" fill="#000000">BluetoothInterface.h</text>
</a>
</g>
</g>
<!-- Node0&#45;&gt;Node9 -->
<g id="edge9" class="edge">
<title>Node0&#45;&gt;Node9</title>
<path fill="none" stroke="#191970" d="M234.7893,-171.4408C265.1759,-162.0275 310.746,-147.9107 343.9752,-137.6169"/>
<polygon fill="#191970" stroke="#191970" points="345.3446,-140.8568 353.8611,-134.5544 343.2732,-134.1703 345.3446,-140.8568"/>
</g>
<!-- Node2 -->
<g id="node3" class="node">
<title>Node2</title>
<polygon fill="#ffffff" stroke="#bfbfbf" points="138.0948,-.5 138.0948,-20.5 178.5398,-20.5 178.5398,-.5 138.0948,-.5"/>
<text text-anchor="middle" x="158.3173" y="-7.5" font-family="Helvetica,sans-Serif" font-size="10.00" fill="#000000">string</text>
</g>
<!-- Node1&#45;&gt;Node2 -->
<g id="edge2" class="edge">
<title>Node1&#45;&gt;Node2</title>
<path fill="none" stroke="#191970" d="M182.9539,-57.3095C178.9012,-49.6093 173.2208,-38.8166 168.3357,-29.5349"/>
<polygon fill="#191970" stroke="#191970" points="171.389,-27.8213 163.6343,-20.6022 165.1946,-31.0816 171.389,-27.8213"/>
</g>
<!-- Node3 -->
<g id="node4" class="node">
<title>Node3</title>
<polygon fill="#ffffff" stroke="#bfbfbf" points="196.7053,-.5 196.7053,-20.5 239.9293,-20.5 239.9293,-.5 196.7053,-.5"/>
<text text-anchor="middle" x="218.3173" y="-7.5" font-family="Helvetica,sans-Serif" font-size="10.00" fill="#000000">time.h</text>
</g>
<!-- Node1&#45;&gt;Node3 -->
<g id="edge3" class="edge">
<title>Node1&#45;&gt;Node3</title>
<path fill="none" stroke="#191970" d="M193.6807,-57.3095C197.7335,-49.6093 203.4139,-38.8166 208.299,-29.5349"/>
<polygon fill="#191970" stroke="#191970" points="211.4401,-31.0816 213.0004,-20.6022 205.2456,-27.8213 211.4401,-31.0816"/>
</g>
<!-- Node8 -->
<g id="node9" class="node">
<title>Node8</title>
<polygon fill="#ffffff" stroke="#bfbfbf" points="470.1968,-57.5 470.1968,-77.5 528.4378,-77.5 528.4378,-57.5 470.1968,-57.5"/>
<text text-anchor="middle" x="499.3173" y="-64.5" font-family="Helvetica,sans-Serif" font-size="10.00" fill="#000000">pthread.h</text>
</g>
<!-- Node7&#45;&gt;Node8 -->
<g id="edge8" class="edge">
<title>Node7&#45;&gt;Node8</title>
<path fill="none" stroke="#191970" d="M499.3173,-114.3095C499.3173,-106.9335 499.3173,-96.72 499.3173,-87.715"/>
<polygon fill="#191970" stroke="#191970" points="502.8174,-87.6022 499.3173,-77.6022 495.8174,-87.6023 502.8174,-87.6022"/>
</g>
<!-- Node9&#45;&gt;Node1 -->
<g id="edge10" class="edge">
<title>Node9&#45;&gt;Node1</title>
<path fill="none" stroke="#191970" d="M351.3747,-114.4408C318.3941,-104.9464 268.792,-90.6669 232.9594,-80.3515"/>
<polygon fill="#191970" stroke="#191970" points="233.8211,-76.9575 223.2431,-77.5544 231.8846,-83.6843 233.8211,-76.9575"/>
</g>
</g>
</svg>
