<?xml version="1.0" encoding="UTF-8" standalone="no"?>
<!DOCTYPE svg PUBLIC "-//W3C//DTD SVG 1.1//EN"
 "http://www.w3.org/Graphics/SVG/1.1/DTD/svg11.dtd">
<!-- Generated by graphviz version 2.40.1 (20161225.0304)
 -->
<!-- Title: BluetoothManager.h Pages: 1 -->
<svg width="114pt" height="86pt"
 viewBox="0.00 0.00 114.03 86.00" xmlns="http://www.w3.org/2000/svg" xmlns:xlink="http://www.w3.org/1999/xlink">
<g id="graph0" class="graph" transform="scale(1 1) rotate(0) translate(4 82)">
<title>BluetoothManager.h</title>
<polygon fill="#ffffff" stroke="transparent" points="-4,4 -4,-82 110.032,-82 110.032,4 -4,4"/>
<!-- Node0 -->
<g id="node1" class="node">
<title>Node0</title>
<polygon fill="#bfbfbf" stroke="#000000" points="0,-57.5 0,-77.5 106.032,-77.5 106.032,-57.5 0,-57.5"/>
<text text-anchor="middle" x="53.016" y="-64.5" font-family="Helvetica,sans-Serif" font-size="10.00" fill="#000000">BluetoothManager.h</text>
</g>
<!-- Node1 -->
<g id="node2" class="node">
<title>Node1</title>
<polygon fill="#ffffff" stroke="#bfbfbf" points="2.7935,-.5 2.7935,-20.5 43.2385,-20.5 43.2385,-.5 2.7935,-.5"/>
<text text-anchor="middle" x="23.016" y="-7.5" font-family="Helvetica,sans-Serif" font-size="10.00" fill="#000000">string</text>
</g>
<!-- Node0&#45;&gt;Node1 -->
<g id="edge1" class="edge">
<title>Node0&#45;&gt;Node1</title>
<path fill="none" stroke="#191970" d="M47.6526,-57.3095C43.5998,-49.6093 37.9195,-38.8166 33.0343,-29.5349"/>
<polygon fill="#191970" stroke="#191970" points="36.0877,-27.8213 28.333,-20.6022 29.8933,-31.0816 36.0877,-27.8213"/>
</g>
<!-- Node2 -->
<g id="node3" class="node">
<title>Node2</title>
<polygon fill="#ffffff" stroke="#bfbfbf" points="61.404,-.5 61.404,-20.5 104.628,-20.5 104.628,-.5 61.404,-.5"/>
<text text-anchor="middle" x="83.016" y="-7.5" font-family="Helvetica,sans-Serif" font-size="10.00" fill="#000000">time.h</text>
</g>
<!-- Node0&#45;&gt;Node2 -->
<g id="edge2" class="edge">
<title>Node0&#45;&gt;Node2</title>
<path fill="none" stroke="#191970" d="M58.3794,-57.3095C62.4322,-49.6093 68.1125,-38.8166 72.9977,-29.5349"/>
<polygon fill="#191970" stroke="#191970" points="76.1387,-31.0816 77.699,-20.6022 69.9443,-27.8213 76.1387,-31.0816"/>
</g>
</g>
</svg>
