<?xml version="1.0" encoding="UTF-8" standalone="no"?>
<!DOCTYPE svg PUBLIC "-//W3C//DTD SVG 1.1//EN"
 "http://www.w3.org/Graphics/SVG/1.1/DTD/svg11.dtd">
<!-- Generated by graphviz version 2.40.1 (20161225.0304)
 -->
<!-- Title: BluetoothManager.cpp Pages: 1 -->
<svg width="619pt" height="200pt"
 viewBox="0.00 0.00 619.03 200.00" xmlns="http://www.w3.org/2000/svg" xmlns:xlink="http://www.w3.org/1999/xlink">
<g id="graph0" class="graph" transform="scale(1 1) rotate(0) translate(4 196)">
<title>BluetoothManager.cpp</title>
<polygon fill="#ffffff" stroke="transparent" points="-4,4 -4,-196 615.0281,-196 615.0281,4 -4,4"/>
<!-- Node0 -->
<g id="node1" class="node">
<title>Node0</title>
<polygon fill="#bfbfbf" stroke="#000000" points="206.5061,-171.5 206.5061,-191.5 323.0971,-191.5 323.0971,-171.5 206.5061,-171.5"/>
<text text-anchor="middle" x="264.8016" y="-178.5" font-family="Helvetica,sans-Serif" font-size="10.00" fill="#000000">BluetoothManager.cpp</text>
</g>
<!-- Node1 -->
<g id="node2" class="node">
<title>Node1</title>
<g id="a_node2"><a xlink:href="BluetoothManager_8h.html" target="_top" xlink:title="BluetoothManager.h">
<polygon fill="#ffffff" stroke="#000000" points="135.7856,-57.5 135.7856,-77.5 241.8176,-77.5 241.8176,-57.5 135.7856,-57.5"/>
<text text-anchor="middle" x="188.8016" y="-64.5" font-family="Helvetica,sans-Serif" font-size="10.00" fill="#000000">BluetoothManager.h</text>
</a>
</g>
</g>
<!-- Node0&#45;&gt;Node1 -->
<g id="edge1" class="edge">
<title>Node0&#45;&gt;Node1</title>
<path fill="none" stroke="#191970" d="M206.4667,-179.297C138.8407,-175.3736 33.4786,-164.5631 8.8016,-135 -26.8776,-92.2562 60.3838,-76.5567 125.5063,-70.8057"/>
<polygon fill="#191970" stroke="#191970" points="126.0655,-74.2716 135.7457,-69.9655 125.4929,-67.2951 126.0655,-74.2716"/>
</g>
<!-- Node4 -->
<g id="node5" class="node">
<title>Node4</title>
<polygon fill="#ffffff" stroke="#bfbfbf" points="18.2951,-114.5 18.2951,-134.5 69.3081,-134.5 69.3081,-114.5 18.2951,-114.5"/>
<text text-anchor="middle" x="43.8016" y="-121.5" font-family="Helvetica,sans-Serif" font-size="10.00" fill="#000000">unistd.h</text>
</g>
<!-- Node0&#45;&gt;Node4 -->
<g id="edge4" class="edge">
<title>Node0&#45;&gt;Node4</title>
<path fill="none" stroke="#191970" d="M221.5439,-171.4673C185.6805,-162.9871 133.1547,-150.1947 79.1219,-135.2754"/>
<polygon fill="#191970" stroke="#191970" points="79.9484,-131.8725 69.3762,-132.5656 78.073,-138.6167 79.9484,-131.8725"/>
</g>
<!-- Node5 -->
<g id="node6" class="node">
<title>Node5</title>
<polygon fill="#ffffff" stroke="#bfbfbf" points="87.1121,-114.5 87.1121,-134.5 196.4911,-134.5 196.4911,-114.5 87.1121,-114.5"/>
<text text-anchor="middle" x="141.8016" y="-121.5" font-family="Helvetica,sans-Serif" font-size="10.00" fill="#000000">bluetooth/bluetooth.h</text>
</g>
<!-- Node0&#45;&gt;Node5 -->
<g id="edge5" class="edge">
<title>Node0&#45;&gt;Node5</title>
<path fill="none" stroke="#191970" d="M243.0948,-171.4408C223.63,-162.4205 194.8453,-149.0813 172.9304,-138.9255"/>
<polygon fill="#191970" stroke="#191970" points="174.2498,-135.6795 163.7051,-134.6504 171.3066,-142.0307 174.2498,-135.6795"/>
</g>
<!-- Node6 -->
<g id="node7" class="node">
<title>Node6</title>
<polygon fill="#ffffff" stroke="#bfbfbf" points="214.0151,-114.5 214.0151,-134.5 315.5881,-134.5 315.5881,-114.5 214.0151,-114.5"/>
<text text-anchor="middle" x="264.8016" y="-121.5" font-family="Helvetica,sans-Serif" font-size="10.00" fill="#000000">bluetooth/rfcomm.h</text>
</g>
<!-- Node0&#45;&gt;Node6 -->
<g id="edge6" class="edge">
<title>Node0&#45;&gt;Node6</title>
<path fill="none" stroke="#191970" d="M264.8016,-171.3095C264.8016,-163.9335 264.8016,-153.72 264.8016,-144.715"/>
<polygon fill="#191970" stroke="#191970" points="268.3017,-144.6022 264.8016,-134.6022 261.3017,-144.6023 268.3017,-144.6022"/>
</g>
<!-- Node7 -->
<g id="node8" class="node">
<title>Node7</title>
<g id="a_node8"><a xlink:href="ThreadHelper_8h.html" target="_top" xlink:title="ThreadHelper.h">
<polygon fill="#ffffff" stroke="#000000" points="457.0736,-114.5 457.0736,-134.5 542.5296,-134.5 542.5296,-114.5 457.0736,-114.5"/>
<text text-anchor="middle" x="499.8016" y="-121.5" font-family="Helvetica,sans-Serif" font-size="10.00" fill="#000000">ThreadHelper.h</text>
</a>
</g>
</g>
<!-- Node0&#45;&gt;Node7 -->
<g id="edge7" class="edge">
<title>Node0&#45;&gt;Node7</title>
<path fill="none" stroke="#191970" d="M306.2739,-171.4408C345.9193,-161.8246 405.8015,-147.3 448.4449,-136.9567"/>
<polygon fill="#191970" stroke="#191970" points="449.4561,-140.313 458.3493,-134.5544 447.806,-133.5103 449.4561,-140.313"/>
</g>
<!-- Node9 -->
<g id="node10" class="node">
<title>Node9</title>
<g id="a_node10"><a xlink:href="BluetoothInterface_8h.html" target="_top" xlink:title="BluetoothInterface.h">
<polygon fill="#ffffff" stroke="#000000" points="334.0611,-114.5 334.0611,-134.5 439.5421,-134.5 439.5421,-114.5 334.0611,-114.5"/>
<text text-anchor="middle" x="386.8016" y="-121.5" font-family="Helvetica,sans-Serif" font-size="10.00" fill="#000000">BluetoothInterface.h</text>
</a>
</g>
</g>
<!-- Node0&#45;&gt;Node9 -->
<g id="edge9" class="edge">
<title>Node0&#45;&gt;Node9</title>
<path fill="none" stroke="#191970" d="M286.3319,-171.4408C305.6384,-162.4205 334.189,-149.0813 355.9258,-138.9255"/>
<polygon fill="#191970" stroke="#191970" points="357.4977,-142.0544 365.0761,-134.6504 354.5346,-135.7124 357.4977,-142.0544"/>
</g>
<!-- Node10 -->
<g id="node11" class="node">
<title>Node10</title>
<polygon fill="#ffffff" stroke="#bfbfbf" points="560.5751,-114.5 560.5751,-134.5 611.0281,-134.5 611.0281,-114.5 560.5751,-114.5"/>
<text text-anchor="middle" x="585.8016" y="-121.5" font-family="Helvetica,sans-Serif" font-size="10.00" fill="#000000">signal.h</text>
</g>
<!-- Node0&#45;&gt;Node10 -->
<g id="edge11" class="edge">
<title>Node0&#45;&gt;Node10</title>
<path fill="none" stroke="#191970" d="M323.2584,-174.4502C379.362,-167.1398 466.5811,-154.3529 550.3538,-135.1123"/>
<polygon fill="#191970" stroke="#191970" points="551.3421,-138.4758 560.2861,-132.7965 549.7525,-131.6587 551.3421,-138.4758"/>
</g>
<!-- Node2 -->
<g id="node3" class="node">
<title>Node2</title>
<polygon fill="#ffffff" stroke="#bfbfbf" points="138.5791,-.5 138.5791,-20.5 179.0241,-20.5 179.0241,-.5 138.5791,-.5"/>
<text text-anchor="middle" x="158.8016" y="-7.5" font-family="Helvetica,sans-Serif" font-size="10.00" fill="#000000">string</text>
</g>
<!-- Node1&#45;&gt;Node2 -->
<g id="edge2" class="edge">
<title>Node1&#45;&gt;Node2</title>
<path fill="none" stroke="#191970" d="M183.4382,-57.3095C179.3854,-49.6093 173.705,-38.8166 168.8199,-29.5349"/>
<polygon fill="#191970" stroke="#191970" points="171.8733,-27.8213 164.1185,-20.6022 165.6788,-31.0816 171.8733,-27.8213"/>
</g>
<!-- Node3 -->
<g id="node4" class="node">
<title>Node3</title>
<polygon fill="#ffffff" stroke="#bfbfbf" points="197.1896,-.5 197.1896,-20.5 240.4136,-20.5 240.4136,-.5 197.1896,-.5"/>
<text text-anchor="middle" x="218.8016" y="-7.5" font-family="Helvetica,sans-Serif" font-size="10.00" fill="#000000">time.h</text>
</g>
<!-- Node1&#45;&gt;Node3 -->
<g id="edge3" class="edge">
<title>Node1&#45;&gt;Node3</title>
<path fill="none" stroke="#191970" d="M194.165,-57.3095C198.2177,-49.6093 203.8981,-38.8166 208.7832,-29.5349"/>
<polygon fill="#191970" stroke="#191970" points="211.9243,-31.0816 213.4846,-20.6022 205.7299,-27.8213 211.9243,-31.0816"/>
</g>
<!-- Node8 -->
<g id="node9" class="node">
<title>Node8</title>
<polygon fill="#ffffff" stroke="#bfbfbf" points="470.6811,-57.5 470.6811,-77.5 528.9221,-77.5 528.9221,-57.5 470.6811,-57.5"/>
<text text-anchor="middle" x="499.8016" y="-64.5" font-family="Helvetica,sans-Serif" font-size="10.00" fill="#000000">pthread.h</text>
</g>
<!-- Node7&#45;&gt;Node8 -->
<g id="edge8" class="edge">
<title>Node7&#45;&gt;Node8</title>
<path fill="none" stroke="#191970" d="M499.8016,-114.3095C499.8016,-106.9335 499.8016,-96.72 499.8016,-87.715"/>
<polygon fill="#191970" stroke="#191970" points="503.3017,-87.6022 499.8016,-77.6022 496.3017,-87.6023 503.3017,-87.6022"/>
</g>
<!-- Node9&#45;&gt;Node1 -->
<g id="edge10" class="edge">
<title>Node9&#45;&gt;Node1</title>
<path fill="none" stroke="#191970" d="M351.8589,-114.4408C318.8784,-104.9464 269.2762,-90.6669 233.4436,-80.3515"/>
<polygon fill="#191970" stroke="#191970" points="234.3053,-76.9575 223.7273,-77.5544 232.3688,-83.6843 234.3053,-76.9575"/>
</g>
</g>
</svg>
