<?xml version="1.0" encoding="UTF-8" standalone="no"?>
<!DOCTYPE svg PUBLIC "-//W3C//DTD SVG 1.1//EN"
 "http://www.w3.org/Graphics/SVG/1.1/DTD/svg11.dtd">
<!-- Generated by graphviz version 2.40.1 (20161225.0304)
 -->
<!-- Title: Core::IO::Input::Input Pages: 1 -->
<svg width="455pt" height="131pt"
 viewBox="0.00 0.00 454.76 131.00" xmlns="http://www.w3.org/2000/svg" xmlns:xlink="http://www.w3.org/1999/xlink">
<g id="graph0" class="graph" transform="scale(1 1) rotate(0) translate(4 127)">
<title>Core::IO::Input::Input</title>
<polygon fill="#ffffff" stroke="transparent" points="-4,4 -4,-127 450.76,-127 450.76,4 -4,4"/>
<!-- Node0 -->
<g id="node1" class="node">
<title>Node0</title>
<polygon fill="#bfbfbf" stroke="#000000" points="0,-57.5 0,-77.5 109.368,-77.5 109.368,-57.5 0,-57.5"/>
<text text-anchor="middle" x="54.684" y="-64.5" font-family="Helvetica,sans-Serif" font-size="10.00" fill="#000000">Core::IO::Input::Input</text>
</g>
<!-- Node1 -->
<g id="node2" class="node">
<title>Node1</title>
<g id="a_node2"><a xlink:href="classCore_1_1IO_1_1Input.html#a508adf10c37a35a1284b45132159ad85" target="_top" xlink:title="setEdgeType sets the desired edge ">
<polygon fill="#ffffff" stroke="#000000" points="145.368,-102.5 145.368,-122.5 291.412,-122.5 291.412,-102.5 145.368,-102.5"/>
<text text-anchor="middle" x="218.39" y="-109.5" font-family="Helvetica,sans-Serif" font-size="10.00" fill="#000000">Core::IO::Input::setEdgeType</text>
</a>
</g>
</g>
<!-- Node0&#45;&gt;Node1 -->
<g id="edge1" class="edge">
<title>Node0&#45;&gt;Node1</title>
<path fill="none" stroke="#191970" d="M89.0773,-77.5771C106.0027,-82.4809 126.7261,-88.4032 145.368,-93.5 153.0087,-95.589 161.114,-97.7512 169.0381,-99.8355"/>
<polygon fill="#191970" stroke="#191970" points="168.3695,-103.2783 178.9297,-102.4226 170.1407,-96.5061 168.3695,-103.2783"/>
</g>
<!-- Node3 -->
<g id="node4" class="node">
<title>Node3</title>
<g id="a_node4"><a xlink:href="classCore_1_1IO_1_1IOBase.html#aca37988be943985f905a71ddae003214" target="_top" xlink:title="setActiveHighOrLow setter ">
<polygon fill="#ffffff" stroke="#000000" points="148.9865,-51.5 148.9865,-83.5 287.7935,-83.5 287.7935,-51.5 148.9865,-51.5"/>
<text text-anchor="start" x="156.9865" y="-70.5" font-family="Helvetica,sans-Serif" font-size="10.00" fill="#000000">Core::IO::IOBase::setActive</text>
<text text-anchor="middle" x="218.39" y="-58.5" font-family="Helvetica,sans-Serif" font-size="10.00" fill="#000000">HighOrLow</text>
</a>
</g>
</g>
<!-- Node0&#45;&gt;Node3 -->
<g id="edge3" class="edge">
<title>Node0&#45;&gt;Node3</title>
<path fill="none" stroke="#191970" d="M109.6511,-67.5C118.958,-67.5 128.7866,-67.5 138.5762,-67.5"/>
<polygon fill="#191970" stroke="#191970" points="138.7405,-71.0001 148.7405,-67.5 138.7404,-64.0001 138.7405,-71.0001"/>
</g>
<!-- Node4 -->
<g id="node5" class="node">
<title>Node4</title>
<g id="a_node5"><a xlink:href="classCore_1_1IO_1_1Input.html#a35ee0fc0d31172da73135b8ddc543fff" target="_top" xlink:title="waitForEdgeThreaded does the same thing as waitForEdge(), but does so in a threaded manner...">
<polygon fill="#ffffff" stroke="#000000" points="158.437,-.5 158.437,-32.5 278.343,-32.5 278.343,-.5 158.437,-.5"/>
<text text-anchor="start" x="166.437" y="-19.5" font-family="Helvetica,sans-Serif" font-size="10.00" fill="#000000">Core::IO::Input::waitFor</text>
<text text-anchor="middle" x="218.39" y="-7.5" font-family="Helvetica,sans-Serif" font-size="10.00" fill="#000000">EdgeThreaded</text>
</a>
</g>
</g>
<!-- Node0&#45;&gt;Node4 -->
<g id="edge5" class="edge">
<title>Node0&#45;&gt;Node4</title>
<path fill="none" stroke="#191970" d="M87.027,-57.424C107.0101,-51.1986 133.2993,-43.0086 157.1062,-35.592"/>
<polygon fill="#191970" stroke="#191970" points="158.2756,-38.8937 166.782,-32.5777 156.1935,-32.2105 158.2756,-38.8937"/>
</g>
<!-- Node2 -->
<g id="node3" class="node">
<title>Node2</title>
<g id="a_node3"><a xlink:href="classCore_1_1IO_1_1IOBase.html#a6a095d6e076e588f343984044a3bb084" target="_top" xlink:title="write write function that writes a single string value to a file in the path provided ...">
<polygon fill="#ffffff" stroke="#000000" points="327.412,-79.5 327.412,-99.5 446.76,-99.5 446.76,-79.5 327.412,-79.5"/>
<text text-anchor="middle" x="387.086" y="-86.5" font-family="Helvetica,sans-Serif" font-size="10.00" fill="#000000">Core::IO::IOBase::write</text>
</a>
</g>
</g>
<!-- Node1&#45;&gt;Node2 -->
<g id="edge2" class="edge">
<title>Node1&#45;&gt;Node2</title>
<path fill="none" stroke="#191970" d="M291.8918,-102.4788C300.2872,-101.3341 308.8284,-100.1696 317.1752,-99.0316"/>
<polygon fill="#191970" stroke="#191970" points="317.8017,-102.4787 327.2372,-97.6598 316.856,-95.5428 317.8017,-102.4787"/>
</g>
<!-- Node3&#45;&gt;Node2 -->
<g id="edge4" class="edge">
<title>Node3&#45;&gt;Node2</title>
<path fill="none" stroke="#191970" d="M287.9791,-76.5753C297.6791,-77.8403 307.6478,-79.1403 317.3505,-80.4057"/>
<polygon fill="#191970" stroke="#191970" points="316.9743,-83.8861 327.343,-81.7088 317.8796,-76.9449 316.9743,-83.8861"/>
</g>
<!-- Node5 -->
<g id="node6" class="node">
<title>Node5</title>
<g id="a_node6"><a xlink:href="classCore_1_1ThreadHelper.html#a138066760eabf36c1681bbd177db0446" target="_top" xlink:title="startDetachedThread ">
<polygon fill="#ffffff" stroke="#000000" points="329.3505,-.5 329.3505,-32.5 444.8215,-32.5 444.8215,-.5 329.3505,-.5"/>
<text text-anchor="start" x="337.3505" y="-19.5" font-family="Helvetica,sans-Serif" font-size="10.00" fill="#000000">Core::ThreadHelper</text>
<text text-anchor="middle" x="387.086" y="-7.5" font-family="Helvetica,sans-Serif" font-size="10.00" fill="#000000">::startDetachedThread</text>
</a>
</g>
</g>
<!-- Node4&#45;&gt;Node5 -->
<g id="edge6" class="edge">
<title>Node4&#45;&gt;Node5</title>
<path fill="none" stroke="#191970" d="M278.8166,-16.5C291.9255,-16.5 305.8747,-16.5 319.2477,-16.5"/>
<polygon fill="#191970" stroke="#191970" points="319.3383,-20.0001 329.3383,-16.5 319.3383,-13.0001 319.3383,-20.0001"/>
</g>
</g>
</svg>
