<?xml version="1.0" encoding="UTF-8" standalone="no"?>
<!DOCTYPE svg PUBLIC "-//W3C//DTD SVG 1.1//EN"
 "http://www.w3.org/Graphics/SVG/1.1/DTD/svg11.dtd">
<!-- Generated by graphviz version 2.40.1 (20161225.0304)
 -->
<!-- Title: VehicleControl::Bluetooth::Manager::Interface::~Interface Pages: 1 -->
<svg width="341pt" height="53pt"
 viewBox="0.00 0.00 340.52 53.00" xmlns="http://www.w3.org/2000/svg" xmlns:xlink="http://www.w3.org/1999/xlink">
<g id="graph0" class="graph" transform="scale(1 1) rotate(0) translate(4 49)">
<title>VehicleControl::Bluetooth::Manager::Interface::~Interface</title>
<polygon fill="#ffffff" stroke="transparent" points="-4,4 -4,-49 336.525,-49 336.525,4 -4,4"/>
<!-- Node2 -->
<g id="node1" class="node">
<title>Node2</title>
<polygon fill="#bfbfbf" stroke="#000000" points="0,-.5 0,-44.5 128.806,-44.5 128.806,-.5 0,-.5"/>
<text text-anchor="start" x="8" y="-31.5" font-family="Helvetica,sans-Serif" font-size="10.00" fill="#000000">VehicleControl::Bluetooth</text>
<text text-anchor="start" x="8" y="-19.5" font-family="Helvetica,sans-Serif" font-size="10.00" fill="#000000">::Manager::Interface::</text>
<text text-anchor="middle" x="64.403" y="-7.5" font-family="Helvetica,sans-Serif" font-size="10.00" fill="#000000">~Interface</text>
</g>
<!-- Node3 -->
<g id="node2" class="node">
<title>Node3</title>
<g id="a_node2"><a xlink:href="classVehicleControl_1_1Bluetooth_1_1Manager_1_1Interface.html#adf1d527fd5918781dc1e157325501dc0" target="_top" xlink:title="VehicleControl::Bluetooth\l::Manager::Interface::stateChange">
<polygon fill="#ffffff" stroke="#000000" points="164.806,-6.5 164.806,-38.5 332.525,-38.5 332.525,-6.5 164.806,-6.5"/>
<text text-anchor="start" x="172.806" y="-25.5" font-family="Helvetica,sans-Serif" font-size="10.00" fill="#000000">VehicleControl::Bluetooth</text>
<text text-anchor="middle" x="248.6655" y="-13.5" font-family="Helvetica,sans-Serif" font-size="10.00" fill="#000000">::Manager::Interface::stateChange</text>
</a>
</g>
</g>
<!-- Node2&#45;&gt;Node3 -->
<g id="edge1" class="edge">
<title>Node2&#45;&gt;Node3</title>
<path fill="none" stroke="#191970" d="M128.8491,-22.5C137.1289,-22.5 145.7375,-22.5 154.3715,-22.5"/>
<polygon fill="#191970" stroke="#191970" points="154.5006,-26.0001 164.5006,-22.5 154.5005,-19.0001 154.5006,-26.0001"/>
</g>
</g>
</svg>
