<?xml version="1.0" encoding="UTF-8" standalone="no"?>
<!DOCTYPE svg PUBLIC "-//W3C//DTD SVG 1.1//EN"
 "http://www.w3.org/Graphics/SVG/1.1/DTD/svg11.dtd">
<!-- Generated by graphviz version 2.40.1 (20161225.0304)
 -->
<!-- Title: LibBBB::IO::IOBase::read Pages: 1 -->
<svg width="664pt" height="197pt"
 viewBox="0.00 0.00 663.80 197.00" xmlns="http://www.w3.org/2000/svg" xmlns:xlink="http://www.w3.org/1999/xlink">
<g id="graph0" class="graph" transform="scale(1 1) rotate(0) translate(4 193)">
<title>LibBBB::IO::IOBase::read</title>
<polygon fill="#ffffff" stroke="transparent" points="-4,4 -4,-193 659.804,-193 659.804,4 -4,4"/>
<!-- Node31 -->
<g id="node1" class="node">
<title>Node31</title>
<polygon fill="#bfbfbf" stroke="#000000" points="0,-101.5 0,-133.5 104.363,-133.5 104.363,-101.5 0,-101.5"/>
<text text-anchor="start" x="8" y="-120.5" font-family="Helvetica,sans-Serif" font-size="10.00" fill="#000000">LibBBB::IO::IOBase</text>
<text text-anchor="middle" x="52.1815" y="-108.5" font-family="Helvetica,sans-Serif" font-size="10.00" fill="#000000">::read</text>
</g>
<!-- Node32 -->
<g id="node2" class="node">
<title>Node32</title>
<g id="a_node2"><a xlink:href="classLibBBB_1_1IO_1_1Input.html#ad13e7774b58c80b4fc4fd79e1794b182" target="_top" xlink:title="getEdgeType getter ">
<polygon fill="#ffffff" stroke="#000000" points="143.139,-156.5 143.139,-188.5 241.95,-188.5 241.95,-156.5 143.139,-156.5"/>
<text text-anchor="start" x="151.139" y="-175.5" font-family="Helvetica,sans-Serif" font-size="10.00" fill="#000000">LibBBB::IO::Input::</text>
<text text-anchor="middle" x="192.5445" y="-163.5" font-family="Helvetica,sans-Serif" font-size="10.00" fill="#000000">getEdgeType</text>
</a>
</g>
</g>
<!-- Node31&#45;&gt;Node32 -->
<g id="edge1" class="edge">
<title>Node31&#45;&gt;Node32</title>
<path fill="none" stroke="#191970" d="M102.84,-137.3501C118.7442,-143.582 136.1017,-150.3834 151.2744,-156.3287"/>
<polygon fill="#191970" stroke="#191970" points="103.7453,-133.9458 93.1576,-133.5561 101.1914,-140.4633 103.7453,-133.9458"/>
</g>
<!-- Node34 -->
<g id="node4" class="node">
<title>Node34</title>
<g id="a_node4"><a xlink:href="classLibBBB_1_1IO_1_1IOBase.html#a8ae8a79c81d61625f5b864abebe944a2" target="_top" xlink:title="getValue getter ">
<polygon fill="#ffffff" stroke="#000000" points="140.363,-76.5 140.363,-108.5 244.726,-108.5 244.726,-76.5 140.363,-76.5"/>
<text text-anchor="start" x="148.363" y="-95.5" font-family="Helvetica,sans-Serif" font-size="10.00" fill="#000000">LibBBB::IO::IOBase</text>
<text text-anchor="middle" x="192.5445" y="-83.5" font-family="Helvetica,sans-Serif" font-size="10.00" fill="#000000">::getValue</text>
</a>
</g>
</g>
<!-- Node31&#45;&gt;Node34 -->
<g id="edge3" class="edge">
<title>Node31&#45;&gt;Node34</title>
<path fill="none" stroke="#191970" d="M114.4494,-106.4095C123.0594,-104.876 131.8303,-103.3138 140.2348,-101.8169"/>
<polygon fill="#191970" stroke="#191970" points="113.6788,-102.9916 104.4475,-108.1909 114.9063,-109.8831 113.6788,-102.9916"/>
</g>
<!-- Node33 -->
<g id="node3" class="node">
<title>Node33</title>
<g id="a_node3"><a xlink:href="structLibBBB_1_1IO_1_1Input_1_1Setup.html#a1ad926b46c1818dd934b0b99ddb63386" target="_top" xlink:title="LibBBB::IO::Input::\lSetup::Setup">
<polygon fill="#ffffff" stroke="#000000" points="556.993,-147.5 556.993,-179.5 655.804,-179.5 655.804,-147.5 556.993,-147.5"/>
<text text-anchor="start" x="564.993" y="-166.5" font-family="Helvetica,sans-Serif" font-size="10.00" fill="#000000">LibBBB::IO::Input::</text>
<text text-anchor="middle" x="606.3985" y="-154.5" font-family="Helvetica,sans-Serif" font-size="10.00" fill="#000000">Setup::Setup</text>
</a>
</g>
</g>
<!-- Node32&#45;&gt;Node33 -->
<g id="edge2" class="edge">
<title>Node32&#45;&gt;Node33</title>
<path fill="none" stroke="#191970" d="M252.221,-171.2022C334.2842,-169.4176 480.4638,-166.2387 556.8322,-164.5779"/>
<polygon fill="#191970" stroke="#191970" points="251.9754,-167.7066 242.0539,-171.4233 252.1277,-174.705 251.9754,-167.7066"/>
</g>
<!-- Node35 -->
<g id="node5" class="node">
<title>Node35</title>
<g id="a_node5"><a xlink:href="classLibBBB_1_1IO_1_1Input.html#a0934c43a3f6be5e62dfc733552e5074d" target="_top" xlink:title="waitForEdge method is a blocking wait for edge. Therefore, the callee will halt its thread until this...">
<polygon fill="#ffffff" stroke="#000000" points="281.8365,-102.5 281.8365,-134.5 380.6475,-134.5 380.6475,-102.5 281.8365,-102.5"/>
<text text-anchor="start" x="289.8365" y="-121.5" font-family="Helvetica,sans-Serif" font-size="10.00" fill="#000000">LibBBB::IO::Input::</text>
<text text-anchor="middle" x="331.242" y="-109.5" font-family="Helvetica,sans-Serif" font-size="10.00" fill="#000000">waitForEdge</text>
</a>
</g>
</g>
<!-- Node34&#45;&gt;Node35 -->
<g id="edge4" class="edge">
<title>Node34&#45;&gt;Node35</title>
<path fill="none" stroke="#191970" d="M254.9257,-104.1939C263.8209,-105.8614 272.8705,-107.5578 281.4812,-109.1719"/>
<polygon fill="#191970" stroke="#191970" points="255.4538,-100.732 244.9801,-102.3295 254.164,-107.6121 255.4538,-100.732"/>
</g>
<!-- Node37 -->
<g id="node7" class="node">
<title>Node37</title>
<g id="a_node7"><a xlink:href="classLibBBB_1_1IO_1_1Output.html#a70c6eac9a46013605717fef0ba6c2010" target="_top" xlink:title="toggleOutput method toggles the output once ">
<polygon fill="#ffffff" stroke="#000000" points="280.726,-51.5 280.726,-83.5 381.758,-83.5 381.758,-51.5 280.726,-51.5"/>
<text text-anchor="start" x="288.726" y="-70.5" font-family="Helvetica,sans-Serif" font-size="10.00" fill="#000000">LibBBB::IO::Output</text>
<text text-anchor="middle" x="331.242" y="-58.5" font-family="Helvetica,sans-Serif" font-size="10.00" fill="#000000">::toggleOutput</text>
</a>
</g>
</g>
<!-- Node34&#45;&gt;Node37 -->
<g id="edge8" class="edge">
<title>Node34&#45;&gt;Node37</title>
<path fill="none" stroke="#191970" d="M254.9478,-81.2519C263.5219,-79.7064 272.2391,-78.1352 280.568,-76.6339"/>
<polygon fill="#191970" stroke="#191970" points="254.2006,-77.8301 244.9801,-83.0486 255.4424,-84.7191 254.2006,-77.8301"/>
</g>
<!-- Node40 -->
<g id="node10" class="node">
<title>Node40</title>
<g id="a_node10"><a xlink:href="classLibBBB_1_1IO_1_1Output.html#a4fd232f60d3148259f6d5d91e842950a" target="_top" xlink:title="cancelToggle cancels toggling ">
<polygon fill="#ffffff" stroke="#000000" points="280.726,-.5 280.726,-32.5 381.758,-32.5 381.758,-.5 280.726,-.5"/>
<text text-anchor="start" x="288.726" y="-19.5" font-family="Helvetica,sans-Serif" font-size="10.00" fill="#000000">LibBBB::IO::Output</text>
<text text-anchor="middle" x="331.242" y="-7.5" font-family="Helvetica,sans-Serif" font-size="10.00" fill="#000000">::cancelToggle</text>
</a>
</g>
</g>
<!-- Node34&#45;&gt;Node40 -->
<g id="edge11" class="edge">
<title>Node34&#45;&gt;Node40</title>
<path fill="none" stroke="#191970" d="M228.2805,-71.1285C244.2012,-61.7903 263.2649,-50.8573 280.726,-41.5 286.246,-38.5419 292.1632,-35.5003 297.9341,-32.6019"/>
<polygon fill="#191970" stroke="#191970" points="226.1433,-68.3254 219.3057,-76.4184 229.6978,-74.3558 226.1433,-68.3254"/>
</g>
<!-- Node35&#45;&gt;Node33 -->
<g id="edge7" class="edge">
<title>Node35&#45;&gt;Node33</title>
<path fill="none" stroke="#191970" d="M388.7472,-137.4505C398.3567,-140.1347 408.2819,-142.617 417.758,-144.5 464.4092,-153.7703 518.4978,-158.6288 556.7643,-161.1025"/>
<polygon fill="#191970" stroke="#191970" points="389.4582,-134.0128 378.8795,-134.597 387.5136,-140.7373 389.4582,-134.0128"/>
</g>
<!-- Node36 -->
<g id="node6" class="node">
<title>Node36</title>
<g id="a_node6"><a xlink:href="classLibBBB_1_1IO_1_1Input.html#a463bb83321475919ec672e9ac75b31b1" target="_top" xlink:title="cancelWaitForEdge method cancels waiting for the edge. ">
<polygon fill="#ffffff" stroke="#000000" points="417.758,-102.5 417.758,-134.5 520.993,-134.5 520.993,-102.5 417.758,-102.5"/>
<text text-anchor="start" x="425.758" y="-121.5" font-family="Helvetica,sans-Serif" font-size="10.00" fill="#000000">LibBBB::IO::Input::</text>
<text text-anchor="middle" x="469.3755" y="-109.5" font-family="Helvetica,sans-Serif" font-size="10.00" fill="#000000">cancelWaitForEdge</text>
</a>
</g>
</g>
<!-- Node35&#45;&gt;Node36 -->
<g id="edge5" class="edge">
<title>Node35&#45;&gt;Node36</title>
<path fill="none" stroke="#191970" d="M390.9463,-118.5C399.7678,-118.5 408.797,-118.5 417.4437,-118.5"/>
<polygon fill="#191970" stroke="#191970" points="390.7212,-115.0001 380.7212,-118.5 390.7212,-122.0001 390.7212,-115.0001"/>
</g>
<!-- Node36&#45;&gt;Node33 -->
<g id="edge6" class="edge">
<title>Node36&#45;&gt;Node33</title>
<path fill="none" stroke="#191970" d="M528.1701,-137.8088C538.0049,-141.0387 548.1125,-144.3582 557.6598,-147.4936"/>
<polygon fill="#191970" stroke="#191970" points="529.0498,-134.4139 518.4569,-134.6189 526.8656,-141.0644 529.0498,-134.4139"/>
</g>
<!-- Node38 -->
<g id="node8" class="node">
<title>Node38</title>
<g id="a_node8"><a xlink:href="classLibBBB_1_1IO_1_1Output.html#a3620dfac4d3a9ee34c3a8e2ea39ae2dd" target="_top" xlink:title="toggleOutput method toggles the output every using the time arguement. ">
<polygon fill="#ffffff" stroke="#000000" points="418.8595,-51.5 418.8595,-83.5 519.8915,-83.5 519.8915,-51.5 418.8595,-51.5"/>
<text text-anchor="start" x="426.8595" y="-70.5" font-family="Helvetica,sans-Serif" font-size="10.00" fill="#000000">LibBBB::IO::Output</text>
<text text-anchor="middle" x="469.3755" y="-58.5" font-family="Helvetica,sans-Serif" font-size="10.00" fill="#000000">::toggleOutput</text>
</a>
</g>
</g>
<!-- Node37&#45;&gt;Node38 -->
<g id="edge9" class="edge">
<title>Node37&#45;&gt;Node38</title>
<path fill="none" stroke="#191970" d="M391.8939,-67.5C400.8526,-67.5 410.0031,-67.5 418.7302,-67.5"/>
<polygon fill="#191970" stroke="#191970" points="391.8935,-64.0001 381.8935,-67.5 391.8934,-71.0001 391.8935,-64.0001"/>
</g>
<!-- Node39 -->
<g id="node9" class="node">
<title>Node39</title>
<g id="a_node9"><a xlink:href="structLibBBB_1_1IO_1_1Output_1_1Setup.html#ac7d4ee82c7eabd07ba140ec061c28adc" target="_top" xlink:title="LibBBB::IO::Output\l::Setup::Setup">
<polygon fill="#ffffff" stroke="#000000" points="418.8595,-.5 418.8595,-32.5 519.8915,-32.5 519.8915,-.5 418.8595,-.5"/>
<text text-anchor="start" x="426.8595" y="-19.5" font-family="Helvetica,sans-Serif" font-size="10.00" fill="#000000">LibBBB::IO::Output</text>
<text text-anchor="middle" x="469.3755" y="-7.5" font-family="Helvetica,sans-Serif" font-size="10.00" fill="#000000">::Setup::Setup</text>
</a>
</g>
</g>
<!-- Node37&#45;&gt;Node39 -->
<g id="edge10" class="edge">
<title>Node37&#45;&gt;Node39</title>
<path fill="none" stroke="#191970" d="M384.7059,-47.7607C398.3597,-42.7196 412.8719,-37.3616 425.9535,-32.5317"/>
<polygon fill="#191970" stroke="#191970" points="383.1171,-44.6163 374.9483,-51.3633 385.5416,-51.183 383.1171,-44.6163"/>
</g>
<!-- Node40&#45;&gt;Node39 -->
<g id="edge12" class="edge">
<title>Node40&#45;&gt;Node39</title>
<path fill="none" stroke="#191970" d="M391.8939,-16.5C400.8526,-16.5 410.0031,-16.5 418.7302,-16.5"/>
<polygon fill="#191970" stroke="#191970" points="391.8935,-13.0001 381.8935,-16.5 391.8934,-20.0001 391.8935,-13.0001"/>
</g>
</g>
</svg>
