<?xml version="1.0" encoding="UTF-8" standalone="no"?>
<!DOCTYPE svg PUBLIC "-//W3C//DTD SVG 1.1//EN"
 "http://www.w3.org/Graphics/SVG/1.1/DTD/svg11.dtd">
<!-- Generated by graphviz version 2.40.1 (20161225.0304)
 -->
<!-- Title: LibBBB::IO::Input::waitForEdge Pages: 1 -->
<svg width="388pt" height="92pt"
 viewBox="0.00 0.00 387.54 92.00" xmlns="http://www.w3.org/2000/svg" xmlns:xlink="http://www.w3.org/1999/xlink">
<g id="graph0" class="graph" transform="scale(1 1) rotate(0) translate(4 88)">
<title>LibBBB::IO::Input::waitForEdge</title>
<polygon fill="#ffffff" stroke="transparent" points="-4,4 -4,-88 383.537,-88 383.537,4 -4,4"/>
<!-- Node36 -->
<g id="node1" class="node">
<title>Node36</title>
<polygon fill="#bfbfbf" stroke="#000000" points="0,-25.5 0,-57.5 98.811,-57.5 98.811,-25.5 0,-25.5"/>
<text text-anchor="start" x="8" y="-44.5" font-family="Helvetica,sans-Serif" font-size="10.00" fill="#000000">LibBBB::IO::Input::</text>
<text text-anchor="middle" x="49.4055" y="-32.5" font-family="Helvetica,sans-Serif" font-size="10.00" fill="#000000">waitForEdge</text>
</g>
<!-- Node37 -->
<g id="node2" class="node">
<title>Node37</title>
<g id="a_node2"><a xlink:href="classLibBBB_1_1IO_1_1IOBase.html#a71d8f1f57eb6de8ed0187eaad8902b1c" target="_top" xlink:title="path getter ">
<polygon fill="#ffffff" stroke="#000000" points="134.811,-51.5 134.811,-83.5 239.174,-83.5 239.174,-51.5 134.811,-51.5"/>
<text text-anchor="start" x="142.811" y="-70.5" font-family="Helvetica,sans-Serif" font-size="10.00" fill="#000000">LibBBB::IO::IOBase</text>
<text text-anchor="middle" x="186.9925" y="-58.5" font-family="Helvetica,sans-Serif" font-size="10.00" fill="#000000">::path</text>
</a>
</g>
</g>
<!-- Node36&#45;&gt;Node37 -->
<g id="edge1" class="edge">
<title>Node36&#45;&gt;Node37</title>
<path fill="none" stroke="#191970" d="M99.0776,-50.8866C107.3762,-52.4548 116.0781,-54.0992 124.6455,-55.7182"/>
<polygon fill="#191970" stroke="#191970" points="124.1328,-59.1832 134.6088,-57.601 125.4326,-52.3049 124.1328,-59.1832"/>
</g>
<!-- Node38 -->
<g id="node3" class="node">
<title>Node38</title>
<g id="a_node3"><a xlink:href="classLibBBB_1_1IO_1_1IOBase.html#a8ae8a79c81d61625f5b864abebe944a2" target="_top" xlink:title="getValue getter ">
<polygon fill="#ffffff" stroke="#000000" points="134.811,-.5 134.811,-32.5 239.174,-32.5 239.174,-.5 134.811,-.5"/>
<text text-anchor="start" x="142.811" y="-19.5" font-family="Helvetica,sans-Serif" font-size="10.00" fill="#000000">LibBBB::IO::IOBase</text>
<text text-anchor="middle" x="186.9925" y="-7.5" font-family="Helvetica,sans-Serif" font-size="10.00" fill="#000000">::getValue</text>
</a>
</g>
</g>
<!-- Node36&#45;&gt;Node38 -->
<g id="edge2" class="edge">
<title>Node36&#45;&gt;Node38</title>
<path fill="none" stroke="#191970" d="M99.0776,-32.4744C107.3762,-30.9665 116.0781,-29.3854 124.6455,-27.8287"/>
<polygon fill="#191970" stroke="#191970" points="125.3957,-31.2497 134.6088,-26.0183 124.1442,-24.3625 125.3957,-31.2497"/>
</g>
<!-- Node39 -->
<g id="node4" class="node">
<title>Node39</title>
<g id="a_node4"><a xlink:href="classLibBBB_1_1IO_1_1IOBase.html#aa317b2515288dbe3905b675a9033e2fa" target="_top" xlink:title="read function that reads the value of the given file filename ">
<polygon fill="#ffffff" stroke="#000000" points="275.174,-.5 275.174,-32.5 379.537,-32.5 379.537,-.5 275.174,-.5"/>
<text text-anchor="start" x="283.174" y="-19.5" font-family="Helvetica,sans-Serif" font-size="10.00" fill="#000000">LibBBB::IO::IOBase</text>
<text text-anchor="middle" x="327.3555" y="-7.5" font-family="Helvetica,sans-Serif" font-size="10.00" fill="#000000">::read</text>
</a>
</g>
</g>
<!-- Node38&#45;&gt;Node39 -->
<g id="edge3" class="edge">
<title>Node38&#45;&gt;Node39</title>
<path fill="none" stroke="#191970" d="M239.2585,-16.5C247.6618,-16.5 256.4324,-16.5 265.0429,-16.5"/>
<polygon fill="#191970" stroke="#191970" points="265.0459,-20.0001 275.0458,-16.5 265.0458,-13.0001 265.0459,-20.0001"/>
</g>
</g>
</svg>
