<?xml version="1.0" encoding="UTF-8" standalone="no"?>
<!DOCTYPE svg PUBLIC "-//W3C//DTD SVG 1.1//EN"
 "http://www.w3.org/Graphics/SVG/1.1/DTD/svg11.dtd">
<!-- Generated by graphviz version 2.40.1 (20161225.0304)
 -->
<!-- Title: Core::IO::MotorControl::MotorControl Pages: 1 -->
<svg width="277pt" height="41pt"
 viewBox="0.00 0.00 276.59 41.00" xmlns="http://www.w3.org/2000/svg" xmlns:xlink="http://www.w3.org/1999/xlink">
<g id="graph0" class="graph" transform="scale(1 1) rotate(0) translate(4 37)">
<title>Core::IO::MotorControl::MotorControl</title>
<polygon fill="#ffffff" stroke="transparent" points="-4,4 -4,-37 272.589,-37 272.589,4 -4,4"/>
<!-- Node0 -->
<g id="node1" class="node">
<title>Node0</title>
<polygon fill="#bfbfbf" stroke="#000000" points="0,-.5 0,-32.5 117.118,-32.5 117.118,-.5 0,-.5"/>
<text text-anchor="start" x="8" y="-19.5" font-family="Helvetica,sans-Serif" font-size="10.00" fill="#000000">Core::IO::MotorControl</text>
<text text-anchor="middle" x="58.559" y="-7.5" font-family="Helvetica,sans-Serif" font-size="10.00" fill="#000000">::MotorControl</text>
</g>
<!-- Node1 -->
<g id="node2" class="node">
<title>Node1</title>
<g id="a_node2"><a xlink:href="classCore_1_1ThreadHelper.html#a138066760eabf36c1681bbd177db0446" target="_top" xlink:title="startDetachedThread ">
<polygon fill="#ffffff" stroke="#000000" points="153.118,-.5 153.118,-32.5 268.589,-32.5 268.589,-.5 153.118,-.5"/>
<text text-anchor="start" x="161.118" y="-19.5" font-family="Helvetica,sans-Serif" font-size="10.00" fill="#000000">Core::ThreadHelper</text>
<text text-anchor="middle" x="210.8535" y="-7.5" font-family="Helvetica,sans-Serif" font-size="10.00" fill="#000000">::startDetachedThread</text>
</a>
</g>
</g>
<!-- Node0&#45;&gt;Node1 -->
<g id="edge1" class="edge">
<title>Node0&#45;&gt;Node1</title>
<path fill="none" stroke="#191970" d="M117.44,-16.5C125.7115,-16.5 134.27,-16.5 142.6964,-16.5"/>
<polygon fill="#191970" stroke="#191970" points="142.8813,-20.0001 152.8812,-16.5 142.8812,-13.0001 142.8813,-20.0001"/>
</g>
</g>
</svg>
