<?xml version="1.0" encoding="UTF-8" standalone="no"?>
<!DOCTYPE svg PUBLIC "-//W3C//DTD SVG 1.1//EN"
 "http://www.w3.org/Graphics/SVG/1.1/DTD/svg11.dtd">
<!-- Generated by graphviz version 2.40.1 (20161225.0304)
 -->
<!-- Title: LibBBB::IO::MotorControl::setDutyCycle Pages: 1 -->
<svg width="327pt" height="92pt"
 viewBox="0.00 0.00 327.16 92.00" xmlns="http://www.w3.org/2000/svg" xmlns:xlink="http://www.w3.org/1999/xlink">
<g id="graph0" class="graph" transform="scale(1 1) rotate(0) translate(4 88)">
<title>LibBBB::IO::MotorControl::setDutyCycle</title>
<polygon fill="#ffffff" stroke="transparent" points="-4,4 -4,-88 323.158,-88 323.158,4 -4,4"/>
<!-- Node31 -->
<g id="node1" class="node">
<title>Node31</title>
<polygon fill="#bfbfbf" stroke="#000000" points="0,-25.5 0,-57.5 128.796,-57.5 128.796,-25.5 0,-25.5"/>
<text text-anchor="start" x="8" y="-44.5" font-family="Helvetica,sans-Serif" font-size="10.00" fill="#000000">LibBBB::IO::MotorControl</text>
<text text-anchor="middle" x="64.398" y="-32.5" font-family="Helvetica,sans-Serif" font-size="10.00" fill="#000000">::setDutyCycle</text>
</g>
<!-- Node32 -->
<g id="node2" class="node">
<title>Node32</title>
<g id="a_node2"><a xlink:href="classLibBBB_1_1IO_1_1MotorControl.html#a2caa62735bf2f443e88a9095287cbad2" target="_top" xlink:title="setPulseWidth sets the pulse width of the signal ">
<polygon fill="#ffffff" stroke="#000000" points="177.579,-51.5 177.579,-83.5 306.375,-83.5 306.375,-51.5 177.579,-51.5"/>
<text text-anchor="start" x="185.579" y="-70.5" font-family="Helvetica,sans-Serif" font-size="10.00" fill="#000000">LibBBB::IO::MotorControl</text>
<text text-anchor="middle" x="241.977" y="-58.5" font-family="Helvetica,sans-Serif" font-size="10.00" fill="#000000">::setPulseWidth</text>
</a>
</g>
</g>
<!-- Node31&#45;&gt;Node32 -->
<g id="edge1" class="edge">
<title>Node31&#45;&gt;Node32</title>
<path fill="none" stroke="#191970" d="M129.0104,-50.9601C141.4522,-52.7818 154.5796,-54.7038 167.3095,-56.5676"/>
<polygon fill="#191970" stroke="#191970" points="167.0111,-60.0612 177.4127,-58.0469 168.0252,-53.135 167.0111,-60.0612"/>
</g>
<!-- Node33 -->
<g id="node3" class="node">
<title>Node33</title>
<g id="a_node3"><a xlink:href="classLibBBB_1_1Math_1_1LinearConverter.html#ae5647c399171683e3516211bd5e4da2c" target="_top" xlink:title="convertXtoY getter. Uses y = mx + b. ">
<polygon fill="#ffffff" stroke="#000000" points="164.796,-.5 164.796,-32.5 319.158,-32.5 319.158,-.5 164.796,-.5"/>
<text text-anchor="start" x="172.796" y="-19.5" font-family="Helvetica,sans-Serif" font-size="10.00" fill="#000000">LibBBB::Math::LinearConverter</text>
<text text-anchor="middle" x="241.977" y="-7.5" font-family="Helvetica,sans-Serif" font-size="10.00" fill="#000000">::convertXtoY</text>
</a>
</g>
</g>
<!-- Node31&#45;&gt;Node33 -->
<g id="edge2" class="edge">
<title>Node31&#45;&gt;Node33</title>
<path fill="none" stroke="#191970" d="M129.0104,-32.4037C137.3499,-31.2297 145.9973,-30.0122 154.6267,-28.7974"/>
<polygon fill="#191970" stroke="#191970" points="155.3145,-32.2352 164.7289,-27.3752 154.3386,-25.3035 155.3145,-32.2352"/>
</g>
</g>
</svg>
