<?xml version="1.0" encoding="UTF-8" standalone="no"?>
<!DOCTYPE svg PUBLIC "-//W3C//DTD SVG 1.1//EN"
 "http://www.w3.org/Graphics/SVG/1.1/DTD/svg11.dtd">
<!-- Generated by graphviz version 2.40.1 (20161225.0304)
 -->
<!-- Title: Core::IO::Input::waitForEdgeThreaded Pages: 1 -->
<svg width="423pt" height="55pt"
 viewBox="0.00 0.00 422.53 55.00" xmlns="http://www.w3.org/2000/svg" xmlns:xlink="http://www.w3.org/1999/xlink">
<g id="graph0" class="graph" transform="scale(1 1) rotate(0) translate(4 51)">
<title>Core::IO::Input::waitForEdgeThreaded</title>
<polygon fill="#ffffff" stroke="transparent" points="-4,4 -4,-51 418.532,-51 418.532,4 -4,4"/>
<!-- Node45 -->
<g id="node1" class="node">
<title>Node45</title>
<polygon fill="#bfbfbf" stroke="#000000" points="0,-.5 0,-32.5 119.906,-32.5 119.906,-.5 0,-.5"/>
<text text-anchor="start" x="8" y="-19.5" font-family="Helvetica,sans-Serif" font-size="10.00" fill="#000000">Core::IO::Input::waitFor</text>
<text text-anchor="middle" x="59.953" y="-7.5" font-family="Helvetica,sans-Serif" font-size="10.00" fill="#000000">EdgeThreaded</text>
</g>
<!-- Node46 -->
<g id="node2" class="node">
<title>Node46</title>
<g id="a_node2"><a xlink:href="classCore_1_1IO_1_1Input.html#ae490cffe2162d4538dd108b0bd1f3695" target="_top" xlink:title="Input constructs an input based on the given setup. The constructor will automatically export the pin...">
<polygon fill="#ffffff" stroke="#000000" points="155.906,-26.5 155.906,-46.5 265.274,-46.5 265.274,-26.5 155.906,-26.5"/>
<text text-anchor="middle" x="210.59" y="-33.5" font-family="Helvetica,sans-Serif" font-size="10.00" fill="#000000">Core::IO::Input::Input</text>
</a>
</g>
</g>
<!-- Node45&#45;&gt;Node46 -->
<g id="edge1" class="edge">
<title>Node45&#45;&gt;Node46</title>
<path fill="none" stroke="#191970" d="M129.9877,-25.7985C138.6223,-26.9449 147.35,-28.1037 155.7138,-29.2141"/>
<polygon fill="#191970" stroke="#191970" points="130.2953,-22.3087 119.9216,-24.462 129.3739,-29.2478 130.2953,-22.3087"/>
</g>
<!-- Node47 -->
<g id="node3" class="node">
<title>Node47</title>
<g id="a_node3"><a xlink:href="structCore_1_1IO_1_1Input_1_1Setup.html#a493b98ee230283215bd55b7ba739f60a" target="_top" xlink:title="Core::IO::Input::Setup\l::Setup">
<polygon fill="#ffffff" stroke="#000000" points="301.274,-.5 301.274,-32.5 414.532,-32.5 414.532,-.5 301.274,-.5"/>
<text text-anchor="start" x="309.274" y="-19.5" font-family="Helvetica,sans-Serif" font-size="10.00" fill="#000000">Core::IO::Input::Setup</text>
<text text-anchor="middle" x="357.903" y="-7.5" font-family="Helvetica,sans-Serif" font-size="10.00" fill="#000000">::Setup</text>
</a>
</g>
</g>
<!-- Node45&#45;&gt;Node47 -->
<g id="edge3" class="edge">
<title>Node45&#45;&gt;Node47</title>
<path fill="none" stroke="#191970" d="M130.4262,-16.5C182.5755,-16.5 252.6909,-16.5 301.2309,-16.5"/>
<polygon fill="#191970" stroke="#191970" points="130.2477,-13.0001 120.2476,-16.5 130.2476,-20.0001 130.2477,-13.0001"/>
</g>
<!-- Node46&#45;&gt;Node47 -->
<g id="edge2" class="edge">
<title>Node46&#45;&gt;Node47</title>
<path fill="none" stroke="#191970" d="M275.3755,-27.7044C283.923,-26.5439 292.6321,-25.3615 301.0336,-24.2209"/>
<polygon fill="#191970" stroke="#191970" points="274.8821,-24.2392 265.4439,-29.0527 275.8239,-31.1755 274.8821,-24.2392"/>
</g>
</g>
</svg>
