<?xml version="1.0" encoding="UTF-8" standalone="no"?>
<!DOCTYPE svg PUBLIC "-//W3C//DTD SVG 1.1//EN"
 "http://www.w3.org/Graphics/SVG/1.1/DTD/svg11.dtd">
<!-- Generated by graphviz version 2.40.1 (20161225.0304)
 -->
<!-- Title: LibBBB::IO::IOBase::write Pages: 1 -->
<svg width="538pt" height="290pt"
 viewBox="0.00 0.00 537.88 290.00" xmlns="http://www.w3.org/2000/svg" xmlns:xlink="http://www.w3.org/1999/xlink">
<g id="graph0" class="graph" transform="scale(1 1) rotate(0) translate(4 286)">
<title>LibBBB::IO::IOBase::write</title>
<polygon fill="#ffffff" stroke="transparent" points="-4,4 -4,-286 533.881,-286 533.881,4 -4,4"/>
<!-- Node51 -->
<g id="node1" class="node">
<title>Node51</title>
<polygon fill="#bfbfbf" stroke="#000000" points="0,-147.5 0,-179.5 104.363,-179.5 104.363,-147.5 0,-147.5"/>
<text text-anchor="start" x="8" y="-166.5" font-family="Helvetica,sans-Serif" font-size="10.00" fill="#000000">LibBBB::IO::IOBase</text>
<text text-anchor="middle" x="52.1815" y="-154.5" font-family="Helvetica,sans-Serif" font-size="10.00" fill="#000000">::write</text>
</g>
<!-- Node52 -->
<g id="node2" class="node">
<title>Node52</title>
<g id="a_node2"><a xlink:href="classLibBBB_1_1IO_1_1Input.html#a9144216b06e8bff7a46a6c9aa246ad5e" target="_top" xlink:title="setEdgeType sets the desired edge ">
<polygon fill="#ffffff" stroke="#000000" points="147.019,-198.5 147.019,-230.5 245.83,-230.5 245.83,-198.5 147.019,-198.5"/>
<text text-anchor="start" x="155.019" y="-217.5" font-family="Helvetica,sans-Serif" font-size="10.00" fill="#000000">LibBBB::IO::Input::</text>
<text text-anchor="middle" x="196.4245" y="-205.5" font-family="Helvetica,sans-Serif" font-size="10.00" fill="#000000">setEdgeType</text>
</a>
</g>
</g>
<!-- Node51&#45;&gt;Node52 -->
<g id="edge1" class="edge">
<title>Node51&#45;&gt;Node52</title>
<path fill="none" stroke="#191970" d="M107.5951,-183.0926C121.9734,-188.1763 137.2892,-193.5915 151.082,-198.4683"/>
<polygon fill="#191970" stroke="#191970" points="108.4157,-179.6704 97.8209,-179.6367 106.0822,-186.2701 108.4157,-179.6704"/>
</g>
<!-- Node55 -->
<g id="node5" class="node">
<title>Node55</title>
<g id="a_node5"><a xlink:href="classLibBBB_1_1IO_1_1IOBase.html#aeeec5f72e7e1e153866dca80f24e6405" target="_top" xlink:title="setDirection setter ">
<polygon fill="#ffffff" stroke="#000000" points="144.243,-147.5 144.243,-179.5 248.606,-179.5 248.606,-147.5 144.243,-147.5"/>
<text text-anchor="start" x="152.243" y="-166.5" font-family="Helvetica,sans-Serif" font-size="10.00" fill="#000000">LibBBB::IO::IOBase</text>
<text text-anchor="middle" x="196.4245" y="-154.5" font-family="Helvetica,sans-Serif" font-size="10.00" fill="#000000">::setDirection</text>
</a>
</g>
</g>
<!-- Node51&#45;&gt;Node55 -->
<g id="edge5" class="edge">
<title>Node51&#45;&gt;Node55</title>
<path fill="none" stroke="#191970" d="M114.7822,-163.5C124.6044,-163.5 134.6663,-163.5 144.222,-163.5"/>
<polygon fill="#191970" stroke="#191970" points="114.6646,-160.0001 104.6646,-163.5 114.6645,-167.0001 114.6646,-160.0001"/>
</g>
<!-- Node57 -->
<g id="node7" class="node">
<title>Node57</title>
<g id="a_node7"><a xlink:href="classLibBBB_1_1IO_1_1IOBase.html#aa98e79cb377720c663e79411a32a5678" target="_top" xlink:title="setActiveHighOrLow setter ">
<polygon fill="#ffffff" stroke="#000000" points="140.363,-249.5 140.363,-281.5 252.486,-281.5 252.486,-249.5 140.363,-249.5"/>
<text text-anchor="start" x="148.363" y="-268.5" font-family="Helvetica,sans-Serif" font-size="10.00" fill="#000000">LibBBB::IO::IOBase</text>
<text text-anchor="middle" x="196.4245" y="-256.5" font-family="Helvetica,sans-Serif" font-size="10.00" fill="#000000">::setActiveHighOrLow</text>
</a>
</g>
</g>
<!-- Node51&#45;&gt;Node57 -->
<g id="edge7" class="edge">
<title>Node51&#45;&gt;Node57</title>
<path fill="none" stroke="#191970" d="M74.8329,-186.6897C91.7959,-203.1682 116.1551,-225.0299 140.363,-240.5 145.3917,-243.7136 150.9029,-246.7175 156.445,-249.4497"/>
<polygon fill="#191970" stroke="#191970" points="77.1631,-184.0719 67.5866,-179.5396 72.2465,-189.0547 77.1631,-184.0719"/>
</g>
<!-- Node58 -->
<g id="node8" class="node">
<title>Node58</title>
<g id="a_node8"><a xlink:href="classLibBBB_1_1IO_1_1IOBase.html#aad2a83dce9ae4e90e01380324fd1a023" target="_top" xlink:title="write write function that writes a single string value to a file in the path provided ...">
<polygon fill="#ffffff" stroke="#000000" points="144.243,-96.5 144.243,-128.5 248.606,-128.5 248.606,-96.5 144.243,-96.5"/>
<text text-anchor="start" x="152.243" y="-115.5" font-family="Helvetica,sans-Serif" font-size="10.00" fill="#000000">LibBBB::IO::IOBase</text>
<text text-anchor="middle" x="196.4245" y="-103.5" font-family="Helvetica,sans-Serif" font-size="10.00" fill="#000000">::write</text>
</a>
</g>
</g>
<!-- Node51&#45;&gt;Node58 -->
<g id="edge9" class="edge">
<title>Node51&#45;&gt;Node58</title>
<path fill="none" stroke="#191970" d="M107.5951,-143.9074C121.9734,-138.8237 137.2892,-133.4085 151.082,-128.5317"/>
<polygon fill="#191970" stroke="#191970" points="106.0822,-140.7299 97.8209,-147.3633 108.4157,-147.3296 106.0822,-140.7299"/>
</g>
<!-- Node59 -->
<g id="node9" class="node">
<title>Node59</title>
<g id="a_node9"><a xlink:href="classLibBBB_1_1IO_1_1Output.html#a6ae67445b434b37d11e75cb0391e0b3f" target="_top" xlink:title="setValue setter ">
<polygon fill="#ffffff" stroke="#000000" points="145.9085,-45.5 145.9085,-77.5 246.9405,-77.5 246.9405,-45.5 145.9085,-45.5"/>
<text text-anchor="start" x="153.9085" y="-64.5" font-family="Helvetica,sans-Serif" font-size="10.00" fill="#000000">LibBBB::IO::Output</text>
<text text-anchor="middle" x="196.4245" y="-52.5" font-family="Helvetica,sans-Serif" font-size="10.00" fill="#000000">::setValue</text>
</a>
</g>
</g>
<!-- Node51&#45;&gt;Node59 -->
<g id="edge10" class="edge">
<title>Node51&#45;&gt;Node59</title>
<path fill="none" stroke="#191970" d="M75.2671,-140.4415C92.2739,-124.2745 116.5021,-102.8884 140.363,-87.5 145.8629,-83.953 151.9248,-80.6201 157.9687,-77.6008"/>
<polygon fill="#191970" stroke="#191970" points="72.7563,-138.0006 67.9886,-147.4621 77.6159,-143.0388 72.7563,-138.0006"/>
</g>
<!-- Node53 -->
<g id="node3" class="node">
<title>Node53</title>
<g id="a_node3"><a xlink:href="classLibBBB_1_1IO_1_1Input.html#a4e59f6e2c64f7a85adff569daf35b3d3" target="_top" xlink:title="Input constructs an input based on the given setup. The constructor will automatically export the pin...">
<polygon fill="#ffffff" stroke="#000000" points="291.262,-243.5 291.262,-275.5 390.073,-275.5 390.073,-243.5 291.262,-243.5"/>
<text text-anchor="start" x="299.262" y="-262.5" font-family="Helvetica,sans-Serif" font-size="10.00" fill="#000000">LibBBB::IO::Input::</text>
<text text-anchor="middle" x="340.6675" y="-250.5" font-family="Helvetica,sans-Serif" font-size="10.00" fill="#000000">Input</text>
</a>
</g>
</g>
<!-- Node52&#45;&gt;Node53 -->
<g id="edge2" class="edge">
<title>Node52&#45;&gt;Node53</title>
<path fill="none" stroke="#191970" d="M255.7495,-233.0078C267.4423,-236.6557 279.5987,-240.4482 290.9357,-243.985"/>
<polygon fill="#191970" stroke="#191970" points="256.6534,-229.6235 246.0648,-229.9864 254.5686,-236.3059 256.6534,-229.6235"/>
</g>
<!-- Node54 -->
<g id="node4" class="node">
<title>Node54</title>
<g id="a_node4"><a xlink:href="structLibBBB_1_1IO_1_1Input_1_1Setup.html#a1ad926b46c1818dd934b0b99ddb63386" target="_top" xlink:title="LibBBB::IO::Input::\lSetup::Setup">
<polygon fill="#ffffff" stroke="#000000" points="429.9595,-220.5 429.9595,-252.5 528.7705,-252.5 528.7705,-220.5 429.9595,-220.5"/>
<text text-anchor="start" x="437.9595" y="-239.5" font-family="Helvetica,sans-Serif" font-size="10.00" fill="#000000">LibBBB::IO::Input::</text>
<text text-anchor="middle" x="479.365" y="-227.5" font-family="Helvetica,sans-Serif" font-size="10.00" fill="#000000">Setup::Setup</text>
</a>
</g>
</g>
<!-- Node52&#45;&gt;Node54 -->
<g id="edge4" class="edge">
<title>Node52&#45;&gt;Node54</title>
<path fill="none" stroke="#191970" d="M256.0438,-219.1357C307.6459,-223.148 381.3955,-228.8824 429.8137,-232.6471"/>
<polygon fill="#191970" stroke="#191970" points="256.274,-215.6431 246.0327,-218.3573 255.7313,-222.6221 256.274,-215.6431"/>
</g>
<!-- Node53&#45;&gt;Node54 -->
<g id="edge3" class="edge">
<title>Node53&#45;&gt;Node54</title>
<path fill="none" stroke="#191970" d="M400.368,-249.6C410.104,-247.9854 420.0988,-246.328 429.5645,-244.7583"/>
<polygon fill="#191970" stroke="#191970" points="399.6414,-246.1726 390.3487,-251.2614 400.7866,-253.0783 399.6414,-246.1726"/>
</g>
<!-- Node56 -->
<g id="node6" class="node">
<title>Node56</title>
<g id="a_node6"><a xlink:href="classLibBBB_1_1IO_1_1IOBase.html#a12badcbbe5c1d4b1ff628550c3734b33" target="_top" xlink:title="IOBase creates an instance of the base io class. ">
<polygon fill="#ffffff" stroke="#000000" points="288.486,-147.5 288.486,-179.5 392.849,-179.5 392.849,-147.5 288.486,-147.5"/>
<text text-anchor="start" x="296.486" y="-166.5" font-family="Helvetica,sans-Serif" font-size="10.00" fill="#000000">LibBBB::IO::IOBase</text>
<text text-anchor="middle" x="340.6675" y="-154.5" font-family="Helvetica,sans-Serif" font-size="10.00" fill="#000000">::IOBase</text>
</a>
</g>
</g>
<!-- Node55&#45;&gt;Node56 -->
<g id="edge6" class="edge">
<title>Node55&#45;&gt;Node56</title>
<path fill="none" stroke="#191970" d="M259.0252,-163.5C268.8474,-163.5 278.9093,-163.5 288.465,-163.5"/>
<polygon fill="#191970" stroke="#191970" points="258.9076,-160.0001 248.9076,-163.5 258.9075,-167.0001 258.9076,-160.0001"/>
</g>
<!-- Node57&#45;&gt;Node53 -->
<g id="edge8" class="edge">
<title>Node57&#45;&gt;Node53</title>
<path fill="none" stroke="#191970" d="M262.806,-262.7388C272.2833,-262.3445 281.8936,-261.9448 290.9768,-261.567"/>
<polygon fill="#191970" stroke="#191970" points="262.4515,-259.2504 252.6056,-263.1631 262.7425,-266.2443 262.4515,-259.2504"/>
</g>
<!-- Node60 -->
<g id="node10" class="node">
<title>Node60</title>
<g id="a_node10"><a xlink:href="classLibBBB_1_1IO_1_1Output.html#a70c6eac9a46013605717fef0ba6c2010" target="_top" xlink:title="toggleOutput method toggles the output once ">
<polygon fill="#ffffff" stroke="#000000" points="290.1515,-90.5 290.1515,-122.5 391.1835,-122.5 391.1835,-90.5 290.1515,-90.5"/>
<text text-anchor="start" x="298.1515" y="-109.5" font-family="Helvetica,sans-Serif" font-size="10.00" fill="#000000">LibBBB::IO::Output</text>
<text text-anchor="middle" x="340.6675" y="-97.5" font-family="Helvetica,sans-Serif" font-size="10.00" fill="#000000">::toggleOutput</text>
</a>
</g>
</g>
<!-- Node59&#45;&gt;Node60 -->
<g id="edge11" class="edge">
<title>Node59&#45;&gt;Node60</title>
<path fill="none" stroke="#191970" d="M257.1328,-80.4394C268.0028,-83.8305 279.2277,-87.3324 289.7859,-90.6263"/>
<polygon fill="#191970" stroke="#191970" points="257.8678,-77.0024 247.2792,-77.3653 255.783,-83.6847 257.8678,-77.0024"/>
</g>
<!-- Node62 -->
<g id="node12" class="node">
<title>Node62</title>
<g id="a_node12"><a xlink:href="structLibBBB_1_1IO_1_1Output_1_1Setup.html#ac7d4ee82c7eabd07ba140ec061c28adc" target="_top" xlink:title="LibBBB::IO::Output\l::Setup::Setup">
<polygon fill="#ffffff" stroke="#000000" points="428.849,-42.5 428.849,-74.5 529.881,-74.5 529.881,-42.5 428.849,-42.5"/>
<text text-anchor="start" x="436.849" y="-61.5" font-family="Helvetica,sans-Serif" font-size="10.00" fill="#000000">LibBBB::IO::Output</text>
<text text-anchor="middle" x="479.365" y="-49.5" font-family="Helvetica,sans-Serif" font-size="10.00" fill="#000000">::Setup::Setup</text>
</a>
</g>
</g>
<!-- Node59&#45;&gt;Node62 -->
<g id="edge16" class="edge">
<title>Node59&#45;&gt;Node62</title>
<path fill="none" stroke="#191970" d="M257.2663,-60.8549C308.4236,-60.3125 380.6972,-59.5462 428.7427,-59.0367"/>
<polygon fill="#191970" stroke="#191970" points="256.9709,-57.3577 247.0086,-60.9637 257.0452,-64.3573 256.9709,-57.3577"/>
</g>
<!-- Node63 -->
<g id="node13" class="node">
<title>Node63</title>
<g id="a_node13"><a xlink:href="classLibBBB_1_1IO_1_1Output.html#a4fd232f60d3148259f6d5d91e842950a" target="_top" xlink:title="cancelToggle cancels toggling ">
<polygon fill="#ffffff" stroke="#000000" points="290.1515,-.5 290.1515,-32.5 391.1835,-32.5 391.1835,-.5 290.1515,-.5"/>
<text text-anchor="start" x="298.1515" y="-19.5" font-family="Helvetica,sans-Serif" font-size="10.00" fill="#000000">LibBBB::IO::Output</text>
<text text-anchor="middle" x="340.6675" y="-7.5" font-family="Helvetica,sans-Serif" font-size="10.00" fill="#000000">::cancelToggle</text>
</a>
</g>
</g>
<!-- Node59&#45;&gt;Node63 -->
<g id="edge14" class="edge">
<title>Node59&#45;&gt;Node63</title>
<path fill="none" stroke="#191970" d="M257.1328,-42.5606C268.0028,-39.1695 279.2277,-35.6676 289.7859,-32.3737"/>
<polygon fill="#191970" stroke="#191970" points="255.783,-39.3153 247.2792,-45.6347 257.8678,-45.9976 255.783,-39.3153"/>
</g>
<!-- Node61 -->
<g id="node11" class="node">
<title>Node61</title>
<g id="a_node11"><a xlink:href="classLibBBB_1_1IO_1_1Output.html#a3620dfac4d3a9ee34c3a8e2ea39ae2dd" target="_top" xlink:title="toggleOutput method toggles the output every using the time arguement. ">
<polygon fill="#ffffff" stroke="#000000" points="428.849,-93.5 428.849,-125.5 529.881,-125.5 529.881,-93.5 428.849,-93.5"/>
<text text-anchor="start" x="436.849" y="-112.5" font-family="Helvetica,sans-Serif" font-size="10.00" fill="#000000">LibBBB::IO::Output</text>
<text text-anchor="middle" x="479.365" y="-100.5" font-family="Helvetica,sans-Serif" font-size="10.00" fill="#000000">::toggleOutput</text>
</a>
</g>
</g>
<!-- Node60&#45;&gt;Node61 -->
<g id="edge12" class="edge">
<title>Node60&#45;&gt;Node61</title>
<path fill="none" stroke="#191970" d="M401.567,-107.8172C410.5623,-108.0118 419.7501,-108.2105 428.5129,-108.4001"/>
<polygon fill="#191970" stroke="#191970" points="401.5991,-104.3172 391.5258,-107.6001 401.4477,-111.3156 401.5991,-104.3172"/>
</g>
<!-- Node60&#45;&gt;Node62 -->
<g id="edge13" class="edge">
<title>Node60&#45;&gt;Node62</title>
<path fill="none" stroke="#191970" d="M397.0305,-86.9941C408.8732,-82.8956 421.2399,-78.6158 432.6817,-74.656"/>
<polygon fill="#191970" stroke="#191970" points="395.543,-83.8051 387.2376,-90.3832 397.8324,-90.4202 395.543,-83.8051"/>
</g>
<!-- Node63&#45;&gt;Node62 -->
<g id="edge15" class="edge">
<title>Node63&#45;&gt;Node62</title>
<path fill="none" stroke="#191970" d="M401.2769,-34.8536C410.3647,-37.6055 419.6559,-40.4191 428.5129,-43.1011"/>
<polygon fill="#191970" stroke="#191970" points="402.111,-31.4493 391.5258,-31.9008 400.0822,-38.1488 402.111,-31.4493"/>
</g>
</g>
</svg>
