<?xml version="1.0" encoding="UTF-8" standalone="no"?>
<!DOCTYPE svg PUBLIC "-//W3C//DTD SVG 1.1//EN"
 "http://www.w3.org/Graphics/SVG/1.1/DTD/svg11.dtd">
<!-- Generated by graphviz version 2.40.1 (20161225.0304)
 -->
<!-- Title: Core::IO::Input::waitForEdge Pages: 1 -->
<svg width="479pt" height="68pt"
 viewBox="0.00 0.00 479.21 68.00" xmlns="http://www.w3.org/2000/svg" xmlns:xlink="http://www.w3.org/1999/xlink">
<g id="graph0" class="graph" transform="scale(1 1) rotate(0) translate(4 64)">
<title>Core::IO::Input::waitForEdge</title>
<polygon fill="#ffffff" stroke="transparent" points="-4,4 -4,-64 475.206,-64 475.206,4 -4,4"/>
<!-- Node36 -->
<g id="node1" class="node">
<title>Node36</title>
<polygon fill="#bfbfbf" stroke="#000000" points="0,-19.5 0,-39.5 143.252,-39.5 143.252,-19.5 0,-19.5"/>
<text text-anchor="middle" x="71.626" y="-26.5" font-family="Helvetica,sans-Serif" font-size="10.00" fill="#000000">Core::IO::Input::waitForEdge</text>
</g>
<!-- Node37 -->
<g id="node2" class="node">
<title>Node37</title>
<g id="a_node2"><a xlink:href="classCore_1_1IO_1_1IOBase.html#adb7dec70c1c39b19d2166c8fdea6b1f9" target="_top" xlink:title="path getter ">
<polygon fill="#ffffff" stroke="#000000" points="189.255,-39.5 189.255,-59.5 306.954,-59.5 306.954,-39.5 189.255,-39.5"/>
<text text-anchor="middle" x="248.1045" y="-46.5" font-family="Helvetica,sans-Serif" font-size="10.00" fill="#000000">Core::IO::IOBase::path</text>
</a>
</g>
</g>
<!-- Node36&#45;&gt;Node37 -->
<g id="edge1" class="edge">
<title>Node36&#45;&gt;Node37</title>
<path fill="none" stroke="#191970" d="M143.4066,-37.6348C155.1419,-38.9647 167.28,-40.3403 178.9503,-41.6629"/>
<polygon fill="#191970" stroke="#191970" points="178.7331,-45.1606 189.0637,-42.809 179.5214,-38.2051 178.7331,-45.1606"/>
</g>
<!-- Node38 -->
<g id="node3" class="node">
<title>Node38</title>
<g id="a_node3"><a xlink:href="classCore_1_1IO_1_1IOBase.html#a5516fd4c88b5d0557f19c0c77add9dbf" target="_top" xlink:title="getValue getter ">
<polygon fill="#ffffff" stroke="#000000" points="179.252,-.5 179.252,-20.5 316.957,-20.5 316.957,-.5 179.252,-.5"/>
<text text-anchor="middle" x="248.1045" y="-7.5" font-family="Helvetica,sans-Serif" font-size="10.00" fill="#000000">Core::IO::IOBase::getValue</text>
</a>
</g>
</g>
<!-- Node36&#45;&gt;Node38 -->
<g id="edge2" class="edge">
<title>Node36&#45;&gt;Node38</title>
<path fill="none" stroke="#191970" d="M143.4066,-21.772C151.9116,-20.8563 160.6281,-19.9179 169.2247,-18.9923"/>
<polygon fill="#191970" stroke="#191970" points="169.6737,-22.4643 179.2415,-17.9139 168.9243,-15.5045 169.6737,-22.4643"/>
</g>
<!-- Node39 -->
<g id="node4" class="node">
<title>Node39</title>
<g id="a_node4"><a xlink:href="classCore_1_1IO_1_1IOBase.html#ab27139c5454e00719c3b5d8d17d6a8e8" target="_top" xlink:title="read function that reads the value of the given file filename ">
<polygon fill="#ffffff" stroke="#000000" points="352.957,-.5 352.957,-20.5 471.206,-20.5 471.206,-.5 352.957,-.5"/>
<text text-anchor="middle" x="412.0815" y="-7.5" font-family="Helvetica,sans-Serif" font-size="10.00" fill="#000000">Core::IO::IOBase::read</text>
</a>
</g>
</g>
<!-- Node38&#45;&gt;Node39 -->
<g id="edge3" class="edge">
<title>Node38&#45;&gt;Node39</title>
<path fill="none" stroke="#191970" d="M317.1703,-10.5C325.5708,-10.5 334.157,-10.5 342.564,-10.5"/>
<polygon fill="#191970" stroke="#191970" points="342.7055,-14.0001 352.7055,-10.5 342.7054,-7.0001 342.7055,-14.0001"/>
</g>
</g>
</svg>
