<?xml version="1.0" encoding="UTF-8" standalone="no"?>
<!DOCTYPE svg PUBLIC "-//W3C//DTD SVG 1.1//EN"
 "http://www.w3.org/Graphics/SVG/1.1/DTD/svg11.dtd">
<!-- Generated by graphviz version 2.40.1 (20161225.0304)
 -->
<!-- Title: LibBBB::IO::UserLED::state Pages: 1 -->
<svg width="562pt" height="102pt"
 viewBox="0.00 0.00 562.29 102.00" xmlns="http://www.w3.org/2000/svg" xmlns:xlink="http://www.w3.org/1999/xlink">
<g id="graph0" class="graph" transform="scale(1 1) rotate(0) translate(4 98)">
<title>LibBBB::IO::UserLED::state</title>
<polygon fill="#ffffff" stroke="transparent" points="-4,4 -4,-98 558.288,-98 558.288,4 -4,4"/>
<!-- Node20 -->
<g id="node1" class="node">
<title>Node20</title>
<polygon fill="#bfbfbf" stroke="#000000" points="0,-.5 0,-32.5 111.572,-32.5 111.572,-.5 0,-.5"/>
<text text-anchor="start" x="8" y="-19.5" font-family="Helvetica,sans-Serif" font-size="10.00" fill="#000000">LibBBB::IO::UserLED</text>
<text text-anchor="middle" x="55.786" y="-7.5" font-family="Helvetica,sans-Serif" font-size="10.00" fill="#000000">::state</text>
</g>
<!-- Node21 -->
<g id="node2" class="node">
<title>Node21</title>
<g id="a_node2"><a xlink:href="classLibBBB_1_1IO_1_1UserLED.html#a5d6714d1ddc854308c1d4cc5448ded07" target="_top" xlink:title="setState method sets the state of the LED ">
<polygon fill="#ffffff" stroke="#000000" points="147.572,-23.5 147.572,-55.5 259.144,-55.5 259.144,-23.5 147.572,-23.5"/>
<text text-anchor="start" x="155.572" y="-42.5" font-family="Helvetica,sans-Serif" font-size="10.00" fill="#000000">LibBBB::IO::UserLED</text>
<text text-anchor="middle" x="203.358" y="-30.5" font-family="Helvetica,sans-Serif" font-size="10.00" fill="#000000">::setState</text>
</a>
</g>
</g>
<!-- Node20&#45;&gt;Node21 -->
<g id="edge1" class="edge">
<title>Node20&#45;&gt;Node21</title>
<path fill="none" stroke="#191970" d="M121.6187,-26.7604C130.2552,-28.1065 139.0386,-29.4754 147.4885,-30.7924"/>
<polygon fill="#191970" stroke="#191970" points="121.9964,-23.2771 111.5766,-25.1953 120.9183,-30.1936 121.9964,-23.2771"/>
</g>
<!-- Node23 -->
<g id="node4" class="node">
<title>Node23</title>
<g id="a_node4"><a xlink:href="structLibBBB_1_1IO_1_1UserLED_1_1Setup.html#a25c259e98aa65d6594d0031eb0463b01" target="_top" xlink:title="LibBBB::IO::UserLED\l::Setup::Setup">
<polygon fill="#ffffff" stroke="#000000" points="442.716,-16.5 442.716,-48.5 554.288,-48.5 554.288,-16.5 442.716,-16.5"/>
<text text-anchor="start" x="450.716" y="-35.5" font-family="Helvetica,sans-Serif" font-size="10.00" fill="#000000">LibBBB::IO::UserLED</text>
<text text-anchor="middle" x="498.502" y="-23.5" font-family="Helvetica,sans-Serif" font-size="10.00" fill="#000000">::Setup::Setup</text>
</a>
</g>
</g>
<!-- Node20&#45;&gt;Node23 -->
<g id="edge5" class="edge">
<title>Node20&#45;&gt;Node23</title>
<path fill="none" stroke="#191970" d="M121.7245,-14.0855C130.4164,-13.8433 139.2077,-13.6367 147.572,-13.5 197.1529,-12.6899 209.5953,-11.5365 259.144,-13.5 322.0404,-15.9924 394.0151,-22.1549 442.4759,-26.7909"/>
<polygon fill="#191970" stroke="#191970" points="121.4905,-10.5908 111.5981,-14.3842 121.6969,-17.5878 121.4905,-10.5908"/>
</g>
<!-- Node22 -->
<g id="node3" class="node">
<title>Node22</title>
<g id="a_node3"><a xlink:href="classLibBBB_1_1IO_1_1UserLED.html#a3ae6a5944f06980dee85eb4504ec9eb0" target="_top" xlink:title="changeBlinkTime method changes the time of the blink ">
<polygon fill="#ffffff" stroke="#000000" points="295.144,-61.5 295.144,-93.5 406.716,-93.5 406.716,-61.5 295.144,-61.5"/>
<text text-anchor="start" x="303.144" y="-80.5" font-family="Helvetica,sans-Serif" font-size="10.00" fill="#000000">LibBBB::IO::UserLED</text>
<text text-anchor="middle" x="350.93" y="-68.5" font-family="Helvetica,sans-Serif" font-size="10.00" fill="#000000">::changeBlinkTime</text>
</a>
</g>
</g>
<!-- Node21&#45;&gt;Node22 -->
<g id="edge2" class="edge">
<title>Node21&#45;&gt;Node22</title>
<path fill="none" stroke="#191970" d="M268.9091,-56.3795C277.6362,-58.6267 286.5188,-60.914 295.0605,-63.1135"/>
<polygon fill="#191970" stroke="#191970" points="269.7055,-52.9705 259.1486,-53.8662 267.9599,-59.7493 269.7055,-52.9705"/>
</g>
<!-- Node21&#45;&gt;Node23 -->
<g id="edge4" class="edge">
<title>Node21&#45;&gt;Node23</title>
<path fill="none" stroke="#191970" d="M269.3629,-37.9345C321.4623,-36.6989 393.3377,-34.9942 442.6186,-33.8254"/>
<polygon fill="#191970" stroke="#191970" points="269.1335,-34.4389 259.2193,-38.1751 269.2995,-41.4369 269.1335,-34.4389"/>
</g>
<!-- Node22&#45;&gt;Node23 -->
<g id="edge3" class="edge">
<title>Node22&#45;&gt;Node23</title>
<path fill="none" stroke="#191970" d="M413.5894,-58.3929C424.3892,-55.0997 435.5145,-51.7071 446.011,-48.5064"/>
<polygon fill="#191970" stroke="#191970" points="412.3343,-55.1164 403.7901,-61.3811 414.3761,-61.812 412.3343,-55.1164"/>
</g>
</g>
</svg>
