<?xml version="1.0" encoding="UTF-8" standalone="no"?>
<!DOCTYPE svg PUBLIC "-//W3C//DTD SVG 1.1//EN"
 "http://www.w3.org/Graphics/SVG/1.1/DTD/svg11.dtd">
<!-- Generated by graphviz version 2.40.1 (20161225.0304)
 -->
<!-- Title: Core::IO::Output::toggleOutput Pages: 1 -->
<svg width="459pt" height="68pt"
 viewBox="0.00 0.00 459.20 68.00" xmlns="http://www.w3.org/2000/svg" xmlns:xlink="http://www.w3.org/1999/xlink">
<g id="graph0" class="graph" transform="scale(1 1) rotate(0) translate(4 64)">
<title>Core::IO::Output::toggleOutput</title>
<polygon fill="#ffffff" stroke="transparent" points="-4,4 -4,-64 455.199,-64 455.199,4 -4,4"/>
<!-- Node27 -->
<g id="node1" class="node">
<title>Node27</title>
<polygon fill="#bfbfbf" stroke="#000000" points="0,-13.5 0,-45.5 122.146,-45.5 122.146,-13.5 0,-13.5"/>
<text text-anchor="start" x="8" y="-32.5" font-family="Helvetica,sans-Serif" font-size="10.00" fill="#000000">Core::IO::Output::toggle</text>
<text text-anchor="middle" x="61.073" y="-20.5" font-family="Helvetica,sans-Serif" font-size="10.00" fill="#000000">Output</text>
</g>
<!-- Node28 -->
<g id="node2" class="node">
<title>Node28</title>
<g id="a_node2"><a xlink:href="classCore_1_1IO_1_1IOBase.html#a5516fd4c88b5d0557f19c0c77add9dbf" target="_top" xlink:title="getValue getter ">
<polygon fill="#ffffff" stroke="#000000" points="158.146,-39.5 158.146,-59.5 295.851,-59.5 295.851,-39.5 158.146,-39.5"/>
<text text-anchor="middle" x="226.9985" y="-46.5" font-family="Helvetica,sans-Serif" font-size="10.00" fill="#000000">Core::IO::IOBase::getValue</text>
</a>
</g>
</g>
<!-- Node27&#45;&gt;Node28 -->
<g id="edge1" class="edge">
<title>Node27&#45;&gt;Node28</title>
<path fill="none" stroke="#191970" d="M122.3861,-36.8904C130.7465,-37.8982 139.4223,-38.9439 148.0403,-39.9827"/>
<polygon fill="#191970" stroke="#191970" points="147.7612,-43.4743 158.1082,-41.1962 148.599,-36.5246 147.7612,-43.4743"/>
</g>
<!-- Node30 -->
<g id="node4" class="node">
<title>Node30</title>
<g id="a_node4"><a xlink:href="classCore_1_1IO_1_1Output.html#a07bdc8e3bbaedf9113bd56fe50c85131" target="_top" xlink:title="setValue setter ">
<polygon fill="#ffffff" stroke="#000000" points="160.091,-.5 160.091,-20.5 293.906,-20.5 293.906,-.5 160.091,-.5"/>
<text text-anchor="middle" x="226.9985" y="-7.5" font-family="Helvetica,sans-Serif" font-size="10.00" fill="#000000">Core::IO::Output::setValue</text>
</a>
</g>
</g>
<!-- Node27&#45;&gt;Node30 -->
<g id="edge3" class="edge">
<title>Node27&#45;&gt;Node30</title>
<path fill="none" stroke="#191970" d="M122.3861,-22.4791C131.4028,-21.4466 140.7864,-20.3721 150.0687,-19.3092"/>
<polygon fill="#191970" stroke="#191970" points="150.5422,-22.7779 160.0791,-18.1629 149.7458,-15.8234 150.5422,-22.7779"/>
</g>
<!-- Node29 -->
<g id="node3" class="node">
<title>Node29</title>
<g id="a_node3"><a xlink:href="classCore_1_1IO_1_1IOBase.html#ab27139c5454e00719c3b5d8d17d6a8e8" target="_top" xlink:title="read function that reads the value of the given file filename ">
<polygon fill="#ffffff" stroke="#000000" points="332.4005,-39.5 332.4005,-59.5 450.6495,-59.5 450.6495,-39.5 332.4005,-39.5"/>
<text text-anchor="middle" x="391.525" y="-46.5" font-family="Helvetica,sans-Serif" font-size="10.00" fill="#000000">Core::IO::IOBase::read</text>
</a>
</g>
</g>
<!-- Node28&#45;&gt;Node29 -->
<g id="edge2" class="edge">
<title>Node28&#45;&gt;Node29</title>
<path fill="none" stroke="#191970" d="M296.2957,-49.5C304.7868,-49.5 313.467,-49.5 321.962,-49.5"/>
<polygon fill="#191970" stroke="#191970" points="322.2071,-53.0001 332.2071,-49.5 322.207,-46.0001 322.2071,-53.0001"/>
</g>
<!-- Node31 -->
<g id="node5" class="node">
<title>Node31</title>
<g id="a_node5"><a xlink:href="classCore_1_1IO_1_1IOBase.html#a6a095d6e076e588f343984044a3bb084" target="_top" xlink:title="write write function that writes a single string value to a file in the path provided ...">
<polygon fill="#ffffff" stroke="#000000" points="331.851,-.5 331.851,-20.5 451.199,-20.5 451.199,-.5 331.851,-.5"/>
<text text-anchor="middle" x="391.525" y="-7.5" font-family="Helvetica,sans-Serif" font-size="10.00" fill="#000000">Core::IO::IOBase::write</text>
</a>
</g>
</g>
<!-- Node30&#45;&gt;Node31 -->
<g id="edge4" class="edge">
<title>Node30&#45;&gt;Node31</title>
<path fill="none" stroke="#191970" d="M293.9177,-10.5C303.0318,-10.5 312.4063,-10.5 321.5723,-10.5"/>
<polygon fill="#191970" stroke="#191970" points="321.8073,-14.0001 331.8073,-10.5 321.8072,-7.0001 321.8073,-14.0001"/>
</g>
</g>
</svg>
