<?xml version="1.0" encoding="UTF-8" standalone="no"?>
<!DOCTYPE svg PUBLIC "-//W3C//DTD SVG 1.1//EN"
 "http://www.w3.org/Graphics/SVG/1.1/DTD/svg11.dtd">
<!-- Generated by graphviz version 2.40.1 (20161225.0304)
 -->
<!-- Title: LibBBB::IO::UserLED::changeBlinkTime Pages: 1 -->
<svg width="267pt" height="41pt"
 viewBox="0.00 0.00 267.14 41.00" xmlns="http://www.w3.org/2000/svg" xmlns:xlink="http://www.w3.org/1999/xlink">
<g id="graph0" class="graph" transform="scale(1 1) rotate(0) translate(4 37)">
<title>LibBBB::IO::UserLED::changeBlinkTime</title>
<polygon fill="#ffffff" stroke="transparent" points="-4,4 -4,-37 263.144,-37 263.144,4 -4,4"/>
<!-- Node11 -->
<g id="node1" class="node">
<title>Node11</title>
<polygon fill="#bfbfbf" stroke="#000000" points="0,-.5 0,-32.5 111.572,-32.5 111.572,-.5 0,-.5"/>
<text text-anchor="start" x="8" y="-19.5" font-family="Helvetica,sans-Serif" font-size="10.00" fill="#000000">LibBBB::IO::UserLED</text>
<text text-anchor="middle" x="55.786" y="-7.5" font-family="Helvetica,sans-Serif" font-size="10.00" fill="#000000">::changeBlinkTime</text>
</g>
<!-- Node12 -->
<g id="node2" class="node">
<title>Node12</title>
<g id="a_node2"><a xlink:href="structLibBBB_1_1IO_1_1UserLED_1_1Setup.html#a25c259e98aa65d6594d0031eb0463b01" target="_top" xlink:title="LibBBB::IO::UserLED\l::Setup::Setup">
<polygon fill="#ffffff" stroke="#000000" points="147.572,-.5 147.572,-32.5 259.144,-32.5 259.144,-.5 147.572,-.5"/>
<text text-anchor="start" x="155.572" y="-19.5" font-family="Helvetica,sans-Serif" font-size="10.00" fill="#000000">LibBBB::IO::UserLED</text>
<text text-anchor="middle" x="203.358" y="-7.5" font-family="Helvetica,sans-Serif" font-size="10.00" fill="#000000">::Setup::Setup</text>
</a>
</g>
</g>
<!-- Node11&#45;&gt;Node12 -->
<g id="edge1" class="edge">
<title>Node11&#45;&gt;Node12</title>
<path fill="none" stroke="#191970" d="M121.6187,-16.5C130.2552,-16.5 139.0386,-16.5 147.4885,-16.5"/>
<polygon fill="#191970" stroke="#191970" points="121.5767,-13.0001 111.5766,-16.5 121.5766,-20.0001 121.5767,-13.0001"/>
</g>
</g>
</svg>
