<?xml version="1.0" encoding="UTF-8" standalone="no"?>
<!DOCTYPE svg PUBLIC "-//W3C//DTD SVG 1.1//EN"
 "http://www.w3.org/Graphics/SVG/1.1/DTD/svg11.dtd">
<!-- Generated by graphviz version 2.40.1 (20161225.0304)
 -->
<!-- Title: LibBBB::IO::MotorControl::dutyCycle Pages: 1 -->
<svg width="327pt" height="143pt"
 viewBox="0.00 0.00 327.16 143.00" xmlns="http://www.w3.org/2000/svg" xmlns:xlink="http://www.w3.org/1999/xlink">
<g id="graph0" class="graph" transform="scale(1 1) rotate(0) translate(4 139)">
<title>LibBBB::IO::MotorControl::dutyCycle</title>
<polygon fill="#ffffff" stroke="transparent" points="-4,4 -4,-139 323.158,-139 323.158,4 -4,4"/>
<!-- Node7 -->
<g id="node1" class="node">
<title>Node7</title>
<polygon fill="#bfbfbf" stroke="#000000" points="0,-51.5 0,-83.5 128.796,-83.5 128.796,-51.5 0,-51.5"/>
<text text-anchor="start" x="8" y="-70.5" font-family="Helvetica,sans-Serif" font-size="10.00" fill="#000000">LibBBB::IO::MotorControl</text>
<text text-anchor="middle" x="64.398" y="-58.5" font-family="Helvetica,sans-Serif" font-size="10.00" fill="#000000">::dutyCycle</text>
</g>
<!-- Node8 -->
<g id="node2" class="node">
<title>Node8</title>
<g id="a_node2"><a xlink:href="classLibBBB_1_1Math_1_1LinearConverter.html#aeb7daf591e9ff862110daf5abe8f8c65" target="_top" xlink:title="convertYtoX getter. Uses x = ( y &#45; b ) / m. ">
<polygon fill="#ffffff" stroke="#000000" points="164.796,-102.5 164.796,-134.5 319.158,-134.5 319.158,-102.5 164.796,-102.5"/>
<text text-anchor="start" x="172.796" y="-121.5" font-family="Helvetica,sans-Serif" font-size="10.00" fill="#000000">LibBBB::Math::LinearConverter</text>
<text text-anchor="middle" x="241.977" y="-109.5" font-family="Helvetica,sans-Serif" font-size="10.00" fill="#000000">::convertYtoX</text>
</a>
</g>
</g>
<!-- Node7&#45;&gt;Node8 -->
<g id="edge1" class="edge">
<title>Node7&#45;&gt;Node8</title>
<path fill="none" stroke="#191970" d="M120.5851,-83.6367C138.3282,-88.7325 158.0884,-94.4075 176.4261,-99.674"/>
<polygon fill="#191970" stroke="#191970" points="175.5778,-103.0718 186.1554,-102.4683 177.5101,-96.3438 175.5778,-103.0718"/>
</g>
<!-- Node9 -->
<g id="node3" class="node">
<title>Node9</title>
<g id="a_node3"><a xlink:href="classLibBBB_1_1IO_1_1MotorControl.html#a55e9586e72ae2fc6ab868f8cfa6429a0" target="_top" xlink:title="pulseWidth getter ">
<polygon fill="#ffffff" stroke="#000000" points="177.579,-51.5 177.579,-83.5 306.375,-83.5 306.375,-51.5 177.579,-51.5"/>
<text text-anchor="start" x="185.579" y="-70.5" font-family="Helvetica,sans-Serif" font-size="10.00" fill="#000000">LibBBB::IO::MotorControl</text>
<text text-anchor="middle" x="241.977" y="-58.5" font-family="Helvetica,sans-Serif" font-size="10.00" fill="#000000">::pulseWidth</text>
</a>
</g>
</g>
<!-- Node7&#45;&gt;Node9 -->
<g id="edge2" class="edge">
<title>Node7&#45;&gt;Node9</title>
<path fill="none" stroke="#191970" d="M129.0104,-67.5C141.4522,-67.5 154.5796,-67.5 167.3095,-67.5"/>
<polygon fill="#191970" stroke="#191970" points="167.4127,-71.0001 177.4127,-67.5 167.4126,-64.0001 167.4127,-71.0001"/>
</g>
<!-- Node10 -->
<g id="node4" class="node">
<title>Node10</title>
<g id="a_node4"><a xlink:href="classLibBBB_1_1IO_1_1MotorControl.html#abcbc2269fc2105710a221cc3fa6a8d92" target="_top" xlink:title="frequency getter ">
<polygon fill="#ffffff" stroke="#000000" points="177.579,-.5 177.579,-32.5 306.375,-32.5 306.375,-.5 177.579,-.5"/>
<text text-anchor="start" x="185.579" y="-19.5" font-family="Helvetica,sans-Serif" font-size="10.00" fill="#000000">LibBBB::IO::MotorControl</text>
<text text-anchor="middle" x="241.977" y="-7.5" font-family="Helvetica,sans-Serif" font-size="10.00" fill="#000000">::frequency</text>
</a>
</g>
</g>
<!-- Node7&#45;&gt;Node10 -->
<g id="edge3" class="edge">
<title>Node7&#45;&gt;Node10</title>
<path fill="none" stroke="#191970" d="M120.5851,-51.3633C138.3282,-46.2675 158.0884,-40.5925 176.4261,-35.326"/>
<polygon fill="#191970" stroke="#191970" points="177.5101,-38.6562 186.1554,-32.5317 175.5778,-31.9282 177.5101,-38.6562"/>
</g>
</g>
</svg>
