<?xml version="1.0" encoding="UTF-8" standalone="no"?>
<!DOCTYPE svg PUBLIC "-//W3C//DTD SVG 1.1//EN"
 "http://www.w3.org/Graphics/SVG/1.1/DTD/svg11.dtd">
<!-- Generated by graphviz version 2.40.1 (20161225.0304)
 -->
<!-- Title: Core::IO::IOBase::IOBase Pages: 1 -->
<svg width="482pt" height="29pt"
 viewBox="0.00 0.00 481.96 29.00" xmlns="http://www.w3.org/2000/svg" xmlns:xlink="http://www.w3.org/1999/xlink">
<g id="graph0" class="graph" transform="scale(1 1) rotate(0) translate(4 25)">
<title>Core::IO::IOBase::IOBase</title>
<polygon fill="#ffffff" stroke="transparent" points="-4,4 -4,-25 477.959,-25 477.959,4 -4,4"/>
<!-- Node2 -->
<g id="node1" class="node">
<title>Node2</title>
<polygon fill="#bfbfbf" stroke="#000000" points="0,-.5 0,-20.5 131.588,-20.5 131.588,-.5 0,-.5"/>
<text text-anchor="middle" x="65.794" y="-7.5" font-family="Helvetica,sans-Serif" font-size="10.00" fill="#000000">Core::IO::IOBase::IOBase</text>
</g>
<!-- Node3 -->
<g id="node2" class="node">
<title>Node3</title>
<g id="a_node2"><a xlink:href="classCore_1_1IO_1_1IOBase.html#a397e988e7b9af03de48e116a9e44c1b1" target="_top" xlink:title="setDirection setter ">
<polygon fill="#ffffff" stroke="#000000" points="167.588,-.5 167.588,-20.5 318.611,-20.5 318.611,-.5 167.588,-.5"/>
<text text-anchor="middle" x="243.0995" y="-7.5" font-family="Helvetica,sans-Serif" font-size="10.00" fill="#000000">Core::IO::IOBase::setDirection</text>
</a>
</g>
</g>
<!-- Node2&#45;&gt;Node3 -->
<g id="edge1" class="edge">
<title>Node2&#45;&gt;Node3</title>
<path fill="none" stroke="#191970" d="M131.816,-10.5C140.1665,-10.5 148.804,-10.5 157.4044,-10.5"/>
<polygon fill="#191970" stroke="#191970" points="157.4641,-14.0001 167.4641,-10.5 157.464,-7.0001 157.4641,-14.0001"/>
</g>
<!-- Node4 -->
<g id="node3" class="node">
<title>Node4</title>
<g id="a_node3"><a xlink:href="classCore_1_1IO_1_1IOBase.html#a6a095d6e076e588f343984044a3bb084" target="_top" xlink:title="write write function that writes a single string value to a file in the path provided ...">
<polygon fill="#ffffff" stroke="#000000" points="354.611,-.5 354.611,-20.5 473.959,-20.5 473.959,-.5 354.611,-.5"/>
<text text-anchor="middle" x="414.285" y="-7.5" font-family="Helvetica,sans-Serif" font-size="10.00" fill="#000000">Core::IO::IOBase::write</text>
</a>
</g>
</g>
<!-- Node3&#45;&gt;Node4 -->
<g id="edge2" class="edge">
<title>Node3&#45;&gt;Node4</title>
<path fill="none" stroke="#191970" d="M318.6823,-10.5C327.2149,-10.5 335.8821,-10.5 344.3383,-10.5"/>
<polygon fill="#191970" stroke="#191970" points="344.5253,-14.0001 354.5253,-10.5 344.5253,-7.0001 344.5253,-14.0001"/>
</g>
</g>
</svg>
