<?xml version="1.0" encoding="UTF-8" standalone="no"?>
<!DOCTYPE svg PUBLIC "-//W3C//DTD SVG 1.1//EN"
 "http://www.w3.org/Graphics/SVG/1.1/DTD/svg11.dtd">
<!-- Generated by graphviz version 2.40.1 (20161225.0304)
 -->
<!-- Title: LibBBB::ThreadHelper::startDetachedThread Pages: 1 -->
<svg width="584pt" height="296pt"
 viewBox="0.00 0.00 583.96 296.00" xmlns="http://www.w3.org/2000/svg" xmlns:xlink="http://www.w3.org/1999/xlink">
<g id="graph0" class="graph" transform="scale(1 1) rotate(0) translate(4 292)">
<title>LibBBB::ThreadHelper::startDetachedThread</title>
<polygon fill="#ffffff" stroke="transparent" points="-4,4 -4,-292 579.96,-292 579.96,4 -4,4"/>
<!-- Node1 -->
<g id="node1" class="node">
<title>Node1</title>
<polygon fill="#bfbfbf" stroke="#000000" points="0,-127.5 0,-159.5 116.02,-159.5 116.02,-127.5 0,-127.5"/>
<text text-anchor="start" x="8" y="-146.5" font-family="Helvetica,sans-Serif" font-size="10.00" fill="#000000">LibBBB::ThreadHelper</text>
<text text-anchor="middle" x="58.01" y="-134.5" font-family="Helvetica,sans-Serif" font-size="10.00" fill="#000000">::startDetachedThread</text>
</g>
<!-- Node2 -->
<g id="node2" class="node">
<title>Node2</title>
<g id="a_node2"><a xlink:href="classLibBBB_1_1Bluetooth_1_1Manager.html#a45351ad3dd38356327e9b4785874fdff" target="_top" xlink:title="Base constructor. ">
<polygon fill="#ffffff" stroke="#000000" points="165.0675,-255.5 165.0675,-287.5 267.7685,-287.5 267.7685,-255.5 165.0675,-255.5"/>
<text text-anchor="start" x="173.0675" y="-274.5" font-family="Helvetica,sans-Serif" font-size="10.00" fill="#000000">LibBBB::Bluetooth::</text>
<text text-anchor="middle" x="216.418" y="-262.5" font-family="Helvetica,sans-Serif" font-size="10.00" fill="#000000">Manager::Manager</text>
</a>
</g>
</g>
<!-- Node1&#45;&gt;Node2 -->
<g id="edge1" class="edge">
<title>Node1&#45;&gt;Node2</title>
<path fill="none" stroke="#191970" d="M74.9722,-167.793C92.1078,-190.7837 120.4957,-224.9029 152.02,-246.5 156.868,-249.8213 162.2195,-252.7872 167.704,-255.4118"/>
<polygon fill="#191970" stroke="#191970" points="77.6961,-165.5883 68.9726,-159.5758 72.0426,-169.7161 77.6961,-165.5883"/>
</g>
<!-- Node3 -->
<g id="node3" class="node">
<title>Node3</title>
<g id="a_node3"><a xlink:href="classLibBBB_1_1Bluetooth_1_1Manager.html#ab5be022ea6825ad678443bfba58294fb" target="_top" xlink:title="LibBBB::Bluetooth::\lManager::sendData">
<polygon fill="#ffffff" stroke="#000000" points="164.516,-204.5 164.516,-236.5 268.32,-236.5 268.32,-204.5 164.516,-204.5"/>
<text text-anchor="start" x="172.516" y="-223.5" font-family="Helvetica,sans-Serif" font-size="10.00" fill="#000000">LibBBB::Bluetooth::</text>
<text text-anchor="middle" x="216.418" y="-211.5" font-family="Helvetica,sans-Serif" font-size="10.00" fill="#000000">Manager::sendData</text>
</a>
</g>
</g>
<!-- Node1&#45;&gt;Node3 -->
<g id="edge2" class="edge">
<title>Node1&#45;&gt;Node3</title>
<path fill="none" stroke="#191970" d="M93.3497,-164.5301C110.7324,-174.4895 132.1684,-186.2082 152.02,-195.5 158.6459,-198.6013 165.7705,-201.6442 172.78,-204.4802"/>
<polygon fill="#191970" stroke="#191970" points="95.0679,-161.4807 84.659,-159.5045 91.5637,-167.5404 95.0679,-161.4807"/>
</g>
<!-- Node4 -->
<g id="node4" class="node">
<title>Node4</title>
<g id="a_node4"><a xlink:href="classLibBBB_1_1Bluetooth_1_1Manager.html#abeb866a806df04176dc152b157907fe9" target="_top" xlink:title="LibBBB::Bluetooth::\lManager::receiveData">
<polygon fill="#ffffff" stroke="#000000" points="159.242,-153.5 159.242,-185.5 273.594,-185.5 273.594,-153.5 159.242,-153.5"/>
<text text-anchor="start" x="167.242" y="-172.5" font-family="Helvetica,sans-Serif" font-size="10.00" fill="#000000">LibBBB::Bluetooth::</text>
<text text-anchor="middle" x="216.418" y="-160.5" font-family="Helvetica,sans-Serif" font-size="10.00" fill="#000000">Manager::receiveData</text>
</a>
</g>
</g>
<!-- Node1&#45;&gt;Node4 -->
<g id="edge3" class="edge">
<title>Node1&#45;&gt;Node4</title>
<path fill="none" stroke="#191970" d="M126.0998,-154.6758C137.1098,-156.4829 148.4121,-158.338 159.1329,-160.0976"/>
<polygon fill="#191970" stroke="#191970" points="126.5307,-151.1998 116.0958,-153.0338 125.3969,-158.1073 126.5307,-151.1998"/>
</g>
<!-- Node5 -->
<g id="node5" class="node">
<title>Node5</title>
<g id="a_node5"><a xlink:href="classLibBBB_1_1IO_1_1Input.html#a3a448ebc4e13f3813b6b80566af3fe79" target="_top" xlink:title="waitForEdgeThreaded does the same thing as waitForEdge(), but does so in a threaded manner...">
<polygon fill="#ffffff" stroke="#000000" points="158.9625,-102.5 158.9625,-134.5 273.8735,-134.5 273.8735,-102.5 158.9625,-102.5"/>
<text text-anchor="start" x="166.9625" y="-121.5" font-family="Helvetica,sans-Serif" font-size="10.00" fill="#000000">LibBBB::IO::Input::</text>
<text text-anchor="middle" x="216.418" y="-109.5" font-family="Helvetica,sans-Serif" font-size="10.00" fill="#000000">waitForEdgeThreaded</text>
</a>
</g>
</g>
<!-- Node1&#45;&gt;Node5 -->
<g id="edge4" class="edge">
<title>Node1&#45;&gt;Node5</title>
<path fill="none" stroke="#191970" d="M126.0362,-132.7641C136.9758,-131.0376 148.2058,-129.2653 158.8685,-127.5825"/>
<polygon fill="#191970" stroke="#191970" points="125.4279,-129.3167 116.0958,-134.3329 126.5192,-136.2311 125.4279,-129.3167"/>
</g>
<!-- Node8 -->
<g id="node8" class="node">
<title>Node8</title>
<g id="a_node8"><a xlink:href="classLibBBB_1_1IO_1_1MotorControl.html#a55cb5ace57f63ba73e679b5f79c3459a" target="_top" xlink:title="MotorControl ServoControl constructor creates the class, and spawns the frequency control thread...">
<polygon fill="#ffffff" stroke="#000000" points="152.02,-51.5 152.02,-83.5 280.816,-83.5 280.816,-51.5 152.02,-51.5"/>
<text text-anchor="start" x="160.02" y="-70.5" font-family="Helvetica,sans-Serif" font-size="10.00" fill="#000000">LibBBB::IO::MotorControl</text>
<text text-anchor="middle" x="216.418" y="-58.5" font-family="Helvetica,sans-Serif" font-size="10.00" fill="#000000">::MotorControl</text>
</a>
</g>
</g>
<!-- Node1&#45;&gt;Node8 -->
<g id="edge8" class="edge">
<title>Node1&#45;&gt;Node8</title>
<path fill="none" stroke="#191970" d="M95.489,-122.4037C112.5291,-113.1152 133.0769,-102.3318 152.02,-93.5 159.3416,-90.0865 167.2418,-86.6788 174.9163,-83.5077"/>
<polygon fill="#191970" stroke="#191970" points="93.495,-119.5057 86.4157,-127.3883 96.8654,-125.6409 93.495,-119.5057"/>
</g>
<!-- Node9 -->
<g id="node9" class="node">
<title>Node9</title>
<g id="a_node9"><a xlink:href="classLibBBB_1_1IO_1_1UserLED.html#a5d6714d1ddc854308c1d4cc5448ded07" target="_top" xlink:title="setState method sets the state of the LED ">
<polygon fill="#ffffff" stroke="#000000" points="160.632,-.5 160.632,-32.5 272.204,-32.5 272.204,-.5 160.632,-.5"/>
<text text-anchor="start" x="168.632" y="-19.5" font-family="Helvetica,sans-Serif" font-size="10.00" fill="#000000">LibBBB::IO::UserLED</text>
<text text-anchor="middle" x="216.418" y="-7.5" font-family="Helvetica,sans-Serif" font-size="10.00" fill="#000000">::setState</text>
</a>
</g>
</g>
<!-- Node1&#45;&gt;Node9 -->
<g id="edge9" class="edge">
<title>Node1&#45;&gt;Node9</title>
<path fill="none" stroke="#191970" d="M75.3132,-119.0667C92.515,-96.3109 120.7866,-62.7864 152.02,-41.5 156.8761,-38.1904 162.2325,-35.2319 167.7198,-32.6113"/>
<polygon fill="#191970" stroke="#191970" points="72.4189,-117.0939 69.2793,-127.2128 78.0439,-121.2603 72.4189,-117.0939"/>
</g>
<!-- Node6 -->
<g id="node6" class="node">
<title>Node6</title>
<g id="a_node6"><a xlink:href="classLibBBB_1_1IO_1_1Input.html#a4e59f6e2c64f7a85adff569daf35b3d3" target="_top" xlink:title="Input constructs an input based on the given setup. The constructor will automatically export the pin...">
<polygon fill="#ffffff" stroke="#000000" points="323.1965,-122.5 323.1965,-154.5 422.0075,-154.5 422.0075,-122.5 323.1965,-122.5"/>
<text text-anchor="start" x="331.1965" y="-141.5" font-family="Helvetica,sans-Serif" font-size="10.00" fill="#000000">LibBBB::IO::Input::</text>
<text text-anchor="middle" x="372.602" y="-129.5" font-family="Helvetica,sans-Serif" font-size="10.00" fill="#000000">Input</text>
</a>
</g>
</g>
<!-- Node5&#45;&gt;Node6 -->
<g id="edge5" class="edge">
<title>Node5&#45;&gt;Node6</title>
<path fill="none" stroke="#191970" d="M284.0559,-127.1613C297.1689,-128.8405 310.6824,-130.5709 323.0813,-132.1587"/>
<polygon fill="#191970" stroke="#191970" points="284.495,-123.689 274.1314,-125.8904 283.6058,-130.6323 284.495,-123.689"/>
</g>
<!-- Node7 -->
<g id="node7" class="node">
<title>Node7</title>
<g id="a_node7"><a xlink:href="structLibBBB_1_1IO_1_1Input_1_1Setup.html#a1ad926b46c1818dd934b0b99ddb63386" target="_top" xlink:title="LibBBB::IO::Input::\lSetup::Setup">
<polygon fill="#ffffff" stroke="#000000" points="470.7685,-89.5 470.7685,-121.5 569.5795,-121.5 569.5795,-89.5 470.7685,-89.5"/>
<text text-anchor="start" x="478.7685" y="-108.5" font-family="Helvetica,sans-Serif" font-size="10.00" fill="#000000">LibBBB::IO::Input::</text>
<text text-anchor="middle" x="520.174" y="-96.5" font-family="Helvetica,sans-Serif" font-size="10.00" fill="#000000">Setup::Setup</text>
</a>
</g>
</g>
<!-- Node5&#45;&gt;Node7 -->
<g id="edge7" class="edge">
<title>Node5&#45;&gt;Node7</title>
<path fill="none" stroke="#191970" d="M284.3273,-115.0216C295.1922,-114.4929 306.3124,-113.9681 316.816,-113.5 369.2328,-111.1638 429.2659,-108.846 470.4416,-107.3114"/>
<polygon fill="#191970" stroke="#191970" points="283.8334,-111.5415 274.0172,-115.528 284.1769,-118.5331 283.8334,-111.5415"/>
</g>
<!-- Node6&#45;&gt;Node7 -->
<g id="edge6" class="edge">
<title>Node6&#45;&gt;Node7</title>
<path fill="none" stroke="#191970" d="M432.2483,-125.1619C445.0334,-122.3029 458.407,-119.3123 470.7549,-116.5511"/>
<polygon fill="#191970" stroke="#191970" points="431.147,-121.8217 422.1519,-127.4197 432.6747,-128.6529 431.147,-121.8217"/>
</g>
<!-- Node10 -->
<g id="node10" class="node">
<title>Node10</title>
<g id="a_node10"><a xlink:href="classLibBBB_1_1IO_1_1UserLED.html#a3ae6a5944f06980dee85eb4504ec9eb0" target="_top" xlink:title="changeBlinkTime method changes the time of the blink ">
<polygon fill="#ffffff" stroke="#000000" points="316.816,-29.5 316.816,-61.5 428.388,-61.5 428.388,-29.5 316.816,-29.5"/>
<text text-anchor="start" x="324.816" y="-48.5" font-family="Helvetica,sans-Serif" font-size="10.00" fill="#000000">LibBBB::IO::UserLED</text>
<text text-anchor="middle" x="372.602" y="-36.5" font-family="Helvetica,sans-Serif" font-size="10.00" fill="#000000">::changeBlinkTime</text>
</a>
</g>
</g>
<!-- Node9&#45;&gt;Node10 -->
<g id="edge10" class="edge">
<title>Node9&#45;&gt;Node10</title>
<path fill="none" stroke="#191970" d="M282.3232,-28.7372C293.7919,-30.8667 305.6201,-33.0629 316.7854,-35.1361"/>
<polygon fill="#191970" stroke="#191970" points="282.8338,-25.2722 272.3629,-26.8878 281.5558,-32.1546 282.8338,-25.2722"/>
</g>
<!-- Node11 -->
<g id="node11" class="node">
<title>Node11</title>
<g id="a_node11"><a xlink:href="structLibBBB_1_1IO_1_1UserLED_1_1Setup.html#a25c259e98aa65d6594d0031eb0463b01" target="_top" xlink:title="LibBBB::IO::UserLED\l::Setup::Setup">
<polygon fill="#ffffff" stroke="#000000" points="464.388,-17.5 464.388,-49.5 575.96,-49.5 575.96,-17.5 464.388,-17.5"/>
<text text-anchor="start" x="472.388" y="-36.5" font-family="Helvetica,sans-Serif" font-size="10.00" fill="#000000">LibBBB::IO::UserLED</text>
<text text-anchor="middle" x="520.174" y="-24.5" font-family="Helvetica,sans-Serif" font-size="10.00" fill="#000000">::Setup::Setup</text>
</a>
</g>
</g>
<!-- Node9&#45;&gt;Node11 -->
<g id="edge12" class="edge">
<title>Node9&#45;&gt;Node11</title>
<path fill="none" stroke="#191970" d="M282.3827,-15.1101C324.2723,-14.8017 379.5947,-15.4528 428.388,-19.5 439.9542,-20.4594 452.2749,-21.9865 464.0107,-23.6862"/>
<polygon fill="#191970" stroke="#191970" points="282.2728,-11.6109 272.3061,-15.2046 282.3385,-18.6106 282.2728,-11.6109"/>
</g>
<!-- Node10&#45;&gt;Node11 -->
<g id="edge11" class="edge">
<title>Node10&#45;&gt;Node11</title>
<path fill="none" stroke="#191970" d="M438.4347,-40.1467C447.0712,-39.4444 455.8546,-38.7302 464.3045,-38.0431"/>
<polygon fill="#191970" stroke="#191970" points="438.076,-36.6643 428.3926,-40.9633 438.6434,-43.6412 438.076,-36.6643"/>
</g>
</g>
</svg>
