<?xml version="1.0" encoding="UTF-8" standalone="no"?>
<!DOCTYPE svg PUBLIC "-//W3C//DTD SVG 1.1//EN"
 "http://www.w3.org/Graphics/SVG/1.1/DTD/svg11.dtd">
<!-- Generated by graphviz version 2.40.1 (20161225.0304)
 -->
<!-- Title: LibBBB::IO::IOBase::path Pages: 1 -->
<svg width="523pt" height="134pt"
 viewBox="0.00 0.00 523.44 134.00" xmlns="http://www.w3.org/2000/svg" xmlns:xlink="http://www.w3.org/1999/xlink">
<g id="graph0" class="graph" transform="scale(1 1) rotate(0) translate(4 130)">
<title>LibBBB::IO::IOBase::path</title>
<polygon fill="#ffffff" stroke="transparent" points="-4,4 -4,-130 519.441,-130 519.441,4 -4,4"/>
<!-- Node24 -->
<g id="node1" class="node">
<title>Node24</title>
<polygon fill="#bfbfbf" stroke="#000000" points="0,-25.5 0,-57.5 104.363,-57.5 104.363,-25.5 0,-25.5"/>
<text text-anchor="start" x="8" y="-44.5" font-family="Helvetica,sans-Serif" font-size="10.00" fill="#000000">LibBBB::IO::IOBase</text>
<text text-anchor="middle" x="52.1815" y="-32.5" font-family="Helvetica,sans-Serif" font-size="10.00" fill="#000000">::path</text>
</g>
<!-- Node25 -->
<g id="node2" class="node">
<title>Node25</title>
<g id="a_node2"><a xlink:href="classLibBBB_1_1IO_1_1Input.html#a0934c43a3f6be5e62dfc733552e5074d" target="_top" xlink:title="waitForEdge method is a blocking wait for edge. Therefore, the callee will halt its thread until this...">
<polygon fill="#ffffff" stroke="#000000" points="141.4735,-51.5 141.4735,-83.5 240.2845,-83.5 240.2845,-51.5 141.4735,-51.5"/>
<text text-anchor="start" x="149.4735" y="-70.5" font-family="Helvetica,sans-Serif" font-size="10.00" fill="#000000">LibBBB::IO::Input::</text>
<text text-anchor="middle" x="190.879" y="-58.5" font-family="Helvetica,sans-Serif" font-size="10.00" fill="#000000">waitForEdge</text>
</a>
</g>
</g>
<!-- Node24&#45;&gt;Node25 -->
<g id="edge1" class="edge">
<title>Node24&#45;&gt;Node25</title>
<path fill="none" stroke="#191970" d="M114.5627,-53.1939C123.4579,-54.8614 132.5075,-56.5578 141.1182,-58.1719"/>
<polygon fill="#191970" stroke="#191970" points="115.0908,-49.732 104.6171,-51.3295 113.801,-56.6121 115.0908,-49.732"/>
</g>
<!-- Node28 -->
<g id="node5" class="node">
<title>Node28</title>
<g id="a_node5"><a xlink:href="classLibBBB_1_1IO_1_1Output.html#a4fd232f60d3148259f6d5d91e842950a" target="_top" xlink:title="cancelToggle cancels toggling ">
<polygon fill="#ffffff" stroke="#000000" points="140.363,-.5 140.363,-32.5 241.395,-32.5 241.395,-.5 140.363,-.5"/>
<text text-anchor="start" x="148.363" y="-19.5" font-family="Helvetica,sans-Serif" font-size="10.00" fill="#000000">LibBBB::IO::Output</text>
<text text-anchor="middle" x="190.879" y="-7.5" font-family="Helvetica,sans-Serif" font-size="10.00" fill="#000000">::cancelToggle</text>
</a>
</g>
</g>
<!-- Node24&#45;&gt;Node28 -->
<g id="edge5" class="edge">
<title>Node24&#45;&gt;Node28</title>
<path fill="none" stroke="#191970" d="M114.5848,-30.2519C123.1589,-28.7064 131.8761,-27.1352 140.205,-25.6339"/>
<polygon fill="#191970" stroke="#191970" points="113.8376,-26.8301 104.6171,-32.0486 115.0794,-33.7191 113.8376,-26.8301"/>
</g>
<!-- Node26 -->
<g id="node3" class="node">
<title>Node26</title>
<g id="a_node3"><a xlink:href="classLibBBB_1_1IO_1_1Input.html#a463bb83321475919ec672e9ac75b31b1" target="_top" xlink:title="cancelWaitForEdge method cancels waiting for the edge. ">
<polygon fill="#ffffff" stroke="#000000" points="277.395,-93.5 277.395,-125.5 380.63,-125.5 380.63,-93.5 277.395,-93.5"/>
<text text-anchor="start" x="285.395" y="-112.5" font-family="Helvetica,sans-Serif" font-size="10.00" fill="#000000">LibBBB::IO::Input::</text>
<text text-anchor="middle" x="329.0125" y="-100.5" font-family="Helvetica,sans-Serif" font-size="10.00" fill="#000000">cancelWaitForEdge</text>
</a>
</g>
</g>
<!-- Node25&#45;&gt;Node26 -->
<g id="edge2" class="edge">
<title>Node25&#45;&gt;Node26</title>
<path fill="none" stroke="#191970" d="M250.0082,-85.4785C259.0121,-88.2161 268.246,-91.0237 277.0807,-93.71"/>
<polygon fill="#191970" stroke="#191970" points="250.9439,-82.1048 240.3582,-82.5443 248.9075,-88.8021 250.9439,-82.1048"/>
</g>
<!-- Node27 -->
<g id="node4" class="node">
<title>Node27</title>
<g id="a_node4"><a xlink:href="structLibBBB_1_1IO_1_1Input_1_1Setup.html#a1ad926b46c1818dd934b0b99ddb63386" target="_top" xlink:title="LibBBB::IO::Input::\lSetup::Setup">
<polygon fill="#ffffff" stroke="#000000" points="416.63,-70.5 416.63,-102.5 515.441,-102.5 515.441,-70.5 416.63,-70.5"/>
<text text-anchor="start" x="424.63" y="-89.5" font-family="Helvetica,sans-Serif" font-size="10.00" fill="#000000">LibBBB::IO::Input::</text>
<text text-anchor="middle" x="466.0355" y="-77.5" font-family="Helvetica,sans-Serif" font-size="10.00" fill="#000000">Setup::Setup</text>
</a>
</g>
</g>
<!-- Node25&#45;&gt;Node27 -->
<g id="edge4" class="edge">
<title>Node25&#45;&gt;Node27</title>
<path fill="none" stroke="#191970" d="M250.6507,-71.6273C300.241,-75.0516 369.9245,-79.8634 416.4594,-83.0767"/>
<polygon fill="#191970" stroke="#191970" points="250.6066,-68.116 240.3893,-70.9188 250.1244,-75.0994 250.6066,-68.116"/>
</g>
<!-- Node26&#45;&gt;Node27 -->
<g id="edge3" class="edge">
<title>Node26&#45;&gt;Node27</title>
<path fill="none" stroke="#191970" d="M390.7933,-99.1298C399.3768,-97.689 408.1026,-96.2243 416.4248,-94.8274"/>
<polygon fill="#191970" stroke="#191970" points="390.0976,-95.6975 380.815,-100.8047 391.2565,-102.6009 390.0976,-95.6975"/>
</g>
<!-- Node29 -->
<g id="node6" class="node">
<title>Node29</title>
<g id="a_node6"><a xlink:href="structLibBBB_1_1IO_1_1Output_1_1Setup.html#ac7d4ee82c7eabd07ba140ec061c28adc" target="_top" xlink:title="LibBBB::IO::Output\l::Setup::Setup">
<polygon fill="#ffffff" stroke="#000000" points="278.4965,-.5 278.4965,-32.5 379.5285,-32.5 379.5285,-.5 278.4965,-.5"/>
<text text-anchor="start" x="286.4965" y="-19.5" font-family="Helvetica,sans-Serif" font-size="10.00" fill="#000000">LibBBB::IO::Output</text>
<text text-anchor="middle" x="329.0125" y="-7.5" font-family="Helvetica,sans-Serif" font-size="10.00" fill="#000000">::Setup::Setup</text>
</a>
</g>
</g>
<!-- Node28&#45;&gt;Node29 -->
<g id="edge6" class="edge">
<title>Node28&#45;&gt;Node29</title>
<path fill="none" stroke="#191970" d="M251.5309,-16.5C260.4896,-16.5 269.6401,-16.5 278.3672,-16.5"/>
<polygon fill="#191970" stroke="#191970" points="251.5305,-13.0001 241.5305,-16.5 251.5304,-20.0001 251.5305,-13.0001"/>
</g>
</g>
</svg>
