<?xml version="1.0" encoding="UTF-8" standalone="no"?>
<!DOCTYPE svg PUBLIC "-//W3C//DTD SVG 1.1//EN"
 "http://www.w3.org/Graphics/SVG/1.1/DTD/svg11.dtd">
<!-- Generated by graphviz version 2.40.1 (20161225.0304)
 -->
<!-- Title: LibBBB::IO::IOBase::writeWithPath Pages: 1 -->
<svg width="253pt" height="41pt"
 viewBox="0.00 0.00 252.73 41.00" xmlns="http://www.w3.org/2000/svg" xmlns:xlink="http://www.w3.org/1999/xlink">
<g id="graph0" class="graph" transform="scale(1 1) rotate(0) translate(4 37)">
<title>LibBBB::IO::IOBase::writeWithPath</title>
<polygon fill="#ffffff" stroke="transparent" points="-4,4 -4,-37 248.726,-37 248.726,4 -4,4"/>
<!-- Node68 -->
<g id="node1" class="node">
<title>Node68</title>
<polygon fill="#bfbfbf" stroke="#000000" points="0,-.5 0,-32.5 104.363,-32.5 104.363,-.5 0,-.5"/>
<text text-anchor="start" x="8" y="-19.5" font-family="Helvetica,sans-Serif" font-size="10.00" fill="#000000">LibBBB::IO::IOBase</text>
<text text-anchor="middle" x="52.1815" y="-7.5" font-family="Helvetica,sans-Serif" font-size="10.00" fill="#000000">::writeWithPath</text>
</g>
<!-- Node69 -->
<g id="node2" class="node">
<title>Node69</title>
<g id="a_node2"><a xlink:href="classLibBBB_1_1IO_1_1IOBase.html#a9483039e72f2934b472100027d57e680" target="_top" xlink:title="getNumber getter ">
<polygon fill="#ffffff" stroke="#000000" points="140.363,-.5 140.363,-32.5 244.726,-32.5 244.726,-.5 140.363,-.5"/>
<text text-anchor="start" x="148.363" y="-19.5" font-family="Helvetica,sans-Serif" font-size="10.00" fill="#000000">LibBBB::IO::IOBase</text>
<text text-anchor="middle" x="192.5445" y="-7.5" font-family="Helvetica,sans-Serif" font-size="10.00" fill="#000000">::getNumber</text>
</a>
</g>
</g>
<!-- Node68&#45;&gt;Node69 -->
<g id="edge1" class="edge">
<title>Node68&#45;&gt;Node69</title>
<path fill="none" stroke="#191970" d="M114.4494,-16.5C123.0594,-16.5 131.8303,-16.5 140.2348,-16.5"/>
<polygon fill="#191970" stroke="#191970" points="114.4475,-13.0001 104.4475,-16.5 114.4475,-20.0001 114.4475,-13.0001"/>
</g>
</g>
</svg>
