<?xml version="1.0" encoding="UTF-8" standalone="no"?>
<!DOCTYPE svg PUBLIC "-//W3C//DTD SVG 1.1//EN"
 "http://www.w3.org/Graphics/SVG/1.1/DTD/svg11.dtd">
<!-- Generated by graphviz version 2.40.1 (20161225.0304)
 -->
<!-- Title: LibBBB::Math::LinearConverter::convertXtoY Pages: 1 -->
<svg width="328pt" height="92pt"
 viewBox="0.00 0.00 327.72 92.00" xmlns="http://www.w3.org/2000/svg" xmlns:xlink="http://www.w3.org/1999/xlink">
<g id="graph0" class="graph" transform="scale(1 1) rotate(0) translate(4 88)">
<title>LibBBB::Math::LinearConverter::convertXtoY</title>
<polygon fill="#ffffff" stroke="transparent" points="-4,4 -4,-88 323.719,-88 323.719,4 -4,4"/>
<!-- Node3 -->
<g id="node1" class="node">
<title>Node3</title>
<polygon fill="#bfbfbf" stroke="#000000" points="0,-25.5 0,-57.5 154.362,-57.5 154.362,-25.5 0,-25.5"/>
<text text-anchor="start" x="8" y="-44.5" font-family="Helvetica,sans-Serif" font-size="10.00" fill="#000000">LibBBB::Math::LinearConverter</text>
<text text-anchor="middle" x="77.181" y="-32.5" font-family="Helvetica,sans-Serif" font-size="10.00" fill="#000000">::convertXtoY</text>
</g>
<!-- Node4 -->
<g id="node2" class="node">
<title>Node4</title>
<g id="a_node2"><a xlink:href="classLibBBB_1_1IO_1_1MotorControl.html#af963159bf69aea7b50f7df44d60a9beb" target="_top" xlink:title="setDutyCycle setter ">
<polygon fill="#ffffff" stroke="#000000" points="190.6425,-51.5 190.6425,-83.5 319.4385,-83.5 319.4385,-51.5 190.6425,-51.5"/>
<text text-anchor="start" x="198.6425" y="-70.5" font-family="Helvetica,sans-Serif" font-size="10.00" fill="#000000">LibBBB::IO::MotorControl</text>
<text text-anchor="middle" x="255.0405" y="-58.5" font-family="Helvetica,sans-Serif" font-size="10.00" fill="#000000">::setDutyCycle</text>
</a>
</g>
</g>
<!-- Node3&#45;&gt;Node4 -->
<g id="edge1" class="edge">
<title>Node3&#45;&gt;Node4</title>
<path fill="none" stroke="#191970" d="M164.5903,-54.2777C173.2812,-55.5482 181.9915,-56.8215 190.3889,-58.0491"/>
<polygon fill="#191970" stroke="#191970" points="164.8179,-50.7739 154.4168,-52.7905 163.8053,-57.7003 164.8179,-50.7739"/>
</g>
<!-- Node5 -->
<g id="node3" class="node">
<title>Node5</title>
<g id="a_node3"><a xlink:href="classLibBBB_1_1IO_1_1ServoControl.html#a432a542ebafb399dfcc618ff93d48043" target="_top" xlink:title="setDesiredDegree method sets the desired servo position in degrees ">
<polygon fill="#ffffff" stroke="#000000" points="190.362,-.5 190.362,-32.5 319.719,-32.5 319.719,-.5 190.362,-.5"/>
<text text-anchor="start" x="198.362" y="-19.5" font-family="Helvetica,sans-Serif" font-size="10.00" fill="#000000">LibBBB::IO::ServoControl</text>
<text text-anchor="middle" x="255.0405" y="-7.5" font-family="Helvetica,sans-Serif" font-size="10.00" fill="#000000">::setDesiredDegree</text>
</a>
</g>
</g>
<!-- Node3&#45;&gt;Node5 -->
<g id="edge2" class="edge">
<title>Node3&#45;&gt;Node5</title>
<path fill="none" stroke="#191970" d="M164.5106,-29.2249C173.1335,-28.0129 181.7764,-26.798 190.115,-25.626"/>
<polygon fill="#191970" stroke="#191970" points="163.8323,-25.7858 154.4168,-30.6437 164.8067,-32.7176 163.8323,-25.7858"/>
</g>
</g>
</svg>
