<?xml version="1.0" encoding="UTF-8" standalone="no"?>
<!DOCTYPE svg PUBLIC "-//W3C//DTD SVG 1.1//EN"
 "http://www.w3.org/Graphics/SVG/1.1/DTD/svg11.dtd">
<!-- Generated by graphviz version 2.40.1 (20161225.0304)
 -->
<!-- Title: LibBBB::Bluetooth::Manager::Manager Pages: 1 -->
<svg width="263pt" height="41pt"
 viewBox="0.00 0.00 262.72 41.00" xmlns="http://www.w3.org/2000/svg" xmlns:xlink="http://www.w3.org/1999/xlink">
<g id="graph0" class="graph" transform="scale(1 1) rotate(0) translate(4 37)">
<title>LibBBB::Bluetooth::Manager::Manager</title>
<polygon fill="#ffffff" stroke="transparent" points="-4,4 -4,-37 258.721,-37 258.721,4 -4,4"/>
<!-- Node0 -->
<g id="node1" class="node">
<title>Node0</title>
<polygon fill="#bfbfbf" stroke="#000000" points="0,-.5 0,-32.5 102.701,-32.5 102.701,-.5 0,-.5"/>
<text text-anchor="start" x="8" y="-19.5" font-family="Helvetica,sans-Serif" font-size="10.00" fill="#000000">LibBBB::Bluetooth::</text>
<text text-anchor="middle" x="51.3505" y="-7.5" font-family="Helvetica,sans-Serif" font-size="10.00" fill="#000000">Manager::Manager</text>
</g>
<!-- Node1 -->
<g id="node2" class="node">
<title>Node1</title>
<g id="a_node2"><a xlink:href="classLibBBB_1_1ThreadHelper.html#a6999e18135496ef252b1c43c374c20f9" target="_top" xlink:title="startDetachedThread ">
<polygon fill="#ffffff" stroke="#000000" points="138.701,-.5 138.701,-32.5 254.721,-32.5 254.721,-.5 138.701,-.5"/>
<text text-anchor="start" x="146.701" y="-19.5" font-family="Helvetica,sans-Serif" font-size="10.00" fill="#000000">LibBBB::ThreadHelper</text>
<text text-anchor="middle" x="196.711" y="-7.5" font-family="Helvetica,sans-Serif" font-size="10.00" fill="#000000">::startDetachedThread</text>
</a>
</g>
</g>
<!-- Node0&#45;&gt;Node1 -->
<g id="edge1" class="edge">
<title>Node0&#45;&gt;Node1</title>
<path fill="none" stroke="#191970" d="M103.0085,-16.5C111.1305,-16.5 119.6358,-16.5 128.0684,-16.5"/>
<polygon fill="#191970" stroke="#191970" points="128.2876,-20.0001 138.2876,-16.5 128.2876,-13.0001 128.2876,-20.0001"/>
</g>
</g>
</svg>
