<?xml version="1.0" encoding="UTF-8" standalone="no"?>
<!DOCTYPE svg PUBLIC "-//W3C//DTD SVG 1.1//EN"
 "http://www.w3.org/Graphics/SVG/1.1/DTD/svg11.dtd">
<!-- Generated by graphviz version 2.40.1 (20161225.0304)
 -->
<!-- Title: Core::IO::IOBase::path Pages: 1 -->
<svg width="626pt" height="131pt"
 viewBox="0.00 0.00 626.23 131.00" xmlns="http://www.w3.org/2000/svg" xmlns:xlink="http://www.w3.org/1999/xlink">
<g id="graph0" class="graph" transform="scale(1 1) rotate(0) translate(4 127)">
<title>Core::IO::IOBase::path</title>
<polygon fill="#ffffff" stroke="transparent" points="-4,4 -4,-127 622.234,-127 622.234,4 -4,4"/>
<!-- Node24 -->
<g id="node1" class="node">
<title>Node24</title>
<polygon fill="#bfbfbf" stroke="#000000" points="0,-28.5 0,-48.5 117.699,-48.5 117.699,-28.5 0,-28.5"/>
<text text-anchor="middle" x="58.8495" y="-35.5" font-family="Helvetica,sans-Serif" font-size="10.00" fill="#000000">Core::IO::IOBase::path</text>
</g>
<!-- Node25 -->
<g id="node2" class="node">
<title>Node25</title>
<g id="a_node2"><a xlink:href="classCore_1_1IO_1_1Input.html#a6ebaffcb31befe3e8ad3f1c753875499" target="_top" xlink:title="waitForEdge method is a blocking wait for edge. Therefore, the callee will halt its thread until this...">
<polygon fill="#ffffff" stroke="#000000" points="153.699,-51.5 153.699,-71.5 296.951,-71.5 296.951,-51.5 153.699,-51.5"/>
<text text-anchor="middle" x="225.325" y="-58.5" font-family="Helvetica,sans-Serif" font-size="10.00" fill="#000000">Core::IO::Input::waitForEdge</text>
</a>
</g>
</g>
<!-- Node24&#45;&gt;Node25 -->
<g id="edge1" class="edge">
<title>Node24&#45;&gt;Node25</title>
<path fill="none" stroke="#191970" d="M128.124,-48.0709C136.5133,-49.2299 145.0974,-50.4159 153.5222,-51.5798"/>
<polygon fill="#191970" stroke="#191970" points="128.3962,-44.5753 118.0113,-46.6737 127.4381,-51.5094 128.3962,-44.5753"/>
</g>
<!-- Node28 -->
<g id="node5" class="node">
<title>Node28</title>
<g id="a_node5"><a xlink:href="classCore_1_1IO_1_1Output.html#ad9478f061317492c4d1191702324dca4" target="_top" xlink:title="cancelToggle cancels toggling ">
<polygon fill="#ffffff" stroke="#000000" points="163.421,-.5 163.421,-32.5 287.229,-32.5 287.229,-.5 163.421,-.5"/>
<text text-anchor="start" x="171.421" y="-19.5" font-family="Helvetica,sans-Serif" font-size="10.00" fill="#000000">Core::IO::Output::cancel</text>
<text text-anchor="middle" x="225.325" y="-7.5" font-family="Helvetica,sans-Serif" font-size="10.00" fill="#000000">Toggle</text>
</a>
</g>
</g>
<!-- Node24&#45;&gt;Node28 -->
<g id="edge5" class="edge">
<title>Node24&#45;&gt;Node28</title>
<path fill="none" stroke="#191970" d="M128.1285,-29.3447C139.7782,-27.8051 151.8035,-26.216 163.2562,-24.7025"/>
<polygon fill="#191970" stroke="#191970" points="127.4665,-25.9016 118.0113,-30.6817 128.3837,-32.8413 127.4665,-25.9016"/>
</g>
<!-- Node26 -->
<g id="node3" class="node">
<title>Node26</title>
<g id="a_node3"><a xlink:href="classCore_1_1IO_1_1Input.html#a6bf5d36ec1e0413c4f11f8bdd01792a0" target="_top" xlink:title="cancelWaitForEdge method cancels waiting for the edge. ">
<polygon fill="#ffffff" stroke="#000000" points="332.951,-90.5 332.951,-122.5 468.976,-122.5 468.976,-90.5 332.951,-90.5"/>
<text text-anchor="start" x="340.951" y="-109.5" font-family="Helvetica,sans-Serif" font-size="10.00" fill="#000000">Core::IO::Input::cancelWait</text>
<text text-anchor="middle" x="400.9635" y="-97.5" font-family="Helvetica,sans-Serif" font-size="10.00" fill="#000000">ForEdge</text>
</a>
</g>
</g>
<!-- Node25&#45;&gt;Node26 -->
<g id="edge2" class="edge">
<title>Node25&#45;&gt;Node26</title>
<path fill="none" stroke="#191970" d="M274.4581,-74.0883C294.2319,-79.1545 317.276,-85.0586 338.2378,-90.4292"/>
<polygon fill="#191970" stroke="#191970" points="275.2975,-70.6904 264.7417,-71.5989 273.5601,-77.4714 275.2975,-70.6904"/>
</g>
<!-- Node27 -->
<g id="node4" class="node">
<title>Node27</title>
<g id="a_node4"><a xlink:href="structCore_1_1IO_1_1Input_1_1Setup.html#a493b98ee230283215bd55b7ba739f60a" target="_top" xlink:title="Core::IO::Input::Setup\l::Setup">
<polygon fill="#ffffff" stroke="#000000" points="504.976,-67.5 504.976,-99.5 618.234,-99.5 618.234,-67.5 504.976,-67.5"/>
<text text-anchor="start" x="512.976" y="-86.5" font-family="Helvetica,sans-Serif" font-size="10.00" fill="#000000">Core::IO::Input::Setup</text>
<text text-anchor="middle" x="561.605" y="-74.5" font-family="Helvetica,sans-Serif" font-size="10.00" fill="#000000">::Setup</text>
</a>
</g>
</g>
<!-- Node25&#45;&gt;Node27 -->
<g id="edge4" class="edge">
<title>Node25&#45;&gt;Node27</title>
<path fill="none" stroke="#191970" d="M307.0761,-66.8483C368.3098,-70.8543 450.5309,-76.2333 504.7429,-79.78"/>
<polygon fill="#191970" stroke="#191970" points="307.2602,-63.3529 297.053,-66.1926 306.8032,-70.338 307.2602,-63.3529"/>
</g>
<!-- Node26&#45;&gt;Node27 -->
<g id="edge3" class="edge">
<title>Node26&#45;&gt;Node27</title>
<path fill="none" stroke="#191970" d="M479.1089,-95.3115C487.6763,-94.0848 496.2768,-92.8534 504.52,-91.6732"/>
<polygon fill="#191970" stroke="#191970" points="478.4929,-91.8639 469.09,-96.7459 479.4851,-98.7932 478.4929,-91.8639"/>
</g>
<!-- Node29 -->
<g id="node6" class="node">
<title>Node29</title>
<g id="a_node6"><a xlink:href="structCore_1_1IO_1_1Output_1_1Setup.html#aa94d399cf6e529ff662a8d31f38bd35c" target="_top" xlink:title="Core::IO::Output::Setup\l::Setup">
<polygon fill="#ffffff" stroke="#000000" points="340.445,-.5 340.445,-32.5 461.482,-32.5 461.482,-.5 340.445,-.5"/>
<text text-anchor="start" x="348.445" y="-19.5" font-family="Helvetica,sans-Serif" font-size="10.00" fill="#000000">Core::IO::Output::Setup</text>
<text text-anchor="middle" x="400.9635" y="-7.5" font-family="Helvetica,sans-Serif" font-size="10.00" fill="#000000">::Setup</text>
</a>
</g>
</g>
<!-- Node28&#45;&gt;Node29 -->
<g id="edge6" class="edge">
<title>Node28&#45;&gt;Node29</title>
<path fill="none" stroke="#191970" d="M297.462,-16.5C311.6561,-16.5 326.415,-16.5 340.1901,-16.5"/>
<polygon fill="#191970" stroke="#191970" points="297.2486,-13.0001 287.2486,-16.5 297.2485,-20.0001 297.2486,-13.0001"/>
</g>
</g>
</svg>
