<?xml version="1.0" encoding="UTF-8" standalone="no"?>
<!DOCTYPE svg PUBLIC "-//W3C//DTD SVG 1.1//EN"
 "http://www.w3.org/Graphics/SVG/1.1/DTD/svg11.dtd">
<!-- Generated by graphviz version 2.40.1 (20161225.0304)
 -->
<!-- Title: LibBBB::IO::IOBase::getNumber Pages: 1 -->
<svg width="253pt" height="41pt"
 viewBox="0.00 0.00 252.73 41.00" xmlns="http://www.w3.org/2000/svg" xmlns:xlink="http://www.w3.org/1999/xlink">
<g id="graph0" class="graph" transform="scale(1 1) rotate(0) translate(4 37)">
<title>LibBBB::IO::IOBase::getNumber</title>
<polygon fill="#ffffff" stroke="transparent" points="-4,4 -4,-37 248.726,-37 248.726,4 -4,4"/>
<!-- Node8 -->
<g id="node1" class="node">
<title>Node8</title>
<polygon fill="#bfbfbf" stroke="#000000" points="0,-.5 0,-32.5 104.363,-32.5 104.363,-.5 0,-.5"/>
<text text-anchor="start" x="8" y="-19.5" font-family="Helvetica,sans-Serif" font-size="10.00" fill="#000000">LibBBB::IO::IOBase</text>
<text text-anchor="middle" x="52.1815" y="-7.5" font-family="Helvetica,sans-Serif" font-size="10.00" fill="#000000">::getNumber</text>
</g>
<!-- Node9 -->
<g id="node2" class="node">
<title>Node9</title>
<g id="a_node2"><a xlink:href="classLibBBB_1_1IO_1_1IOBase.html#a0684dfabb2f9182e086533e29218d193" target="_top" xlink:title="writeWithPath methods writes the value into the given path and filename ">
<polygon fill="#ffffff" stroke="#000000" points="140.363,-.5 140.363,-32.5 244.726,-32.5 244.726,-.5 140.363,-.5"/>
<text text-anchor="start" x="148.363" y="-19.5" font-family="Helvetica,sans-Serif" font-size="10.00" fill="#000000">LibBBB::IO::IOBase</text>
<text text-anchor="middle" x="192.5445" y="-7.5" font-family="Helvetica,sans-Serif" font-size="10.00" fill="#000000">::writeWithPath</text>
</a>
</g>
</g>
<!-- Node8&#45;&gt;Node9 -->
<g id="edge1" class="edge">
<title>Node8&#45;&gt;Node9</title>
<path fill="none" stroke="#191970" d="M104.4475,-16.5C112.8508,-16.5 121.6214,-16.5 130.2319,-16.5"/>
<polygon fill="#191970" stroke="#191970" points="130.2349,-20.0001 140.2348,-16.5 130.2348,-13.0001 130.2349,-20.0001"/>
</g>
</g>
</svg>
