<?xml version="1.0" encoding="UTF-8" standalone="no"?>
<!DOCTYPE svg PUBLIC "-//W3C//DTD SVG 1.1//EN"
 "http://www.w3.org/Graphics/SVG/1.1/DTD/svg11.dtd">
<!-- Generated by graphviz version 2.40.1 (20161225.0304)
 -->
<!-- Title: LibBBB::IO::Output::changeToggleTime Pages: 1 -->
<svg width="252pt" height="41pt"
 viewBox="0.00 0.00 252.16 41.00" xmlns="http://www.w3.org/2000/svg" xmlns:xlink="http://www.w3.org/1999/xlink">
<g id="graph0" class="graph" transform="scale(1 1) rotate(0) translate(4 37)">
<title>LibBBB::IO::Output::changeToggleTime</title>
<polygon fill="#ffffff" stroke="transparent" points="-4,4 -4,-37 248.165,-37 248.165,4 -4,4"/>
<!-- Node15 -->
<g id="node1" class="node">
<title>Node15</title>
<polygon fill="#bfbfbf" stroke="#000000" points="0,-.5 0,-32.5 107.133,-32.5 107.133,-.5 0,-.5"/>
<text text-anchor="start" x="8" y="-19.5" font-family="Helvetica,sans-Serif" font-size="10.00" fill="#000000">LibBBB::IO::Output</text>
<text text-anchor="middle" x="53.5665" y="-7.5" font-family="Helvetica,sans-Serif" font-size="10.00" fill="#000000">::changeToggleTime</text>
</g>
<!-- Node16 -->
<g id="node2" class="node">
<title>Node16</title>
<g id="a_node2"><a xlink:href="structLibBBB_1_1IO_1_1Output_1_1Setup.html#ac7d4ee82c7eabd07ba140ec061c28adc" target="_top" xlink:title="LibBBB::IO::Output\l::Setup::Setup">
<polygon fill="#ffffff" stroke="#000000" points="143.133,-.5 143.133,-32.5 244.165,-32.5 244.165,-.5 143.133,-.5"/>
<text text-anchor="start" x="151.133" y="-19.5" font-family="Helvetica,sans-Serif" font-size="10.00" fill="#000000">LibBBB::IO::Output</text>
<text text-anchor="middle" x="193.649" y="-7.5" font-family="Helvetica,sans-Serif" font-size="10.00" fill="#000000">::Setup::Setup</text>
</a>
</g>
</g>
<!-- Node15&#45;&gt;Node16 -->
<g id="edge1" class="edge">
<title>Node15&#45;&gt;Node16</title>
<path fill="none" stroke="#191970" d="M117.3422,-16.5C125.9517,-16.5 134.6884,-16.5 143.0265,-16.5"/>
<polygon fill="#191970" stroke="#191970" points="117.3255,-13.0001 107.3254,-16.5 117.3254,-20.0001 117.3255,-13.0001"/>
</g>
</g>
</svg>
