<?xml version="1.0" encoding="UTF-8" standalone="no"?>
<!DOCTYPE svg PUBLIC "-//W3C//DTD SVG 1.1//EN"
 "http://www.w3.org/Graphics/SVG/1.1/DTD/svg11.dtd">
<!-- Generated by graphviz version 2.40.1 (20161225.0304)
 -->
<!-- Title: Core::IO::Output::~Output Pages: 1 -->
<svg width="260pt" height="41pt"
 viewBox="0.00 0.00 259.95 41.00" xmlns="http://www.w3.org/2000/svg" xmlns:xlink="http://www.w3.org/1999/xlink">
<g id="graph0" class="graph" transform="scale(1 1) rotate(0) translate(4 37)">
<title>Core::IO::Output::~Output</title>
<polygon fill="#ffffff" stroke="transparent" points="-4,4 -4,-37 255.949,-37 255.949,4 -4,4"/>
<!-- Node4 -->
<g id="node1" class="node">
<title>Node4</title>
<polygon fill="#bfbfbf" stroke="#000000" points="0,-.5 0,-32.5 94.912,-32.5 94.912,-.5 0,-.5"/>
<text text-anchor="start" x="8" y="-19.5" font-family="Helvetica,sans-Serif" font-size="10.00" fill="#000000">Core::IO::Output::</text>
<text text-anchor="middle" x="47.456" y="-7.5" font-family="Helvetica,sans-Serif" font-size="10.00" fill="#000000">~Output</text>
</g>
<!-- Node5 -->
<g id="node2" class="node">
<title>Node5</title>
<g id="a_node2"><a xlink:href="structCore_1_1IO_1_1Output_1_1Setup.html#aa94d399cf6e529ff662a8d31f38bd35c" target="_top" xlink:title="Core::IO::Output::Setup\l::Setup">
<polygon fill="#ffffff" stroke="#000000" points="130.912,-.5 130.912,-32.5 251.949,-32.5 251.949,-.5 130.912,-.5"/>
<text text-anchor="start" x="138.912" y="-19.5" font-family="Helvetica,sans-Serif" font-size="10.00" fill="#000000">Core::IO::Output::Setup</text>
<text text-anchor="middle" x="191.4305" y="-7.5" font-family="Helvetica,sans-Serif" font-size="10.00" fill="#000000">::Setup</text>
</a>
</g>
</g>
<!-- Node4&#45;&gt;Node5 -->
<g id="edge1" class="edge">
<title>Node4&#45;&gt;Node5</title>
<path fill="none" stroke="#191970" d="M105.144,-16.5C113.6009,-16.5 122.3321,-16.5 130.845,-16.5"/>
<polygon fill="#191970" stroke="#191970" points="104.9977,-13.0001 94.9977,-16.5 104.9976,-20.0001 104.9977,-13.0001"/>
</g>
</g>
</svg>
