<?xml version="1.0" encoding="UTF-8" standalone="no"?>
<!DOCTYPE svg PUBLIC "-//W3C//DTD SVG 1.1//EN"
 "http://www.w3.org/Graphics/SVG/1.1/DTD/svg11.dtd">
<!-- Generated by graphviz version 2.40.1 (20161225.0304)
 -->
<!-- Title: LibBBB::IO::Output::setValue Pages: 1 -->
<svg width="383pt" height="134pt"
 viewBox="0.00 0.00 383.10 134.00" xmlns="http://www.w3.org/2000/svg" xmlns:xlink="http://www.w3.org/1999/xlink">
<g id="graph0" class="graph" transform="scale(1 1) rotate(0) translate(4 130)">
<title>LibBBB::IO::Output::setValue</title>
<polygon fill="#ffffff" stroke="transparent" points="-4,4 -4,-130 379.096,-130 379.096,4 -4,4"/>
<!-- Node22 -->
<g id="node1" class="node">
<title>Node22</title>
<polygon fill="#bfbfbf" stroke="#000000" points="0,-45.5 0,-77.5 101.032,-77.5 101.032,-45.5 0,-45.5"/>
<text text-anchor="start" x="8" y="-64.5" font-family="Helvetica,sans-Serif" font-size="10.00" fill="#000000">LibBBB::IO::Output</text>
<text text-anchor="middle" x="50.516" y="-52.5" font-family="Helvetica,sans-Serif" font-size="10.00" fill="#000000">::setValue</text>
</g>
<!-- Node23 -->
<g id="node2" class="node">
<title>Node23</title>
<g id="a_node2"><a xlink:href="classLibBBB_1_1IO_1_1Output.html#a70c6eac9a46013605717fef0ba6c2010" target="_top" xlink:title="toggleOutput method toggles the output once ">
<polygon fill="#ffffff" stroke="#000000" points="137.032,-90.5 137.032,-122.5 238.064,-122.5 238.064,-90.5 137.032,-90.5"/>
<text text-anchor="start" x="145.032" y="-109.5" font-family="Helvetica,sans-Serif" font-size="10.00" fill="#000000">LibBBB::IO::Output</text>
<text text-anchor="middle" x="187.548" y="-97.5" font-family="Helvetica,sans-Serif" font-size="10.00" fill="#000000">::toggleOutput</text>
</a>
</g>
</g>
<!-- Node22&#45;&gt;Node23 -->
<g id="edge1" class="edge">
<title>Node22&#45;&gt;Node23</title>
<path fill="none" stroke="#191970" d="M109.3144,-80.8088C119.1499,-84.0387 129.2582,-87.3582 138.8061,-90.4936"/>
<polygon fill="#191970" stroke="#191970" points="110.1935,-77.4137 99.6006,-77.6189 108.0095,-84.0643 110.1935,-77.4137"/>
</g>
<!-- Node25 -->
<g id="node4" class="node">
<title>Node25</title>
<g id="a_node4"><a xlink:href="structLibBBB_1_1IO_1_1Output_1_1Setup.html#ac7d4ee82c7eabd07ba140ec061c28adc" target="_top" xlink:title="LibBBB::IO::Output\l::Setup::Setup">
<polygon fill="#ffffff" stroke="#000000" points="274.064,-42.5 274.064,-74.5 375.096,-74.5 375.096,-42.5 274.064,-42.5"/>
<text text-anchor="start" x="282.064" y="-61.5" font-family="Helvetica,sans-Serif" font-size="10.00" fill="#000000">LibBBB::IO::Output</text>
<text text-anchor="middle" x="324.58" y="-49.5" font-family="Helvetica,sans-Serif" font-size="10.00" fill="#000000">::Setup::Setup</text>
</a>
</g>
</g>
<!-- Node22&#45;&gt;Node25 -->
<g id="edge6" class="edge">
<title>Node22&#45;&gt;Node25</title>
<path fill="none" stroke="#191970" d="M111.2188,-60.8355C160.0439,-60.3011 227.853,-59.5588 273.8243,-59.0556"/>
<polygon fill="#191970" stroke="#191970" points="111.064,-57.3369 101.1029,-60.9463 111.1407,-64.3365 111.064,-57.3369"/>
</g>
<!-- Node26 -->
<g id="node5" class="node">
<title>Node26</title>
<g id="a_node5"><a xlink:href="classLibBBB_1_1IO_1_1Output.html#a4fd232f60d3148259f6d5d91e842950a" target="_top" xlink:title="cancelToggle cancels toggling ">
<polygon fill="#ffffff" stroke="#000000" points="137.032,-.5 137.032,-32.5 238.064,-32.5 238.064,-.5 137.032,-.5"/>
<text text-anchor="start" x="145.032" y="-19.5" font-family="Helvetica,sans-Serif" font-size="10.00" fill="#000000">LibBBB::IO::Output</text>
<text text-anchor="middle" x="187.548" y="-7.5" font-family="Helvetica,sans-Serif" font-size="10.00" fill="#000000">::cancelToggle</text>
</a>
</g>
</g>
<!-- Node22&#45;&gt;Node26 -->
<g id="edge4" class="edge">
<title>Node22&#45;&gt;Node26</title>
<path fill="none" stroke="#191970" d="M109.3144,-42.1912C119.1499,-38.9613 129.2582,-35.6418 138.8061,-32.5064"/>
<polygon fill="#191970" stroke="#191970" points="108.0095,-38.9357 99.6006,-45.3811 110.1935,-45.5863 108.0095,-38.9357"/>
</g>
<!-- Node24 -->
<g id="node3" class="node">
<title>Node24</title>
<g id="a_node3"><a xlink:href="classLibBBB_1_1IO_1_1Output.html#a3620dfac4d3a9ee34c3a8e2ea39ae2dd" target="_top" xlink:title="toggleOutput method toggles the output every using the time arguement. ">
<polygon fill="#ffffff" stroke="#000000" points="274.064,-93.5 274.064,-125.5 375.096,-125.5 375.096,-93.5 274.064,-93.5"/>
<text text-anchor="start" x="282.064" y="-112.5" font-family="Helvetica,sans-Serif" font-size="10.00" fill="#000000">LibBBB::IO::Output</text>
<text text-anchor="middle" x="324.58" y="-100.5" font-family="Helvetica,sans-Serif" font-size="10.00" fill="#000000">::toggleOutput</text>
</a>
</g>
</g>
<!-- Node23&#45;&gt;Node24 -->
<g id="edge2" class="edge">
<title>Node23&#45;&gt;Node24</title>
<path fill="none" stroke="#191970" d="M248.3826,-107.8318C256.8363,-108.0169 265.4481,-108.2054 273.6943,-108.386"/>
<polygon fill="#191970" stroke="#191970" points="248.2586,-104.3284 238.1843,-107.6086 248.1053,-111.3267 248.2586,-104.3284"/>
</g>
<!-- Node23&#45;&gt;Node25 -->
<g id="edge3" class="edge">
<title>Node23&#45;&gt;Node25</title>
<path fill="none" stroke="#191970" d="M243.2341,-86.9941C254.9347,-82.8956 267.1529,-78.6158 278.4573,-74.656"/>
<polygon fill="#191970" stroke="#191970" points="241.8396,-83.774 233.5589,-90.3832 244.1537,-90.3804 241.8396,-83.774"/>
</g>
<!-- Node26&#45;&gt;Node25 -->
<g id="edge5" class="edge">
<title>Node26&#45;&gt;Node25</title>
<path fill="none" stroke="#191970" d="M247.8254,-34.9749C256.4576,-37.6206 265.2669,-40.3207 273.6943,-42.9037"/>
<polygon fill="#191970" stroke="#191970" points="248.771,-31.6041 238.1843,-32.0199 246.7197,-38.2968 248.771,-31.6041"/>
</g>
</g>
</svg>
