<?xml version="1.0" encoding="UTF-8" standalone="no"?>
<!DOCTYPE svg PUBLIC "-//W3C//DTD SVG 1.1//EN"
 "http://www.w3.org/Graphics/SVG/1.1/DTD/svg11.dtd">
<!-- Generated by graphviz version 2.40.1 (20161225.0304)
 -->
<!-- Title: Core::IO::Output::cancelToggle Pages: 1 -->
<svg width="461pt" height="107pt"
 viewBox="0.00 0.00 460.86 107.00" xmlns="http://www.w3.org/2000/svg" xmlns:xlink="http://www.w3.org/1999/xlink">
<g id="graph0" class="graph" transform="scale(1 1) rotate(0) translate(4 103)">
<title>Core::IO::Output::cancelToggle</title>
<polygon fill="#ffffff" stroke="transparent" points="-4,4 -4,-103 456.861,-103 456.861,4 -4,4"/>
<!-- Node6 -->
<g id="node1" class="node">
<title>Node6</title>
<polygon fill="#bfbfbf" stroke="#000000" points="0,-33.5 0,-65.5 123.808,-65.5 123.808,-33.5 0,-33.5"/>
<text text-anchor="start" x="8" y="-52.5" font-family="Helvetica,sans-Serif" font-size="10.00" fill="#000000">Core::IO::Output::cancel</text>
<text text-anchor="middle" x="61.904" y="-40.5" font-family="Helvetica,sans-Serif" font-size="10.00" fill="#000000">Toggle</text>
</g>
<!-- Node7 -->
<g id="node2" class="node">
<title>Node7</title>
<g id="a_node2"><a xlink:href="classCore_1_1IO_1_1IOBase.html#adb7dec70c1c39b19d2166c8fdea6b1f9" target="_top" xlink:title="path getter ">
<polygon fill="#ffffff" stroke="#000000" points="169.811,-78.5 169.811,-98.5 287.51,-98.5 287.51,-78.5 169.811,-78.5"/>
<text text-anchor="middle" x="228.6605" y="-85.5" font-family="Helvetica,sans-Serif" font-size="10.00" fill="#000000">Core::IO::IOBase::path</text>
</a>
</g>
</g>
<!-- Node6&#45;&gt;Node7 -->
<g id="edge1" class="edge">
<title>Node6&#45;&gt;Node7</title>
<path fill="none" stroke="#191970" d="M123.998,-64.0222C141.0219,-68.0036 159.3145,-72.2818 175.7699,-76.1303"/>
<polygon fill="#191970" stroke="#191970" points="175.2161,-79.5951 185.7504,-78.4644 176.8102,-72.779 175.2161,-79.5951"/>
</g>
<!-- Node8 -->
<g id="node3" class="node">
<title>Node8</title>
<g id="a_node3"><a xlink:href="classCore_1_1IO_1_1IOBase.html#a5516fd4c88b5d0557f19c0c77add9dbf" target="_top" xlink:title="getValue getter ">
<polygon fill="#ffffff" stroke="#000000" points="159.808,-39.5 159.808,-59.5 297.513,-59.5 297.513,-39.5 159.808,-39.5"/>
<text text-anchor="middle" x="228.6605" y="-46.5" font-family="Helvetica,sans-Serif" font-size="10.00" fill="#000000">Core::IO::IOBase::getValue</text>
</a>
</g>
</g>
<!-- Node6&#45;&gt;Node8 -->
<g id="edge2" class="edge">
<title>Node6&#45;&gt;Node8</title>
<path fill="none" stroke="#191970" d="M123.998,-49.5C132.3841,-49.5 141.078,-49.5 149.7085,-49.5"/>
<polygon fill="#191970" stroke="#191970" points="149.7887,-53.0001 159.7887,-49.5 149.7886,-46.0001 149.7887,-53.0001"/>
</g>
<!-- Node10 -->
<g id="node5" class="node">
<title>Node10</title>
<g id="a_node5"><a xlink:href="classCore_1_1IO_1_1Output.html#a07bdc8e3bbaedf9113bd56fe50c85131" target="_top" xlink:title="setValue setter ">
<polygon fill="#ffffff" stroke="#000000" points="161.753,-.5 161.753,-20.5 295.568,-20.5 295.568,-.5 161.753,-.5"/>
<text text-anchor="middle" x="228.6605" y="-7.5" font-family="Helvetica,sans-Serif" font-size="10.00" fill="#000000">Core::IO::Output::setValue</text>
</a>
</g>
</g>
<!-- Node6&#45;&gt;Node10 -->
<g id="edge4" class="edge">
<title>Node6&#45;&gt;Node10</title>
<path fill="none" stroke="#191970" d="M123.998,-34.9778C141.0219,-30.9964 159.3145,-26.7182 175.7699,-22.8697"/>
<polygon fill="#191970" stroke="#191970" points="176.8102,-26.221 185.7504,-20.5356 175.2161,-19.4049 176.8102,-26.221"/>
</g>
<!-- Node9 -->
<g id="node4" class="node">
<title>Node9</title>
<g id="a_node4"><a xlink:href="classCore_1_1IO_1_1IOBase.html#ab27139c5454e00719c3b5d8d17d6a8e8" target="_top" xlink:title="read function that reads the value of the given file filename ">
<polygon fill="#ffffff" stroke="#000000" points="334.0625,-39.5 334.0625,-59.5 452.3115,-59.5 452.3115,-39.5 334.0625,-39.5"/>
<text text-anchor="middle" x="393.187" y="-46.5" font-family="Helvetica,sans-Serif" font-size="10.00" fill="#000000">Core::IO::IOBase::read</text>
</a>
</g>
</g>
<!-- Node8&#45;&gt;Node9 -->
<g id="edge3" class="edge">
<title>Node8&#45;&gt;Node9</title>
<path fill="none" stroke="#191970" d="M297.9577,-49.5C306.4488,-49.5 315.129,-49.5 323.624,-49.5"/>
<polygon fill="#191970" stroke="#191970" points="323.8691,-53.0001 333.8691,-49.5 323.869,-46.0001 323.8691,-53.0001"/>
</g>
<!-- Node11 -->
<g id="node6" class="node">
<title>Node11</title>
<g id="a_node6"><a xlink:href="classCore_1_1IO_1_1IOBase.html#a6a095d6e076e588f343984044a3bb084" target="_top" xlink:title="write write function that writes a single string value to a file in the path provided ...">
<polygon fill="#ffffff" stroke="#000000" points="333.513,-.5 333.513,-20.5 452.861,-20.5 452.861,-.5 333.513,-.5"/>
<text text-anchor="middle" x="393.187" y="-7.5" font-family="Helvetica,sans-Serif" font-size="10.00" fill="#000000">Core::IO::IOBase::write</text>
</a>
</g>
</g>
<!-- Node10&#45;&gt;Node11 -->
<g id="edge5" class="edge">
<title>Node10&#45;&gt;Node11</title>
<path fill="none" stroke="#191970" d="M295.5797,-10.5C304.6938,-10.5 314.0683,-10.5 323.2343,-10.5"/>
<polygon fill="#191970" stroke="#191970" points="323.4693,-14.0001 333.4693,-10.5 323.4692,-7.0001 323.4693,-14.0001"/>
</g>
</g>
</svg>
