<?xml version="1.0" encoding="UTF-8" standalone="no"?>
<!DOCTYPE svg PUBLIC "-//W3C//DTD SVG 1.1//EN"
 "http://www.w3.org/Graphics/SVG/1.1/DTD/svg11.dtd">
<!-- Generated by graphviz version 2.40.1 (20161225.0304)
 -->
<!-- Title: Core::ThreadHelper::startDetachedThread Pages: 1 -->
<svg width="574pt" height="154pt"
 viewBox="0.00 0.00 574.00 154.00" xmlns="http://www.w3.org/2000/svg" xmlns:xlink="http://www.w3.org/1999/xlink">
<g id="graph0" class="graph" transform="scale(1 1) rotate(0) translate(4 150)">
<title>Core::ThreadHelper::startDetachedThread</title>
<polygon fill="#ffffff" stroke="transparent" points="-4,4 -4,-150 570.003,-150 570.003,4 -4,4"/>
<!-- Node1 -->
<g id="node1" class="node">
<title>Node1</title>
<polygon fill="#bfbfbf" stroke="#000000" points="0,-51.5 0,-83.5 115.471,-83.5 115.471,-51.5 0,-51.5"/>
<text text-anchor="start" x="8" y="-70.5" font-family="Helvetica,sans-Serif" font-size="10.00" fill="#000000">Core::ThreadHelper</text>
<text text-anchor="middle" x="57.7355" y="-58.5" font-family="Helvetica,sans-Serif" font-size="10.00" fill="#000000">::startDetachedThread</text>
</g>
<!-- Node2 -->
<g id="node2" class="node">
<title>Node2</title>
<g id="a_node2"><a xlink:href="classCore_1_1IO_1_1Input.html#a35ee0fc0d31172da73135b8ddc543fff" target="_top" xlink:title="waitForEdgeThreaded does the same thing as waitForEdge(), but does so in a threaded manner...">
<polygon fill="#ffffff" stroke="#000000" points="151.471,-102.5 151.471,-134.5 271.377,-134.5 271.377,-102.5 151.471,-102.5"/>
<text text-anchor="start" x="159.471" y="-121.5" font-family="Helvetica,sans-Serif" font-size="10.00" fill="#000000">Core::IO::Input::waitFor</text>
<text text-anchor="middle" x="211.424" y="-109.5" font-family="Helvetica,sans-Serif" font-size="10.00" fill="#000000">EdgeThreaded</text>
</a>
</g>
</g>
<!-- Node1&#45;&gt;Node2 -->
<g id="edge1" class="edge">
<title>Node1&#45;&gt;Node2</title>
<path fill="none" stroke="#191970" d="M115.895,-86.7997C131.4693,-91.9678 148.1337,-97.4977 163.1123,-102.4683"/>
<polygon fill="#191970" stroke="#191970" points="116.9569,-83.4644 106.3635,-83.6367 114.7522,-90.1082 116.9569,-83.4644"/>
</g>
<!-- Node5 -->
<g id="node5" class="node">
<title>Node5</title>
<g id="a_node5"><a xlink:href="classCore_1_1IO_1_1MotorControl.html#a6c2c814eeba186101329b864df3bfcc3" target="_top" xlink:title="MotorControl ServoControl constructor creates the class, and spawns the frequency control thread...">
<polygon fill="#ffffff" stroke="#000000" points="152.865,-51.5 152.865,-83.5 269.983,-83.5 269.983,-51.5 152.865,-51.5"/>
<text text-anchor="start" x="160.865" y="-70.5" font-family="Helvetica,sans-Serif" font-size="10.00" fill="#000000">Core::IO::MotorControl</text>
<text text-anchor="middle" x="211.424" y="-58.5" font-family="Helvetica,sans-Serif" font-size="10.00" fill="#000000">::MotorControl</text>
</a>
</g>
</g>
<!-- Node1&#45;&gt;Node5 -->
<g id="edge5" class="edge">
<title>Node1&#45;&gt;Node5</title>
<path fill="none" stroke="#191970" d="M125.8611,-67.5C134.8219,-67.5 143.9429,-67.5 152.7283,-67.5"/>
<polygon fill="#191970" stroke="#191970" points="125.8386,-64.0001 115.8385,-67.5 125.8385,-71.0001 125.8386,-64.0001"/>
</g>
<!-- Node6 -->
<g id="node6" class="node">
<title>Node6</title>
<g id="a_node6"><a xlink:href="classCore_1_1IO_1_1UserLED.html#ac39c3ed451b83046ff37ecb4ccff142c" target="_top" xlink:title="setState method sets the state of the LED ">
<polygon fill="#ffffff" stroke="#000000" points="158.698,-.5 158.698,-32.5 264.15,-32.5 264.15,-.5 158.698,-.5"/>
<text text-anchor="start" x="166.698" y="-19.5" font-family="Helvetica,sans-Serif" font-size="10.00" fill="#000000">Core::IO::UserLED::</text>
<text text-anchor="middle" x="211.424" y="-7.5" font-family="Helvetica,sans-Serif" font-size="10.00" fill="#000000">setState</text>
</a>
</g>
</g>
<!-- Node1&#45;&gt;Node6 -->
<g id="edge6" class="edge">
<title>Node1&#45;&gt;Node6</title>
<path fill="none" stroke="#191970" d="M115.895,-48.2003C131.4693,-43.0322 148.1337,-37.5023 163.1123,-32.5317"/>
<polygon fill="#191970" stroke="#191970" points="114.7522,-44.8918 106.3635,-51.3633 116.9569,-51.5356 114.7522,-44.8918"/>
</g>
<!-- Node3 -->
<g id="node3" class="node">
<title>Node3</title>
<g id="a_node3"><a xlink:href="classCore_1_1IO_1_1Input.html#ae490cffe2162d4538dd108b0bd1f3695" target="_top" xlink:title="Input constructs an input based on the given setup. The constructor will automatically export the pin...">
<polygon fill="#ffffff" stroke="#000000" points="307.377,-125.5 307.377,-145.5 416.745,-145.5 416.745,-125.5 307.377,-125.5"/>
<text text-anchor="middle" x="362.061" y="-132.5" font-family="Helvetica,sans-Serif" font-size="10.00" fill="#000000">Core::IO::Input::Input</text>
</a>
</g>
</g>
<!-- Node2&#45;&gt;Node3 -->
<g id="edge2" class="edge">
<title>Node2&#45;&gt;Node3</title>
<path fill="none" stroke="#191970" d="M281.4587,-126.4037C290.0933,-127.3782 298.821,-128.3631 307.1848,-129.307"/>
<polygon fill="#191970" stroke="#191970" points="281.722,-122.9113 271.3926,-125.2677 280.937,-129.8671 281.722,-122.9113"/>
</g>
<!-- Node4 -->
<g id="node4" class="node">
<title>Node4</title>
<g id="a_node4"><a xlink:href="structCore_1_1IO_1_1Input_1_1Setup.html#a493b98ee230283215bd55b7ba739f60a" target="_top" xlink:title="Core::IO::Input::Setup\l::Setup">
<polygon fill="#ffffff" stroke="#000000" points="452.745,-92.5 452.745,-124.5 566.003,-124.5 566.003,-92.5 452.745,-92.5"/>
<text text-anchor="start" x="460.745" y="-111.5" font-family="Helvetica,sans-Serif" font-size="10.00" fill="#000000">Core::IO::Input::Setup</text>
<text text-anchor="middle" x="509.374" y="-99.5" font-family="Helvetica,sans-Serif" font-size="10.00" fill="#000000">::Setup</text>
</a>
</g>
</g>
<!-- Node2&#45;&gt;Node4 -->
<g id="edge4" class="edge">
<title>Node2&#45;&gt;Node4</title>
<path fill="none" stroke="#191970" d="M281.8972,-116.1347C334.0465,-114.3845 404.1619,-112.0312 452.7019,-110.4021"/>
<polygon fill="#191970" stroke="#191970" points="281.5956,-112.6428 271.7186,-116.4764 281.8304,-119.6388 281.5956,-112.6428"/>
</g>
<!-- Node3&#45;&gt;Node4 -->
<g id="edge3" class="edge">
<title>Node3&#45;&gt;Node4</title>
<path fill="none" stroke="#191970" d="M426.8465,-123.6259C435.394,-122.0593 444.1031,-120.4631 452.5046,-118.9232"/>
<polygon fill="#191970" stroke="#191970" points="426.1201,-120.2007 416.9149,-125.4462 427.3821,-127.086 426.1201,-120.2007"/>
</g>
<!-- Node7 -->
<g id="node7" class="node">
<title>Node7</title>
<g id="a_node7"><a xlink:href="classCore_1_1IO_1_1UserLED.html#a4e161b02396d015ce4fd5434853e44bc" target="_top" xlink:title="changeBlinkTime method changes the time of the blink ">
<polygon fill="#ffffff" stroke="#000000" points="309.335,-32.5 309.335,-64.5 414.787,-64.5 414.787,-32.5 309.335,-32.5"/>
<text text-anchor="start" x="317.335" y="-51.5" font-family="Helvetica,sans-Serif" font-size="10.00" fill="#000000">Core::IO::UserLED::</text>
<text text-anchor="middle" x="362.061" y="-39.5" font-family="Helvetica,sans-Serif" font-size="10.00" fill="#000000">changeBlinkTime</text>
</a>
</g>
</g>
<!-- Node6&#45;&gt;Node7 -->
<g id="edge7" class="edge">
<title>Node6&#45;&gt;Node7</title>
<path fill="none" stroke="#191970" d="M274.5352,-29.9068C286.0639,-32.3558 297.9847,-34.8882 309.1779,-37.266"/>
<polygon fill="#191970" stroke="#191970" points="275.042,-26.4364 264.533,-27.782 273.5874,-33.2836 275.042,-26.4364"/>
</g>
<!-- Node8 -->
<g id="node8" class="node">
<title>Node8</title>
<g id="a_node8"><a xlink:href="structCore_1_1IO_1_1UserLED_1_1Setup.html#a72bdd70912a6322aba2da15c28a84fbe" target="_top" xlink:title="Core::IO::UserLED::\lSetup::Setup">
<polygon fill="#ffffff" stroke="#000000" points="456.648,-20.5 456.648,-52.5 562.1,-52.5 562.1,-20.5 456.648,-20.5"/>
<text text-anchor="start" x="464.648" y="-39.5" font-family="Helvetica,sans-Serif" font-size="10.00" fill="#000000">Core::IO::UserLED::</text>
<text text-anchor="middle" x="509.374" y="-27.5" font-family="Helvetica,sans-Serif" font-size="10.00" fill="#000000">Setup::Setup</text>
</a>
</g>
</g>
<!-- Node6&#45;&gt;Node8 -->
<g id="edge9" class="edge">
<title>Node6&#45;&gt;Node8</title>
<path fill="none" stroke="#191970" d="M274.3229,-16.3744C315.0193,-16.7773 369.1035,-18.2194 416.745,-22.5 429.704,-23.6644 443.6095,-25.4682 456.6043,-27.3981"/>
<polygon fill="#191970" stroke="#191970" points="274.3048,-12.8742 264.2768,-16.2932 274.2482,-19.874 274.3048,-12.8742"/>
</g>
<!-- Node7&#45;&gt;Node8 -->
<g id="edge8" class="edge">
<title>Node7&#45;&gt;Node8</title>
<path fill="none" stroke="#191970" d="M424.8172,-43.3879C435.3635,-42.5288 446.2147,-41.6449 456.48,-40.8087"/>
<polygon fill="#191970" stroke="#191970" points="424.5111,-39.9012 414.8283,-44.2016 425.0795,-46.8781 424.5111,-39.9012"/>
</g>
</g>
</svg>
