<?xml version="1.0" encoding="UTF-8" standalone="no"?>
<!DOCTYPE svg PUBLIC "-//W3C//DTD SVG 1.1//EN"
 "http://www.w3.org/Graphics/SVG/1.1/DTD/svg11.dtd">
<!-- Generated by graphviz version 2.40.1 (20161225.0304)
 -->
<!-- Title: Core::IO::UserLED::changeBlinkTime Pages: 1 -->
<svg width="406pt" height="92pt"
 viewBox="0.00 0.00 406.38 92.00" xmlns="http://www.w3.org/2000/svg" xmlns:xlink="http://www.w3.org/1999/xlink">
<g id="graph0" class="graph" transform="scale(1 1) rotate(0) translate(4 88)">
<title>Core::IO::UserLED::changeBlinkTime</title>
<polygon fill="#ffffff" stroke="transparent" points="-4,4 -4,-88 402.375,-88 402.375,4 -4,4"/>
<!-- Node7 -->
<g id="node1" class="node">
<title>Node7</title>
<polygon fill="#bfbfbf" stroke="#000000" points="0,-25.5 0,-57.5 105.452,-57.5 105.452,-25.5 0,-25.5"/>
<text text-anchor="start" x="8" y="-44.5" font-family="Helvetica,sans-Serif" font-size="10.00" fill="#000000">Core::IO::UserLED::</text>
<text text-anchor="middle" x="52.726" y="-32.5" font-family="Helvetica,sans-Serif" font-size="10.00" fill="#000000">changeBlinkTime</text>
</g>
<!-- Node8 -->
<g id="node2" class="node">
<title>Node8</title>
<g id="a_node2"><a xlink:href="classCore_1_1IO_1_1UserLED.html#ac39c3ed451b83046ff37ecb4ccff142c" target="_top" xlink:title="setState method sets the state of the LED ">
<polygon fill="#ffffff" stroke="#000000" points="141.452,-25.5 141.452,-57.5 246.904,-57.5 246.904,-25.5 141.452,-25.5"/>
<text text-anchor="start" x="149.452" y="-44.5" font-family="Helvetica,sans-Serif" font-size="10.00" fill="#000000">Core::IO::UserLED::</text>
<text text-anchor="middle" x="194.178" y="-32.5" font-family="Helvetica,sans-Serif" font-size="10.00" fill="#000000">setState</text>
</a>
</g>
</g>
<!-- Node7&#45;&gt;Node8 -->
<g id="edge1" class="edge">
<title>Node7&#45;&gt;Node8</title>
<path fill="none" stroke="#191970" d="M105.7999,-41.5C114.0484,-41.5 122.6391,-41.5 131.083,-41.5"/>
<polygon fill="#191970" stroke="#191970" points="131.2771,-45.0001 141.277,-41.5 131.277,-38.0001 131.2771,-45.0001"/>
</g>
<!-- Node9 -->
<g id="node3" class="node">
<title>Node9</title>
<g id="a_node3"><a xlink:href="classCore_1_1IO_1_1UserLED.html#a5d7887f070c9ce082f8be1d3aae448d2" target="_top" xlink:title="state getter ">
<polygon fill="#ffffff" stroke="#000000" points="287.9135,-51.5 287.9135,-83.5 393.3655,-83.5 393.3655,-51.5 287.9135,-51.5"/>
<text text-anchor="start" x="295.9135" y="-70.5" font-family="Helvetica,sans-Serif" font-size="10.00" fill="#000000">Core::IO::UserLED::</text>
<text text-anchor="middle" x="340.6395" y="-58.5" font-family="Helvetica,sans-Serif" font-size="10.00" fill="#000000">state</text>
</a>
</g>
</g>
<!-- Node8&#45;&gt;Node9 -->
<g id="edge2" class="edge">
<title>Node8&#45;&gt;Node9</title>
<path fill="none" stroke="#191970" d="M247.054,-50.8866C257.0094,-52.6539 267.51,-54.518 277.7365,-56.3334"/>
<polygon fill="#191970" stroke="#191970" points="277.3833,-59.8253 287.8412,-58.1272 278.6069,-52.9331 277.3833,-59.8253"/>
</g>
<!-- Node10 -->
<g id="node4" class="node">
<title>Node10</title>
<g id="a_node4"><a xlink:href="classCore_1_1ThreadHelper.html#a138066760eabf36c1681bbd177db0446" target="_top" xlink:title="startDetachedThread ">
<polygon fill="#ffffff" stroke="#000000" points="282.904,-.5 282.904,-32.5 398.375,-32.5 398.375,-.5 282.904,-.5"/>
<text text-anchor="start" x="290.904" y="-19.5" font-family="Helvetica,sans-Serif" font-size="10.00" fill="#000000">Core::ThreadHelper</text>
<text text-anchor="middle" x="340.6395" y="-7.5" font-family="Helvetica,sans-Serif" font-size="10.00" fill="#000000">::startDetachedThread</text>
</a>
</g>
</g>
<!-- Node8&#45;&gt;Node10 -->
<g id="edge3" class="edge">
<title>Node8&#45;&gt;Node10</title>
<path fill="none" stroke="#191970" d="M247.054,-32.4744C255.4167,-31.047 264.1642,-29.5538 272.8107,-28.0779"/>
<polygon fill="#191970" stroke="#191970" points="273.617,-31.491 282.8855,-26.3582 272.4391,-24.5908 273.617,-31.491"/>
</g>
</g>
</svg>
