<?xml version="1.0" encoding="UTF-8" standalone="no"?>
<!DOCTYPE svg PUBLIC "-//W3C//DTD SVG 1.1//EN"
 "http://www.w3.org/Graphics/SVG/1.1/DTD/svg11.dtd">
<!-- Generated by graphviz version 2.40.1 (20161225.0304)
 -->
<!-- Title: LibBBB::Bluetooth::Manager::isConnected Pages: 1 -->
<svg width="277pt" height="41pt"
 viewBox="0.00 0.00 276.60 41.00" xmlns="http://www.w3.org/2000/svg" xmlns:xlink="http://www.w3.org/1999/xlink">
<g id="graph0" class="graph" transform="scale(1 1) rotate(0) translate(4 37)">
<title>LibBBB::Bluetooth::Manager::isConnected</title>
<polygon fill="#ffffff" stroke="transparent" points="-4,4 -4,-37 272.602,-37 272.602,4 -4,4"/>
<!-- Node5 -->
<g id="node1" class="node">
<title>Node5</title>
<polygon fill="#bfbfbf" stroke="#000000" points="0,-.5 0,-32.5 116.582,-32.5 116.582,-.5 0,-.5"/>
<text text-anchor="start" x="8" y="-19.5" font-family="Helvetica,sans-Serif" font-size="10.00" fill="#000000">LibBBB::Bluetooth::</text>
<text text-anchor="middle" x="58.291" y="-7.5" font-family="Helvetica,sans-Serif" font-size="10.00" fill="#000000">Manager::isConnected</text>
</g>
<!-- Node6 -->
<g id="node2" class="node">
<title>Node6</title>
<g id="a_node2"><a xlink:href="classLibBBB_1_1ThreadHelper.html#a068eff4b68a89c09c63d8780621b431a" target="_top" xlink:title="startJoinableThread ">
<polygon fill="#ffffff" stroke="#000000" points="152.582,-.5 152.582,-32.5 268.602,-32.5 268.602,-.5 152.582,-.5"/>
<text text-anchor="start" x="160.582" y="-19.5" font-family="Helvetica,sans-Serif" font-size="10.00" fill="#000000">LibBBB::ThreadHelper</text>
<text text-anchor="middle" x="210.592" y="-7.5" font-family="Helvetica,sans-Serif" font-size="10.00" fill="#000000">::startJoinableThread</text>
</a>
</g>
</g>
<!-- Node5&#45;&gt;Node6 -->
<g id="edge1" class="edge">
<title>Node5&#45;&gt;Node6</title>
<path fill="none" stroke="#191970" d="M116.739,-16.5C125.18,-16.5 133.9283,-16.5 142.5369,-16.5"/>
<polygon fill="#191970" stroke="#191970" points="142.5519,-20.0001 152.5519,-16.5 142.5518,-13.0001 142.5519,-20.0001"/>
</g>
</g>
</svg>
