<?xml version="1.0" encoding="UTF-8" standalone="no"?>
<!DOCTYPE svg PUBLIC "-//W3C//DTD SVG 1.1//EN"
 "http://www.w3.org/Graphics/SVG/1.1/DTD/svg11.dtd">
<!-- Generated by graphviz version 2.40.1 (20161225.0304)
 -->
<!-- Title: LibBBB::IO::UserLED::setState Pages: 1 -->
<svg width="415pt" height="64pt"
 viewBox="0.00 0.00 414.72 64.00" xmlns="http://www.w3.org/2000/svg" xmlns:xlink="http://www.w3.org/1999/xlink">
<g id="graph0" class="graph" transform="scale(1 1) rotate(0) translate(4 60)">
<title>LibBBB::IO::UserLED::setState</title>
<polygon fill="#ffffff" stroke="transparent" points="-4,4 -4,-60 410.716,-60 410.716,4 -4,4"/>
<!-- Node16 -->
<g id="node1" class="node">
<title>Node16</title>
<polygon fill="#bfbfbf" stroke="#000000" points="0,-.5 0,-32.5 111.572,-32.5 111.572,-.5 0,-.5"/>
<text text-anchor="start" x="8" y="-19.5" font-family="Helvetica,sans-Serif" font-size="10.00" fill="#000000">LibBBB::IO::UserLED</text>
<text text-anchor="middle" x="55.786" y="-7.5" font-family="Helvetica,sans-Serif" font-size="10.00" fill="#000000">::setState</text>
</g>
<!-- Node17 -->
<g id="node2" class="node">
<title>Node17</title>
<g id="a_node2"><a xlink:href="classLibBBB_1_1IO_1_1UserLED.html#a3ae6a5944f06980dee85eb4504ec9eb0" target="_top" xlink:title="changeBlinkTime method changes the time of the blink ">
<polygon fill="#ffffff" stroke="#000000" points="147.572,-23.5 147.572,-55.5 259.144,-55.5 259.144,-23.5 147.572,-23.5"/>
<text text-anchor="start" x="155.572" y="-42.5" font-family="Helvetica,sans-Serif" font-size="10.00" fill="#000000">LibBBB::IO::UserLED</text>
<text text-anchor="middle" x="203.358" y="-30.5" font-family="Helvetica,sans-Serif" font-size="10.00" fill="#000000">::changeBlinkTime</text>
</a>
</g>
</g>
<!-- Node16&#45;&gt;Node17 -->
<g id="edge1" class="edge">
<title>Node16&#45;&gt;Node17</title>
<path fill="none" stroke="#191970" d="M121.6187,-26.7604C130.2552,-28.1065 139.0386,-29.4754 147.4885,-30.7924"/>
<polygon fill="#191970" stroke="#191970" points="121.9964,-23.2771 111.5766,-25.1953 120.9183,-30.1936 121.9964,-23.2771"/>
</g>
<!-- Node18 -->
<g id="node3" class="node">
<title>Node18</title>
<g id="a_node3"><a xlink:href="structLibBBB_1_1IO_1_1UserLED_1_1Setup.html#a25c259e98aa65d6594d0031eb0463b01" target="_top" xlink:title="LibBBB::IO::UserLED\l::Setup::Setup">
<polygon fill="#ffffff" stroke="#000000" points="295.144,-.5 295.144,-32.5 406.716,-32.5 406.716,-.5 295.144,-.5"/>
<text text-anchor="start" x="303.144" y="-19.5" font-family="Helvetica,sans-Serif" font-size="10.00" fill="#000000">LibBBB::IO::UserLED</text>
<text text-anchor="middle" x="350.93" y="-7.5" font-family="Helvetica,sans-Serif" font-size="10.00" fill="#000000">::Setup::Setup</text>
</a>
</g>
</g>
<!-- Node16&#45;&gt;Node18 -->
<g id="edge3" class="edge">
<title>Node16&#45;&gt;Node18</title>
<path fill="none" stroke="#191970" d="M121.728,-14.8903C130.4194,-14.7289 139.2096,-14.5911 147.572,-14.5 197.1566,-13.9598 209.5594,-13.9598 259.144,-14.5 270.7787,-14.6267 283.2414,-14.8438 295.114,-15.0894"/>
<polygon fill="#191970" stroke="#191970" points="121.5313,-11.3934 111.602,-15.0894 121.6689,-18.3921 121.5313,-11.3934"/>
</g>
<!-- Node17&#45;&gt;Node18 -->
<g id="edge2" class="edge">
<title>Node17&#45;&gt;Node18</title>
<path fill="none" stroke="#191970" d="M269.1907,-29.2396C277.8272,-27.8935 286.6106,-26.5246 295.0605,-25.2076"/>
<polygon fill="#191970" stroke="#191970" points="268.4903,-25.8064 259.1486,-30.8047 269.5684,-32.7229 268.4903,-25.8064"/>
</g>
</g>
</svg>
