<?xml version="1.0" encoding="UTF-8" standalone="no"?>
<!DOCTYPE svg PUBLIC "-//W3C//DTD SVG 1.1//EN"
 "http://www.w3.org/Graphics/SVG/1.1/DTD/svg11.dtd">
<!-- Generated by graphviz version 2.40.1 (20161225.0304)
 -->
<!-- Title: LibBBB::IO::Input::setDebounceTime Pages: 1 -->
<svg width="242pt" height="41pt"
 viewBox="0.00 0.00 241.62 41.00" xmlns="http://www.w3.org/2000/svg" xmlns:xlink="http://www.w3.org/1999/xlink">
<g id="graph0" class="graph" transform="scale(1 1) rotate(0) translate(4 37)">
<title>LibBBB::IO::Input::setDebounceTime</title>
<polygon fill="#ffffff" stroke="transparent" points="-4,4 -4,-37 237.622,-37 237.622,4 -4,4"/>
<!-- Node26 -->
<g id="node1" class="node">
<title>Node26</title>
<polygon fill="#bfbfbf" stroke="#000000" points="0,-.5 0,-32.5 98.811,-32.5 98.811,-.5 0,-.5"/>
<text text-anchor="start" x="8" y="-19.5" font-family="Helvetica,sans-Serif" font-size="10.00" fill="#000000">LibBBB::IO::Input::</text>
<text text-anchor="middle" x="49.4055" y="-7.5" font-family="Helvetica,sans-Serif" font-size="10.00" fill="#000000">setDebounceTime</text>
</g>
<!-- Node27 -->
<g id="node2" class="node">
<title>Node27</title>
<g id="a_node2"><a xlink:href="structLibBBB_1_1IO_1_1Input_1_1Setup.html#a1ad926b46c1818dd934b0b99ddb63386" target="_top" xlink:title="LibBBB::IO::Input::\lSetup::Setup">
<polygon fill="#ffffff" stroke="#000000" points="134.811,-.5 134.811,-32.5 233.622,-32.5 233.622,-.5 134.811,-.5"/>
<text text-anchor="start" x="142.811" y="-19.5" font-family="Helvetica,sans-Serif" font-size="10.00" fill="#000000">LibBBB::IO::Input::</text>
<text text-anchor="middle" x="184.2165" y="-7.5" font-family="Helvetica,sans-Serif" font-size="10.00" fill="#000000">Setup::Setup</text>
</a>
</g>
</g>
<!-- Node26&#45;&gt;Node27 -->
<g id="edge1" class="edge">
<title>Node26&#45;&gt;Node27</title>
<path fill="none" stroke="#191970" d="M108.8806,-16.5C117.5338,-16.5 126.3637,-16.5 134.7893,-16.5"/>
<polygon fill="#191970" stroke="#191970" points="108.8387,-13.0001 98.8386,-16.5 108.8386,-20.0001 108.8387,-13.0001"/>
</g>
</g>
</svg>
