<?xml version="1.0" encoding="UTF-8" standalone="no"?>
<!DOCTYPE svg PUBLIC "-//W3C//DTD SVG 1.1//EN"
 "http://www.w3.org/Graphics/SVG/1.1/DTD/svg11.dtd">
<!-- Generated by graphviz version 2.40.1 (20161225.0304)
 -->
<!-- Title: LibBBB::IO::MotorControl::frequency Pages: 1 -->
<svg width="302pt" height="92pt"
 viewBox="0.00 0.00 301.59 92.00" xmlns="http://www.w3.org/2000/svg" xmlns:xlink="http://www.w3.org/1999/xlink">
<g id="graph0" class="graph" transform="scale(1 1) rotate(0) translate(4 88)">
<title>LibBBB::IO::MotorControl::frequency</title>
<polygon fill="#ffffff" stroke="transparent" points="-4,4 -4,-88 297.592,-88 297.592,4 -4,4"/>
<!-- Node13 -->
<g id="node1" class="node">
<title>Node13</title>
<polygon fill="#bfbfbf" stroke="#000000" points="0,-25.5 0,-57.5 128.796,-57.5 128.796,-25.5 0,-25.5"/>
<text text-anchor="start" x="8" y="-44.5" font-family="Helvetica,sans-Serif" font-size="10.00" fill="#000000">LibBBB::IO::MotorControl</text>
<text text-anchor="middle" x="64.398" y="-32.5" font-family="Helvetica,sans-Serif" font-size="10.00" fill="#000000">::frequency</text>
</g>
<!-- Node14 -->
<g id="node2" class="node">
<title>Node14</title>
<g id="a_node2"><a xlink:href="classLibBBB_1_1IO_1_1MotorControl.html#a6cc4129f244eceb6031ab03f62ce9b6a" target="_top" xlink:title="setFrequency sets the frequency of the signal ">
<polygon fill="#ffffff" stroke="#000000" points="164.796,-51.5 164.796,-83.5 293.592,-83.5 293.592,-51.5 164.796,-51.5"/>
<text text-anchor="start" x="172.796" y="-70.5" font-family="Helvetica,sans-Serif" font-size="10.00" fill="#000000">LibBBB::IO::MotorControl</text>
<text text-anchor="middle" x="229.194" y="-58.5" font-family="Helvetica,sans-Serif" font-size="10.00" fill="#000000">::setFrequency</text>
</a>
</g>
</g>
<!-- Node13&#45;&gt;Node14 -->
<g id="edge1" class="edge">
<title>Node13&#45;&gt;Node14</title>
<path fill="none" stroke="#191970" d="M139.0444,-53.277C147.6158,-54.6293 156.3,-55.9995 164.7217,-57.3282"/>
<polygon fill="#191970" stroke="#191970" points="139.4801,-49.8025 129.0568,-51.7013 138.3891,-56.717 139.4801,-49.8025"/>
</g>
<!-- Node15 -->
<g id="node3" class="node">
<title>Node15</title>
<g id="a_node3"><a xlink:href="classLibBBB_1_1IO_1_1MotorControl.html#afe600d5686e325e4f7de645729ba1c4e" target="_top" xlink:title="dutyCycle getter ">
<polygon fill="#ffffff" stroke="#000000" points="164.796,-.5 164.796,-32.5 293.592,-32.5 293.592,-.5 164.796,-.5"/>
<text text-anchor="start" x="172.796" y="-19.5" font-family="Helvetica,sans-Serif" font-size="10.00" fill="#000000">LibBBB::IO::MotorControl</text>
<text text-anchor="middle" x="229.194" y="-7.5" font-family="Helvetica,sans-Serif" font-size="10.00" fill="#000000">::dutyCycle</text>
</a>
</g>
</g>
<!-- Node13&#45;&gt;Node15 -->
<g id="edge2" class="edge">
<title>Node13&#45;&gt;Node15</title>
<path fill="none" stroke="#191970" d="M139.0444,-30.1759C147.6158,-28.8756 156.3,-27.5582 164.7217,-26.2806"/>
<polygon fill="#191970" stroke="#191970" points="138.4187,-26.7307 129.0568,-31.6911 139.4686,-33.6515 138.4187,-26.7307"/>
</g>
</g>
</svg>
