<?xml version="1.0" encoding="UTF-8" standalone="no"?>
<!DOCTYPE svg PUBLIC "-//W3C//DTD SVG 1.1//EN"
 "http://www.w3.org/Graphics/SVG/1.1/DTD/svg11.dtd">
<!-- Generated by graphviz version 2.40.1 (20161225.0304)
 -->
<!-- Title: LibBBB::IO::MotorControl::setPulseWidth Pages: 1 -->
<svg width="302pt" height="92pt"
 viewBox="0.00 0.00 301.59 92.00" xmlns="http://www.w3.org/2000/svg" xmlns:xlink="http://www.w3.org/1999/xlink">
<g id="graph0" class="graph" transform="scale(1 1) rotate(0) translate(4 88)">
<title>LibBBB::IO::MotorControl::setPulseWidth</title>
<polygon fill="#ffffff" stroke="transparent" points="-4,4 -4,-88 297.592,-88 297.592,4 -4,4"/>
<!-- Node43 -->
<g id="node1" class="node">
<title>Node43</title>
<polygon fill="#bfbfbf" stroke="#000000" points="0,-25.5 0,-57.5 128.796,-57.5 128.796,-25.5 0,-25.5"/>
<text text-anchor="start" x="8" y="-44.5" font-family="Helvetica,sans-Serif" font-size="10.00" fill="#000000">LibBBB::IO::MotorControl</text>
<text text-anchor="middle" x="64.398" y="-32.5" font-family="Helvetica,sans-Serif" font-size="10.00" fill="#000000">::setPulseWidth</text>
</g>
<!-- Node44 -->
<g id="node2" class="node">
<title>Node44</title>
<g id="a_node2"><a xlink:href="classLibBBB_1_1IO_1_1MotorControl.html#a55e9586e72ae2fc6ab868f8cfa6429a0" target="_top" xlink:title="pulseWidth getter ">
<polygon fill="#ffffff" stroke="#000000" points="164.796,-51.5 164.796,-83.5 293.592,-83.5 293.592,-51.5 164.796,-51.5"/>
<text text-anchor="start" x="172.796" y="-70.5" font-family="Helvetica,sans-Serif" font-size="10.00" fill="#000000">LibBBB::IO::MotorControl</text>
<text text-anchor="middle" x="229.194" y="-58.5" font-family="Helvetica,sans-Serif" font-size="10.00" fill="#000000">::pulseWidth</text>
</a>
</g>
</g>
<!-- Node43&#45;&gt;Node44 -->
<g id="edge1" class="edge">
<title>Node43&#45;&gt;Node44</title>
<path fill="none" stroke="#191970" d="M129.0568,-51.7013C137.4823,-53.0306 146.1676,-54.4009 154.7373,-55.7529"/>
<polygon fill="#191970" stroke="#191970" points="154.2984,-59.2269 164.7217,-57.3282 155.3894,-52.3124 154.2984,-59.2269"/>
</g>
<!-- Node45 -->
<g id="node3" class="node">
<title>Node45</title>
<g id="a_node3"><a xlink:href="classLibBBB_1_1IO_1_1MotorControl.html#a2caa62735bf2f443e88a9095287cbad2" target="_top" xlink:title="setPulseWidth sets the pulse width of the signal ">
<polygon fill="#ffffff" stroke="#000000" points="164.796,-.5 164.796,-32.5 293.592,-32.5 293.592,-.5 164.796,-.5"/>
<text text-anchor="start" x="172.796" y="-19.5" font-family="Helvetica,sans-Serif" font-size="10.00" fill="#000000">LibBBB::IO::MotorControl</text>
<text text-anchor="middle" x="229.194" y="-7.5" font-family="Helvetica,sans-Serif" font-size="10.00" fill="#000000">::setPulseWidth</text>
</a>
</g>
</g>
<!-- Node43&#45;&gt;Node45 -->
<g id="edge2" class="edge">
<title>Node43&#45;&gt;Node45</title>
<path fill="none" stroke="#191970" d="M129.0568,-31.6911C137.4823,-30.4129 146.1676,-29.0953 154.7373,-27.7953"/>
<polygon fill="#191970" stroke="#191970" points="155.3598,-31.241 164.7217,-26.2806 154.3098,-24.3202 155.3598,-31.241"/>
</g>
</g>
</svg>
