<?xml version="1.0" encoding="UTF-8" standalone="no"?>
<!DOCTYPE svg PUBLIC "-//W3C//DTD SVG 1.1//EN"
 "http://www.w3.org/Graphics/SVG/1.1/DTD/svg11.dtd">
<!-- Generated by graphviz version 2.40.1 (20161225.0304)
 -->
<!-- Title: LibBBB::IO::Input::cancelWaitForEdge Pages: 1 -->
<svg width="246pt" height="41pt"
 viewBox="0.00 0.00 246.05 41.00" xmlns="http://www.w3.org/2000/svg" xmlns:xlink="http://www.w3.org/1999/xlink">
<g id="graph0" class="graph" transform="scale(1 1) rotate(0) translate(4 37)">
<title>LibBBB::IO::Input::cancelWaitForEdge</title>
<polygon fill="#ffffff" stroke="transparent" points="-4,4 -4,-37 242.046,-37 242.046,4 -4,4"/>
<!-- Node16 -->
<g id="node1" class="node">
<title>Node16</title>
<polygon fill="#bfbfbf" stroke="#000000" points="0,-.5 0,-32.5 103.235,-32.5 103.235,-.5 0,-.5"/>
<text text-anchor="start" x="8" y="-19.5" font-family="Helvetica,sans-Serif" font-size="10.00" fill="#000000">LibBBB::IO::Input::</text>
<text text-anchor="middle" x="51.6175" y="-7.5" font-family="Helvetica,sans-Serif" font-size="10.00" fill="#000000">cancelWaitForEdge</text>
</g>
<!-- Node17 -->
<g id="node2" class="node">
<title>Node17</title>
<g id="a_node2"><a xlink:href="structLibBBB_1_1IO_1_1Input_1_1Setup.html#a1ad926b46c1818dd934b0b99ddb63386" target="_top" xlink:title="LibBBB::IO::Input::\lSetup::Setup">
<polygon fill="#ffffff" stroke="#000000" points="139.235,-.5 139.235,-32.5 238.046,-32.5 238.046,-.5 139.235,-.5"/>
<text text-anchor="start" x="147.235" y="-19.5" font-family="Helvetica,sans-Serif" font-size="10.00" fill="#000000">LibBBB::IO::Input::</text>
<text text-anchor="middle" x="188.6405" y="-7.5" font-family="Helvetica,sans-Serif" font-size="10.00" fill="#000000">Setup::Setup</text>
</a>
</g>
</g>
<!-- Node16&#45;&gt;Node17 -->
<g id="edge1" class="edge">
<title>Node16&#45;&gt;Node17</title>
<path fill="none" stroke="#191970" d="M113.6782,-16.5C122.1714,-16.5 130.7981,-16.5 139.0298,-16.5"/>
<polygon fill="#191970" stroke="#191970" points="113.4201,-13.0001 103.42,-16.5 113.42,-20.0001 113.4201,-13.0001"/>
</g>
</g>
</svg>
