<?xml version="1.0" encoding="UTF-8" standalone="no"?>
<!DOCTYPE svg PUBLIC "-//W3C//DTD SVG 1.1//EN"
 "http://www.w3.org/Graphics/SVG/1.1/DTD/svg11.dtd">
<!-- Generated by graphviz version 2.40.1 (20161225.0304)
 -->
<!-- Title: LibBBB::AnalogToDigitalController::adcVoltage Pages: 1 -->
<svg width="382pt" height="41pt"
 viewBox="0.00 0.00 381.59 41.00" xmlns="http://www.w3.org/2000/svg" xmlns:xlink="http://www.w3.org/1999/xlink">
<g id="graph0" class="graph" transform="scale(1 1) rotate(0) translate(4 37)">
<title>LibBBB::AnalogToDigitalController::adcVoltage</title>
<polygon fill="#ffffff" stroke="transparent" points="-4,4 -4,-37 377.594,-37 377.594,4 -4,4"/>
<!-- Node2 -->
<g id="node1" class="node">
<title>Node2</title>
<polygon fill="#bfbfbf" stroke="#000000" points="0,-.5 0,-32.5 168.797,-32.5 168.797,-.5 0,-.5"/>
<text text-anchor="start" x="8" y="-19.5" font-family="Helvetica,sans-Serif" font-size="10.00" fill="#000000">LibBBB::AnalogToDigitalController</text>
<text text-anchor="middle" x="84.3985" y="-7.5" font-family="Helvetica,sans-Serif" font-size="10.00" fill="#000000">::adcVoltage</text>
</g>
<!-- Node3 -->
<g id="node2" class="node">
<title>Node3</title>
<g id="a_node2"><a xlink:href="classLibBBB_1_1AnalogToDigitalController.html#a70fd232420c8ad366bd456e9db580369" target="_top" xlink:title="rawADCValue gets the raw (unscaled) ADC value ">
<polygon fill="#ffffff" stroke="#000000" points="204.797,-.5 204.797,-32.5 373.594,-32.5 373.594,-.5 204.797,-.5"/>
<text text-anchor="start" x="212.797" y="-19.5" font-family="Helvetica,sans-Serif" font-size="10.00" fill="#000000">LibBBB::AnalogToDigitalController</text>
<text text-anchor="middle" x="289.1955" y="-7.5" font-family="Helvetica,sans-Serif" font-size="10.00" fill="#000000">::rawADCValue</text>
</a>
</g>
</g>
<!-- Node2&#45;&gt;Node3 -->
<g id="edge1" class="edge">
<title>Node2&#45;&gt;Node3</title>
<path fill="none" stroke="#191970" d="M168.8797,-16.5C177.3534,-16.5 185.9961,-16.5 194.5659,-16.5"/>
<polygon fill="#191970" stroke="#191970" points="194.578,-20.0001 204.5779,-16.5 194.5779,-13.0001 194.578,-20.0001"/>
</g>
</g>
</svg>
