<?xml version="1.0" encoding="UTF-8" standalone="no"?>
<!DOCTYPE svg PUBLIC "-//W3C//DTD SVG 1.1//EN"
 "http://www.w3.org/Graphics/SVG/1.1/DTD/svg11.dtd">
<!-- Generated by graphviz version 2.40.1 (20161225.0304)
 -->
<!-- Title: Core::Math::LinearConverter::convertYtoX Pages: 1 -->
<svg width="304pt" height="92pt"
 viewBox="0.00 0.00 304.36 92.00" xmlns="http://www.w3.org/2000/svg" xmlns:xlink="http://www.w3.org/1999/xlink">
<g id="graph0" class="graph" transform="scale(1 1) rotate(0) translate(4 88)">
<title>Core::Math::LinearConverter::convertYtoX</title>
<polygon fill="#ffffff" stroke="transparent" points="-4,4 -4,-88 300.363,-88 300.363,4 -4,4"/>
<!-- Node7 -->
<g id="node1" class="node">
<title>Node7</title>
<polygon fill="#bfbfbf" stroke="#000000" points="0,-25.5 0,-57.5 142.684,-57.5 142.684,-25.5 0,-25.5"/>
<text text-anchor="start" x="8" y="-44.5" font-family="Helvetica,sans-Serif" font-size="10.00" fill="#000000">Core::Math::LinearConverter</text>
<text text-anchor="middle" x="71.342" y="-32.5" font-family="Helvetica,sans-Serif" font-size="10.00" fill="#000000">::convertYtoX</text>
</g>
<!-- Node8 -->
<g id="node2" class="node">
<title>Node8</title>
<g id="a_node2"><a xlink:href="classCore_1_1IO_1_1MotorControl.html#a334e005bc613fa4be50eade98f7ea653" target="_top" xlink:title="dutyCycle getter ">
<polygon fill="#ffffff" stroke="#000000" points="178.9645,-51.5 178.9645,-83.5 296.0825,-83.5 296.0825,-51.5 178.9645,-51.5"/>
<text text-anchor="start" x="186.9645" y="-70.5" font-family="Helvetica,sans-Serif" font-size="10.00" fill="#000000">Core::IO::MotorControl</text>
<text text-anchor="middle" x="237.5235" y="-58.5" font-family="Helvetica,sans-Serif" font-size="10.00" fill="#000000">::dutyCycle</text>
</a>
</g>
</g>
<!-- Node7&#45;&gt;Node8 -->
<g id="edge1" class="edge">
<title>Node7&#45;&gt;Node8</title>
<path fill="none" stroke="#191970" d="M152.7223,-54.2324C161.5547,-55.6143 170.413,-57.0002 178.8976,-58.3277"/>
<polygon fill="#191970" stroke="#191970" points="153.2032,-50.7651 142.7823,-52.6772 152.1211,-57.681 153.2032,-50.7651"/>
</g>
<!-- Node9 -->
<g id="node3" class="node">
<title>Node9</title>
<g id="a_node3"><a xlink:href="classCore_1_1IO_1_1ServoControl.html#a7bc94ffbe8d0403f06e8e5b6fd59a6b0" target="_top" xlink:title="desiredDegree getter ">
<polygon fill="#ffffff" stroke="#000000" points="178.684,-.5 178.684,-32.5 296.363,-32.5 296.363,-.5 178.684,-.5"/>
<text text-anchor="start" x="186.684" y="-19.5" font-family="Helvetica,sans-Serif" font-size="10.00" fill="#000000">Core::IO::ServoControl</text>
<text text-anchor="middle" x="237.5235" y="-7.5" font-family="Helvetica,sans-Serif" font-size="10.00" fill="#000000">::desiredDegree</text>
</a>
</g>
</g>
<!-- Node7&#45;&gt;Node9 -->
<g id="edge2" class="edge">
<title>Node7&#45;&gt;Node9</title>
<path fill="none" stroke="#191970" d="M152.9323,-29.2257C161.6064,-27.9208 170.3023,-26.6126 178.6418,-25.358"/>
<polygon fill="#191970" stroke="#191970" points="152.1504,-25.8039 142.7823,-30.7527 153.1918,-32.726 152.1504,-25.8039"/>
</g>
</g>
</svg>
