<?xml version="1.0" encoding="UTF-8" standalone="no"?>
<!DOCTYPE svg PUBLIC "-//W3C//DTD SVG 1.1//EN"
 "http://www.w3.org/Graphics/SVG/1.1/DTD/svg11.dtd">
<!-- Generated by graphviz version 2.40.1 (20161225.0304)
 -->
<!-- Title: Core::IO::ServoControl::desiredDegree Pages: 1 -->
<svg width="304pt" height="92pt"
 viewBox="0.00 0.00 304.36 92.00" xmlns="http://www.w3.org/2000/svg" xmlns:xlink="http://www.w3.org/1999/xlink">
<g id="graph0" class="graph" transform="scale(1 1) rotate(0) translate(4 88)">
<title>Core::IO::ServoControl::desiredDegree</title>
<polygon fill="#ffffff" stroke="transparent" points="-4,4 -4,-88 300.363,-88 300.363,4 -4,4"/>
<!-- Node4 -->
<g id="node1" class="node">
<title>Node4</title>
<polygon fill="#bfbfbf" stroke="#000000" points="0,-25.5 0,-57.5 117.679,-57.5 117.679,-25.5 0,-25.5"/>
<text text-anchor="start" x="8" y="-44.5" font-family="Helvetica,sans-Serif" font-size="10.00" fill="#000000">Core::IO::ServoControl</text>
<text text-anchor="middle" x="58.8395" y="-32.5" font-family="Helvetica,sans-Serif" font-size="10.00" fill="#000000">::desiredDegree</text>
</g>
<!-- Node5 -->
<g id="node2" class="node">
<title>Node5</title>
<g id="a_node2"><a xlink:href="classCore_1_1Math_1_1LinearConverter.html#a0edafa0346e994028957ac9f88dacc7e" target="_top" xlink:title="convertYtoX getter. Uses x = ( y &#45; b ) / m. ">
<polygon fill="#ffffff" stroke="#000000" points="153.679,-51.5 153.679,-83.5 296.363,-83.5 296.363,-51.5 153.679,-51.5"/>
<text text-anchor="start" x="161.679" y="-70.5" font-family="Helvetica,sans-Serif" font-size="10.00" fill="#000000">Core::Math::LinearConverter</text>
<text text-anchor="middle" x="225.021" y="-58.5" font-family="Helvetica,sans-Serif" font-size="10.00" fill="#000000">::convertYtoX</text>
</a>
</g>
</g>
<!-- Node4&#45;&gt;Node5 -->
<g id="edge1" class="edge">
<title>Node4&#45;&gt;Node5</title>
<path fill="none" stroke="#191970" d="M117.8968,-50.7398C126.2114,-52.0407 134.8773,-53.3965 143.5203,-54.7488"/>
<polygon fill="#191970" stroke="#191970" points="143.2126,-58.2431 153.6334,-56.331 144.2947,-51.3273 143.2126,-58.2431"/>
</g>
<!-- Node6 -->
<g id="node3" class="node">
<title>Node6</title>
<g id="a_node3"><a xlink:href="classCore_1_1IO_1_1MotorControl.html#a97ccba74028ff6057d25fe794350ab7f" target="_top" xlink:title="pulseWidth getter ">
<polygon fill="#ffffff" stroke="#000000" points="166.462,-.5 166.462,-32.5 283.58,-32.5 283.58,-.5 166.462,-.5"/>
<text text-anchor="start" x="174.462" y="-19.5" font-family="Helvetica,sans-Serif" font-size="10.00" fill="#000000">Core::IO::MotorControl</text>
<text text-anchor="middle" x="225.021" y="-7.5" font-family="Helvetica,sans-Serif" font-size="10.00" fill="#000000">::pulseWidth</text>
</a>
</g>
</g>
<!-- Node4&#45;&gt;Node6 -->
<g id="edge2" class="edge">
<title>Node4&#45;&gt;Node6</title>
<path fill="none" stroke="#191970" d="M117.8968,-32.6155C130.3374,-30.744 143.5644,-28.7542 156.3243,-26.8346"/>
<polygon fill="#191970" stroke="#191970" points="157.0654,-30.2626 166.4334,-25.3138 156.024,-23.3405 157.0654,-30.2626"/>
</g>
</g>
</svg>
