<?xml version="1.0" encoding="UTF-8" standalone="no"?>
<!DOCTYPE svg PUBLIC "-//W3C//DTD SVG 1.1//EN"
 "http://www.w3.org/Graphics/SVG/1.1/DTD/svg11.dtd">
<!-- Generated by graphviz version 2.40.1 (20161225.0304)
 -->
<!-- Title: VehicleControl::Bluetooth::Manager::Interface::stateChange Pages: 1 -->
<svg width="341pt" height="53pt"
 viewBox="0.00 0.00 340.52 53.00" xmlns="http://www.w3.org/2000/svg" xmlns:xlink="http://www.w3.org/1999/xlink">
<g id="graph0" class="graph" transform="scale(1 1) rotate(0) translate(4 49)">
<title>VehicleControl::Bluetooth::Manager::Interface::stateChange</title>
<polygon fill="#ffffff" stroke="transparent" points="-4,4 -4,-49 336.525,-49 336.525,4 -4,4"/>
<!-- Node6 -->
<g id="node1" class="node">
<title>Node6</title>
<polygon fill="#bfbfbf" stroke="#000000" points="0,-6.5 0,-38.5 167.719,-38.5 167.719,-6.5 0,-6.5"/>
<text text-anchor="start" x="8" y="-25.5" font-family="Helvetica,sans-Serif" font-size="10.00" fill="#000000">VehicleControl::Bluetooth</text>
<text text-anchor="middle" x="83.8595" y="-13.5" font-family="Helvetica,sans-Serif" font-size="10.00" fill="#000000">::Manager::Interface::stateChange</text>
</g>
<!-- Node7 -->
<g id="node2" class="node">
<title>Node7</title>
<g id="a_node2"><a xlink:href="classVehicleControl_1_1Bluetooth_1_1Manager_1_1Interface.html#a5858c6a4fb97a085505242c1bc8b1d89" target="_top" xlink:title="VehicleControl::Bluetooth\l::Manager::Interface::\l~Interface">
<polygon fill="#ffffff" stroke="#000000" points="203.719,-.5 203.719,-44.5 332.525,-44.5 332.525,-.5 203.719,-.5"/>
<text text-anchor="start" x="211.719" y="-31.5" font-family="Helvetica,sans-Serif" font-size="10.00" fill="#000000">VehicleControl::Bluetooth</text>
<text text-anchor="start" x="211.719" y="-19.5" font-family="Helvetica,sans-Serif" font-size="10.00" fill="#000000">::Manager::Interface::</text>
<text text-anchor="middle" x="268.122" y="-7.5" font-family="Helvetica,sans-Serif" font-size="10.00" fill="#000000">~Interface</text>
</a>
</g>
</g>
<!-- Node6&#45;&gt;Node7 -->
<g id="edge1" class="edge">
<title>Node6&#45;&gt;Node7</title>
<path fill="none" stroke="#191970" d="M178.0187,-22.5C186.6424,-22.5 195.2423,-22.5 203.5162,-22.5"/>
<polygon fill="#191970" stroke="#191970" points="177.9026,-19.0001 167.9025,-22.5 177.9025,-26.0001 177.9026,-19.0001"/>
</g>
</g>
</svg>
