<?xml version="1.0" encoding="UTF-8" standalone="no"?>
<!DOCTYPE svg PUBLIC "-//W3C//DTD SVG 1.1//EN"
 "http://www.w3.org/Graphics/SVG/1.1/DTD/svg11.dtd">
<!-- Generated by graphviz version 2.40.1 (20161225.0304)
 -->
<!-- Title: Core::IO::MotorControl::dutyCycle Pages: 1 -->
<svg width="304pt" height="143pt"
 viewBox="0.00 0.00 303.80 143.00" xmlns="http://www.w3.org/2000/svg" xmlns:xlink="http://www.w3.org/1999/xlink">
<g id="graph0" class="graph" transform="scale(1 1) rotate(0) translate(4 139)">
<title>Core::IO::MotorControl::dutyCycle</title>
<polygon fill="#ffffff" stroke="transparent" points="-4,4 -4,-139 299.802,-139 299.802,4 -4,4"/>
<!-- Node7 -->
<g id="node1" class="node">
<title>Node7</title>
<polygon fill="#bfbfbf" stroke="#000000" points="0,-51.5 0,-83.5 117.118,-83.5 117.118,-51.5 0,-51.5"/>
<text text-anchor="start" x="8" y="-70.5" font-family="Helvetica,sans-Serif" font-size="10.00" fill="#000000">Core::IO::MotorControl</text>
<text text-anchor="middle" x="58.559" y="-58.5" font-family="Helvetica,sans-Serif" font-size="10.00" fill="#000000">::dutyCycle</text>
</g>
<!-- Node8 -->
<g id="node2" class="node">
<title>Node8</title>
<g id="a_node2"><a xlink:href="classCore_1_1Math_1_1LinearConverter.html#a0edafa0346e994028957ac9f88dacc7e" target="_top" xlink:title="convertYtoX getter. Uses x = ( y &#45; b ) / m. ">
<polygon fill="#ffffff" stroke="#000000" points="153.118,-102.5 153.118,-134.5 295.802,-134.5 295.802,-102.5 153.118,-102.5"/>
<text text-anchor="start" x="161.118" y="-121.5" font-family="Helvetica,sans-Serif" font-size="10.00" fill="#000000">Core::Math::LinearConverter</text>
<text text-anchor="middle" x="224.46" y="-109.5" font-family="Helvetica,sans-Serif" font-size="10.00" fill="#000000">::convertYtoX</text>
</a>
</g>
</g>
<!-- Node7&#45;&gt;Node8 -->
<g id="edge1" class="edge">
<title>Node7&#45;&gt;Node8</title>
<path fill="none" stroke="#191970" d="M111.0511,-83.6367C127.3982,-88.662 145.5781,-94.2507 162.5086,-99.4554"/>
<polygon fill="#191970" stroke="#191970" points="161.7223,-102.8753 172.3094,-102.4683 163.7793,-96.1843 161.7223,-102.8753"/>
</g>
<!-- Node9 -->
<g id="node3" class="node">
<title>Node9</title>
<g id="a_node3"><a xlink:href="classCore_1_1IO_1_1MotorControl.html#a97ccba74028ff6057d25fe794350ab7f" target="_top" xlink:title="pulseWidth getter ">
<polygon fill="#ffffff" stroke="#000000" points="165.901,-51.5 165.901,-83.5 283.019,-83.5 283.019,-51.5 165.901,-51.5"/>
<text text-anchor="start" x="173.901" y="-70.5" font-family="Helvetica,sans-Serif" font-size="10.00" fill="#000000">Core::IO::MotorControl</text>
<text text-anchor="middle" x="224.46" y="-58.5" font-family="Helvetica,sans-Serif" font-size="10.00" fill="#000000">::pulseWidth</text>
</a>
</g>
</g>
<!-- Node7&#45;&gt;Node9 -->
<g id="edge2" class="edge">
<title>Node7&#45;&gt;Node9</title>
<path fill="none" stroke="#191970" d="M117.5166,-67.5C129.8627,-67.5 142.9847,-67.5 155.6531,-67.5"/>
<polygon fill="#191970" stroke="#191970" points="155.6923,-71.0001 165.6922,-67.5 155.6922,-64.0001 155.6923,-71.0001"/>
</g>
<!-- Node10 -->
<g id="node4" class="node">
<title>Node10</title>
<g id="a_node4"><a xlink:href="classCore_1_1IO_1_1MotorControl.html#ab5df62720b22a5e50d3158018687886a" target="_top" xlink:title="frequency getter ">
<polygon fill="#ffffff" stroke="#000000" points="165.901,-.5 165.901,-32.5 283.019,-32.5 283.019,-.5 165.901,-.5"/>
<text text-anchor="start" x="173.901" y="-19.5" font-family="Helvetica,sans-Serif" font-size="10.00" fill="#000000">Core::IO::MotorControl</text>
<text text-anchor="middle" x="224.46" y="-7.5" font-family="Helvetica,sans-Serif" font-size="10.00" fill="#000000">::frequency</text>
</a>
</g>
</g>
<!-- Node7&#45;&gt;Node10 -->
<g id="edge3" class="edge">
<title>Node7&#45;&gt;Node10</title>
<path fill="none" stroke="#191970" d="M111.0511,-51.3633C127.3982,-46.338 145.5781,-40.7493 162.5086,-35.5446"/>
<polygon fill="#191970" stroke="#191970" points="163.7793,-38.8157 172.3094,-32.5317 161.7223,-32.1247 163.7793,-38.8157"/>
</g>
</g>
</svg>
