<?xml version="1.0" encoding="UTF-8" standalone="no"?>
<!DOCTYPE svg PUBLIC "-//W3C//DTD SVG 1.1//EN"
 "http://www.w3.org/Graphics/SVG/1.1/DTD/svg11.dtd">
<!-- Generated by graphviz version 2.40.1 (20161225.0304)
 -->
<!-- Title: Core::IO::UserLED::state Pages: 1 -->
<svg width="538pt" height="102pt"
 viewBox="0.00 0.00 537.81 102.00" xmlns="http://www.w3.org/2000/svg" xmlns:xlink="http://www.w3.org/1999/xlink">
<g id="graph0" class="graph" transform="scale(1 1) rotate(0) translate(4 98)">
<title>Core::IO::UserLED::state</title>
<polygon fill="#ffffff" stroke="transparent" points="-4,4 -4,-98 533.808,-98 533.808,4 -4,4"/>
<!-- Node20 -->
<g id="node1" class="node">
<title>Node20</title>
<polygon fill="#bfbfbf" stroke="#000000" points="0,-.5 0,-32.5 105.452,-32.5 105.452,-.5 0,-.5"/>
<text text-anchor="start" x="8" y="-19.5" font-family="Helvetica,sans-Serif" font-size="10.00" fill="#000000">Core::IO::UserLED::</text>
<text text-anchor="middle" x="52.726" y="-7.5" font-family="Helvetica,sans-Serif" font-size="10.00" fill="#000000">state</text>
</g>
<!-- Node21 -->
<g id="node2" class="node">
<title>Node21</title>
<g id="a_node2"><a xlink:href="classCore_1_1IO_1_1UserLED.html#ac39c3ed451b83046ff37ecb4ccff142c" target="_top" xlink:title="setState method sets the state of the LED ">
<polygon fill="#ffffff" stroke="#000000" points="141.452,-23.5 141.452,-55.5 246.904,-55.5 246.904,-23.5 141.452,-23.5"/>
<text text-anchor="start" x="149.452" y="-42.5" font-family="Helvetica,sans-Serif" font-size="10.00" fill="#000000">Core::IO::UserLED::</text>
<text text-anchor="middle" x="194.178" y="-30.5" font-family="Helvetica,sans-Serif" font-size="10.00" fill="#000000">setState</text>
</a>
</g>
</g>
<!-- Node20&#45;&gt;Node21 -->
<g id="edge1" class="edge">
<title>Node20&#45;&gt;Node21</title>
<path fill="none" stroke="#191970" d="M115.7198,-26.7427C124.2552,-28.1306 132.9428,-29.5432 141.277,-30.8983"/>
<polygon fill="#191970" stroke="#191970" points="116.2321,-23.2802 105.7999,-25.1298 115.1086,-30.1894 116.2321,-23.2802"/>
</g>
<!-- Node23 -->
<g id="node4" class="node">
<title>Node23</title>
<g id="a_node4"><a xlink:href="structCore_1_1IO_1_1UserLED_1_1Setup.html#a72bdd70912a6322aba2da15c28a84fbe" target="_top" xlink:title="Core::IO::UserLED::\lSetup::Setup">
<polygon fill="#ffffff" stroke="#000000" points="424.356,-16.5 424.356,-48.5 529.808,-48.5 529.808,-16.5 424.356,-16.5"/>
<text text-anchor="start" x="432.356" y="-35.5" font-family="Helvetica,sans-Serif" font-size="10.00" fill="#000000">Core::IO::UserLED::</text>
<text text-anchor="middle" x="477.082" y="-23.5" font-family="Helvetica,sans-Serif" font-size="10.00" fill="#000000">Setup::Setup</text>
</a>
</g>
</g>
<!-- Node20&#45;&gt;Node23 -->
<g id="edge5" class="edge">
<title>Node20&#45;&gt;Node23</title>
<path fill="none" stroke="#191970" d="M115.7754,-14.1055C124.402,-13.8547 133.1448,-13.6404 141.452,-13.5 188.3129,-12.708 200.0762,-11.5706 246.904,-13.5 307.8003,-16.0091 377.529,-22.2369 424.1333,-26.8828"/>
<polygon fill="#191970" stroke="#191970" points="115.6225,-10.6085 105.7349,-14.4145 115.8379,-17.6052 115.6225,-10.6085"/>
</g>
<!-- Node22 -->
<g id="node3" class="node">
<title>Node22</title>
<g id="a_node3"><a xlink:href="classCore_1_1IO_1_1UserLED.html#a4e161b02396d015ce4fd5434853e44bc" target="_top" xlink:title="changeBlinkTime method changes the time of the blink ">
<polygon fill="#ffffff" stroke="#000000" points="282.904,-61.5 282.904,-93.5 388.356,-93.5 388.356,-61.5 282.904,-61.5"/>
<text text-anchor="start" x="290.904" y="-80.5" font-family="Helvetica,sans-Serif" font-size="10.00" fill="#000000">Core::IO::UserLED::</text>
<text text-anchor="middle" x="335.63" y="-68.5" font-family="Helvetica,sans-Serif" font-size="10.00" fill="#000000">changeBlinkTime</text>
</a>
</g>
</g>
<!-- Node21&#45;&gt;Node22 -->
<g id="edge2" class="edge">
<title>Node21&#45;&gt;Node22</title>
<path fill="none" stroke="#191970" d="M257.1718,-56.4228C265.7072,-58.7158 274.3948,-61.0496 282.729,-63.2886"/>
<polygon fill="#191970" stroke="#191970" points="257.8176,-52.9723 247.2519,-53.7579 256.0015,-59.7326 257.8176,-52.9723"/>
</g>
<!-- Node21&#45;&gt;Node23 -->
<g id="edge4" class="edge">
<title>Node21&#45;&gt;Node23</title>
<path fill="none" stroke="#191970" d="M257.1311,-37.9423C307.2587,-36.702 376.6333,-34.9854 423.9815,-33.8139"/>
<polygon fill="#191970" stroke="#191970" points="256.9685,-34.4452 247.0582,-38.1916 257.1418,-41.443 256.9685,-34.4452"/>
</g>
<!-- Node22&#45;&gt;Node23 -->
<g id="edge3" class="edge">
<title>Node22&#45;&gt;Node23</title>
<path fill="none" stroke="#191970" d="M396.0078,-58.2921C406.2603,-55.0304 416.8093,-51.6745 426.7679,-48.5064"/>
<polygon fill="#191970" stroke="#191970" points="394.7662,-55.0141 386.2979,-61.3811 396.8884,-61.6847 394.7662,-55.0141"/>
</g>
</g>
</svg>
