<?xml version="1.0" encoding="UTF-8" standalone="no"?>
<!DOCTYPE svg PUBLIC "-//W3C//DTD SVG 1.1//EN"
 "http://www.w3.org/Graphics/SVG/1.1/DTD/svg11.dtd">
<!-- Generated by graphviz version 2.40.1 (20161225.0304)
 -->
<!-- Title: Core::IO::IOBase::getValue Pages: 1 -->
<svg width="646pt" height="182pt"
 viewBox="0.00 0.00 646.24 182.00" xmlns="http://www.w3.org/2000/svg" xmlns:xlink="http://www.w3.org/1999/xlink">
<g id="graph0" class="graph" transform="scale(1 1) rotate(0) translate(4 178)">
<title>Core::IO::IOBase::getValue</title>
<polygon fill="#ffffff" stroke="transparent" points="-4,4 -4,-178 642.24,-178 642.24,4 -4,4"/>
<!-- Node13 -->
<g id="node1" class="node">
<title>Node13</title>
<polygon fill="#bfbfbf" stroke="#000000" points="0,-57.5 0,-77.5 137.705,-77.5 137.705,-57.5 0,-57.5"/>
<text text-anchor="middle" x="68.8525" y="-64.5" font-family="Helvetica,sans-Serif" font-size="10.00" fill="#000000">Core::IO::IOBase::getValue</text>
</g>
<!-- Node14 -->
<g id="node2" class="node">
<title>Node14</title>
<g id="a_node2"><a xlink:href="classCore_1_1IO_1_1Input.html#a6ebaffcb31befe3e8ad3f1c753875499" target="_top" xlink:title="waitForEdge method is a blocking wait for edge. Therefore, the callee will halt its thread until this...">
<polygon fill="#ffffff" stroke="#000000" points="173.705,-102.5 173.705,-122.5 316.957,-122.5 316.957,-102.5 173.705,-102.5"/>
<text text-anchor="middle" x="245.331" y="-109.5" font-family="Helvetica,sans-Serif" font-size="10.00" fill="#000000">Core::IO::Input::waitForEdge</text>
</a>
</g>
</g>
<!-- Node13&#45;&gt;Node14 -->
<g id="edge1" class="edge">
<title>Node13&#45;&gt;Node14</title>
<path fill="none" stroke="#191970" d="M118.3351,-80.1175C145.9968,-87.1709 180,-95.8413 205.858,-102.4348"/>
<polygon fill="#191970" stroke="#191970" points="119.0125,-76.6783 108.4577,-77.5989 117.2829,-83.4613 119.0125,-76.6783"/>
</g>
<!-- Node17 -->
<g id="node5" class="node">
<title>Node17</title>
<g id="a_node5"><a xlink:href="classCore_1_1IO_1_1Output.html#a9fff26b25ba74b5ddbd4781f90d11c88" target="_top" xlink:title="toggleOutput method toggles the output once ">
<polygon fill="#ffffff" stroke="#000000" points="184.258,-51.5 184.258,-83.5 306.404,-83.5 306.404,-51.5 184.258,-51.5"/>
<text text-anchor="start" x="192.258" y="-70.5" font-family="Helvetica,sans-Serif" font-size="10.00" fill="#000000">Core::IO::Output::toggle</text>
<text text-anchor="middle" x="245.331" y="-58.5" font-family="Helvetica,sans-Serif" font-size="10.00" fill="#000000">Output</text>
</a>
</g>
</g>
<!-- Node13&#45;&gt;Node17 -->
<g id="edge5" class="edge">
<title>Node13&#45;&gt;Node17</title>
<path fill="none" stroke="#191970" d="M147.9615,-67.5C160.0981,-67.5 172.4677,-67.5 184.1384,-67.5"/>
<polygon fill="#191970" stroke="#191970" points="147.842,-64.0001 137.8419,-67.5 147.8419,-71.0001 147.842,-64.0001"/>
</g>
<!-- Node20 -->
<g id="node8" class="node">
<title>Node20</title>
<g id="a_node8"><a xlink:href="classCore_1_1IO_1_1Output.html#ad9478f061317492c4d1191702324dca4" target="_top" xlink:title="cancelToggle cancels toggling ">
<polygon fill="#ffffff" stroke="#000000" points="183.427,-.5 183.427,-32.5 307.235,-32.5 307.235,-.5 183.427,-.5"/>
<text text-anchor="start" x="191.427" y="-19.5" font-family="Helvetica,sans-Serif" font-size="10.00" fill="#000000">Core::IO::Output::cancel</text>
<text text-anchor="middle" x="245.331" y="-7.5" font-family="Helvetica,sans-Serif" font-size="10.00" fill="#000000">Toggle</text>
</a>
</g>
</g>
<!-- Node13&#45;&gt;Node20 -->
<g id="edge8" class="edge">
<title>Node13&#45;&gt;Node20</title>
<path fill="none" stroke="#191970" d="M113.6063,-54.5667C136.7314,-47.8839 165.1694,-39.6657 189.6965,-32.5777"/>
<polygon fill="#191970" stroke="#191970" points="112.3541,-51.2853 103.719,-57.424 114.2976,-58.0101 112.3541,-51.2853"/>
</g>
<!-- Node15 -->
<g id="node3" class="node">
<title>Node15</title>
<g id="a_node3"><a xlink:href="classCore_1_1IO_1_1Input.html#a6bf5d36ec1e0413c4f11f8bdd01792a0" target="_top" xlink:title="cancelWaitForEdge method cancels waiting for the edge. ">
<polygon fill="#ffffff" stroke="#000000" points="352.957,-141.5 352.957,-173.5 488.982,-173.5 488.982,-141.5 352.957,-141.5"/>
<text text-anchor="start" x="360.957" y="-160.5" font-family="Helvetica,sans-Serif" font-size="10.00" fill="#000000">Core::IO::Input::cancelWait</text>
<text text-anchor="middle" x="420.9695" y="-148.5" font-family="Helvetica,sans-Serif" font-size="10.00" fill="#000000">ForEdge</text>
</a>
</g>
</g>
<!-- Node14&#45;&gt;Node15 -->
<g id="edge2" class="edge">
<title>Node14&#45;&gt;Node15</title>
<path fill="none" stroke="#191970" d="M294.4641,-125.0883C314.2379,-130.1545 337.282,-136.0586 358.2438,-141.4292"/>
<polygon fill="#191970" stroke="#191970" points="295.3035,-121.6904 284.7477,-122.5989 293.5661,-128.4714 295.3035,-121.6904"/>
</g>
<!-- Node16 -->
<g id="node4" class="node">
<title>Node16</title>
<g id="a_node4"><a xlink:href="structCore_1_1IO_1_1Input_1_1Setup.html#a493b98ee230283215bd55b7ba739f60a" target="_top" xlink:title="Core::IO::Input::Setup\l::Setup">
<polygon fill="#ffffff" stroke="#000000" points="524.982,-118.5 524.982,-150.5 638.24,-150.5 638.24,-118.5 524.982,-118.5"/>
<text text-anchor="start" x="532.982" y="-137.5" font-family="Helvetica,sans-Serif" font-size="10.00" fill="#000000">Core::IO::Input::Setup</text>
<text text-anchor="middle" x="581.611" y="-125.5" font-family="Helvetica,sans-Serif" font-size="10.00" fill="#000000">::Setup</text>
</a>
</g>
</g>
<!-- Node14&#45;&gt;Node16 -->
<g id="edge4" class="edge">
<title>Node14&#45;&gt;Node16</title>
<path fill="none" stroke="#191970" d="M327.0821,-117.8483C388.3158,-121.8543 470.5369,-127.2333 524.7489,-130.78"/>
<polygon fill="#191970" stroke="#191970" points="327.2662,-114.3529 317.059,-117.1926 326.8092,-121.338 327.2662,-114.3529"/>
</g>
<!-- Node15&#45;&gt;Node16 -->
<g id="edge3" class="edge">
<title>Node15&#45;&gt;Node16</title>
<path fill="none" stroke="#191970" d="M499.1149,-146.3115C507.6823,-145.0848 516.2828,-143.8534 524.526,-142.6732"/>
<polygon fill="#191970" stroke="#191970" points="498.4989,-142.8639 489.096,-147.7459 499.4911,-149.7932 498.4989,-142.8639"/>
</g>
<!-- Node18 -->
<g id="node6" class="node">
<title>Node18</title>
<g id="a_node6"><a xlink:href="classCore_1_1IO_1_1Output.html#a22eae1b59ff21d5534d4d03acaa1dc74" target="_top" xlink:title="toggleOutput method toggles the output every using the time arguement. ">
<polygon fill="#ffffff" stroke="#000000" points="359.8965,-51.5 359.8965,-83.5 482.0425,-83.5 482.0425,-51.5 359.8965,-51.5"/>
<text text-anchor="start" x="367.8965" y="-70.5" font-family="Helvetica,sans-Serif" font-size="10.00" fill="#000000">Core::IO::Output::toggle</text>
<text text-anchor="middle" x="420.9695" y="-58.5" font-family="Helvetica,sans-Serif" font-size="10.00" fill="#000000">Output</text>
</a>
</g>
</g>
<!-- Node17&#45;&gt;Node18 -->
<g id="edge6" class="edge">
<title>Node17&#45;&gt;Node18</title>
<path fill="none" stroke="#191970" d="M316.9947,-67.5C331.2222,-67.5 346.0356,-67.5 359.871,-67.5"/>
<polygon fill="#191970" stroke="#191970" points="316.7609,-64.0001 306.7608,-67.5 316.7608,-71.0001 316.7609,-64.0001"/>
</g>
<!-- Node19 -->
<g id="node7" class="node">
<title>Node19</title>
<g id="a_node7"><a xlink:href="structCore_1_1IO_1_1Output_1_1Setup.html#aa94d399cf6e529ff662a8d31f38bd35c" target="_top" xlink:title="Core::IO::Output::Setup\l::Setup">
<polygon fill="#ffffff" stroke="#000000" points="360.451,-.5 360.451,-32.5 481.488,-32.5 481.488,-.5 360.451,-.5"/>
<text text-anchor="start" x="368.451" y="-19.5" font-family="Helvetica,sans-Serif" font-size="10.00" fill="#000000">Core::IO::Output::Setup</text>
<text text-anchor="middle" x="420.9695" y="-7.5" font-family="Helvetica,sans-Serif" font-size="10.00" fill="#000000">::Setup</text>
</a>
</g>
</g>
<!-- Node17&#45;&gt;Node19 -->
<g id="edge7" class="edge">
<title>Node17&#45;&gt;Node19</title>
<path fill="none" stroke="#191970" d="M310.5397,-48.5654C328.6962,-43.2933 348.2363,-37.6195 365.7579,-32.5317"/>
<polygon fill="#191970" stroke="#191970" points="309.5315,-45.2135 300.9041,-51.3633 311.4835,-51.9359 309.5315,-45.2135"/>
</g>
<!-- Node20&#45;&gt;Node19 -->
<g id="edge9" class="edge">
<title>Node20&#45;&gt;Node19</title>
<path fill="none" stroke="#191970" d="M317.468,-16.5C331.6621,-16.5 346.421,-16.5 360.1961,-16.5"/>
<polygon fill="#191970" stroke="#191970" points="317.2546,-13.0001 307.2546,-16.5 317.2545,-20.0001 317.2546,-13.0001"/>
</g>
</g>
</svg>
