<?xml version="1.0" encoding="UTF-8" standalone="no"?>
<!DOCTYPE svg PUBLIC "-//W3C//DTD SVG 1.1//EN"
 "http://www.w3.org/Graphics/SVG/1.1/DTD/svg11.dtd">
<!-- Generated by graphviz version 2.40.1 (20161225.0304)
 -->
<!-- Title: LibBBB::IO::IOBase::getValue Pages: 1 -->
<svg width="523pt" height="185pt"
 viewBox="0.00 0.00 523.44 185.00" xmlns="http://www.w3.org/2000/svg" xmlns:xlink="http://www.w3.org/1999/xlink">
<g id="graph0" class="graph" transform="scale(1 1) rotate(0) translate(4 181)">
<title>LibBBB::IO::IOBase::getValue</title>
<polygon fill="#ffffff" stroke="transparent" points="-4,4 -4,-181 519.441,-181 519.441,4 -4,4"/>
<!-- Node13 -->
<g id="node1" class="node">
<title>Node13</title>
<polygon fill="#bfbfbf" stroke="#000000" points="0,-51.5 0,-83.5 104.363,-83.5 104.363,-51.5 0,-51.5"/>
<text text-anchor="start" x="8" y="-70.5" font-family="Helvetica,sans-Serif" font-size="10.00" fill="#000000">LibBBB::IO::IOBase</text>
<text text-anchor="middle" x="52.1815" y="-58.5" font-family="Helvetica,sans-Serif" font-size="10.00" fill="#000000">::getValue</text>
</g>
<!-- Node14 -->
<g id="node2" class="node">
<title>Node14</title>
<g id="a_node2"><a xlink:href="classLibBBB_1_1IO_1_1Input.html#a0934c43a3f6be5e62dfc733552e5074d" target="_top" xlink:title="waitForEdge method is a blocking wait for edge. Therefore, the callee will halt its thread until this...">
<polygon fill="#ffffff" stroke="#000000" points="141.4735,-102.5 141.4735,-134.5 240.2845,-134.5 240.2845,-102.5 141.4735,-102.5"/>
<text text-anchor="start" x="149.4735" y="-121.5" font-family="Helvetica,sans-Serif" font-size="10.00" fill="#000000">LibBBB::IO::Input::</text>
<text text-anchor="middle" x="190.879" y="-109.5" font-family="Helvetica,sans-Serif" font-size="10.00" fill="#000000">waitForEdge</text>
</a>
</g>
</g>
<!-- Node13&#45;&gt;Node14 -->
<g id="edge1" class="edge">
<title>Node13&#45;&gt;Node14</title>
<path fill="none" stroke="#191970" d="M105.4647,-87.0926C119.2902,-92.1763 134.0172,-97.5915 147.2797,-102.4683"/>
<polygon fill="#191970" stroke="#191970" points="106.6598,-83.803 96.0663,-83.6367 104.2439,-90.3729 106.6598,-83.803"/>
</g>
<!-- Node17 -->
<g id="node5" class="node">
<title>Node17</title>
<g id="a_node5"><a xlink:href="classLibBBB_1_1IO_1_1Output.html#a70c6eac9a46013605717fef0ba6c2010" target="_top" xlink:title="toggleOutput method toggles the output once ">
<polygon fill="#ffffff" stroke="#000000" points="140.363,-51.5 140.363,-83.5 241.395,-83.5 241.395,-51.5 140.363,-51.5"/>
<text text-anchor="start" x="148.363" y="-70.5" font-family="Helvetica,sans-Serif" font-size="10.00" fill="#000000">LibBBB::IO::Output</text>
<text text-anchor="middle" x="190.879" y="-58.5" font-family="Helvetica,sans-Serif" font-size="10.00" fill="#000000">::toggleOutput</text>
</a>
</g>
</g>
<!-- Node13&#45;&gt;Node17 -->
<g id="edge5" class="edge">
<title>Node13&#45;&gt;Node17</title>
<path fill="none" stroke="#191970" d="M114.8645,-67.5C123.3484,-67.5 131.9667,-67.5 140.205,-67.5"/>
<polygon fill="#191970" stroke="#191970" points="114.6171,-64.0001 104.6171,-67.5 114.617,-71.0001 114.6171,-64.0001"/>
</g>
<!-- Node20 -->
<g id="node8" class="node">
<title>Node20</title>
<g id="a_node8"><a xlink:href="classLibBBB_1_1IO_1_1Output.html#a4fd232f60d3148259f6d5d91e842950a" target="_top" xlink:title="cancelToggle cancels toggling ">
<polygon fill="#ffffff" stroke="#000000" points="140.363,-.5 140.363,-32.5 241.395,-32.5 241.395,-.5 140.363,-.5"/>
<text text-anchor="start" x="148.363" y="-19.5" font-family="Helvetica,sans-Serif" font-size="10.00" fill="#000000">LibBBB::IO::Output</text>
<text text-anchor="middle" x="190.879" y="-7.5" font-family="Helvetica,sans-Serif" font-size="10.00" fill="#000000">::cancelToggle</text>
</a>
</g>
</g>
<!-- Node13&#45;&gt;Node20 -->
<g id="edge8" class="edge">
<title>Node13&#45;&gt;Node20</title>
<path fill="none" stroke="#191970" d="M105.4647,-47.9074C119.2902,-42.8237 134.0172,-37.4085 147.2797,-32.5317"/>
<polygon fill="#191970" stroke="#191970" points="104.2439,-44.6271 96.0663,-51.3633 106.6598,-51.197 104.2439,-44.6271"/>
</g>
<!-- Node15 -->
<g id="node3" class="node">
<title>Node15</title>
<g id="a_node3"><a xlink:href="classLibBBB_1_1IO_1_1Input.html#a463bb83321475919ec672e9ac75b31b1" target="_top" xlink:title="cancelWaitForEdge method cancels waiting for the edge. ">
<polygon fill="#ffffff" stroke="#000000" points="277.395,-144.5 277.395,-176.5 380.63,-176.5 380.63,-144.5 277.395,-144.5"/>
<text text-anchor="start" x="285.395" y="-163.5" font-family="Helvetica,sans-Serif" font-size="10.00" fill="#000000">LibBBB::IO::Input::</text>
<text text-anchor="middle" x="329.0125" y="-151.5" font-family="Helvetica,sans-Serif" font-size="10.00" fill="#000000">cancelWaitForEdge</text>
</a>
</g>
</g>
<!-- Node14&#45;&gt;Node15 -->
<g id="edge2" class="edge">
<title>Node14&#45;&gt;Node15</title>
<path fill="none" stroke="#191970" d="M250.0082,-136.4785C259.0121,-139.2161 268.246,-142.0237 277.0807,-144.71"/>
<polygon fill="#191970" stroke="#191970" points="250.9439,-133.1048 240.3582,-133.5443 248.9075,-139.8021 250.9439,-133.1048"/>
</g>
<!-- Node16 -->
<g id="node4" class="node">
<title>Node16</title>
<g id="a_node4"><a xlink:href="structLibBBB_1_1IO_1_1Input_1_1Setup.html#a1ad926b46c1818dd934b0b99ddb63386" target="_top" xlink:title="LibBBB::IO::Input::\lSetup::Setup">
<polygon fill="#ffffff" stroke="#000000" points="416.63,-121.5 416.63,-153.5 515.441,-153.5 515.441,-121.5 416.63,-121.5"/>
<text text-anchor="start" x="424.63" y="-140.5" font-family="Helvetica,sans-Serif" font-size="10.00" fill="#000000">LibBBB::IO::Input::</text>
<text text-anchor="middle" x="466.0355" y="-128.5" font-family="Helvetica,sans-Serif" font-size="10.00" fill="#000000">Setup::Setup</text>
</a>
</g>
</g>
<!-- Node14&#45;&gt;Node16 -->
<g id="edge4" class="edge">
<title>Node14&#45;&gt;Node16</title>
<path fill="none" stroke="#191970" d="M250.6507,-122.6273C300.241,-126.0516 369.9245,-130.8634 416.4594,-134.0767"/>
<polygon fill="#191970" stroke="#191970" points="250.6066,-119.116 240.3893,-121.9188 250.1244,-126.0994 250.6066,-119.116"/>
</g>
<!-- Node15&#45;&gt;Node16 -->
<g id="edge3" class="edge">
<title>Node15&#45;&gt;Node16</title>
<path fill="none" stroke="#191970" d="M390.7933,-150.1298C399.3768,-148.689 408.1026,-147.2243 416.4248,-145.8274"/>
<polygon fill="#191970" stroke="#191970" points="390.0976,-146.6975 380.815,-151.8047 391.2565,-153.6009 390.0976,-146.6975"/>
</g>
<!-- Node18 -->
<g id="node6" class="node">
<title>Node18</title>
<g id="a_node6"><a xlink:href="classLibBBB_1_1IO_1_1Output.html#a3620dfac4d3a9ee34c3a8e2ea39ae2dd" target="_top" xlink:title="toggleOutput method toggles the output every using the time arguement. ">
<polygon fill="#ffffff" stroke="#000000" points="278.4965,-51.5 278.4965,-83.5 379.5285,-83.5 379.5285,-51.5 278.4965,-51.5"/>
<text text-anchor="start" x="286.4965" y="-70.5" font-family="Helvetica,sans-Serif" font-size="10.00" fill="#000000">LibBBB::IO::Output</text>
<text text-anchor="middle" x="329.0125" y="-58.5" font-family="Helvetica,sans-Serif" font-size="10.00" fill="#000000">::toggleOutput</text>
</a>
</g>
</g>
<!-- Node17&#45;&gt;Node18 -->
<g id="edge6" class="edge">
<title>Node17&#45;&gt;Node18</title>
<path fill="none" stroke="#191970" d="M251.5309,-67.5C260.4896,-67.5 269.6401,-67.5 278.3672,-67.5"/>
<polygon fill="#191970" stroke="#191970" points="251.5305,-64.0001 241.5305,-67.5 251.5304,-71.0001 251.5305,-64.0001"/>
</g>
<!-- Node19 -->
<g id="node7" class="node">
<title>Node19</title>
<g id="a_node7"><a xlink:href="structLibBBB_1_1IO_1_1Output_1_1Setup.html#ac7d4ee82c7eabd07ba140ec061c28adc" target="_top" xlink:title="LibBBB::IO::Output\l::Setup::Setup">
<polygon fill="#ffffff" stroke="#000000" points="278.4965,-.5 278.4965,-32.5 379.5285,-32.5 379.5285,-.5 278.4965,-.5"/>
<text text-anchor="start" x="286.4965" y="-19.5" font-family="Helvetica,sans-Serif" font-size="10.00" fill="#000000">LibBBB::IO::Output</text>
<text text-anchor="middle" x="329.0125" y="-7.5" font-family="Helvetica,sans-Serif" font-size="10.00" fill="#000000">::Setup::Setup</text>
</a>
</g>
</g>
<!-- Node17&#45;&gt;Node19 -->
<g id="edge7" class="edge">
<title>Node17&#45;&gt;Node19</title>
<path fill="none" stroke="#191970" d="M244.3429,-47.7607C257.9967,-42.7196 272.5089,-37.3616 285.5905,-32.5317"/>
<polygon fill="#191970" stroke="#191970" points="242.7541,-44.6163 234.5853,-51.3633 245.1786,-51.183 242.7541,-44.6163"/>
</g>
<!-- Node20&#45;&gt;Node19 -->
<g id="edge9" class="edge">
<title>Node20&#45;&gt;Node19</title>
<path fill="none" stroke="#191970" d="M251.5309,-16.5C260.4896,-16.5 269.6401,-16.5 278.3672,-16.5"/>
<polygon fill="#191970" stroke="#191970" points="251.5305,-13.0001 241.5305,-16.5 251.5304,-20.0001 251.5305,-13.0001"/>
</g>
</g>
</svg>
