<?xml version="1.0" encoding="UTF-8" standalone="no"?>
<!DOCTYPE svg PUBLIC "-//W3C//DTD SVG 1.1//EN"
 "http://www.w3.org/Graphics/SVG/1.1/DTD/svg11.dtd">
<!-- Generated by graphviz version 2.40.1 (20161225.0304)
 -->
<!-- Title: LibBBB::IO::IOBase::setActiveHighOrLow Pages: 1 -->
<svg width="390pt" height="41pt"
 viewBox="0.00 0.00 389.74 41.00" xmlns="http://www.w3.org/2000/svg" xmlns:xlink="http://www.w3.org/1999/xlink">
<g id="graph0" class="graph" transform="scale(1 1) rotate(0) translate(4 37)">
<title>LibBBB::IO::IOBase::setActiveHighOrLow</title>
<polygon fill="#ffffff" stroke="transparent" points="-4,4 -4,-37 385.745,-37 385.745,4 -4,4"/>
<!-- Node43 -->
<g id="node1" class="node">
<title>Node43</title>
<polygon fill="#bfbfbf" stroke="#000000" points="0,-.5 0,-32.5 112.123,-32.5 112.123,-.5 0,-.5"/>
<text text-anchor="start" x="8" y="-19.5" font-family="Helvetica,sans-Serif" font-size="10.00" fill="#000000">LibBBB::IO::IOBase</text>
<text text-anchor="middle" x="56.0615" y="-7.5" font-family="Helvetica,sans-Serif" font-size="10.00" fill="#000000">::setActiveHighOrLow</text>
</g>
<!-- Node44 -->
<g id="node2" class="node">
<title>Node44</title>
<g id="a_node2"><a xlink:href="classLibBBB_1_1IO_1_1Input.html#a4e59f6e2c64f7a85adff569daf35b3d3" target="_top" xlink:title="Input constructs an input based on the given setup. The constructor will automatically export the pin...">
<polygon fill="#ffffff" stroke="#000000" points="148.123,-.5 148.123,-32.5 246.934,-32.5 246.934,-.5 148.123,-.5"/>
<text text-anchor="start" x="156.123" y="-19.5" font-family="Helvetica,sans-Serif" font-size="10.00" fill="#000000">LibBBB::IO::Input::</text>
<text text-anchor="middle" x="197.5285" y="-7.5" font-family="Helvetica,sans-Serif" font-size="10.00" fill="#000000">Input</text>
</a>
</g>
</g>
<!-- Node43&#45;&gt;Node44 -->
<g id="edge1" class="edge">
<title>Node43&#45;&gt;Node44</title>
<path fill="none" stroke="#191970" d="M122.6411,-16.5C131.1131,-16.5 139.6649,-16.5 147.8079,-16.5"/>
<polygon fill="#191970" stroke="#191970" points="122.3795,-13.0001 112.3795,-16.5 122.3795,-20.0001 122.3795,-13.0001"/>
</g>
<!-- Node45 -->
<g id="node3" class="node">
<title>Node45</title>
<g id="a_node3"><a xlink:href="structLibBBB_1_1IO_1_1Input_1_1Setup.html#a1ad926b46c1818dd934b0b99ddb63386" target="_top" xlink:title="LibBBB::IO::Input::\lSetup::Setup">
<polygon fill="#ffffff" stroke="#000000" points="282.934,-.5 282.934,-32.5 381.745,-32.5 381.745,-.5 282.934,-.5"/>
<text text-anchor="start" x="290.934" y="-19.5" font-family="Helvetica,sans-Serif" font-size="10.00" fill="#000000">LibBBB::IO::Input::</text>
<text text-anchor="middle" x="332.3395" y="-7.5" font-family="Helvetica,sans-Serif" font-size="10.00" fill="#000000">Setup::Setup</text>
</a>
</g>
</g>
<!-- Node44&#45;&gt;Node45 -->
<g id="edge2" class="edge">
<title>Node44&#45;&gt;Node45</title>
<path fill="none" stroke="#191970" d="M257.0036,-16.5C265.6568,-16.5 274.4867,-16.5 282.9123,-16.5"/>
<polygon fill="#191970" stroke="#191970" points="256.9617,-13.0001 246.9616,-16.5 256.9616,-20.0001 256.9617,-13.0001"/>
</g>
</g>
</svg>
