<?xml version="1.0" encoding="UTF-8" standalone="no"?>
<!DOCTYPE svg PUBLIC "-//W3C//DTD SVG 1.1//EN"
 "http://www.w3.org/Graphics/SVG/1.1/DTD/svg11.dtd">
<!-- Generated by graphviz version 2.40.1 (20161225.0304)
 -->
<!-- Title: LibBBB::IO::Input::cancelWaitForEdge Pages: 1 -->
<svg width="527pt" height="92pt"
 viewBox="0.00 0.00 526.77 92.00" xmlns="http://www.w3.org/2000/svg" xmlns:xlink="http://www.w3.org/1999/xlink">
<g id="graph0" class="graph" transform="scale(1 1) rotate(0) translate(4 88)">
<title>LibBBB::IO::Input::cancelWaitForEdge</title>
<polygon fill="#ffffff" stroke="transparent" points="-4,4 -4,-88 522.772,-88 522.772,4 -4,4"/>
<!-- Node11 -->
<g id="node1" class="node">
<title>Node11</title>
<polygon fill="#bfbfbf" stroke="#000000" points="0,-25.5 0,-57.5 103.235,-57.5 103.235,-25.5 0,-25.5"/>
<text text-anchor="start" x="8" y="-44.5" font-family="Helvetica,sans-Serif" font-size="10.00" fill="#000000">LibBBB::IO::Input::</text>
<text text-anchor="middle" x="51.6175" y="-32.5" font-family="Helvetica,sans-Serif" font-size="10.00" fill="#000000">cancelWaitForEdge</text>
</g>
<!-- Node12 -->
<g id="node2" class="node">
<title>Node12</title>
<g id="a_node2"><a xlink:href="classLibBBB_1_1IO_1_1Input.html#a0934c43a3f6be5e62dfc733552e5074d" target="_top" xlink:title="waitForEdge method is a blocking wait for edge. Therefore, the callee will halt its thread until this...">
<polygon fill="#ffffff" stroke="#000000" points="139.235,-25.5 139.235,-57.5 238.046,-57.5 238.046,-25.5 139.235,-25.5"/>
<text text-anchor="start" x="147.235" y="-44.5" font-family="Helvetica,sans-Serif" font-size="10.00" fill="#000000">LibBBB::IO::Input::</text>
<text text-anchor="middle" x="188.6405" y="-32.5" font-family="Helvetica,sans-Serif" font-size="10.00" fill="#000000">waitForEdge</text>
</a>
</g>
</g>
<!-- Node11&#45;&gt;Node12 -->
<g id="edge1" class="edge">
<title>Node11&#45;&gt;Node12</title>
<path fill="none" stroke="#191970" d="M103.42,-41.5C111.7174,-41.5 120.363,-41.5 128.8286,-41.5"/>
<polygon fill="#191970" stroke="#191970" points="129.0298,-45.0001 139.0298,-41.5 129.0298,-38.0001 129.0298,-45.0001"/>
</g>
<!-- Node13 -->
<g id="node3" class="node">
<title>Node13</title>
<g id="a_node3"><a xlink:href="classLibBBB_1_1IO_1_1IOBase.html#a71d8f1f57eb6de8ed0187eaad8902b1c" target="_top" xlink:title="path getter ">
<polygon fill="#ffffff" stroke="#000000" points="274.046,-51.5 274.046,-83.5 378.409,-83.5 378.409,-51.5 274.046,-51.5"/>
<text text-anchor="start" x="282.046" y="-70.5" font-family="Helvetica,sans-Serif" font-size="10.00" fill="#000000">LibBBB::IO::IOBase</text>
<text text-anchor="middle" x="326.2275" y="-58.5" font-family="Helvetica,sans-Serif" font-size="10.00" fill="#000000">::path</text>
</a>
</g>
</g>
<!-- Node12&#45;&gt;Node13 -->
<g id="edge2" class="edge">
<title>Node12&#45;&gt;Node13</title>
<path fill="none" stroke="#191970" d="M238.3126,-50.8866C246.6112,-52.4548 255.3131,-54.0992 263.8805,-55.7182"/>
<polygon fill="#191970" stroke="#191970" points="263.3678,-59.1832 273.8438,-57.601 264.6676,-52.3049 263.3678,-59.1832"/>
</g>
<!-- Node14 -->
<g id="node4" class="node">
<title>Node14</title>
<g id="a_node4"><a xlink:href="classLibBBB_1_1IO_1_1IOBase.html#a8ae8a79c81d61625f5b864abebe944a2" target="_top" xlink:title="getValue getter ">
<polygon fill="#ffffff" stroke="#000000" points="274.046,-.5 274.046,-32.5 378.409,-32.5 378.409,-.5 274.046,-.5"/>
<text text-anchor="start" x="282.046" y="-19.5" font-family="Helvetica,sans-Serif" font-size="10.00" fill="#000000">LibBBB::IO::IOBase</text>
<text text-anchor="middle" x="326.2275" y="-7.5" font-family="Helvetica,sans-Serif" font-size="10.00" fill="#000000">::getValue</text>
</a>
</g>
</g>
<!-- Node12&#45;&gt;Node14 -->
<g id="edge3" class="edge">
<title>Node12&#45;&gt;Node14</title>
<path fill="none" stroke="#191970" d="M238.3126,-32.4744C246.6112,-30.9665 255.3131,-29.3854 263.8805,-27.8287"/>
<polygon fill="#191970" stroke="#191970" points="264.6307,-31.2497 273.8438,-26.0183 263.3792,-24.3625 264.6307,-31.2497"/>
</g>
<!-- Node15 -->
<g id="node5" class="node">
<title>Node15</title>
<g id="a_node5"><a xlink:href="classLibBBB_1_1IO_1_1IOBase.html#aa317b2515288dbe3905b675a9033e2fa" target="_top" xlink:title="read function that reads the value of the given file filename ">
<polygon fill="#ffffff" stroke="#000000" points="414.409,-.5 414.409,-32.5 518.772,-32.5 518.772,-.5 414.409,-.5"/>
<text text-anchor="start" x="422.409" y="-19.5" font-family="Helvetica,sans-Serif" font-size="10.00" fill="#000000">LibBBB::IO::IOBase</text>
<text text-anchor="middle" x="466.5905" y="-7.5" font-family="Helvetica,sans-Serif" font-size="10.00" fill="#000000">::read</text>
</a>
</g>
</g>
<!-- Node14&#45;&gt;Node15 -->
<g id="edge4" class="edge">
<title>Node14&#45;&gt;Node15</title>
<path fill="none" stroke="#191970" d="M378.4935,-16.5C386.8968,-16.5 395.6674,-16.5 404.2779,-16.5"/>
<polygon fill="#191970" stroke="#191970" points="404.2809,-20.0001 414.2808,-16.5 404.2808,-13.0001 404.2809,-20.0001"/>
</g>
</g>
</svg>
