<?xml version="1.0" encoding="UTF-8" standalone="no"?>
<!DOCTYPE svg PUBLIC "-//W3C//DTD SVG 1.1//EN"
 "http://www.w3.org/Graphics/SVG/1.1/DTD/svg11.dtd">
<!-- Generated by graphviz version 2.40.1 (20161225.0304)
 -->
<!-- Title: Core::IO::IOBase::write Pages: 1 -->
<svg width="640pt" height="260pt"
 viewBox="0.00 0.00 640.10 260.00" xmlns="http://www.w3.org/2000/svg" xmlns:xlink="http://www.w3.org/1999/xlink">
<g id="graph0" class="graph" transform="scale(1 1) rotate(0) translate(4 256)">
<title>Core::IO::IOBase::write</title>
<polygon fill="#ffffff" stroke="transparent" points="-4,4 -4,-256 636.105,-256 636.105,4 -4,4"/>
<!-- Node51 -->
<g id="node1" class="node">
<title>Node51</title>
<polygon fill="#bfbfbf" stroke="#000000" points="0,-141.5 0,-161.5 119.348,-161.5 119.348,-141.5 0,-141.5"/>
<text text-anchor="middle" x="59.674" y="-148.5" font-family="Helvetica,sans-Serif" font-size="10.00" fill="#000000">Core::IO::IOBase::write</text>
</g>
<!-- Node52 -->
<g id="node2" class="node">
<title>Node52</title>
<g id="a_node2"><a xlink:href="classCore_1_1IO_1_1Input.html#a508adf10c37a35a1284b45132159ad85" target="_top" xlink:title="setEdgeType sets the desired edge ">
<polygon fill="#ffffff" stroke="#000000" points="157.8375,-180.5 157.8375,-200.5 303.8815,-200.5 303.8815,-180.5 157.8375,-180.5"/>
<text text-anchor="middle" x="230.8595" y="-187.5" font-family="Helvetica,sans-Serif" font-size="10.00" fill="#000000">Core::IO::Input::setEdgeType</text>
</a>
</g>
</g>
<!-- Node51&#45;&gt;Node52 -->
<g id="edge1" class="edge">
<title>Node51&#45;&gt;Node52</title>
<path fill="none" stroke="#191970" d="M113.6229,-163.7908C137.2335,-169.1698 164.5828,-175.4006 186.9244,-180.4906"/>
<polygon fill="#191970" stroke="#191970" points="114.2862,-160.3523 103.7585,-161.5435 112.7312,-167.1774 114.2862,-160.3523"/>
</g>
<!-- Node55 -->
<g id="node5" class="node">
<title>Node55</title>
<g id="a_node5"><a xlink:href="classCore_1_1IO_1_1IOBase.html#a397e988e7b9af03de48e116a9e44c1b1" target="_top" xlink:title="setDirection setter ">
<polygon fill="#ffffff" stroke="#000000" points="155.348,-141.5 155.348,-161.5 306.371,-161.5 306.371,-141.5 155.348,-141.5"/>
<text text-anchor="middle" x="230.8595" y="-148.5" font-family="Helvetica,sans-Serif" font-size="10.00" fill="#000000">Core::IO::IOBase::setDirection</text>
</a>
</g>
</g>
<!-- Node51&#45;&gt;Node55 -->
<g id="edge5" class="edge">
<title>Node51&#45;&gt;Node55</title>
<path fill="none" stroke="#191970" d="M129.6438,-151.5C138.0246,-151.5 146.6122,-151.5 155.0703,-151.5"/>
<polygon fill="#191970" stroke="#191970" points="129.5464,-148.0001 119.5464,-151.5 129.5463,-155.0001 129.5464,-148.0001"/>
</g>
<!-- Node57 -->
<g id="node7" class="node">
<title>Node57</title>
<g id="a_node7"><a xlink:href="classCore_1_1IO_1_1IOBase.html#aca37988be943985f905a71ddae003214" target="_top" xlink:title="setActiveHighOrLow setter ">
<polygon fill="#ffffff" stroke="#000000" points="161.456,-219.5 161.456,-251.5 300.263,-251.5 300.263,-219.5 161.456,-219.5"/>
<text text-anchor="start" x="169.456" y="-238.5" font-family="Helvetica,sans-Serif" font-size="10.00" fill="#000000">Core::IO::IOBase::setActive</text>
<text text-anchor="middle" x="230.8595" y="-226.5" font-family="Helvetica,sans-Serif" font-size="10.00" fill="#000000">HighOrLow</text>
</a>
</g>
</g>
<!-- Node51&#45;&gt;Node57 -->
<g id="edge7" class="edge">
<title>Node51&#45;&gt;Node57</title>
<path fill="none" stroke="#191970" d="M81.9,-167.2776C100.7756,-180.1609 128.932,-198.1877 155.348,-210.5 162.2322,-213.7086 169.6437,-216.6925 177.0383,-219.4001"/>
<polygon fill="#191970" stroke="#191970" points="83.8892,-164.3978 73.6741,-161.5866 79.9066,-170.1544 83.8892,-164.3978"/>
</g>
<!-- Node58 -->
<g id="node8" class="node">
<title>Node58</title>
<g id="a_node8"><a xlink:href="classCore_1_1IO_1_1IOBase.html#a1bb596055a894b28766ddfda8ce7eb87" target="_top" xlink:title="write write function that writes a single string value to a file in the path provided ...">
<polygon fill="#ffffff" stroke="#000000" points="171.1855,-102.5 171.1855,-122.5 290.5335,-122.5 290.5335,-102.5 171.1855,-102.5"/>
<text text-anchor="middle" x="230.8595" y="-109.5" font-family="Helvetica,sans-Serif" font-size="10.00" fill="#000000">Core::IO::IOBase::write</text>
</a>
</g>
</g>
<!-- Node51&#45;&gt;Node58 -->
<g id="edge9" class="edge">
<title>Node51&#45;&gt;Node58</title>
<path fill="none" stroke="#191970" d="M113.6229,-139.2092C137.2335,-133.8302 164.5828,-127.5994 186.9244,-122.5094"/>
<polygon fill="#191970" stroke="#191970" points="112.7312,-135.8226 103.7585,-141.4565 114.2862,-142.6477 112.7312,-135.8226"/>
</g>
<!-- Node59 -->
<g id="node9" class="node">
<title>Node59</title>
<g id="a_node9"><a xlink:href="classCore_1_1IO_1_1Output.html#a07bdc8e3bbaedf9113bd56fe50c85131" target="_top" xlink:title="setValue setter ">
<polygon fill="#ffffff" stroke="#000000" points="163.952,-57.5 163.952,-77.5 297.767,-77.5 297.767,-57.5 163.952,-57.5"/>
<text text-anchor="middle" x="230.8595" y="-64.5" font-family="Helvetica,sans-Serif" font-size="10.00" fill="#000000">Core::IO::Output::setValue</text>
</a>
</g>
</g>
<!-- Node51&#45;&gt;Node59 -->
<g id="edge10" class="edge">
<title>Node51&#45;&gt;Node59</title>
<path fill="none" stroke="#191970" d="M82.564,-135.7079C101.4788,-123.1349 129.3509,-105.6848 155.348,-93.5 168.5301,-87.3215 183.602,-81.8374 196.7957,-77.5175"/>
<polygon fill="#191970" stroke="#191970" points="80.3855,-132.9553 74.0455,-141.4438 84.2952,-138.7616 80.3855,-132.9553"/>
</g>
<!-- Node53 -->
<g id="node3" class="node">
<title>Node53</title>
<g id="a_node3"><a xlink:href="classCore_1_1IO_1_1Input.html#ae490cffe2162d4538dd108b0bd1f3695" target="_top" xlink:title="Input constructs an input based on the given setup. The constructor will automatically export the pin...">
<polygon fill="#ffffff" stroke="#000000" points="353.481,-219.5 353.481,-239.5 462.849,-239.5 462.849,-219.5 353.481,-219.5"/>
<text text-anchor="middle" x="408.165" y="-226.5" font-family="Helvetica,sans-Serif" font-size="10.00" fill="#000000">Core::IO::Input::Input</text>
</a>
</g>
</g>
<!-- Node52&#45;&gt;Node53 -->
<g id="edge2" class="edge">
<title>Node52&#45;&gt;Node53</title>
<path fill="none" stroke="#191970" d="M286.4098,-202.7188C310.9388,-208.1142 339.4156,-214.3779 362.6592,-219.4906"/>
<polygon fill="#191970" stroke="#191970" points="287.0385,-199.2735 276.5201,-200.5435 285.5347,-206.1101 287.0385,-199.2735"/>
</g>
<!-- Node54 -->
<g id="node4" class="node">
<title>Node54</title>
<g id="a_node4"><a xlink:href="structCore_1_1IO_1_1Input_1_1Setup.html#a493b98ee230283215bd55b7ba739f60a" target="_top" xlink:title="Core::IO::Input::Setup\l::Setup">
<polygon fill="#ffffff" stroke="#000000" points="514.403,-193.5 514.403,-225.5 627.661,-225.5 627.661,-193.5 514.403,-193.5"/>
<text text-anchor="start" x="522.403" y="-212.5" font-family="Helvetica,sans-Serif" font-size="10.00" fill="#000000">Core::IO::Input::Setup</text>
<text text-anchor="middle" x="571.032" y="-200.5" font-family="Helvetica,sans-Serif" font-size="10.00" fill="#000000">::Setup</text>
</a>
</g>
</g>
<!-- Node52&#45;&gt;Node54 -->
<g id="edge4" class="edge">
<title>Node52&#45;&gt;Node54</title>
<path fill="none" stroke="#191970" d="M314.4306,-195.1678C376.5912,-198.6397 459.763,-203.2852 514.3345,-206.3332"/>
<polygon fill="#191970" stroke="#191970" points="314.4327,-191.6625 304.2531,-194.5993 314.0423,-198.6516 314.4327,-191.6625"/>
</g>
<!-- Node53&#45;&gt;Node54 -->
<g id="edge3" class="edge">
<title>Node53&#45;&gt;Node54</title>
<path fill="none" stroke="#191970" d="M473.1089,-221.5249C486.7222,-219.8532 500.9771,-218.1027 514.2646,-216.471"/>
<polygon fill="#191970" stroke="#191970" points="472.3493,-218.0918 462.8504,-222.7847 473.2025,-225.0396 472.3493,-218.0918"/>
</g>
<!-- Node56 -->
<g id="node6" class="node">
<title>Node56</title>
<g id="a_node6"><a xlink:href="classCore_1_1IO_1_1IOBase.html#a272576e096e320ea4d100827b65b6b38" target="_top" xlink:title="IOBase creates an instance of the base io class. ">
<polygon fill="#ffffff" stroke="#000000" points="342.371,-141.5 342.371,-161.5 473.959,-161.5 473.959,-141.5 342.371,-141.5"/>
<text text-anchor="middle" x="408.165" y="-148.5" font-family="Helvetica,sans-Serif" font-size="10.00" fill="#000000">Core::IO::IOBase::IOBase</text>
</a>
</g>
</g>
<!-- Node55&#45;&gt;Node56 -->
<g id="edge6" class="edge">
<title>Node55&#45;&gt;Node56</title>
<path fill="none" stroke="#191970" d="M316.6293,-151.5C325.2314,-151.5 333.8696,-151.5 342.2198,-151.5"/>
<polygon fill="#191970" stroke="#191970" points="316.5673,-148.0001 306.5673,-151.5 316.5673,-155.0001 316.5673,-148.0001"/>
</g>
<!-- Node57&#45;&gt;Node53 -->
<g id="edge8" class="edge">
<title>Node57&#45;&gt;Node53</title>
<path fill="none" stroke="#191970" d="M310.8138,-232.7944C325.1838,-232.3081 339.8617,-231.8114 353.3175,-231.356"/>
<polygon fill="#191970" stroke="#191970" points="310.3023,-229.3096 300.4264,-233.1459 310.5391,-236.3056 310.3023,-229.3096"/>
</g>
<!-- Node60 -->
<g id="node10" class="node">
<title>Node60</title>
<g id="a_node10"><a xlink:href="classCore_1_1IO_1_1Output.html#a9fff26b25ba74b5ddbd4781f90d11c88" target="_top" xlink:title="toggleOutput method toggles the output once ">
<polygon fill="#ffffff" stroke="#000000" points="347.092,-90.5 347.092,-122.5 469.238,-122.5 469.238,-90.5 347.092,-90.5"/>
<text text-anchor="start" x="355.092" y="-109.5" font-family="Helvetica,sans-Serif" font-size="10.00" fill="#000000">Core::IO::Output::toggle</text>
<text text-anchor="middle" x="408.165" y="-97.5" font-family="Helvetica,sans-Serif" font-size="10.00" fill="#000000">Output</text>
</a>
</g>
</g>
<!-- Node59&#45;&gt;Node60 -->
<g id="edge11" class="edge">
<title>Node59&#45;&gt;Node60</title>
<path fill="none" stroke="#191970" d="M286.3389,-79.7032C305.585,-83.9366 327.2686,-88.7061 346.9506,-93.0353"/>
<polygon fill="#191970" stroke="#191970" points="287.0385,-76.2735 276.5201,-77.5435 285.5347,-83.1101 287.0385,-76.2735"/>
</g>
<!-- Node62 -->
<g id="node12" class="node">
<title>Node62</title>
<g id="a_node12"><a xlink:href="structCore_1_1IO_1_1Output_1_1Setup.html#aa94d399cf6e529ff662a8d31f38bd35c" target="_top" xlink:title="Core::IO::Output::Setup\l::Setup">
<polygon fill="#ffffff" stroke="#000000" points="510.5135,-42.5 510.5135,-74.5 631.5505,-74.5 631.5505,-42.5 510.5135,-42.5"/>
<text text-anchor="start" x="518.5135" y="-61.5" font-family="Helvetica,sans-Serif" font-size="10.00" fill="#000000">Core::IO::Output::Setup</text>
<text text-anchor="middle" x="571.032" y="-49.5" font-family="Helvetica,sans-Serif" font-size="10.00" fill="#000000">::Setup</text>
</a>
</g>
</g>
<!-- Node59&#45;&gt;Node62 -->
<g id="edge16" class="edge">
<title>Node59&#45;&gt;Node62</title>
<path fill="none" stroke="#191970" d="M308.0714,-65.4572C369.3194,-63.8367 453.7403,-61.6032 510.2436,-60.1083"/>
<polygon fill="#191970" stroke="#191970" points="307.9705,-61.9585 298.0666,-65.7219 308.1557,-68.9561 307.9705,-61.9585"/>
</g>
<!-- Node63 -->
<g id="node13" class="node">
<title>Node63</title>
<g id="a_node13"><a xlink:href="classCore_1_1IO_1_1Output.html#ad9478f061317492c4d1191702324dca4" target="_top" xlink:title="cancelToggle cancels toggling ">
<polygon fill="#ffffff" stroke="#000000" points="346.261,-.5 346.261,-32.5 470.069,-32.5 470.069,-.5 346.261,-.5"/>
<text text-anchor="start" x="354.261" y="-19.5" font-family="Helvetica,sans-Serif" font-size="10.00" fill="#000000">Core::IO::Output::cancel</text>
<text text-anchor="middle" x="408.165" y="-7.5" font-family="Helvetica,sans-Serif" font-size="10.00" fill="#000000">Toggle</text>
</a>
</g>
</g>
<!-- Node59&#45;&gt;Node63 -->
<g id="edge14" class="edge">
<title>Node59&#45;&gt;Node63</title>
<path fill="none" stroke="#191970" d="M275.5108,-54.6565C298.8002,-47.9576 327.5173,-39.6974 352.2698,-32.5777"/>
<polygon fill="#191970" stroke="#191970" points="274.5322,-51.296 265.8894,-57.424 276.4672,-58.0233 274.5322,-51.296"/>
</g>
<!-- Node61 -->
<g id="node11" class="node">
<title>Node61</title>
<g id="a_node11"><a xlink:href="classCore_1_1IO_1_1Output.html#a22eae1b59ff21d5534d4d03acaa1dc74" target="_top" xlink:title="toggleOutput method toggles the output every using the time arguement. ">
<polygon fill="#ffffff" stroke="#000000" points="509.959,-93.5 509.959,-125.5 632.105,-125.5 632.105,-93.5 509.959,-93.5"/>
<text text-anchor="start" x="517.959" y="-112.5" font-family="Helvetica,sans-Serif" font-size="10.00" fill="#000000">Core::IO::Output::toggle</text>
<text text-anchor="middle" x="571.032" y="-100.5" font-family="Helvetica,sans-Serif" font-size="10.00" fill="#000000">Output</text>
</a>
</g>
</g>
<!-- Node60&#45;&gt;Node61 -->
<g id="edge12" class="edge">
<title>Node60&#45;&gt;Node61</title>
<path fill="none" stroke="#191970" d="M479.3456,-107.8111C489.5135,-107.9984 499.898,-108.1897 509.8514,-108.3731"/>
<polygon fill="#191970" stroke="#191970" points="479.3368,-104.3105 469.274,-107.6256 479.2078,-111.3093 479.3368,-104.3105"/>
</g>
<!-- Node60&#45;&gt;Node62 -->
<g id="edge13" class="edge">
<title>Node60&#45;&gt;Node62</title>
<path fill="none" stroke="#191970" d="M472.7377,-87.4692C487.2257,-83.1993 502.4584,-78.71 516.4909,-74.5743"/>
<polygon fill="#191970" stroke="#191970" points="471.4531,-84.1989 462.8504,-90.3832 473.432,-90.9134 471.4531,-84.1989"/>
</g>
<!-- Node63&#45;&gt;Node62 -->
<g id="edge15" class="edge">
<title>Node63&#45;&gt;Node62</title>
<path fill="none" stroke="#191970" d="M479.9098,-35.0015C490.1226,-37.6352 500.5416,-40.322 510.512,-42.8932"/>
<polygon fill="#191970" stroke="#191970" points="480.7599,-31.6063 470.2026,-32.4982 479.0118,-38.3845 480.7599,-31.6063"/>
</g>
</g>
</svg>
