<?xml version="1.0" encoding="UTF-8" standalone="no"?>
<!DOCTYPE svg PUBLIC "-//W3C//DTD SVG 1.1//EN"
 "http://www.w3.org/Graphics/SVG/1.1/DTD/svg11.dtd">
<!-- Generated by graphviz version 2.40.1 (20161225.0304)
 -->
<!-- Title: LibBBB::IO::IOBase::IOBase Pages: 1 -->
<svg width="393pt" height="41pt"
 viewBox="0.00 0.00 393.09 41.00" xmlns="http://www.w3.org/2000/svg" xmlns:xlink="http://www.w3.org/1999/xlink">
<g id="graph0" class="graph" transform="scale(1 1) rotate(0) translate(4 37)">
<title>LibBBB::IO::IOBase::IOBase</title>
<polygon fill="#ffffff" stroke="transparent" points="-4,4 -4,-37 389.089,-37 389.089,4 -4,4"/>
<!-- Node2 -->
<g id="node1" class="node">
<title>Node2</title>
<polygon fill="#bfbfbf" stroke="#000000" points="0,-.5 0,-32.5 104.363,-32.5 104.363,-.5 0,-.5"/>
<text text-anchor="start" x="8" y="-19.5" font-family="Helvetica,sans-Serif" font-size="10.00" fill="#000000">LibBBB::IO::IOBase</text>
<text text-anchor="middle" x="52.1815" y="-7.5" font-family="Helvetica,sans-Serif" font-size="10.00" fill="#000000">::IOBase</text>
</g>
<!-- Node3 -->
<g id="node2" class="node">
<title>Node3</title>
<g id="a_node2"><a xlink:href="classLibBBB_1_1IO_1_1IOBase.html#aeeec5f72e7e1e153866dca80f24e6405" target="_top" xlink:title="setDirection setter ">
<polygon fill="#ffffff" stroke="#000000" points="140.363,-.5 140.363,-32.5 244.726,-32.5 244.726,-.5 140.363,-.5"/>
<text text-anchor="start" x="148.363" y="-19.5" font-family="Helvetica,sans-Serif" font-size="10.00" fill="#000000">LibBBB::IO::IOBase</text>
<text text-anchor="middle" x="192.5445" y="-7.5" font-family="Helvetica,sans-Serif" font-size="10.00" fill="#000000">::setDirection</text>
</a>
</g>
</g>
<!-- Node2&#45;&gt;Node3 -->
<g id="edge1" class="edge">
<title>Node2&#45;&gt;Node3</title>
<path fill="none" stroke="#191970" d="M104.4475,-16.5C112.8508,-16.5 121.6214,-16.5 130.2319,-16.5"/>
<polygon fill="#191970" stroke="#191970" points="130.2349,-20.0001 140.2348,-16.5 130.2348,-13.0001 130.2349,-20.0001"/>
</g>
<!-- Node4 -->
<g id="node3" class="node">
<title>Node4</title>
<g id="a_node3"><a xlink:href="classLibBBB_1_1IO_1_1IOBase.html#a8b8069af640a6ca1d8ad885015d2e2e5" target="_top" xlink:title="write write function that writes a single string value to a file in the path provided ...">
<polygon fill="#ffffff" stroke="#000000" points="280.726,-.5 280.726,-32.5 385.089,-32.5 385.089,-.5 280.726,-.5"/>
<text text-anchor="start" x="288.726" y="-19.5" font-family="Helvetica,sans-Serif" font-size="10.00" fill="#000000">LibBBB::IO::IOBase</text>
<text text-anchor="middle" x="332.9075" y="-7.5" font-family="Helvetica,sans-Serif" font-size="10.00" fill="#000000">::write</text>
</a>
</g>
</g>
<!-- Node3&#45;&gt;Node4 -->
<g id="edge2" class="edge">
<title>Node3&#45;&gt;Node4</title>
<path fill="none" stroke="#191970" d="M244.8105,-16.5C253.2138,-16.5 261.9844,-16.5 270.5949,-16.5"/>
<polygon fill="#191970" stroke="#191970" points="270.5979,-20.0001 280.5978,-16.5 270.5978,-13.0001 270.5979,-20.0001"/>
</g>
</g>
</svg>
