<?xml version="1.0" encoding="UTF-8" standalone="no"?>
<!DOCTYPE svg PUBLIC "-//W3C//DTD SVG 1.1//EN"
 "http://www.w3.org/Graphics/SVG/1.1/DTD/svg11.dtd">
<!-- Generated by graphviz version 2.40.1 (20161225.0304)
 -->
<!-- Title: Core::IO::IOBase::read Pages: 1 -->
<svg width="809pt" height="188pt"
 viewBox="0.00 0.00 809.39 188.00" xmlns="http://www.w3.org/2000/svg" xmlns:xlink="http://www.w3.org/1999/xlink">
<g id="graph0" class="graph" transform="scale(1 1) rotate(0) translate(4 184)">
<title>Core::IO::IOBase::read</title>
<polygon fill="#ffffff" stroke="transparent" points="-4,4 -4,-184 805.387,-184 805.387,4 -4,4"/>
<!-- Node31 -->
<g id="node1" class="node">
<title>Node31</title>
<polygon fill="#bfbfbf" stroke="#000000" points="0,-101.5 0,-121.5 118.249,-121.5 118.249,-101.5 0,-101.5"/>
<text text-anchor="middle" x="59.1245" y="-108.5" font-family="Helvetica,sans-Serif" font-size="10.00" fill="#000000">Core::IO::IOBase::read</text>
</g>
<!-- Node32 -->
<g id="node2" class="node">
<title>Node32</title>
<g id="a_node2"><a xlink:href="classCore_1_1IO_1_1Input.html#a95ed615611d3f5dc6952f2fd9a647f8f" target="_top" xlink:title="getEdgeType getter ">
<polygon fill="#ffffff" stroke="#000000" points="154.249,-156.5 154.249,-176.5 300.852,-176.5 300.852,-156.5 154.249,-156.5"/>
<text text-anchor="middle" x="227.5505" y="-163.5" font-family="Helvetica,sans-Serif" font-size="10.00" fill="#000000">Core::IO::Input::getEdgeType</text>
</a>
</g>
</g>
<!-- Node31&#45;&gt;Node32 -->
<g id="edge1" class="edge">
<title>Node31&#45;&gt;Node32</title>
<path fill="none" stroke="#191970" d="M99.7297,-124.7597C129.6124,-134.518 169.6123,-147.5801 196.8544,-156.4761"/>
<polygon fill="#191970" stroke="#191970" points="100.6089,-121.365 90.0164,-121.5878 98.4359,-128.0192 100.6089,-121.365"/>
</g>
<!-- Node34 -->
<g id="node4" class="node">
<title>Node34</title>
<g id="a_node4"><a xlink:href="classCore_1_1IO_1_1IOBase.html#a5516fd4c88b5d0557f19c0c77add9dbf" target="_top" xlink:title="getValue getter ">
<polygon fill="#ffffff" stroke="#000000" points="158.698,-82.5 158.698,-102.5 296.403,-102.5 296.403,-82.5 158.698,-82.5"/>
<text text-anchor="middle" x="227.5505" y="-89.5" font-family="Helvetica,sans-Serif" font-size="10.00" fill="#000000">Core::IO::IOBase::getValue</text>
</a>
</g>
</g>
<!-- Node31&#45;&gt;Node34 -->
<g id="edge3" class="edge">
<title>Node31&#45;&gt;Node34</title>
<path fill="none" stroke="#191970" d="M128.689,-103.6525C138.5809,-102.5366 148.7509,-101.3893 158.6304,-100.2748"/>
<polygon fill="#191970" stroke="#191970" points="128.0498,-100.2023 118.5052,-104.8013 128.8346,-107.1582 128.0498,-100.2023"/>
</g>
<!-- Node33 -->
<g id="node3" class="node">
<title>Node33</title>
<g id="a_node3"><a xlink:href="structCore_1_1IO_1_1Input_1_1Setup.html#a493b98ee230283215bd55b7ba739f60a" target="_top" xlink:title="Core::IO::Input::Setup\l::Setup">
<polygon fill="#ffffff" stroke="#000000" points="688.129,-147.5 688.129,-179.5 801.387,-179.5 801.387,-147.5 688.129,-147.5"/>
<text text-anchor="start" x="696.129" y="-166.5" font-family="Helvetica,sans-Serif" font-size="10.00" fill="#000000">Core::IO::Input::Setup</text>
<text text-anchor="middle" x="744.758" y="-154.5" font-family="Helvetica,sans-Serif" font-size="10.00" fill="#000000">::Setup</text>
</a>
</g>
</g>
<!-- Node32&#45;&gt;Node33 -->
<g id="edge2" class="edge">
<title>Node32&#45;&gt;Node33</title>
<path fill="none" stroke="#191970" d="M311.3736,-166.7777C397.0177,-166.9498 533.8474,-166.9161 652.129,-165.5 663.7095,-165.3614 676.1031,-165.1425 687.9363,-164.8995"/>
<polygon fill="#191970" stroke="#191970" points="311.1951,-163.2774 301.1876,-166.7558 311.18,-170.2774 311.1951,-163.2774"/>
</g>
<!-- Node35 -->
<g id="node5" class="node">
<title>Node35</title>
<g id="a_node5"><a xlink:href="classCore_1_1IO_1_1Input.html#a6ebaffcb31befe3e8ad3f1c753875499" target="_top" xlink:title="waitForEdge method is a blocking wait for edge. Therefore, the callee will halt its thread until this...">
<polygon fill="#ffffff" stroke="#000000" points="336.852,-108.5 336.852,-128.5 480.104,-128.5 480.104,-108.5 336.852,-108.5"/>
<text text-anchor="middle" x="408.478" y="-115.5" font-family="Helvetica,sans-Serif" font-size="10.00" fill="#000000">Core::IO::Input::waitForEdge</text>
</a>
</g>
</g>
<!-- Node34&#45;&gt;Node35 -->
<g id="edge4" class="edge">
<title>Node34&#45;&gt;Node35</title>
<path fill="none" stroke="#191970" d="M306.6594,-103.8683C317.3795,-105.4088 328.3158,-106.9804 338.8532,-108.4946"/>
<polygon fill="#191970" stroke="#191970" points="306.8638,-100.3618 296.4676,-102.4037 305.868,-107.2906 306.8638,-100.3618"/>
</g>
<!-- Node37 -->
<g id="node7" class="node">
<title>Node37</title>
<g id="a_node7"><a xlink:href="classCore_1_1IO_1_1Output.html#a9fff26b25ba74b5ddbd4781f90d11c88" target="_top" xlink:title="toggleOutput method toggles the output once ">
<polygon fill="#ffffff" stroke="#000000" points="347.405,-51.5 347.405,-83.5 469.551,-83.5 469.551,-51.5 347.405,-51.5"/>
<text text-anchor="start" x="355.405" y="-70.5" font-family="Helvetica,sans-Serif" font-size="10.00" fill="#000000">Core::IO::Output::toggle</text>
<text text-anchor="middle" x="408.478" y="-58.5" font-family="Helvetica,sans-Serif" font-size="10.00" fill="#000000">Output</text>
</a>
</g>
</g>
<!-- Node34&#45;&gt;Node37 -->
<g id="edge8" class="edge">
<title>Node34&#45;&gt;Node37</title>
<path fill="none" stroke="#191970" d="M306.7381,-81.5581C320.2829,-79.6865 334.1704,-77.7676 347.1601,-75.9727"/>
<polygon fill="#191970" stroke="#191970" points="305.8943,-78.1413 296.4676,-82.9773 306.8525,-85.0755 305.8943,-78.1413"/>
</g>
<!-- Node40 -->
<g id="node10" class="node">
<title>Node40</title>
<g id="a_node10"><a xlink:href="classCore_1_1IO_1_1Output.html#ad9478f061317492c4d1191702324dca4" target="_top" xlink:title="cancelToggle cancels toggling ">
<polygon fill="#ffffff" stroke="#000000" points="346.574,-.5 346.574,-32.5 470.382,-32.5 470.382,-.5 346.574,-.5"/>
<text text-anchor="start" x="354.574" y="-19.5" font-family="Helvetica,sans-Serif" font-size="10.00" fill="#000000">Core::IO::Output::cancel</text>
<text text-anchor="middle" x="408.478" y="-7.5" font-family="Helvetica,sans-Serif" font-size="10.00" fill="#000000">Toggle</text>
</a>
</g>
</g>
<!-- Node34&#45;&gt;Node40 -->
<g id="edge11" class="edge">
<title>Node34&#45;&gt;Node40</title>
<path fill="none" stroke="#191970" d="M256.4893,-78.0231C278.3195,-67.3419 309.1405,-52.7678 336.852,-41.5 344.4165,-38.4242 352.5181,-35.3719 360.453,-32.5121"/>
<polygon fill="#191970" stroke="#191970" points="254.8523,-74.9278 247.4277,-82.4859 257.9451,-81.2075 254.8523,-74.9278"/>
</g>
<!-- Node35&#45;&gt;Node33 -->
<g id="edge7" class="edge">
<title>Node35&#45;&gt;Node33</title>
<path fill="none" stroke="#191970" d="M453.9868,-131.1391C473.0441,-136.0013 495.5138,-141.1778 516.104,-144.5 574.3051,-153.8907 641.6339,-158.7737 688.084,-161.2225"/>
<polygon fill="#191970" stroke="#191970" points="454.632,-127.6905 444.073,-128.5605 452.8699,-134.4651 454.632,-127.6905"/>
</g>
<!-- Node36 -->
<g id="node6" class="node">
<title>Node36</title>
<g id="a_node6"><a xlink:href="classCore_1_1IO_1_1Input.html#a6bf5d36ec1e0413c4f11f8bdd01792a0" target="_top" xlink:title="cancelWaitForEdge method cancels waiting for the edge. ">
<polygon fill="#ffffff" stroke="#000000" points="516.104,-102.5 516.104,-134.5 652.129,-134.5 652.129,-102.5 516.104,-102.5"/>
<text text-anchor="start" x="524.104" y="-121.5" font-family="Helvetica,sans-Serif" font-size="10.00" fill="#000000">Core::IO::Input::cancelWait</text>
<text text-anchor="middle" x="584.1165" y="-109.5" font-family="Helvetica,sans-Serif" font-size="10.00" fill="#000000">ForEdge</text>
</a>
</g>
</g>
<!-- Node35&#45;&gt;Node36 -->
<g id="edge5" class="edge">
<title>Node35&#45;&gt;Node36</title>
<path fill="none" stroke="#191970" d="M490.2508,-118.5C498.8857,-118.5 507.5989,-118.5 516.0544,-118.5"/>
<polygon fill="#191970" stroke="#191970" points="490.1703,-115.0001 480.1702,-118.5 490.1702,-122.0001 490.1703,-115.0001"/>
</g>
<!-- Node36&#45;&gt;Node33 -->
<g id="edge6" class="edge">
<title>Node36&#45;&gt;Node33</title>
<path fill="none" stroke="#191970" d="M651.305,-137.3213C663.472,-140.7296 676.0522,-144.2537 687.8878,-147.5691"/>
<polygon fill="#191970" stroke="#191970" points="652.2315,-133.9462 641.658,-134.6189 650.3432,-140.6867 652.2315,-133.9462"/>
</g>
<!-- Node38 -->
<g id="node8" class="node">
<title>Node38</title>
<g id="a_node8"><a xlink:href="classCore_1_1IO_1_1Output.html#a22eae1b59ff21d5534d4d03acaa1dc74" target="_top" xlink:title="toggleOutput method toggles the output every using the time arguement. ">
<polygon fill="#ffffff" stroke="#000000" points="523.0435,-51.5 523.0435,-83.5 645.1895,-83.5 645.1895,-51.5 523.0435,-51.5"/>
<text text-anchor="start" x="531.0435" y="-70.5" font-family="Helvetica,sans-Serif" font-size="10.00" fill="#000000">Core::IO::Output::toggle</text>
<text text-anchor="middle" x="584.1165" y="-58.5" font-family="Helvetica,sans-Serif" font-size="10.00" fill="#000000">Output</text>
</a>
</g>
</g>
<!-- Node37&#45;&gt;Node38 -->
<g id="edge9" class="edge">
<title>Node37&#45;&gt;Node38</title>
<path fill="none" stroke="#191970" d="M480.1417,-67.5C494.3692,-67.5 509.1826,-67.5 523.018,-67.5"/>
<polygon fill="#191970" stroke="#191970" points="479.9079,-64.0001 469.9078,-67.5 479.9078,-71.0001 479.9079,-64.0001"/>
</g>
<!-- Node39 -->
<g id="node9" class="node">
<title>Node39</title>
<g id="a_node9"><a xlink:href="structCore_1_1IO_1_1Output_1_1Setup.html#aa94d399cf6e529ff662a8d31f38bd35c" target="_top" xlink:title="Core::IO::Output::Setup\l::Setup">
<polygon fill="#ffffff" stroke="#000000" points="523.598,-.5 523.598,-32.5 644.635,-32.5 644.635,-.5 523.598,-.5"/>
<text text-anchor="start" x="531.598" y="-19.5" font-family="Helvetica,sans-Serif" font-size="10.00" fill="#000000">Core::IO::Output::Setup</text>
<text text-anchor="middle" x="584.1165" y="-7.5" font-family="Helvetica,sans-Serif" font-size="10.00" fill="#000000">::Setup</text>
</a>
</g>
</g>
<!-- Node37&#45;&gt;Node39 -->
<g id="edge10" class="edge">
<title>Node37&#45;&gt;Node39</title>
<path fill="none" stroke="#191970" d="M473.6867,-48.5654C491.8432,-43.2933 511.3833,-37.6195 528.9049,-32.5317"/>
<polygon fill="#191970" stroke="#191970" points="472.6785,-45.2135 464.0511,-51.3633 474.6305,-51.9359 472.6785,-45.2135"/>
</g>
<!-- Node40&#45;&gt;Node39 -->
<g id="edge12" class="edge">
<title>Node40&#45;&gt;Node39</title>
<path fill="none" stroke="#191970" d="M480.615,-16.5C494.8091,-16.5 509.568,-16.5 523.3431,-16.5"/>
<polygon fill="#191970" stroke="#191970" points="480.4016,-13.0001 470.4016,-16.5 480.4015,-20.0001 480.4016,-13.0001"/>
</g>
</g>
</svg>
