<?xml version="1.0" encoding="UTF-8" standalone="no"?>
<!DOCTYPE svg PUBLIC "-//W3C//DTD SVG 1.1//EN"
 "http://www.w3.org/Graphics/SVG/1.1/DTD/svg11.dtd">
<!-- Generated by graphviz version 2.40.1 (20161225.0304)
 -->
<!-- Title: LibBBB::IO::ServoControl::desiredDegree Pages: 1 -->
<svg width="328pt" height="92pt"
 viewBox="0.00 0.00 327.72 92.00" xmlns="http://www.w3.org/2000/svg" xmlns:xlink="http://www.w3.org/1999/xlink">
<g id="graph0" class="graph" transform="scale(1 1) rotate(0) translate(4 88)">
<title>LibBBB::IO::ServoControl::desiredDegree</title>
<polygon fill="#ffffff" stroke="transparent" points="-4,4 -4,-88 323.719,-88 323.719,4 -4,4"/>
<!-- Node4 -->
<g id="node1" class="node">
<title>Node4</title>
<polygon fill="#bfbfbf" stroke="#000000" points="0,-25.5 0,-57.5 129.357,-57.5 129.357,-25.5 0,-25.5"/>
<text text-anchor="start" x="8" y="-44.5" font-family="Helvetica,sans-Serif" font-size="10.00" fill="#000000">LibBBB::IO::ServoControl</text>
<text text-anchor="middle" x="64.6785" y="-32.5" font-family="Helvetica,sans-Serif" font-size="10.00" fill="#000000">::desiredDegree</text>
</g>
<!-- Node5 -->
<g id="node2" class="node">
<title>Node5</title>
<g id="a_node2"><a xlink:href="classLibBBB_1_1Math_1_1LinearConverter.html#aeb7daf591e9ff862110daf5abe8f8c65" target="_top" xlink:title="convertYtoX getter. Uses x = ( y &#45; b ) / m. ">
<polygon fill="#ffffff" stroke="#000000" points="165.357,-51.5 165.357,-83.5 319.719,-83.5 319.719,-51.5 165.357,-51.5"/>
<text text-anchor="start" x="173.357" y="-70.5" font-family="Helvetica,sans-Serif" font-size="10.00" fill="#000000">LibBBB::Math::LinearConverter</text>
<text text-anchor="middle" x="242.538" y="-58.5" font-family="Helvetica,sans-Serif" font-size="10.00" fill="#000000">::convertYtoX</text>
</a>
</g>
</g>
<!-- Node4&#45;&gt;Node5 -->
<g id="edge1" class="edge">
<title>Node4&#45;&gt;Node5</title>
<path fill="none" stroke="#191970" d="M129.393,-50.9601C137.7456,-52.1812 146.4067,-53.4473 155.0497,-54.7107"/>
<polygon fill="#191970" stroke="#191970" points="154.7668,-58.2065 165.1679,-56.1898 155.7793,-51.2801 154.7668,-58.2065"/>
</g>
<!-- Node6 -->
<g id="node3" class="node">
<title>Node6</title>
<g id="a_node3"><a xlink:href="classLibBBB_1_1IO_1_1MotorControl.html#a55e9586e72ae2fc6ab868f8cfa6429a0" target="_top" xlink:title="pulseWidth getter ">
<polygon fill="#ffffff" stroke="#000000" points="178.14,-.5 178.14,-32.5 306.936,-32.5 306.936,-.5 178.14,-.5"/>
<text text-anchor="start" x="186.14" y="-19.5" font-family="Helvetica,sans-Serif" font-size="10.00" fill="#000000">LibBBB::IO::MotorControl</text>
<text text-anchor="middle" x="242.538" y="-7.5" font-family="Helvetica,sans-Serif" font-size="10.00" fill="#000000">::pulseWidth</text>
</a>
</g>
</g>
<!-- Node4&#45;&gt;Node6 -->
<g id="edge2" class="edge">
<title>Node4&#45;&gt;Node6</title>
<path fill="none" stroke="#191970" d="M129.393,-32.4037C141.8544,-30.6521 155.0025,-28.804 167.7525,-27.0119"/>
<polygon fill="#191970" stroke="#191970" points="168.4562,-30.4475 177.8717,-25.5895 167.4818,-23.5156 168.4562,-30.4475"/>
</g>
</g>
</svg>
