<?xml version="1.0" encoding="UTF-8" standalone="no"?>
<!DOCTYPE svg PUBLIC "-//W3C//DTD SVG 1.1//EN"
 "http://www.w3.org/Graphics/SVG/1.1/DTD/svg11.dtd">
<!-- Generated by graphviz version 2.40.1 (20161225.0304)
 -->
<!-- Title: LibBBB::Bluetooth::Manager::sendData Pages: 1 -->
<svg width="264pt" height="41pt"
 viewBox="0.00 0.00 263.82 41.00" xmlns="http://www.w3.org/2000/svg" xmlns:xlink="http://www.w3.org/1999/xlink">
<g id="graph0" class="graph" transform="scale(1 1) rotate(0) translate(4 37)">
<title>LibBBB::Bluetooth::Manager::sendData</title>
<polygon fill="#ffffff" stroke="transparent" points="-4,4 -4,-37 259.824,-37 259.824,4 -4,4"/>
<!-- Node10 -->
<g id="node1" class="node">
<title>Node10</title>
<polygon fill="#bfbfbf" stroke="#000000" points="0,-.5 0,-32.5 103.804,-32.5 103.804,-.5 0,-.5"/>
<text text-anchor="start" x="8" y="-19.5" font-family="Helvetica,sans-Serif" font-size="10.00" fill="#000000">LibBBB::Bluetooth::</text>
<text text-anchor="middle" x="51.902" y="-7.5" font-family="Helvetica,sans-Serif" font-size="10.00" fill="#000000">Manager::sendData</text>
</g>
<!-- Node11 -->
<g id="node2" class="node">
<title>Node11</title>
<g id="a_node2"><a xlink:href="classLibBBB_1_1ThreadHelper.html#a6999e18135496ef252b1c43c374c20f9" target="_top" xlink:title="startDetachedThread ">
<polygon fill="#ffffff" stroke="#000000" points="139.804,-.5 139.804,-32.5 255.824,-32.5 255.824,-.5 139.804,-.5"/>
<text text-anchor="start" x="147.804" y="-19.5" font-family="Helvetica,sans-Serif" font-size="10.00" fill="#000000">LibBBB::ThreadHelper</text>
<text text-anchor="middle" x="197.814" y="-7.5" font-family="Helvetica,sans-Serif" font-size="10.00" fill="#000000">::startDetachedThread</text>
</a>
</g>
</g>
<!-- Node10&#45;&gt;Node11 -->
<g id="edge1" class="edge">
<title>Node10&#45;&gt;Node11</title>
<path fill="none" stroke="#191970" d="M104.1674,-16.5C112.3064,-16.5 120.82,-16.5 129.2548,-16.5"/>
<polygon fill="#191970" stroke="#191970" points="129.4741,-20.0001 139.474,-16.5 129.474,-13.0001 129.4741,-20.0001"/>
</g>
</g>
</svg>
