<?xml version="1.0" encoding="UTF-8" standalone="no"?>
<!DOCTYPE svg PUBLIC "-//W3C//DTD SVG 1.1//EN"
 "http://www.w3.org/Graphics/SVG/1.1/DTD/svg11.dtd">
<!-- Generated by graphviz version 2.40.1 (20161225.0304)
 -->
<!-- Title: Core::IO::Input::cancelWaitForEdge Pages: 1 -->
<svg width="651pt" height="68pt"
 viewBox="0.00 0.00 651.23 68.00" xmlns="http://www.w3.org/2000/svg" xmlns:xlink="http://www.w3.org/1999/xlink">
<g id="graph0" class="graph" transform="scale(1 1) rotate(0) translate(4 64)">
<title>Core::IO::Input::cancelWaitForEdge</title>
<polygon fill="#ffffff" stroke="transparent" points="-4,4 -4,-64 647.231,-64 647.231,4 -4,4"/>
<!-- Node11 -->
<g id="node1" class="node">
<title>Node11</title>
<polygon fill="#bfbfbf" stroke="#000000" points="0,-13.5 0,-45.5 136.025,-45.5 136.025,-13.5 0,-13.5"/>
<text text-anchor="start" x="8" y="-32.5" font-family="Helvetica,sans-Serif" font-size="10.00" fill="#000000">Core::IO::Input::cancelWait</text>
<text text-anchor="middle" x="68.0125" y="-20.5" font-family="Helvetica,sans-Serif" font-size="10.00" fill="#000000">ForEdge</text>
</g>
<!-- Node12 -->
<g id="node2" class="node">
<title>Node12</title>
<g id="a_node2"><a xlink:href="classCore_1_1IO_1_1Input.html#a6ebaffcb31befe3e8ad3f1c753875499" target="_top" xlink:title="waitForEdge method is a blocking wait for edge. Therefore, the callee will halt its thread until this...">
<polygon fill="#ffffff" stroke="#000000" points="172.025,-19.5 172.025,-39.5 315.277,-39.5 315.277,-19.5 172.025,-19.5"/>
<text text-anchor="middle" x="243.651" y="-26.5" font-family="Helvetica,sans-Serif" font-size="10.00" fill="#000000">Core::IO::Input::waitForEdge</text>
</a>
</g>
</g>
<!-- Node11&#45;&gt;Node12 -->
<g id="edge1" class="edge">
<title>Node11&#45;&gt;Node12</title>
<path fill="none" stroke="#191970" d="M136.1703,-29.5C144.4653,-29.5 153.007,-29.5 161.4784,-29.5"/>
<polygon fill="#191970" stroke="#191970" points="161.7554,-33.0001 171.7553,-29.5 161.7553,-26.0001 161.7554,-33.0001"/>
</g>
<!-- Node13 -->
<g id="node3" class="node">
<title>Node13</title>
<g id="a_node3"><a xlink:href="classCore_1_1IO_1_1IOBase.html#adb7dec70c1c39b19d2166c8fdea6b1f9" target="_top" xlink:title="path getter ">
<polygon fill="#ffffff" stroke="#000000" points="361.28,-39.5 361.28,-59.5 478.979,-59.5 478.979,-39.5 361.28,-39.5"/>
<text text-anchor="middle" x="420.1295" y="-46.5" font-family="Helvetica,sans-Serif" font-size="10.00" fill="#000000">Core::IO::IOBase::path</text>
</a>
</g>
</g>
<!-- Node12&#45;&gt;Node13 -->
<g id="edge2" class="edge">
<title>Node12&#45;&gt;Node13</title>
<path fill="none" stroke="#191970" d="M315.4316,-37.6348C327.1669,-38.9647 339.305,-40.3403 350.9753,-41.6629"/>
<polygon fill="#191970" stroke="#191970" points="350.7581,-45.1606 361.0887,-42.809 351.5464,-38.2051 350.7581,-45.1606"/>
</g>
<!-- Node14 -->
<g id="node4" class="node">
<title>Node14</title>
<g id="a_node4"><a xlink:href="classCore_1_1IO_1_1IOBase.html#a5516fd4c88b5d0557f19c0c77add9dbf" target="_top" xlink:title="getValue getter ">
<polygon fill="#ffffff" stroke="#000000" points="351.277,-.5 351.277,-20.5 488.982,-20.5 488.982,-.5 351.277,-.5"/>
<text text-anchor="middle" x="420.1295" y="-7.5" font-family="Helvetica,sans-Serif" font-size="10.00" fill="#000000">Core::IO::IOBase::getValue</text>
</a>
</g>
</g>
<!-- Node12&#45;&gt;Node14 -->
<g id="edge3" class="edge">
<title>Node12&#45;&gt;Node14</title>
<path fill="none" stroke="#191970" d="M315.4316,-21.772C323.9366,-20.8563 332.6531,-19.9179 341.2497,-18.9923"/>
<polygon fill="#191970" stroke="#191970" points="341.6987,-22.4643 351.2665,-17.9139 340.9493,-15.5045 341.6987,-22.4643"/>
</g>
<!-- Node15 -->
<g id="node5" class="node">
<title>Node15</title>
<g id="a_node5"><a xlink:href="classCore_1_1IO_1_1IOBase.html#ab27139c5454e00719c3b5d8d17d6a8e8" target="_top" xlink:title="read function that reads the value of the given file filename ">
<polygon fill="#ffffff" stroke="#000000" points="524.982,-.5 524.982,-20.5 643.231,-20.5 643.231,-.5 524.982,-.5"/>
<text text-anchor="middle" x="584.1065" y="-7.5" font-family="Helvetica,sans-Serif" font-size="10.00" fill="#000000">Core::IO::IOBase::read</text>
</a>
</g>
</g>
<!-- Node14&#45;&gt;Node15 -->
<g id="edge4" class="edge">
<title>Node14&#45;&gt;Node15</title>
<path fill="none" stroke="#191970" d="M489.1953,-10.5C497.5958,-10.5 506.182,-10.5 514.589,-10.5"/>
<polygon fill="#191970" stroke="#191970" points="514.7305,-14.0001 524.7305,-10.5 514.7304,-7.0001 514.7305,-14.0001"/>
</g>
</g>
</svg>
