<?xml version="1.0" encoding="UTF-8" standalone="no"?>
<!DOCTYPE svg PUBLIC "-//W3C//DTD SVG 1.1//EN"
 "http://www.w3.org/Graphics/SVG/1.1/DTD/svg11.dtd">
<!-- Generated by graphviz version 2.40.1 (20161225.0304)
 -->
<!-- Title: LibBBB::IO::IOBase Pages: 1 -->
<svg width="220pt" height="86pt"
 viewBox="0.00 0.00 220.14 86.00" xmlns="http://www.w3.org/2000/svg" xmlns:xlink="http://www.w3.org/1999/xlink">
<g id="graph0" class="graph" transform="scale(1 1) rotate(0) translate(4 82)">
<title>LibBBB::IO::IOBase</title>
<polygon fill="#ffffff" stroke="transparent" points="-4,4 -4,-82 216.1425,-82 216.1425,4 -4,4"/>
<!-- Node0 -->
<g id="node1" class="node">
<title>Node0</title>
<polygon fill="#bfbfbf" stroke="#000000" points="51.445,-57.5 51.445,-77.5 155.808,-77.5 155.808,-57.5 51.445,-57.5"/>
<text text-anchor="middle" x="103.6265" y="-64.5" font-family="Helvetica,sans-Serif" font-size="10.00" fill="#000000">LibBBB::IO::IOBase</text>
</g>
<!-- Node1 -->
<g id="node2" class="node">
<title>Node1</title>
<g id="a_node2"><a xlink:href="classLibBBB_1_1IO_1_1Input.html" target="_top" xlink:title="The Input class represents a GPIO pin that is set up as an input. This class allows the user to add a...">
<polygon fill="#ffffff" stroke="#000000" points="0,-.5 0,-20.5 93.253,-20.5 93.253,-.5 0,-.5"/>
<text text-anchor="middle" x="46.6265" y="-7.5" font-family="Helvetica,sans-Serif" font-size="10.00" fill="#000000">LibBBB::IO::Input</text>
</a>
</g>
</g>
<!-- Node0&#45;&gt;Node1 -->
<g id="edge1" class="edge">
<title>Node0&#45;&gt;Node1</title>
<path fill="none" stroke="#191970" d="M86.2269,-50.1004C76.5668,-40.4403 64.8901,-28.7636 56.7287,-20.6022"/>
<polygon fill="#191970" stroke="#191970" points="83.8901,-52.7133 93.436,-57.3095 88.8398,-47.7636 83.8901,-52.7133"/>
</g>
<!-- Node2 -->
<g id="node3" class="node">
<title>Node2</title>
<g id="a_node3"><a xlink:href="classLibBBB_1_1IO_1_1Output.html" target="_top" xlink:title="The Output class represents a GPIO pin that is set up as an output. This class has the ability to tog...">
<polygon fill="#ffffff" stroke="#000000" points="111.1105,-.5 111.1105,-20.5 212.1425,-20.5 212.1425,-.5 111.1105,-.5"/>
<text text-anchor="middle" x="161.6265" y="-7.5" font-family="Helvetica,sans-Serif" font-size="10.00" fill="#000000">LibBBB::IO::Output</text>
</a>
</g>
</g>
<!-- Node0&#45;&gt;Node2 -->
<g id="edge2" class="edge">
<title>Node0&#45;&gt;Node2</title>
<path fill="none" stroke="#191970" d="M121.3314,-50.1004C131.161,-40.4403 143.0425,-28.7636 151.347,-20.6022"/>
<polygon fill="#191970" stroke="#191970" points="118.6748,-47.8039 113.9957,-57.3095 123.5813,-52.7965 118.6748,-47.8039"/>
</g>
</g>
</svg>
