<?xml version="1.0" encoding="UTF-8" standalone="no"?>
<!DOCTYPE svg PUBLIC "-//W3C//DTD SVG 1.1//EN"
 "http://www.w3.org/Graphics/SVG/1.1/DTD/svg11.dtd">
<!-- Generated by graphviz version 2.40.1 (20161225.0304)
 -->
<!-- Title: LibBBB::IO::UserLED::setState Pages: 1 -->
<svg width="272pt" height="92pt"
 viewBox="0.00 0.00 271.59 92.00" xmlns="http://www.w3.org/2000/svg" xmlns:xlink="http://www.w3.org/1999/xlink">
<g id="graph0" class="graph" transform="scale(1 1) rotate(0) translate(4 88)">
<title>LibBBB::IO::UserLED::setState</title>
<polygon fill="#ffffff" stroke="transparent" points="-4,4 -4,-88 267.592,-88 267.592,4 -4,4"/>
<!-- Node13 -->
<g id="node1" class="node">
<title>Node13</title>
<polygon fill="#bfbfbf" stroke="#000000" points="0,-25.5 0,-57.5 111.572,-57.5 111.572,-25.5 0,-25.5"/>
<text text-anchor="start" x="8" y="-44.5" font-family="Helvetica,sans-Serif" font-size="10.00" fill="#000000">LibBBB::IO::UserLED</text>
<text text-anchor="middle" x="55.786" y="-32.5" font-family="Helvetica,sans-Serif" font-size="10.00" fill="#000000">::setState</text>
</g>
<!-- Node14 -->
<g id="node2" class="node">
<title>Node14</title>
<g id="a_node2"><a xlink:href="classLibBBB_1_1IO_1_1UserLED.html#a98c0a865b590a4149e3b5a8d8c97d6cd" target="_top" xlink:title="state getter ">
<polygon fill="#ffffff" stroke="#000000" points="149.796,-51.5 149.796,-83.5 261.368,-83.5 261.368,-51.5 149.796,-51.5"/>
<text text-anchor="start" x="157.796" y="-70.5" font-family="Helvetica,sans-Serif" font-size="10.00" fill="#000000">LibBBB::IO::UserLED</text>
<text text-anchor="middle" x="205.582" y="-58.5" font-family="Helvetica,sans-Serif" font-size="10.00" fill="#000000">::state</text>
</a>
</g>
</g>
<!-- Node13&#45;&gt;Node14 -->
<g id="edge1" class="edge">
<title>Node13&#45;&gt;Node14</title>
<path fill="none" stroke="#191970" d="M111.9907,-51.2554C121.0137,-52.8215 130.4234,-54.4548 139.649,-56.0561"/>
<polygon fill="#191970" stroke="#191970" points="139.1092,-59.5146 149.5605,-57.7764 140.3064,-52.6177 139.1092,-59.5146"/>
</g>
<!-- Node15 -->
<g id="node3" class="node">
<title>Node15</title>
<g id="a_node3"><a xlink:href="classLibBBB_1_1ThreadHelper.html#a6999e18135496ef252b1c43c374c20f9" target="_top" xlink:title="startDetachedThread ">
<polygon fill="#ffffff" stroke="#000000" points="147.572,-.5 147.572,-32.5 263.592,-32.5 263.592,-.5 147.572,-.5"/>
<text text-anchor="start" x="155.572" y="-19.5" font-family="Helvetica,sans-Serif" font-size="10.00" fill="#000000">LibBBB::ThreadHelper</text>
<text text-anchor="middle" x="205.582" y="-7.5" font-family="Helvetica,sans-Serif" font-size="10.00" fill="#000000">::startDetachedThread</text>
</a>
</g>
</g>
<!-- Node13&#45;&gt;Node15 -->
<g id="edge2" class="edge">
<title>Node13&#45;&gt;Node15</title>
<path fill="none" stroke="#191970" d="M111.9907,-32.1198C120.3444,-30.7256 129.0295,-29.2761 137.5931,-27.8469"/>
<polygon fill="#191970" stroke="#191970" points="138.2757,-31.2815 147.5631,-26.183 137.1234,-24.377 138.2757,-31.2815"/>
</g>
</g>
</svg>
