<?xml version="1.0" encoding="UTF-8" standalone="no"?>
<!DOCTYPE svg PUBLIC "-//W3C//DTD SVG 1.1//EN"
 "http://www.w3.org/Graphics/SVG/1.1/DTD/svg11.dtd">
<!-- Generated by graphviz version 2.40.1 (20161225.0304)
 -->
<!-- Title: LibBBB::IO::Input::waitForEdge Pages: 1 -->
<svg width="381pt" height="64pt"
 viewBox="0.00 0.00 380.86 64.00" xmlns="http://www.w3.org/2000/svg" xmlns:xlink="http://www.w3.org/1999/xlink">
<g id="graph0" class="graph" transform="scale(1 1) rotate(0) translate(4 60)">
<title>LibBBB::IO::Input::waitForEdge</title>
<polygon fill="#ffffff" stroke="transparent" points="-4,4 -4,-60 376.857,-60 376.857,4 -4,4"/>
<!-- Node40 -->
<g id="node1" class="node">
<title>Node40</title>
<polygon fill="#bfbfbf" stroke="#000000" points="0,-.5 0,-32.5 98.811,-32.5 98.811,-.5 0,-.5"/>
<text text-anchor="start" x="8" y="-19.5" font-family="Helvetica,sans-Serif" font-size="10.00" fill="#000000">LibBBB::IO::Input::</text>
<text text-anchor="middle" x="49.4055" y="-7.5" font-family="Helvetica,sans-Serif" font-size="10.00" fill="#000000">waitForEdge</text>
</g>
<!-- Node41 -->
<g id="node2" class="node">
<title>Node41</title>
<g id="a_node2"><a xlink:href="classLibBBB_1_1IO_1_1Input.html#a463bb83321475919ec672e9ac75b31b1" target="_top" xlink:title="cancelWaitForEdge method cancels waiting for the edge. ">
<polygon fill="#ffffff" stroke="#000000" points="134.811,-23.5 134.811,-55.5 238.046,-55.5 238.046,-23.5 134.811,-23.5"/>
<text text-anchor="start" x="142.811" y="-42.5" font-family="Helvetica,sans-Serif" font-size="10.00" fill="#000000">LibBBB::IO::Input::</text>
<text text-anchor="middle" x="186.4285" y="-30.5" font-family="Helvetica,sans-Serif" font-size="10.00" fill="#000000">cancelWaitForEdge</text>
</a>
</g>
</g>
<!-- Node40&#45;&gt;Node41 -->
<g id="edge1" class="edge">
<title>Node40&#45;&gt;Node41</title>
<path fill="none" stroke="#191970" d="M108.8613,-26.48C117.4735,-27.9256 126.2801,-29.4038 134.7236,-30.8211"/>
<polygon fill="#191970" stroke="#191970" points="109.3154,-23.0073 98.8739,-24.8035 108.1566,-29.9107 109.3154,-23.0073"/>
</g>
<!-- Node42 -->
<g id="node3" class="node">
<title>Node42</title>
<g id="a_node3"><a xlink:href="structLibBBB_1_1IO_1_1Input_1_1Setup.html#a1ad926b46c1818dd934b0b99ddb63386" target="_top" xlink:title="LibBBB::IO::Input::\lSetup::Setup">
<polygon fill="#ffffff" stroke="#000000" points="274.046,-.5 274.046,-32.5 372.857,-32.5 372.857,-.5 274.046,-.5"/>
<text text-anchor="start" x="282.046" y="-19.5" font-family="Helvetica,sans-Serif" font-size="10.00" fill="#000000">LibBBB::IO::Input::</text>
<text text-anchor="middle" x="323.4515" y="-7.5" font-family="Helvetica,sans-Serif" font-size="10.00" fill="#000000">Setup::Setup</text>
</a>
</g>
</g>
<!-- Node40&#45;&gt;Node42 -->
<g id="edge3" class="edge">
<title>Node40&#45;&gt;Node42</title>
<path fill="none" stroke="#191970" d="M109.1028,-14.9239C117.7281,-14.748 126.4967,-14.5973 134.811,-14.5 180.6901,-13.9629 192.1669,-13.9629 238.046,-14.5 249.6137,-14.6354 262.0609,-14.874 273.7778,-15.1403"/>
<polygon fill="#191970" stroke="#191970" points="109.0013,-11.4251 99.0792,-15.1403 109.1525,-18.4235 109.0013,-11.4251"/>
</g>
<!-- Node41&#45;&gt;Node42 -->
<g id="edge2" class="edge">
<title>Node41&#45;&gt;Node42</title>
<path fill="none" stroke="#191970" d="M248.2093,-29.1298C256.7928,-27.689 265.5186,-26.2243 273.8408,-24.8274"/>
<polygon fill="#191970" stroke="#191970" points="247.5136,-25.6975 238.231,-30.8047 248.6725,-32.6009 247.5136,-25.6975"/>
</g>
</g>
</svg>
