<?xml version="1.0" encoding="UTF-8" standalone="no"?>
<!DOCTYPE svg PUBLIC "-//W3C//DTD SVG 1.1//EN"
 "http://www.w3.org/Graphics/SVG/1.1/DTD/svg11.dtd">
<!-- Generated by graphviz version 2.40.1 (20161225.0304)
 -->
<!-- Title: Core::IO::IOBase Pages: 1 -->
<svg width="196pt" height="86pt"
 viewBox="0.00 0.00 196.46 86.00" xmlns="http://www.w3.org/2000/svg" xmlns:xlink="http://www.w3.org/1999/xlink">
<g id="graph0" class="graph" transform="scale(1 1) rotate(0) translate(4 82)">
<title>Core::IO::IOBase</title>
<polygon fill="#ffffff" stroke="transparent" points="-4,4 -4,-82 192.4645,-82 192.4645,4 -4,4"/>
<!-- Node0 -->
<g id="node1" class="node">
<title>Node0</title>
<polygon fill="#bfbfbf" stroke="#000000" points="45.445,-57.5 45.445,-77.5 138.13,-77.5 138.13,-57.5 45.445,-57.5"/>
<text text-anchor="middle" x="91.7875" y="-64.5" font-family="Helvetica,sans-Serif" font-size="10.00" fill="#000000">Core::IO::IOBase</text>
</g>
<!-- Node1 -->
<g id="node2" class="node">
<title>Node1</title>
<g id="a_node2"><a xlink:href="classCore_1_1IO_1_1Input.html" target="_top" xlink:title="The Input class represents a GPIO pin that is set up as an input. This class allows the user to add a...">
<polygon fill="#ffffff" stroke="#000000" points="0,-.5 0,-20.5 81.575,-20.5 81.575,-.5 0,-.5"/>
<text text-anchor="middle" x="40.7875" y="-7.5" font-family="Helvetica,sans-Serif" font-size="10.00" fill="#000000">Core::IO::Input</text>
</a>
</g>
</g>
<!-- Node0&#45;&gt;Node1 -->
<g id="edge1" class="edge">
<title>Node0&#45;&gt;Node1</title>
<path fill="none" stroke="#191970" d="M75.9621,-49.8128C67.3696,-40.2094 57.0563,-28.6828 49.8263,-20.6022"/>
<polygon fill="#191970" stroke="#191970" points="73.3934,-52.1909 82.6697,-57.3095 78.6101,-47.5233 73.3934,-52.1909"/>
</g>
<!-- Node2 -->
<g id="node3" class="node">
<title>Node2</title>
<g id="a_node3"><a xlink:href="classCore_1_1IO_1_1Output.html" target="_top" xlink:title="The Output class represents a GPIO pin that is set up as an output. This class has the ability to tog...">
<polygon fill="#ffffff" stroke="#000000" points="99.1105,-.5 99.1105,-20.5 188.4645,-20.5 188.4645,-.5 99.1105,-.5"/>
<text text-anchor="middle" x="143.7875" y="-7.5" font-family="Helvetica,sans-Serif" font-size="10.00" fill="#000000">Core::IO::Output</text>
</a>
</g>
</g>
<!-- Node0&#45;&gt;Node2 -->
<g id="edge2" class="edge">
<title>Node0&#45;&gt;Node2</title>
<path fill="none" stroke="#191970" d="M107.9232,-49.8128C116.6842,-40.2094 127.1997,-28.6828 134.5714,-20.6022"/>
<polygon fill="#191970" stroke="#191970" points="105.238,-47.563 101.0841,-57.3095 110.4094,-52.2807 105.238,-47.563"/>
</g>
</g>
</svg>
