<?xml version="1.0" encoding="UTF-8" standalone="no"?>
<!DOCTYPE svg PUBLIC "-//W3C//DTD SVG 1.1//EN"
 "http://www.w3.org/Graphics/SVG/1.1/DTD/svg11.dtd">
<!-- Generated by graphviz version 2.40.1 (20161225.0304)
 -->
<!-- Title: LibBBB::Math::Range::lowValue Pages: 1 -->
<svg width="311pt" height="92pt"
 viewBox="0.00 0.00 310.50 92.00" xmlns="http://www.w3.org/2000/svg" xmlns:xlink="http://www.w3.org/1999/xlink">
<g id="graph0" class="graph" transform="scale(1 1) rotate(0) translate(4 88)">
<title>LibBBB::Math::Range::lowValue</title>
<polygon fill="#ffffff" stroke="transparent" points="-4,4 -4,-88 306.503,-88 306.503,4 -4,4"/>
<!-- Node9 -->
<g id="node1" class="node">
<title>Node9</title>
<polygon fill="#bfbfbf" stroke="#000000" points="0,-25.5 0,-57.5 112.141,-57.5 112.141,-25.5 0,-25.5"/>
<text text-anchor="start" x="8" y="-44.5" font-family="Helvetica,sans-Serif" font-size="10.00" fill="#000000">LibBBB::Math::Range</text>
<text text-anchor="middle" x="56.0705" y="-32.5" font-family="Helvetica,sans-Serif" font-size="10.00" fill="#000000">::lowValue</text>
</g>
<!-- Node10 -->
<g id="node2" class="node">
<title>Node10</title>
<g id="a_node2"><a xlink:href="classLibBBB_1_1Math_1_1LinearConverter.html#ae5647c399171683e3516211bd5e4da2c" target="_top" xlink:title="convertXtoY getter. Uses y = mx + b. ">
<polygon fill="#ffffff" stroke="#000000" points="148.141,-51.5 148.141,-83.5 302.503,-83.5 302.503,-51.5 148.141,-51.5"/>
<text text-anchor="start" x="156.141" y="-70.5" font-family="Helvetica,sans-Serif" font-size="10.00" fill="#000000">LibBBB::Math::LinearConverter</text>
<text text-anchor="middle" x="225.322" y="-58.5" font-family="Helvetica,sans-Serif" font-size="10.00" fill="#000000">&lt; int32_t &gt;::convertXtoY</text>
</a>
</g>
</g>
<!-- Node9&#45;&gt;Node10 -->
<g id="edge1" class="edge">
<title>Node9&#45;&gt;Node10</title>
<path fill="none" stroke="#191970" d="M122.524,-51.7084C130.9215,-52.9984 139.5695,-54.3269 148.1159,-55.6398"/>
<polygon fill="#191970" stroke="#191970" points="122.8443,-48.2167 112.4288,-50.1576 121.7814,-55.1355 122.8443,-48.2167"/>
</g>
<!-- Node11 -->
<g id="node3" class="node">
<title>Node11</title>
<g id="a_node3"><a xlink:href="classLibBBB_1_1Math_1_1LinearConverter.html#aeb7daf591e9ff862110daf5abe8f8c65" target="_top" xlink:title="convertYtoX getter. Uses x = ( y &#45; b ) / m. ">
<polygon fill="#ffffff" stroke="#000000" points="148.141,-.5 148.141,-32.5 302.503,-32.5 302.503,-.5 148.141,-.5"/>
<text text-anchor="start" x="156.141" y="-19.5" font-family="Helvetica,sans-Serif" font-size="10.00" fill="#000000">LibBBB::Math::LinearConverter</text>
<text text-anchor="middle" x="225.322" y="-7.5" font-family="Helvetica,sans-Serif" font-size="10.00" fill="#000000">&lt; int32_t &gt;::convertYtoX</text>
</a>
</g>
</g>
<!-- Node9&#45;&gt;Node11 -->
<g id="edge2" class="edge">
<title>Node9&#45;&gt;Node11</title>
<path fill="none" stroke="#191970" d="M122.524,-31.6842C130.9215,-30.4438 139.5695,-29.1664 148.1159,-27.9041"/>
<polygon fill="#191970" stroke="#191970" points="121.81,-28.2516 112.4288,-33.1754 122.8329,-35.1765 121.81,-28.2516"/>
</g>
</g>
</svg>
