<?xml version="1.0" encoding="UTF-8" standalone="no"?>
<!DOCTYPE svg PUBLIC "-//W3C//DTD SVG 1.1//EN"
 "http://www.w3.org/Graphics/SVG/1.1/DTD/svg11.dtd">
<!-- Generated by graphviz version 2.40.1 (20161225.0304)
 -->
<!-- Title: LibBBB::Bluetooth::Manager::Interface::~ Interface Pages: 1 -->
<svg width="255pt" height="53pt"
 viewBox="0.00 0.00 254.94 53.00" xmlns="http://www.w3.org/2000/svg" xmlns:xlink="http://www.w3.org/1999/xlink">
<g id="graph0" class="graph" transform="scale(1 1) rotate(0) translate(4 49)">
<title>LibBBB::Bluetooth::Manager::Interface::~ Interface</title>
<polygon fill="#ffffff" stroke="transparent" points="-4,4 -4,-49 250.942,-49 250.942,4 -4,4"/>
<!-- Node2 -->
<g id="node1" class="node">
<title>Node2</title>
<polygon fill="#bfbfbf" stroke="#000000" points="0,-.5 0,-44.5 105.471,-44.5 105.471,-.5 0,-.5"/>
<text text-anchor="start" x="8" y="-31.5" font-family="Helvetica,sans-Serif" font-size="10.00" fill="#000000">LibBBB::Bluetooth::</text>
<text text-anchor="start" x="8" y="-19.5" font-family="Helvetica,sans-Serif" font-size="10.00" fill="#000000">Manager::Interface::</text>
<text text-anchor="middle" x="52.7355" y="-7.5" font-family="Helvetica,sans-Serif" font-size="10.00" fill="#000000">~ Interface</text>
</g>
<!-- Node3 -->
<g id="node2" class="node">
<title>Node3</title>
<g id="a_node2"><a xlink:href="classLibBBB_1_1Bluetooth_1_1Manager_1_1Interface.html#a4d89d1228bf44378c0caf37fddac40dc" target="_top" xlink:title="stateChange method that the concrete class uses to get the events from the Bluetooth manager ...">
<polygon fill="#ffffff" stroke="#000000" points="141.471,-.5 141.471,-44.5 246.942,-44.5 246.942,-.5 141.471,-.5"/>
<text text-anchor="start" x="149.471" y="-31.5" font-family="Helvetica,sans-Serif" font-size="10.00" fill="#000000">LibBBB::Bluetooth::</text>
<text text-anchor="start" x="149.471" y="-19.5" font-family="Helvetica,sans-Serif" font-size="10.00" fill="#000000">Manager::Interface::</text>
<text text-anchor="middle" x="194.2065" y="-7.5" font-family="Helvetica,sans-Serif" font-size="10.00" fill="#000000">stateChange</text>
</a>
</g>
</g>
<!-- Node2&#45;&gt;Node3 -->
<g id="edge1" class="edge">
<title>Node2&#45;&gt;Node3</title>
<path fill="none" stroke="#191970" d="M105.8166,-22.5C114.0662,-22.5 122.658,-22.5 131.103,-22.5"/>
<polygon fill="#191970" stroke="#191970" points="131.2985,-26.0001 141.2984,-22.5 131.2984,-19.0001 131.2985,-26.0001"/>
</g>
</g>
</svg>
