<?xml version="1.0" encoding="UTF-8" standalone="no"?>
<!DOCTYPE svg PUBLIC "-//W3C//DTD SVG 1.1//EN"
 "http://www.w3.org/Graphics/SVG/1.1/DTD/svg11.dtd">
<!-- Generated by graphviz version 2.40.1 (20161225.0304)
 -->
<!-- Title: Core::IO::MotorControl::frequency Pages: 1 -->
<svg width="278pt" height="92pt"
 viewBox="0.00 0.00 278.24 92.00" xmlns="http://www.w3.org/2000/svg" xmlns:xlink="http://www.w3.org/1999/xlink">
<g id="graph0" class="graph" transform="scale(1 1) rotate(0) translate(4 88)">
<title>Core::IO::MotorControl::frequency</title>
<polygon fill="#ffffff" stroke="transparent" points="-4,4 -4,-88 274.236,-88 274.236,4 -4,4"/>
<!-- Node13 -->
<g id="node1" class="node">
<title>Node13</title>
<polygon fill="#bfbfbf" stroke="#000000" points="0,-25.5 0,-57.5 117.118,-57.5 117.118,-25.5 0,-25.5"/>
<text text-anchor="start" x="8" y="-44.5" font-family="Helvetica,sans-Serif" font-size="10.00" fill="#000000">Core::IO::MotorControl</text>
<text text-anchor="middle" x="58.559" y="-32.5" font-family="Helvetica,sans-Serif" font-size="10.00" fill="#000000">::frequency</text>
</g>
<!-- Node14 -->
<g id="node2" class="node">
<title>Node14</title>
<g id="a_node2"><a xlink:href="classCore_1_1IO_1_1MotorControl.html#af9c5ee4dc38b3640d2b17d58cfc4dec8" target="_top" xlink:title="setFrequency sets the frequency of the signal ">
<polygon fill="#ffffff" stroke="#000000" points="153.118,-51.5 153.118,-83.5 270.236,-83.5 270.236,-51.5 153.118,-51.5"/>
<text text-anchor="start" x="161.118" y="-70.5" font-family="Helvetica,sans-Serif" font-size="10.00" fill="#000000">Core::IO::MotorControl</text>
<text text-anchor="middle" x="211.677" y="-58.5" font-family="Helvetica,sans-Serif" font-size="10.00" fill="#000000">::setFrequency</text>
</a>
</g>
</g>
<!-- Node13&#45;&gt;Node14 -->
<g id="edge1" class="edge">
<title>Node13&#45;&gt;Node14</title>
<path fill="none" stroke="#191970" d="M127.3251,-53.1767C135.9217,-54.6365 144.6508,-56.1187 153.0727,-57.5488"/>
<polygon fill="#191970" stroke="#191970" points="127.7653,-49.7015 117.3205,-51.4779 126.5934,-56.6027 127.7653,-49.7015"/>
</g>
<!-- Node15 -->
<g id="node3" class="node">
<title>Node15</title>
<g id="a_node3"><a xlink:href="classCore_1_1IO_1_1MotorControl.html#a334e005bc613fa4be50eade98f7ea653" target="_top" xlink:title="dutyCycle getter ">
<polygon fill="#ffffff" stroke="#000000" points="153.118,-.5 153.118,-32.5 270.236,-32.5 270.236,-.5 153.118,-.5"/>
<text text-anchor="start" x="161.118" y="-19.5" font-family="Helvetica,sans-Serif" font-size="10.00" fill="#000000">Core::IO::MotorControl</text>
<text text-anchor="middle" x="211.677" y="-7.5" font-family="Helvetica,sans-Serif" font-size="10.00" fill="#000000">::dutyCycle</text>
</a>
</g>
</g>
<!-- Node13&#45;&gt;Node15 -->
<g id="edge2" class="edge">
<title>Node13&#45;&gt;Node15</title>
<path fill="none" stroke="#191970" d="M127.3251,-30.2724C135.9217,-28.8688 144.6508,-27.4435 153.0727,-26.0685"/>
<polygon fill="#191970" stroke="#191970" points="126.6258,-26.8401 117.3205,-31.9058 127.7538,-33.7486 126.6258,-26.8401"/>
</g>
</g>
</svg>
