<?xml version="1.0" encoding="UTF-8" standalone="no"?>
<!DOCTYPE svg PUBLIC "-//W3C//DTD SVG 1.1//EN"
 "http://www.w3.org/Graphics/SVG/1.1/DTD/svg11.dtd">
<!-- Generated by graphviz version 2.40.1 (20161225.0304)
 -->
<!-- Title: LibBBB::IO::Input::Input Pages: 1 -->
<svg width="410pt" height="143pt"
 viewBox="0.00 0.00 409.74 143.00" xmlns="http://www.w3.org/2000/svg" xmlns:xlink="http://www.w3.org/1999/xlink">
<g id="graph0" class="graph" transform="scale(1 1) rotate(0) translate(4 139)">
<title>LibBBB::IO::Input::Input</title>
<polygon fill="#ffffff" stroke="transparent" points="-4,4 -4,-139 405.742,-139 405.742,4 -4,4"/>
<!-- Node0 -->
<g id="node1" class="node">
<title>Node0</title>
<polygon fill="#bfbfbf" stroke="#000000" points="0,-51.5 0,-83.5 98.811,-83.5 98.811,-51.5 0,-51.5"/>
<text text-anchor="start" x="8" y="-70.5" font-family="Helvetica,sans-Serif" font-size="10.00" fill="#000000">LibBBB::IO::Input::</text>
<text text-anchor="middle" x="49.4055" y="-58.5" font-family="Helvetica,sans-Serif" font-size="10.00" fill="#000000">Input</text>
</g>
<!-- Node1 -->
<g id="node2" class="node">
<title>Node1</title>
<g id="a_node2"><a xlink:href="classLibBBB_1_1IO_1_1Input.html#a9144216b06e8bff7a46a6c9aa246ad5e" target="_top" xlink:title="setEdgeType sets the desired edge ">
<polygon fill="#ffffff" stroke="#000000" points="142.861,-102.5 142.861,-134.5 241.672,-134.5 241.672,-102.5 142.861,-102.5"/>
<text text-anchor="start" x="150.861" y="-121.5" font-family="Helvetica,sans-Serif" font-size="10.00" fill="#000000">LibBBB::IO::Input::</text>
<text text-anchor="middle" x="192.2665" y="-109.5" font-family="Helvetica,sans-Serif" font-size="10.00" fill="#000000">setEdgeType</text>
</a>
</g>
</g>
<!-- Node0&#45;&gt;Node1 -->
<g id="edge1" class="edge">
<title>Node0&#45;&gt;Node1</title>
<path fill="none" stroke="#191970" d="M94.6076,-83.6367C108.2898,-88.5211 123.4629,-93.9378 137.69,-99.0167"/>
<polygon fill="#191970" stroke="#191970" points="136.7638,-102.4024 147.3584,-102.4683 139.1173,-95.8098 136.7638,-102.4024"/>
</g>
<!-- Node3 -->
<g id="node4" class="node">
<title>Node3</title>
<g id="a_node4"><a xlink:href="classLibBBB_1_1IO_1_1IOBase.html#aa98e79cb377720c663e79411a32a5678" target="_top" xlink:title="setActiveHighOrLow setter ">
<polygon fill="#ffffff" stroke="#000000" points="136.205,-51.5 136.205,-83.5 248.328,-83.5 248.328,-51.5 136.205,-51.5"/>
<text text-anchor="start" x="144.205" y="-70.5" font-family="Helvetica,sans-Serif" font-size="10.00" fill="#000000">LibBBB::IO::IOBase</text>
<text text-anchor="middle" x="192.2665" y="-58.5" font-family="Helvetica,sans-Serif" font-size="10.00" fill="#000000">::setActiveHighOrLow</text>
</a>
</g>
</g>
<!-- Node0&#45;&gt;Node3 -->
<g id="edge3" class="edge">
<title>Node0&#45;&gt;Node3</title>
<path fill="none" stroke="#191970" d="M98.9704,-67.5C107.6363,-67.5 116.7773,-67.5 125.8117,-67.5"/>
<polygon fill="#191970" stroke="#191970" points="125.9355,-71.0001 135.9354,-67.5 125.9354,-64.0001 125.9355,-71.0001"/>
</g>
<!-- Node4 -->
<g id="node5" class="node">
<title>Node4</title>
<g id="a_node5"><a xlink:href="classLibBBB_1_1IO_1_1Input.html#a3a448ebc4e13f3813b6b80566af3fe79" target="_top" xlink:title="waitForEdgeThreaded does the same thing as waitForEdge(), but does so in a threaded manner...">
<polygon fill="#ffffff" stroke="#000000" points="134.811,-.5 134.811,-32.5 249.722,-32.5 249.722,-.5 134.811,-.5"/>
<text text-anchor="start" x="142.811" y="-19.5" font-family="Helvetica,sans-Serif" font-size="10.00" fill="#000000">LibBBB::IO::Input::</text>
<text text-anchor="middle" x="192.2665" y="-7.5" font-family="Helvetica,sans-Serif" font-size="10.00" fill="#000000">waitForEdgeThreaded</text>
</a>
</g>
</g>
<!-- Node0&#45;&gt;Node4 -->
<g id="edge5" class="edge">
<title>Node0&#45;&gt;Node4</title>
<path fill="none" stroke="#191970" d="M94.6076,-51.3633C108.2898,-46.4789 123.4629,-41.0622 137.69,-35.9833"/>
<polygon fill="#191970" stroke="#191970" points="139.1173,-39.1902 147.3584,-32.5317 136.7638,-32.5976 139.1173,-39.1902"/>
</g>
<!-- Node2 -->
<g id="node3" class="node">
<title>Node2</title>
<g id="a_node3"><a xlink:href="classLibBBB_1_1IO_1_1IOBase.html#a8b8069af640a6ca1d8ad885015d2e2e5" target="_top" xlink:title="write write function that writes a single string value to a file in the path provided ...">
<polygon fill="#ffffff" stroke="#000000" points="291.5505,-76.5 291.5505,-108.5 395.9135,-108.5 395.9135,-76.5 291.5505,-76.5"/>
<text text-anchor="start" x="299.5505" y="-95.5" font-family="Helvetica,sans-Serif" font-size="10.00" fill="#000000">LibBBB::IO::IOBase</text>
<text text-anchor="middle" x="343.732" y="-83.5" font-family="Helvetica,sans-Serif" font-size="10.00" fill="#000000">::write</text>
</a>
</g>
</g>
<!-- Node1&#45;&gt;Node2 -->
<g id="edge2" class="edge">
<title>Node1&#45;&gt;Node2</title>
<path fill="none" stroke="#191970" d="M241.862,-109.9866C254.5123,-107.8151 268.2717,-105.4532 281.4673,-103.1881"/>
<polygon fill="#191970" stroke="#191970" points="282.1569,-106.621 291.4206,-101.4796 280.9726,-99.7219 282.1569,-106.621"/>
</g>
<!-- Node3&#45;&gt;Node2 -->
<g id="edge4" class="edge">
<title>Node3&#45;&gt;Node2</title>
<path fill="none" stroke="#191970" d="M248.6667,-76.8091C259.2473,-78.5555 270.3675,-80.3909 281.1234,-82.1662"/>
<polygon fill="#191970" stroke="#191970" points="280.8581,-85.6697 291.2946,-83.845 281.9981,-78.7631 280.8581,-85.6697"/>
</g>
<!-- Node5 -->
<g id="node6" class="node">
<title>Node5</title>
<g id="a_node6"><a xlink:href="classLibBBB_1_1ThreadHelper.html#a6999e18135496ef252b1c43c374c20f9" target="_top" xlink:title="startDetachedThread ">
<polygon fill="#ffffff" stroke="#000000" points="285.722,-.5 285.722,-32.5 401.742,-32.5 401.742,-.5 285.722,-.5"/>
<text text-anchor="start" x="293.722" y="-19.5" font-family="Helvetica,sans-Serif" font-size="10.00" fill="#000000">LibBBB::ThreadHelper</text>
<text text-anchor="middle" x="343.732" y="-7.5" font-family="Helvetica,sans-Serif" font-size="10.00" fill="#000000">::startDetachedThread</text>
</a>
</g>
</g>
<!-- Node4&#45;&gt;Node5 -->
<g id="edge6" class="edge">
<title>Node4&#45;&gt;Node5</title>
<path fill="none" stroke="#191970" d="M249.9612,-16.5C258.3736,-16.5 267.1013,-16.5 275.6955,-16.5"/>
<polygon fill="#191970" stroke="#191970" points="275.696,-20.0001 285.696,-16.5 275.6959,-13.0001 275.696,-20.0001"/>
</g>
</g>
</svg>
