<?xml version="1.0" encoding="UTF-8" standalone="no"?>
<!DOCTYPE svg PUBLIC "-//W3C//DTD SVG 1.1//EN"
 "http://www.w3.org/Graphics/SVG/1.1/DTD/svg11.dtd">
<!-- Generated by graphviz version 2.40.1 (20161225.0304)
 -->
<!-- Title: LibBBB::IO::MotorControl::setPulseWidth Pages: 1 -->
<svg width="302pt" height="143pt"
 viewBox="0.00 0.00 302.15 143.00" xmlns="http://www.w3.org/2000/svg" xmlns:xlink="http://www.w3.org/1999/xlink">
<g id="graph0" class="graph" transform="scale(1 1) rotate(0) translate(4 139)">
<title>LibBBB::IO::MotorControl::setPulseWidth</title>
<polygon fill="#ffffff" stroke="transparent" points="-4,4 -4,-139 298.153,-139 298.153,4 -4,4"/>
<!-- Node39 -->
<g id="node1" class="node">
<title>Node39</title>
<polygon fill="#bfbfbf" stroke="#000000" points="0,-51.5 0,-83.5 128.796,-83.5 128.796,-51.5 0,-51.5"/>
<text text-anchor="start" x="8" y="-70.5" font-family="Helvetica,sans-Serif" font-size="10.00" fill="#000000">LibBBB::IO::MotorControl</text>
<text text-anchor="middle" x="64.398" y="-58.5" font-family="Helvetica,sans-Serif" font-size="10.00" fill="#000000">::setPulseWidth</text>
</g>
<!-- Node40 -->
<g id="node2" class="node">
<title>Node40</title>
<g id="a_node2"><a xlink:href="classLibBBB_1_1IO_1_1MotorControl.html#ab1fb69041c1faa982c19e94e872a675b" target="_top" xlink:title="setPulseWidth sets the final pulse width of the signal using the given ramp time ">
<polygon fill="#ffffff" stroke="#000000" points="165.0765,-102.5 165.0765,-134.5 293.8725,-134.5 293.8725,-102.5 165.0765,-102.5"/>
<text text-anchor="start" x="173.0765" y="-121.5" font-family="Helvetica,sans-Serif" font-size="10.00" fill="#000000">LibBBB::IO::MotorControl</text>
<text text-anchor="middle" x="229.4745" y="-109.5" font-family="Helvetica,sans-Serif" font-size="10.00" fill="#000000">::setPulseWidth</text>
</a>
</g>
</g>
<!-- Node39&#45;&gt;Node40 -->
<g id="edge1" class="edge">
<title>Node39&#45;&gt;Node40</title>
<path fill="none" stroke="#191970" d="M126.3939,-86.6535C143.2574,-91.8634 161.3427,-97.4508 177.583,-102.4683"/>
<polygon fill="#191970" stroke="#191970" points="127.2168,-83.2446 116.6292,-83.6367 125.1505,-89.9326 127.2168,-83.2446"/>
</g>
<!-- Node41 -->
<g id="node3" class="node">
<title>Node41</title>
<g id="a_node3"><a xlink:href="classLibBBB_1_1IO_1_1MotorControl.html#af963159bf69aea7b50f7df44d60a9beb" target="_top" xlink:title="setDutyCycle setter ">
<polygon fill="#ffffff" stroke="#000000" points="165.0765,-51.5 165.0765,-83.5 293.8725,-83.5 293.8725,-51.5 165.0765,-51.5"/>
<text text-anchor="start" x="173.0765" y="-70.5" font-family="Helvetica,sans-Serif" font-size="10.00" fill="#000000">LibBBB::IO::MotorControl</text>
<text text-anchor="middle" x="229.4745" y="-58.5" font-family="Helvetica,sans-Serif" font-size="10.00" fill="#000000">::setDutyCycle</text>
</a>
</g>
</g>
<!-- Node39&#45;&gt;Node41 -->
<g id="edge2" class="edge">
<title>Node39&#45;&gt;Node41</title>
<path fill="none" stroke="#191970" d="M139.1715,-67.5C147.7574,-67.5 156.4564,-67.5 164.8925,-67.5"/>
<polygon fill="#191970" stroke="#191970" points="139.1668,-64.0001 129.1668,-67.5 139.1668,-71.0001 139.1668,-64.0001"/>
</g>
<!-- Node42 -->
<g id="node4" class="node">
<title>Node42</title>
<g id="a_node4"><a xlink:href="classLibBBB_1_1IO_1_1ServoControl.html#a432a542ebafb399dfcc618ff93d48043" target="_top" xlink:title="setDesiredDegree method sets the desired servo position in degrees ">
<polygon fill="#ffffff" stroke="#000000" points="164.796,-.5 164.796,-32.5 294.153,-32.5 294.153,-.5 164.796,-.5"/>
<text text-anchor="start" x="172.796" y="-19.5" font-family="Helvetica,sans-Serif" font-size="10.00" fill="#000000">LibBBB::IO::ServoControl</text>
<text text-anchor="middle" x="229.4745" y="-7.5" font-family="Helvetica,sans-Serif" font-size="10.00" fill="#000000">::setDesiredDegree</text>
</a>
</g>
</g>
<!-- Node39&#45;&gt;Node42 -->
<g id="edge3" class="edge">
<title>Node39&#45;&gt;Node42</title>
<path fill="none" stroke="#191970" d="M126.3939,-48.3465C143.2574,-43.1366 161.3427,-37.5492 177.583,-32.5317"/>
<polygon fill="#191970" stroke="#191970" points="125.1505,-45.0674 116.6292,-51.3633 127.2168,-51.7554 125.1505,-45.0674"/>
</g>
</g>
</svg>
