<?xml version="1.0" encoding="UTF-8" standalone="no"?>
<!DOCTYPE svg PUBLIC "-//W3C//DTD SVG 1.1//EN"
 "http://www.w3.org/Graphics/SVG/1.1/DTD/svg11.dtd">
<!-- Generated by graphviz version 2.40.1 (20161225.0304)
 -->
<!-- Title: Core::IO::Output::setValue Pages: 1 -->
<svg width="460pt" height="134pt"
 viewBox="0.00 0.00 459.77 134.00" xmlns="http://www.w3.org/2000/svg" xmlns:xlink="http://www.w3.org/1999/xlink">
<g id="graph0" class="graph" transform="scale(1 1) rotate(0) translate(4 130)">
<title>Core::IO::Output::setValue</title>
<polygon fill="#ffffff" stroke="transparent" points="-4,4 -4,-130 455.769,-130 455.769,4 -4,4"/>
<!-- Node22 -->
<g id="node1" class="node">
<title>Node22</title>
<polygon fill="#bfbfbf" stroke="#000000" points="0,-51.5 0,-71.5 133.815,-71.5 133.815,-51.5 0,-51.5"/>
<text text-anchor="middle" x="66.9075" y="-58.5" font-family="Helvetica,sans-Serif" font-size="10.00" fill="#000000">Core::IO::Output::setValue</text>
</g>
<!-- Node23 -->
<g id="node2" class="node">
<title>Node23</title>
<g id="a_node2"><a xlink:href="classCore_1_1IO_1_1Output.html#a9fff26b25ba74b5ddbd4781f90d11c88" target="_top" xlink:title="toggleOutput method toggles the output once ">
<polygon fill="#ffffff" stroke="#000000" points="170.646,-90.5 170.646,-122.5 292.792,-122.5 292.792,-90.5 170.646,-90.5"/>
<text text-anchor="start" x="178.646" y="-109.5" font-family="Helvetica,sans-Serif" font-size="10.00" fill="#000000">Core::IO::Output::toggle</text>
<text text-anchor="middle" x="231.719" y="-97.5" font-family="Helvetica,sans-Serif" font-size="10.00" fill="#000000">Output</text>
</a>
</g>
</g>
<!-- Node22&#45;&gt;Node23 -->
<g id="edge1" class="edge">
<title>Node22&#45;&gt;Node23</title>
<path fill="none" stroke="#191970" d="M113.7761,-74.297C132.1588,-79.3161 153.4597,-85.1322 172.86,-90.4292"/>
<polygon fill="#191970" stroke="#191970" points="114.4632,-70.8565 103.8944,-71.5989 112.6194,-77.6093 114.4632,-70.8565"/>
</g>
<!-- Node25 -->
<g id="node4" class="node">
<title>Node25</title>
<g id="a_node4"><a xlink:href="structCore_1_1IO_1_1Output_1_1Setup.html#aa94d399cf6e529ff662a8d31f38bd35c" target="_top" xlink:title="Core::IO::Output::Setup\l::Setup">
<polygon fill="#ffffff" stroke="#000000" points="330.1775,-42.5 330.1775,-74.5 451.2145,-74.5 451.2145,-42.5 330.1775,-42.5"/>
<text text-anchor="start" x="338.1775" y="-61.5" font-family="Helvetica,sans-Serif" font-size="10.00" fill="#000000">Core::IO::Output::Setup</text>
<text text-anchor="middle" x="390.696" y="-49.5" font-family="Helvetica,sans-Serif" font-size="10.00" fill="#000000">::Setup</text>
</a>
</g>
</g>
<!-- Node22&#45;&gt;Node25 -->
<g id="edge6" class="edge">
<title>Node22&#45;&gt;Node25</title>
<path fill="none" stroke="#191970" d="M144.0306,-60.7854C200.9578,-60.258 277.3636,-59.5501 329.9765,-59.0626"/>
<polygon fill="#191970" stroke="#191970" points="143.9638,-57.2858 133.9967,-60.8784 144.0287,-64.2855 143.9638,-57.2858"/>
</g>
<!-- Node26 -->
<g id="node5" class="node">
<title>Node26</title>
<g id="a_node5"><a xlink:href="classCore_1_1IO_1_1Output.html#ad9478f061317492c4d1191702324dca4" target="_top" xlink:title="cancelToggle cancels toggling ">
<polygon fill="#ffffff" stroke="#000000" points="169.815,-.5 169.815,-32.5 293.623,-32.5 293.623,-.5 169.815,-.5"/>
<text text-anchor="start" x="177.815" y="-19.5" font-family="Helvetica,sans-Serif" font-size="10.00" fill="#000000">Core::IO::Output::cancel</text>
<text text-anchor="middle" x="231.719" y="-7.5" font-family="Helvetica,sans-Serif" font-size="10.00" fill="#000000">Toggle</text>
</a>
</g>
</g>
<!-- Node22&#45;&gt;Node26 -->
<g id="edge4" class="edge">
<title>Node22&#45;&gt;Node26</title>
<path fill="none" stroke="#191970" d="M113.7761,-48.703C132.1588,-43.6839 153.4597,-37.8678 172.86,-32.5708"/>
<polygon fill="#191970" stroke="#191970" points="112.6194,-45.3907 103.8944,-51.4011 114.4632,-52.1435 112.6194,-45.3907"/>
</g>
<!-- Node24 -->
<g id="node3" class="node">
<title>Node24</title>
<g id="a_node3"><a xlink:href="classCore_1_1IO_1_1Output.html#a22eae1b59ff21d5534d4d03acaa1dc74" target="_top" xlink:title="toggleOutput method toggles the output every using the time arguement. ">
<polygon fill="#ffffff" stroke="#000000" points="329.623,-93.5 329.623,-125.5 451.769,-125.5 451.769,-93.5 329.623,-93.5"/>
<text text-anchor="start" x="337.623" y="-112.5" font-family="Helvetica,sans-Serif" font-size="10.00" fill="#000000">Core::IO::Output::toggle</text>
<text text-anchor="middle" x="390.696" y="-100.5" font-family="Helvetica,sans-Serif" font-size="10.00" fill="#000000">Output</text>
</a>
</g>
</g>
<!-- Node23&#45;&gt;Node24 -->
<g id="edge2" class="edge">
<title>Node23&#45;&gt;Node24</title>
<path fill="none" stroke="#191970" d="M303.3192,-107.8511C312.0247,-108.0154 320.8576,-108.1821 329.3948,-108.3432"/>
<polygon fill="#191970" stroke="#191970" points="303.2479,-104.3493 293.1837,-107.6599 303.1158,-111.348 303.2479,-104.3493"/>
</g>
<!-- Node23&#45;&gt;Node25 -->
<g id="edge3" class="edge">
<title>Node23&#45;&gt;Node25</title>
<path fill="none" stroke="#191970" d="M294.7494,-87.4692C308.8914,-83.1993 323.7602,-78.71 337.4576,-74.5743"/>
<polygon fill="#191970" stroke="#191970" points="293.6598,-84.1421 285.0983,-90.3832 295.6831,-90.8433 293.6598,-84.1421"/>
</g>
<!-- Node26&#45;&gt;Node25 -->
<g id="edge5" class="edge">
<title>Node26&#45;&gt;Node25</title>
<path fill="none" stroke="#191970" d="M302.6056,-35.2275C311.7853,-37.6526 321.1198,-40.1187 330.1117,-42.4943"/>
<polygon fill="#191970" stroke="#191970" points="303.2913,-31.7886 292.729,-32.6182 301.5033,-38.5564 303.2913,-31.7886"/>
</g>
</g>
</svg>
