<?xml version="1.0" encoding="UTF-8" standalone="no"?>
<!DOCTYPE svg PUBLIC "-//W3C//DTD SVG 1.1//EN"
 "http://www.w3.org/Graphics/SVG/1.1/DTD/svg11.dtd">
<!-- Generated by graphviz version 2.40.1 (20161225.0304)
 -->
<!-- Title: Core::IO::IOBase::setActiveHighOrLow Pages: 1 -->
<svg width="441pt" height="41pt"
 viewBox="0.00 0.00 441.43 41.00" xmlns="http://www.w3.org/2000/svg" xmlns:xlink="http://www.w3.org/1999/xlink">
<g id="graph0" class="graph" transform="scale(1 1) rotate(0) translate(4 37)">
<title>Core::IO::IOBase::setActiveHighOrLow</title>
<polygon fill="#ffffff" stroke="transparent" points="-4,4 -4,-37 437.433,-37 437.433,4 -4,4"/>
<!-- Node43 -->
<g id="node1" class="node">
<title>Node43</title>
<polygon fill="#bfbfbf" stroke="#000000" points="0,-.5 0,-32.5 138.807,-32.5 138.807,-.5 0,-.5"/>
<text text-anchor="start" x="8" y="-19.5" font-family="Helvetica,sans-Serif" font-size="10.00" fill="#000000">Core::IO::IOBase::setActive</text>
<text text-anchor="middle" x="69.4035" y="-7.5" font-family="Helvetica,sans-Serif" font-size="10.00" fill="#000000">HighOrLow</text>
</g>
<!-- Node44 -->
<g id="node2" class="node">
<title>Node44</title>
<g id="a_node2"><a xlink:href="classCore_1_1IO_1_1Input.html#ae490cffe2162d4538dd108b0bd1f3695" target="_top" xlink:title="Input constructs an input based on the given setup. The constructor will automatically export the pin...">
<polygon fill="#ffffff" stroke="#000000" points="174.807,-6.5 174.807,-26.5 284.175,-26.5 284.175,-6.5 174.807,-6.5"/>
<text text-anchor="middle" x="229.491" y="-13.5" font-family="Helvetica,sans-Serif" font-size="10.00" fill="#000000">Core::IO::Input::Input</text>
</a>
</g>
</g>
<!-- Node43&#45;&gt;Node44 -->
<g id="edge1" class="edge">
<title>Node43&#45;&gt;Node44</title>
<path fill="none" stroke="#191970" d="M149.1562,-16.5C157.6977,-16.5 166.2437,-16.5 174.405,-16.5"/>
<polygon fill="#191970" stroke="#191970" points="149.1545,-13.0001 139.1545,-16.5 149.1545,-20.0001 149.1545,-13.0001"/>
</g>
<!-- Node45 -->
<g id="node3" class="node">
<title>Node45</title>
<g id="a_node3"><a xlink:href="structCore_1_1IO_1_1Input_1_1Setup.html#a493b98ee230283215bd55b7ba739f60a" target="_top" xlink:title="Core::IO::Input::Setup\l::Setup">
<polygon fill="#ffffff" stroke="#000000" points="320.175,-.5 320.175,-32.5 433.433,-32.5 433.433,-.5 320.175,-.5"/>
<text text-anchor="start" x="328.175" y="-19.5" font-family="Helvetica,sans-Serif" font-size="10.00" fill="#000000">Core::IO::Input::Setup</text>
<text text-anchor="middle" x="376.804" y="-7.5" font-family="Helvetica,sans-Serif" font-size="10.00" fill="#000000">::Setup</text>
</a>
</g>
</g>
<!-- Node44&#45;&gt;Node45 -->
<g id="edge2" class="edge">
<title>Node44&#45;&gt;Node45</title>
<path fill="none" stroke="#191970" d="M294.5553,-16.5C303.0133,-16.5 311.6245,-16.5 319.9346,-16.5"/>
<polygon fill="#191970" stroke="#191970" points="294.345,-13.0001 284.3449,-16.5 294.3449,-20.0001 294.345,-13.0001"/>
</g>
</g>
</svg>
