<?xml version="1.0" encoding="UTF-8" standalone="no"?>
<!DOCTYPE svg PUBLIC "-//W3C//DTD SVG 1.1//EN"
 "http://www.w3.org/Graphics/SVG/1.1/DTD/svg11.dtd">
<!-- Generated by graphviz version 2.40.1 (20161225.0304)
 -->
<!-- Title: LibBBB::ThreadHelper::startDetachedThread Pages: 1 -->
<svg width="584pt" height="194pt"
 viewBox="0.00 0.00 583.96 194.00" xmlns="http://www.w3.org/2000/svg" xmlns:xlink="http://www.w3.org/1999/xlink">
<g id="graph0" class="graph" transform="scale(1 1) rotate(0) translate(4 190)">
<title>LibBBB::ThreadHelper::startDetachedThread</title>
<polygon fill="#ffffff" stroke="transparent" points="-4,4 -4,-190 579.96,-190 579.96,4 -4,4"/>
<!-- Node1 -->
<g id="node1" class="node">
<title>Node1</title>
<polygon fill="#bfbfbf" stroke="#000000" points="0,-76.5 0,-108.5 116.02,-108.5 116.02,-76.5 0,-76.5"/>
<text text-anchor="start" x="8" y="-95.5" font-family="Helvetica,sans-Serif" font-size="10.00" fill="#000000">LibBBB::ThreadHelper</text>
<text text-anchor="middle" x="58.01" y="-83.5" font-family="Helvetica,sans-Serif" font-size="10.00" fill="#000000">::startDetachedThread</text>
</g>
<!-- Node2 -->
<g id="node2" class="node">
<title>Node2</title>
<g id="a_node2"><a xlink:href="classLibBBB_1_1Bluetooth_1_1Manager.html#ae004b4701f383a22e0b9cb1093f579bb" target="_top" xlink:title="Manager creates an instance of the Bluetooth manager. ">
<polygon fill="#ffffff" stroke="#000000" points="165.0675,-153.5 165.0675,-185.5 267.7685,-185.5 267.7685,-153.5 165.0675,-153.5"/>
<text text-anchor="start" x="173.0675" y="-172.5" font-family="Helvetica,sans-Serif" font-size="10.00" fill="#000000">LibBBB::Bluetooth::</text>
<text text-anchor="middle" x="216.418" y="-160.5" font-family="Helvetica,sans-Serif" font-size="10.00" fill="#000000">Manager::Manager</text>
</a>
</g>
</g>
<!-- Node1&#45;&gt;Node2 -->
<g id="edge1" class="edge">
<title>Node1&#45;&gt;Node2</title>
<path fill="none" stroke="#191970" d="M93.3497,-113.5301C110.7324,-123.4895 132.1684,-135.2082 152.02,-144.5 158.6459,-147.6013 165.7705,-150.6442 172.78,-153.4802"/>
<polygon fill="#191970" stroke="#191970" points="95.0679,-110.4807 84.659,-108.5045 91.5637,-116.5404 95.0679,-110.4807"/>
</g>
<!-- Node3 -->
<g id="node3" class="node">
<title>Node3</title>
<g id="a_node3"><a xlink:href="classLibBBB_1_1IO_1_1Input.html#a3a448ebc4e13f3813b6b80566af3fe79" target="_top" xlink:title="waitForEdgeThreaded does the same thing as waitForEdge(), but does so in a threaded manner...">
<polygon fill="#ffffff" stroke="#000000" points="158.9625,-102.5 158.9625,-134.5 273.8735,-134.5 273.8735,-102.5 158.9625,-102.5"/>
<text text-anchor="start" x="166.9625" y="-121.5" font-family="Helvetica,sans-Serif" font-size="10.00" fill="#000000">LibBBB::IO::Input::</text>
<text text-anchor="middle" x="216.418" y="-109.5" font-family="Helvetica,sans-Serif" font-size="10.00" fill="#000000">waitForEdgeThreaded</text>
</a>
</g>
</g>
<!-- Node1&#45;&gt;Node3 -->
<g id="edge2" class="edge">
<title>Node1&#45;&gt;Node3</title>
<path fill="none" stroke="#191970" d="M126.0362,-103.6654C136.9758,-105.4609 148.2058,-107.3041 158.8685,-109.0542"/>
<polygon fill="#191970" stroke="#191970" points="126.5307,-100.1998 116.0958,-102.0338 125.3969,-107.1073 126.5307,-100.1998"/>
</g>
<!-- Node6 -->
<g id="node6" class="node">
<title>Node6</title>
<g id="a_node6"><a xlink:href="classLibBBB_1_1IO_1_1MotorControl.html#a55cb5ace57f63ba73e679b5f79c3459a" target="_top" xlink:title="MotorControl ServoControl constructor creates the class, and spawns the frequency control thread...">
<polygon fill="#ffffff" stroke="#000000" points="152.02,-51.5 152.02,-83.5 280.816,-83.5 280.816,-51.5 152.02,-51.5"/>
<text text-anchor="start" x="160.02" y="-70.5" font-family="Helvetica,sans-Serif" font-size="10.00" fill="#000000">LibBBB::IO::MotorControl</text>
<text text-anchor="middle" x="216.418" y="-58.5" font-family="Helvetica,sans-Serif" font-size="10.00" fill="#000000">::MotorControl</text>
</a>
</g>
</g>
<!-- Node1&#45;&gt;Node6 -->
<g id="edge6" class="edge">
<title>Node1&#45;&gt;Node6</title>
<path fill="none" stroke="#191970" d="M126.0616,-81.7601C134.6419,-80.4059 143.4003,-79.0237 151.9232,-77.6786"/>
<polygon fill="#191970" stroke="#191970" points="125.4279,-78.3167 116.0958,-83.3329 126.5192,-85.2311 125.4279,-78.3167"/>
</g>
<!-- Node7 -->
<g id="node7" class="node">
<title>Node7</title>
<g id="a_node7"><a xlink:href="classLibBBB_1_1IO_1_1UserLED.html#a5d6714d1ddc854308c1d4cc5448ded07" target="_top" xlink:title="setState method sets the state of the LED ">
<polygon fill="#ffffff" stroke="#000000" points="160.632,-.5 160.632,-32.5 272.204,-32.5 272.204,-.5 160.632,-.5"/>
<text text-anchor="start" x="168.632" y="-19.5" font-family="Helvetica,sans-Serif" font-size="10.00" fill="#000000">LibBBB::IO::UserLED</text>
<text text-anchor="middle" x="216.418" y="-7.5" font-family="Helvetica,sans-Serif" font-size="10.00" fill="#000000">::setState</text>
</a>
</g>
</g>
<!-- Node1&#45;&gt;Node7 -->
<g id="edge7" class="edge">
<title>Node1&#45;&gt;Node7</title>
<path fill="none" stroke="#191970" d="M94.6292,-71.232C111.7955,-61.6273 132.6855,-50.4535 152.02,-41.5 158.6585,-38.4258 165.7898,-35.3972 172.802,-32.567"/>
<polygon fill="#191970" stroke="#191970" points="92.4953,-68.4175 85.509,-76.3825 95.9375,-74.5127 92.4953,-68.4175"/>
</g>
<!-- Node4 -->
<g id="node4" class="node">
<title>Node4</title>
<g id="a_node4"><a xlink:href="classLibBBB_1_1IO_1_1Input.html#a4e59f6e2c64f7a85adff569daf35b3d3" target="_top" xlink:title="Input constructs an input based on the given setup. The constructor will automatically export the pin...">
<polygon fill="#ffffff" stroke="#000000" points="323.1965,-122.5 323.1965,-154.5 422.0075,-154.5 422.0075,-122.5 323.1965,-122.5"/>
<text text-anchor="start" x="331.1965" y="-141.5" font-family="Helvetica,sans-Serif" font-size="10.00" fill="#000000">LibBBB::IO::Input::</text>
<text text-anchor="middle" x="372.602" y="-129.5" font-family="Helvetica,sans-Serif" font-size="10.00" fill="#000000">Input</text>
</a>
</g>
</g>
<!-- Node3&#45;&gt;Node4 -->
<g id="edge3" class="edge">
<title>Node3&#45;&gt;Node4</title>
<path fill="none" stroke="#191970" d="M284.0559,-127.1613C297.1689,-128.8405 310.6824,-130.5709 323.0813,-132.1587"/>
<polygon fill="#191970" stroke="#191970" points="284.495,-123.689 274.1314,-125.8904 283.6058,-130.6323 284.495,-123.689"/>
</g>
<!-- Node5 -->
<g id="node5" class="node">
<title>Node5</title>
<g id="a_node5"><a xlink:href="structLibBBB_1_1IO_1_1Input_1_1Setup.html#a1ad926b46c1818dd934b0b99ddb63386" target="_top" xlink:title="LibBBB::IO::Input::\lSetup::Setup">
<polygon fill="#ffffff" stroke="#000000" points="470.7685,-89.5 470.7685,-121.5 569.5795,-121.5 569.5795,-89.5 470.7685,-89.5"/>
<text text-anchor="start" x="478.7685" y="-108.5" font-family="Helvetica,sans-Serif" font-size="10.00" fill="#000000">LibBBB::IO::Input::</text>
<text text-anchor="middle" x="520.174" y="-96.5" font-family="Helvetica,sans-Serif" font-size="10.00" fill="#000000">Setup::Setup</text>
</a>
</g>
</g>
<!-- Node3&#45;&gt;Node5 -->
<g id="edge5" class="edge">
<title>Node3&#45;&gt;Node5</title>
<path fill="none" stroke="#191970" d="M284.3273,-115.0216C295.1922,-114.4929 306.3124,-113.9681 316.816,-113.5 369.2328,-111.1638 429.2659,-108.846 470.4416,-107.3114"/>
<polygon fill="#191970" stroke="#191970" points="283.8334,-111.5415 274.0172,-115.528 284.1769,-118.5331 283.8334,-111.5415"/>
</g>
<!-- Node4&#45;&gt;Node5 -->
<g id="edge4" class="edge">
<title>Node4&#45;&gt;Node5</title>
<path fill="none" stroke="#191970" d="M432.2483,-125.1619C445.0334,-122.3029 458.407,-119.3123 470.7549,-116.5511"/>
<polygon fill="#191970" stroke="#191970" points="431.147,-121.8217 422.1519,-127.4197 432.6747,-128.6529 431.147,-121.8217"/>
</g>
<!-- Node8 -->
<g id="node8" class="node">
<title>Node8</title>
<g id="a_node8"><a xlink:href="classLibBBB_1_1IO_1_1UserLED.html#a3ae6a5944f06980dee85eb4504ec9eb0" target="_top" xlink:title="changeBlinkTime method changes the time of the blink ">
<polygon fill="#ffffff" stroke="#000000" points="316.816,-29.5 316.816,-61.5 428.388,-61.5 428.388,-29.5 316.816,-29.5"/>
<text text-anchor="start" x="324.816" y="-48.5" font-family="Helvetica,sans-Serif" font-size="10.00" fill="#000000">LibBBB::IO::UserLED</text>
<text text-anchor="middle" x="372.602" y="-36.5" font-family="Helvetica,sans-Serif" font-size="10.00" fill="#000000">::changeBlinkTime</text>
</a>
</g>
</g>
<!-- Node7&#45;&gt;Node8 -->
<g id="edge8" class="edge">
<title>Node7&#45;&gt;Node8</title>
<path fill="none" stroke="#191970" d="M282.3232,-28.7372C293.7919,-30.8667 305.6201,-33.0629 316.7854,-35.1361"/>
<polygon fill="#191970" stroke="#191970" points="282.8338,-25.2722 272.3629,-26.8878 281.5558,-32.1546 282.8338,-25.2722"/>
</g>
<!-- Node9 -->
<g id="node9" class="node">
<title>Node9</title>
<g id="a_node9"><a xlink:href="structLibBBB_1_1IO_1_1UserLED_1_1Setup.html#a25c259e98aa65d6594d0031eb0463b01" target="_top" xlink:title="LibBBB::IO::UserLED\l::Setup::Setup">
<polygon fill="#ffffff" stroke="#000000" points="464.388,-17.5 464.388,-49.5 575.96,-49.5 575.96,-17.5 464.388,-17.5"/>
<text text-anchor="start" x="472.388" y="-36.5" font-family="Helvetica,sans-Serif" font-size="10.00" fill="#000000">LibBBB::IO::UserLED</text>
<text text-anchor="middle" x="520.174" y="-24.5" font-family="Helvetica,sans-Serif" font-size="10.00" fill="#000000">::Setup::Setup</text>
</a>
</g>
</g>
<!-- Node7&#45;&gt;Node9 -->
<g id="edge10" class="edge">
<title>Node7&#45;&gt;Node9</title>
<path fill="none" stroke="#191970" d="M282.3827,-15.1101C324.2723,-14.8017 379.5947,-15.4528 428.388,-19.5 439.9542,-20.4594 452.2749,-21.9865 464.0107,-23.6862"/>
<polygon fill="#191970" stroke="#191970" points="282.2728,-11.6109 272.3061,-15.2046 282.3385,-18.6106 282.2728,-11.6109"/>
</g>
<!-- Node8&#45;&gt;Node9 -->
<g id="edge9" class="edge">
<title>Node8&#45;&gt;Node9</title>
<path fill="none" stroke="#191970" d="M438.4347,-40.1467C447.0712,-39.4444 455.8546,-38.7302 464.3045,-38.0431"/>
<polygon fill="#191970" stroke="#191970" points="438.076,-36.6643 428.3926,-40.9633 438.6434,-43.6412 438.076,-36.6643"/>
</g>
</g>
</svg>
