<?xml version="1.0" encoding="UTF-8" standalone="no"?>
<!DOCTYPE svg PUBLIC "-//W3C//DTD SVG 1.1//EN"
 "http://www.w3.org/Graphics/SVG/1.1/DTD/svg11.dtd">
<!-- Generated by graphviz version 2.40.1 (20161225.0304)
 -->
<!-- Title: Core::IO::UserLED::setState Pages: 1 -->
<svg width="265pt" height="92pt"
 viewBox="0.00 0.00 264.92 92.00" xmlns="http://www.w3.org/2000/svg" xmlns:xlink="http://www.w3.org/1999/xlink">
<g id="graph0" class="graph" transform="scale(1 1) rotate(0) translate(4 88)">
<title>Core::IO::UserLED::setState</title>
<polygon fill="#ffffff" stroke="transparent" points="-4,4 -4,-88 260.923,-88 260.923,4 -4,4"/>
<!-- Node13 -->
<g id="node1" class="node">
<title>Node13</title>
<polygon fill="#bfbfbf" stroke="#000000" points="0,-25.5 0,-57.5 105.452,-57.5 105.452,-25.5 0,-25.5"/>
<text text-anchor="start" x="8" y="-44.5" font-family="Helvetica,sans-Serif" font-size="10.00" fill="#000000">Core::IO::UserLED::</text>
<text text-anchor="middle" x="52.726" y="-32.5" font-family="Helvetica,sans-Serif" font-size="10.00" fill="#000000">setState</text>
</g>
<!-- Node14 -->
<g id="node2" class="node">
<title>Node14</title>
<g id="a_node2"><a xlink:href="classCore_1_1IO_1_1UserLED.html#a5d7887f070c9ce082f8be1d3aae448d2" target="_top" xlink:title="state getter ">
<polygon fill="#ffffff" stroke="#000000" points="146.4615,-51.5 146.4615,-83.5 251.9135,-83.5 251.9135,-51.5 146.4615,-51.5"/>
<text text-anchor="start" x="154.4615" y="-70.5" font-family="Helvetica,sans-Serif" font-size="10.00" fill="#000000">Core::IO::UserLED::</text>
<text text-anchor="middle" x="199.1875" y="-58.5" font-family="Helvetica,sans-Serif" font-size="10.00" fill="#000000">state</text>
</a>
</g>
</g>
<!-- Node13&#45;&gt;Node14 -->
<g id="edge1" class="edge">
<title>Node13&#45;&gt;Node14</title>
<path fill="none" stroke="#191970" d="M105.602,-50.8866C115.5574,-52.6539 126.058,-54.518 136.2845,-56.3334"/>
<polygon fill="#191970" stroke="#191970" points="135.9313,-59.8253 146.3892,-58.1272 137.1549,-52.9331 135.9313,-59.8253"/>
</g>
<!-- Node15 -->
<g id="node3" class="node">
<title>Node15</title>
<g id="a_node3"><a xlink:href="classCore_1_1ThreadHelper.html#a138066760eabf36c1681bbd177db0446" target="_top" xlink:title="startDetachedThread ">
<polygon fill="#ffffff" stroke="#000000" points="141.452,-.5 141.452,-32.5 256.923,-32.5 256.923,-.5 141.452,-.5"/>
<text text-anchor="start" x="149.452" y="-19.5" font-family="Helvetica,sans-Serif" font-size="10.00" fill="#000000">Core::ThreadHelper</text>
<text text-anchor="middle" x="199.1875" y="-7.5" font-family="Helvetica,sans-Serif" font-size="10.00" fill="#000000">::startDetachedThread</text>
</a>
</g>
</g>
<!-- Node13&#45;&gt;Node15 -->
<g id="edge2" class="edge">
<title>Node13&#45;&gt;Node15</title>
<path fill="none" stroke="#191970" d="M105.602,-32.4744C113.9647,-31.047 122.7122,-29.5538 131.3587,-28.0779"/>
<polygon fill="#191970" stroke="#191970" points="132.165,-31.491 141.4335,-26.3582 130.9871,-24.5908 132.165,-31.491"/>
</g>
</g>
</svg>
