<?xml version="1.0" encoding="UTF-8" standalone="no"?>
<!DOCTYPE svg PUBLIC "-//W3C//DTD SVG 1.1//EN"
 "http://www.w3.org/Graphics/SVG/1.1/DTD/svg11.dtd">
<!-- Generated by graphviz version 2.40.1 (20161225.0304)
 -->
<!-- Title: LibBBB::IO::Output::toggleOutput Pages: 1 -->
<svg width="390pt" height="92pt"
 viewBox="0.00 0.00 389.76 92.00" xmlns="http://www.w3.org/2000/svg" xmlns:xlink="http://www.w3.org/1999/xlink">
<g id="graph0" class="graph" transform="scale(1 1) rotate(0) translate(4 88)">
<title>LibBBB::IO::Output::toggleOutput</title>
<polygon fill="#ffffff" stroke="transparent" points="-4,4 -4,-88 385.758,-88 385.758,4 -4,4"/>
<!-- Node27 -->
<g id="node1" class="node">
<title>Node27</title>
<polygon fill="#bfbfbf" stroke="#000000" points="0,-25.5 0,-57.5 101.032,-57.5 101.032,-25.5 0,-25.5"/>
<text text-anchor="start" x="8" y="-44.5" font-family="Helvetica,sans-Serif" font-size="10.00" fill="#000000">LibBBB::IO::Output</text>
<text text-anchor="middle" x="50.516" y="-32.5" font-family="Helvetica,sans-Serif" font-size="10.00" fill="#000000">::toggleOutput</text>
</g>
<!-- Node28 -->
<g id="node2" class="node">
<title>Node28</title>
<g id="a_node2"><a xlink:href="classLibBBB_1_1IO_1_1IOBase.html#a8ae8a79c81d61625f5b864abebe944a2" target="_top" xlink:title="getValue getter ">
<polygon fill="#ffffff" stroke="#000000" points="137.032,-51.5 137.032,-83.5 241.395,-83.5 241.395,-51.5 137.032,-51.5"/>
<text text-anchor="start" x="145.032" y="-70.5" font-family="Helvetica,sans-Serif" font-size="10.00" fill="#000000">LibBBB::IO::IOBase</text>
<text text-anchor="middle" x="189.2135" y="-58.5" font-family="Helvetica,sans-Serif" font-size="10.00" fill="#000000">::getValue</text>
</a>
</g>
</g>
<!-- Node27&#45;&gt;Node28 -->
<g id="edge1" class="edge">
<title>Node27&#45;&gt;Node28</title>
<path fill="none" stroke="#191970" d="M101.3743,-51.0338C109.7096,-52.5963 118.4293,-54.2309 127.0021,-55.8379"/>
<polygon fill="#191970" stroke="#191970" points="126.4926,-59.3033 136.9663,-57.7058 127.7824,-52.4232 126.4926,-59.3033"/>
</g>
<!-- Node30 -->
<g id="node4" class="node">
<title>Node30</title>
<g id="a_node4"><a xlink:href="classLibBBB_1_1IO_1_1Output.html#a6ae67445b434b37d11e75cb0391e0b3f" target="_top" xlink:title="setValue setter ">
<polygon fill="#ffffff" stroke="#000000" points="138.6975,-.5 138.6975,-32.5 239.7295,-32.5 239.7295,-.5 138.6975,-.5"/>
<text text-anchor="start" x="146.6975" y="-19.5" font-family="Helvetica,sans-Serif" font-size="10.00" fill="#000000">LibBBB::IO::Output</text>
<text text-anchor="middle" x="189.2135" y="-7.5" font-family="Helvetica,sans-Serif" font-size="10.00" fill="#000000">::setValue</text>
</a>
</g>
</g>
<!-- Node27&#45;&gt;Node30 -->
<g id="edge3" class="edge">
<title>Node27&#45;&gt;Node30</title>
<path fill="none" stroke="#191970" d="M101.3743,-32.3329C110.1372,-30.7534 119.3251,-29.0973 128.3203,-27.4759"/>
<polygon fill="#191970" stroke="#191970" points="129.1409,-30.8845 138.3614,-25.666 127.8991,-23.9955 129.1409,-30.8845"/>
</g>
<!-- Node29 -->
<g id="node3" class="node">
<title>Node29</title>
<g id="a_node3"><a xlink:href="classLibBBB_1_1IO_1_1IOBase.html#aa317b2515288dbe3905b675a9033e2fa" target="_top" xlink:title="read function that reads the value of the given file filename ">
<polygon fill="#ffffff" stroke="#000000" points="277.395,-51.5 277.395,-83.5 381.758,-83.5 381.758,-51.5 277.395,-51.5"/>
<text text-anchor="start" x="285.395" y="-70.5" font-family="Helvetica,sans-Serif" font-size="10.00" fill="#000000">LibBBB::IO::IOBase</text>
<text text-anchor="middle" x="329.5765" y="-58.5" font-family="Helvetica,sans-Serif" font-size="10.00" fill="#000000">::read</text>
</a>
</g>
</g>
<!-- Node28&#45;&gt;Node29 -->
<g id="edge2" class="edge">
<title>Node28&#45;&gt;Node29</title>
<path fill="none" stroke="#191970" d="M241.4795,-67.5C249.8828,-67.5 258.6534,-67.5 267.2639,-67.5"/>
<polygon fill="#191970" stroke="#191970" points="267.2669,-71.0001 277.2668,-67.5 267.2668,-64.0001 267.2669,-71.0001"/>
</g>
<!-- Node31 -->
<g id="node5" class="node">
<title>Node31</title>
<g id="a_node5"><a xlink:href="classLibBBB_1_1IO_1_1IOBase.html#a8b8069af640a6ca1d8ad885015d2e2e5" target="_top" xlink:title="write write function that writes a single string value to a file in the path provided ...">
<polygon fill="#ffffff" stroke="#000000" points="277.395,-.5 277.395,-32.5 381.758,-32.5 381.758,-.5 277.395,-.5"/>
<text text-anchor="start" x="285.395" y="-19.5" font-family="Helvetica,sans-Serif" font-size="10.00" fill="#000000">LibBBB::IO::IOBase</text>
<text text-anchor="middle" x="329.5765" y="-7.5" font-family="Helvetica,sans-Serif" font-size="10.00" fill="#000000">::write</text>
</a>
</g>
</g>
<!-- Node30&#45;&gt;Node31 -->
<g id="edge4" class="edge">
<title>Node30&#45;&gt;Node31</title>
<path fill="none" stroke="#191970" d="M239.8878,-16.5C248.6741,-16.5 257.9035,-16.5 266.9628,-16.5"/>
<polygon fill="#191970" stroke="#191970" points="267.086,-20.0001 277.0859,-16.5 267.0859,-13.0001 267.086,-20.0001"/>
</g>
</g>
</svg>
