<?xml version="1.0" encoding="UTF-8" standalone="no"?>
<!DOCTYPE svg PUBLIC "-//W3C//DTD SVG 1.1//EN"
 "http://www.w3.org/Graphics/SVG/1.1/DTD/svg11.dtd">
<!-- Generated by graphviz version 2.40.1 (20161225.0304)
 -->
<!-- Title: Core::IO::Output::toggleOutput Pages: 1 -->
<svg width="617pt" height="68pt"
 viewBox="0.00 0.00 617.34 68.00" xmlns="http://www.w3.org/2000/svg" xmlns:xlink="http://www.w3.org/1999/xlink">
<g id="graph0" class="graph" transform="scale(1 1) rotate(0) translate(4 64)">
<title>Core::IO::Output::toggleOutput</title>
<polygon fill="#ffffff" stroke="transparent" points="-4,4 -4,-64 613.345,-64 613.345,4 -4,4"/>
<!-- Node35 -->
<g id="node1" class="node">
<title>Node35</title>
<polygon fill="#bfbfbf" stroke="#000000" points="0,-13.5 0,-45.5 122.146,-45.5 122.146,-13.5 0,-13.5"/>
<text text-anchor="start" x="8" y="-32.5" font-family="Helvetica,sans-Serif" font-size="10.00" fill="#000000">Core::IO::Output::toggle</text>
<text text-anchor="middle" x="61.073" y="-20.5" font-family="Helvetica,sans-Serif" font-size="10.00" fill="#000000">Output</text>
</g>
<!-- Node36 -->
<g id="node2" class="node">
<title>Node36</title>
<g id="a_node2"><a xlink:href="classCore_1_1IO_1_1Output.html#a9fff26b25ba74b5ddbd4781f90d11c88" target="_top" xlink:title="toggleOutput method toggles the output once ">
<polygon fill="#ffffff" stroke="#000000" points="158.146,-13.5 158.146,-45.5 280.292,-45.5 280.292,-13.5 158.146,-13.5"/>
<text text-anchor="start" x="166.146" y="-32.5" font-family="Helvetica,sans-Serif" font-size="10.00" fill="#000000">Core::IO::Output::toggle</text>
<text text-anchor="middle" x="219.219" y="-20.5" font-family="Helvetica,sans-Serif" font-size="10.00" fill="#000000">Output</text>
</a>
</g>
</g>
<!-- Node35&#45;&gt;Node36 -->
<g id="edge1" class="edge">
<title>Node35&#45;&gt;Node36</title>
<path fill="none" stroke="#191970" d="M122.2164,-29.5C130.6502,-29.5 139.3712,-29.5 147.9678,-29.5"/>
<polygon fill="#191970" stroke="#191970" points="147.9775,-33.0001 157.9775,-29.5 147.9775,-26.0001 147.9775,-33.0001"/>
</g>
<!-- Node37 -->
<g id="node3" class="node">
<title>Node37</title>
<g id="a_node3"><a xlink:href="classCore_1_1IO_1_1IOBase.html#a5516fd4c88b5d0557f19c0c77add9dbf" target="_top" xlink:title="getValue getter ">
<polygon fill="#ffffff" stroke="#000000" points="316.292,-39.5 316.292,-59.5 453.997,-59.5 453.997,-39.5 316.292,-39.5"/>
<text text-anchor="middle" x="385.1445" y="-46.5" font-family="Helvetica,sans-Serif" font-size="10.00" fill="#000000">Core::IO::IOBase::getValue</text>
</a>
</g>
</g>
<!-- Node36&#45;&gt;Node37 -->
<g id="edge2" class="edge">
<title>Node36&#45;&gt;Node37</title>
<path fill="none" stroke="#191970" d="M280.5321,-36.8904C288.8925,-37.8982 297.5683,-38.9439 306.1863,-39.9827"/>
<polygon fill="#191970" stroke="#191970" points="305.9072,-43.4743 316.2542,-41.1962 306.745,-36.5246 305.9072,-43.4743"/>
</g>
<!-- Node39 -->
<g id="node5" class="node">
<title>Node39</title>
<g id="a_node5"><a xlink:href="classCore_1_1IO_1_1Output.html#a07bdc8e3bbaedf9113bd56fe50c85131" target="_top" xlink:title="setValue setter ">
<polygon fill="#ffffff" stroke="#000000" points="318.237,-.5 318.237,-20.5 452.052,-20.5 452.052,-.5 318.237,-.5"/>
<text text-anchor="middle" x="385.1445" y="-7.5" font-family="Helvetica,sans-Serif" font-size="10.00" fill="#000000">Core::IO::Output::setValue</text>
</a>
</g>
</g>
<!-- Node36&#45;&gt;Node39 -->
<g id="edge4" class="edge">
<title>Node36&#45;&gt;Node39</title>
<path fill="none" stroke="#191970" d="M280.5321,-22.4791C289.5488,-21.4466 298.9324,-20.3721 308.2147,-19.3092"/>
<polygon fill="#191970" stroke="#191970" points="308.6882,-22.7779 318.2251,-18.1629 307.8918,-15.8234 308.6882,-22.7779"/>
</g>
<!-- Node38 -->
<g id="node4" class="node">
<title>Node38</title>
<g id="a_node4"><a xlink:href="classCore_1_1IO_1_1IOBase.html#ab27139c5454e00719c3b5d8d17d6a8e8" target="_top" xlink:title="read function that reads the value of the given file filename ">
<polygon fill="#ffffff" stroke="#000000" points="490.5465,-39.5 490.5465,-59.5 608.7955,-59.5 608.7955,-39.5 490.5465,-39.5"/>
<text text-anchor="middle" x="549.671" y="-46.5" font-family="Helvetica,sans-Serif" font-size="10.00" fill="#000000">Core::IO::IOBase::read</text>
</a>
</g>
</g>
<!-- Node37&#45;&gt;Node38 -->
<g id="edge3" class="edge">
<title>Node37&#45;&gt;Node38</title>
<path fill="none" stroke="#191970" d="M454.4417,-49.5C462.9328,-49.5 471.613,-49.5 480.108,-49.5"/>
<polygon fill="#191970" stroke="#191970" points="480.3531,-53.0001 490.3531,-49.5 480.353,-46.0001 480.3531,-53.0001"/>
</g>
<!-- Node40 -->
<g id="node6" class="node">
<title>Node40</title>
<g id="a_node6"><a xlink:href="classCore_1_1IO_1_1IOBase.html#a6a095d6e076e588f343984044a3bb084" target="_top" xlink:title="write write function that writes a single string value to a file in the path provided ...">
<polygon fill="#ffffff" stroke="#000000" points="489.997,-.5 489.997,-20.5 609.345,-20.5 609.345,-.5 489.997,-.5"/>
<text text-anchor="middle" x="549.671" y="-7.5" font-family="Helvetica,sans-Serif" font-size="10.00" fill="#000000">Core::IO::IOBase::write</text>
</a>
</g>
</g>
<!-- Node39&#45;&gt;Node40 -->
<g id="edge5" class="edge">
<title>Node39&#45;&gt;Node40</title>
<path fill="none" stroke="#191970" d="M452.0637,-10.5C461.1778,-10.5 470.5523,-10.5 479.7183,-10.5"/>
<polygon fill="#191970" stroke="#191970" points="479.9533,-14.0001 489.9533,-10.5 479.9532,-7.0001 479.9533,-14.0001"/>
</g>
</g>
</svg>
