<?xml version="1.0" encoding="UTF-8" standalone="no"?>
<!DOCTYPE svg PUBLIC "-//W3C//DTD SVG 1.1//EN"
 "http://www.w3.org/Graphics/SVG/1.1/DTD/svg11.dtd">
<!-- Generated by graphviz version 2.40.1 (20161225.0304)
 -->
<!-- Title: Core::IO::MotorControl::setPulseWidth Pages: 1 -->
<svg width="279pt" height="143pt"
 viewBox="0.00 0.00 278.80 143.00" xmlns="http://www.w3.org/2000/svg" xmlns:xlink="http://www.w3.org/1999/xlink">
<g id="graph0" class="graph" transform="scale(1 1) rotate(0) translate(4 139)">
<title>Core::IO::MotorControl::setPulseWidth</title>
<polygon fill="#ffffff" stroke="transparent" points="-4,4 -4,-139 274.797,-139 274.797,4 -4,4"/>
<!-- Node39 -->
<g id="node1" class="node">
<title>Node39</title>
<polygon fill="#bfbfbf" stroke="#000000" points="0,-51.5 0,-83.5 117.118,-83.5 117.118,-51.5 0,-51.5"/>
<text text-anchor="start" x="8" y="-70.5" font-family="Helvetica,sans-Serif" font-size="10.00" fill="#000000">Core::IO::MotorControl</text>
<text text-anchor="middle" x="58.559" y="-58.5" font-family="Helvetica,sans-Serif" font-size="10.00" fill="#000000">::setPulseWidth</text>
</g>
<!-- Node40 -->
<g id="node2" class="node">
<title>Node40</title>
<g id="a_node2"><a xlink:href="classCore_1_1IO_1_1MotorControl.html#af0424b335abad2270205f6fb4c4350d5" target="_top" xlink:title="setPulseWidth sets the final pulse width of the signal using the given ramp time ">
<polygon fill="#ffffff" stroke="#000000" points="153.3985,-102.5 153.3985,-134.5 270.5165,-134.5 270.5165,-102.5 153.3985,-102.5"/>
<text text-anchor="start" x="161.3985" y="-121.5" font-family="Helvetica,sans-Serif" font-size="10.00" fill="#000000">Core::IO::MotorControl</text>
<text text-anchor="middle" x="211.9575" y="-109.5" font-family="Helvetica,sans-Serif" font-size="10.00" fill="#000000">::setPulseWidth</text>
</a>
</g>
</g>
<!-- Node39&#45;&gt;Node40 -->
<g id="edge1" class="edge">
<title>Node39&#45;&gt;Node40</title>
<path fill="none" stroke="#191970" d="M116.6088,-86.7997C132.1537,-91.9678 148.7866,-97.4977 163.737,-102.4683"/>
<polygon fill="#191970" stroke="#191970" points="117.6888,-83.4704 107.0952,-83.6367 115.4803,-90.1129 117.6888,-83.4704"/>
</g>
<!-- Node41 -->
<g id="node3" class="node">
<title>Node41</title>
<g id="a_node3"><a xlink:href="classCore_1_1IO_1_1MotorControl.html#add4eb4918f1c99f95b10237e6b76741e" target="_top" xlink:title="setDutyCycle setter ">
<polygon fill="#ffffff" stroke="#000000" points="153.3985,-51.5 153.3985,-83.5 270.5165,-83.5 270.5165,-51.5 153.3985,-51.5"/>
<text text-anchor="start" x="161.3985" y="-70.5" font-family="Helvetica,sans-Serif" font-size="10.00" fill="#000000">Core::IO::MotorControl</text>
<text text-anchor="middle" x="211.9575" y="-58.5" font-family="Helvetica,sans-Serif" font-size="10.00" fill="#000000">::setDutyCycle</text>
</a>
</g>
</g>
<!-- Node39&#45;&gt;Node41 -->
<g id="edge2" class="edge">
<title>Node39&#45;&gt;Node41</title>
<path fill="none" stroke="#191970" d="M127.451,-67.5C136.0635,-67.5 144.8085,-67.5 153.2459,-67.5"/>
<polygon fill="#191970" stroke="#191970" points="127.4282,-64.0001 117.4282,-67.5 127.4281,-71.0001 127.4282,-64.0001"/>
</g>
<!-- Node42 -->
<g id="node4" class="node">
<title>Node42</title>
<g id="a_node4"><a xlink:href="classCore_1_1IO_1_1ServoControl.html#a69fb6f10774add593d7f37be10ec8b6a" target="_top" xlink:title="setDesiredDegree method sets the desired servo position in degrees ">
<polygon fill="#ffffff" stroke="#000000" points="153.118,-.5 153.118,-32.5 270.797,-32.5 270.797,-.5 153.118,-.5"/>
<text text-anchor="start" x="161.118" y="-19.5" font-family="Helvetica,sans-Serif" font-size="10.00" fill="#000000">Core::IO::ServoControl</text>
<text text-anchor="middle" x="211.9575" y="-7.5" font-family="Helvetica,sans-Serif" font-size="10.00" fill="#000000">::setDesiredDegree</text>
</a>
</g>
</g>
<!-- Node39&#45;&gt;Node42 -->
<g id="edge3" class="edge">
<title>Node39&#45;&gt;Node42</title>
<path fill="none" stroke="#191970" d="M116.6088,-48.2003C132.1537,-43.0322 148.7866,-37.5023 163.737,-32.5317"/>
<polygon fill="#191970" stroke="#191970" points="115.4803,-44.8871 107.0952,-51.3633 117.6888,-51.5296 115.4803,-44.8871"/>
</g>
</g>
</svg>
