<?xml version="1.0" encoding="UTF-8" standalone="no"?>
<!DOCTYPE svg PUBLIC "-//W3C//DTD SVG 1.1//EN"
 "http://www.w3.org/Graphics/SVG/1.1/DTD/svg11.dtd">
<!-- Generated by graphviz version 2.40.1 (20161225.0304)
 -->
<!-- Title: Core::Math::Range::lowValue Pages: 1 -->
<svg width="293pt" height="92pt"
 viewBox="0.00 0.00 292.70 92.00" xmlns="http://www.w3.org/2000/svg" xmlns:xlink="http://www.w3.org/1999/xlink">
<g id="graph0" class="graph" transform="scale(1 1) rotate(0) translate(4 88)">
<title>Core::Math::Range::lowValue</title>
<polygon fill="#ffffff" stroke="transparent" points="-4,4 -4,-88 288.705,-88 288.705,4 -4,4"/>
<!-- Node9 -->
<g id="node1" class="node">
<title>Node9</title>
<polygon fill="#bfbfbf" stroke="#000000" points="0,-25.5 0,-57.5 106.021,-57.5 106.021,-25.5 0,-25.5"/>
<text text-anchor="start" x="8" y="-44.5" font-family="Helvetica,sans-Serif" font-size="10.00" fill="#000000">Core::Math::Range::</text>
<text text-anchor="middle" x="53.0105" y="-32.5" font-family="Helvetica,sans-Serif" font-size="10.00" fill="#000000">lowValue</text>
</g>
<!-- Node10 -->
<g id="node2" class="node">
<title>Node10</title>
<g id="a_node2"><a xlink:href="classCore_1_1Math_1_1LinearConverter.html#a9c23dfff74ecda38d7187d10fef90774" target="_top" xlink:title="convertXtoY getter. Uses y = mx + b. ">
<polygon fill="#ffffff" stroke="#000000" points="142.021,-51.5 142.021,-83.5 284.705,-83.5 284.705,-51.5 142.021,-51.5"/>
<text text-anchor="start" x="150.021" y="-70.5" font-family="Helvetica,sans-Serif" font-size="10.00" fill="#000000">Core::Math::LinearConverter</text>
<text text-anchor="middle" x="213.363" y="-58.5" font-family="Helvetica,sans-Serif" font-size="10.00" fill="#000000">&lt; int32_t &gt;::convertXtoY</text>
</a>
</g>
</g>
<!-- Node9&#45;&gt;Node10 -->
<g id="edge1" class="edge">
<title>Node9&#45;&gt;Node10</title>
<path fill="none" stroke="#191970" d="M116.4595,-51.7878C124.8267,-53.1445 133.4483,-54.5424 141.9374,-55.9189"/>
<polygon fill="#191970" stroke="#191970" points="116.8369,-48.3034 106.4056,-50.1576 115.7164,-55.2131 116.8369,-48.3034"/>
</g>
<!-- Node11 -->
<g id="node3" class="node">
<title>Node11</title>
<g id="a_node3"><a xlink:href="classCore_1_1Math_1_1LinearConverter.html#a0edafa0346e994028957ac9f88dacc7e" target="_top" xlink:title="convertYtoX getter. Uses x = ( y &#45; b ) / m. ">
<polygon fill="#ffffff" stroke="#000000" points="142.021,-.5 142.021,-32.5 284.705,-32.5 284.705,-.5 142.021,-.5"/>
<text text-anchor="start" x="150.021" y="-19.5" font-family="Helvetica,sans-Serif" font-size="10.00" fill="#000000">Core::Math::LinearConverter</text>
<text text-anchor="middle" x="213.363" y="-7.5" font-family="Helvetica,sans-Serif" font-size="10.00" fill="#000000">&lt; int32_t &gt;::convertYtoX</text>
</a>
</g>
</g>
<!-- Node9&#45;&gt;Node11 -->
<g id="edge2" class="edge">
<title>Node9&#45;&gt;Node11</title>
<path fill="none" stroke="#191970" d="M116.4595,-31.6079C124.8267,-30.3034 133.4483,-28.9592 141.9374,-27.6357"/>
<polygon fill="#191970" stroke="#191970" points="115.747,-28.1766 106.4056,-33.1754 116.8254,-35.093 115.747,-28.1766"/>
</g>
</g>
</svg>
