<?xml version="1.0" encoding="UTF-8" standalone="no"?>
<!DOCTYPE svg PUBLIC "-//W3C//DTD SVG 1.1//EN"
 "http://www.w3.org/Graphics/SVG/1.1/DTD/svg11.dtd">
<!-- Generated by graphviz version 2.40.1 (20161225.0304)
 -->
<!-- Title: LibBBB::Math::LinearConverter&lt; double &gt;::convertYtoX Pages: 1 -->
<svg width="311pt" height="92pt"
 viewBox="0.00 0.00 310.50 92.00" xmlns="http://www.w3.org/2000/svg" xmlns:xlink="http://www.w3.org/1999/xlink">
<g id="graph0" class="graph" transform="scale(1 1) rotate(0) translate(4 88)">
<title>LibBBB::Math::LinearConverter&lt; double &gt;::convertYtoX</title>
<polygon fill="#ffffff" stroke="transparent" points="-4,4 -4,-88 306.503,-88 306.503,4 -4,4"/>
<!-- Node6 -->
<g id="node1" class="node">
<title>Node6</title>
<polygon fill="#bfbfbf" stroke="#000000" points="0,-25.5 0,-57.5 154.362,-57.5 154.362,-25.5 0,-25.5"/>
<text text-anchor="start" x="8" y="-44.5" font-family="Helvetica,sans-Serif" font-size="10.00" fill="#000000">LibBBB::Math::LinearConverter</text>
<text text-anchor="middle" x="77.181" y="-32.5" font-family="Helvetica,sans-Serif" font-size="10.00" fill="#000000">&lt; double &gt;::convertYtoX</text>
</g>
<!-- Node7 -->
<g id="node2" class="node">
<title>Node7</title>
<g id="a_node2"><a xlink:href="classLibBBB_1_1Math_1_1Range.html#a6290a38bb8a1b6ebb704dabba7e14881" target="_top" xlink:title="lowValue getter ">
<polygon fill="#ffffff" stroke="#000000" points="190.362,-51.5 190.362,-83.5 302.503,-83.5 302.503,-51.5 190.362,-51.5"/>
<text text-anchor="start" x="198.362" y="-70.5" font-family="Helvetica,sans-Serif" font-size="10.00" fill="#000000">LibBBB::Math::Range</text>
<text text-anchor="middle" x="246.4325" y="-58.5" font-family="Helvetica,sans-Serif" font-size="10.00" fill="#000000">::lowValue</text>
</a>
</g>
</g>
<!-- Node6&#45;&gt;Node7 -->
<g id="edge1" class="edge">
<title>Node6&#45;&gt;Node7</title>
<path fill="none" stroke="#191970" d="M154.3775,-53.3587C162.931,-54.6727 171.5867,-56.0024 179.9911,-57.2934"/>
<polygon fill="#191970" stroke="#191970" points="179.6789,-60.7865 190.0944,-58.8455 180.7418,-53.8676 179.6789,-60.7865"/>
</g>
<!-- Node8 -->
<g id="node3" class="node">
<title>Node8</title>
<g id="a_node3"><a xlink:href="classLibBBB_1_1Math_1_1Range.html#a6bab451d0f667d26dc1066916a80a1d0" target="_top" xlink:title="highValue getter ">
<polygon fill="#ffffff" stroke="#000000" points="190.362,-.5 190.362,-32.5 302.503,-32.5 302.503,-.5 190.362,-.5"/>
<text text-anchor="start" x="198.362" y="-19.5" font-family="Helvetica,sans-Serif" font-size="10.00" fill="#000000">LibBBB::Math::Range</text>
<text text-anchor="middle" x="246.4325" y="-7.5" font-family="Helvetica,sans-Serif" font-size="10.00" fill="#000000">::highValue</text>
</a>
</g>
</g>
<!-- Node6&#45;&gt;Node8 -->
<g id="edge2" class="edge">
<title>Node6&#45;&gt;Node8</title>
<path fill="none" stroke="#191970" d="M154.3775,-30.0974C162.931,-28.8339 171.5867,-27.5554 179.9911,-26.314"/>
<polygon fill="#191970" stroke="#191970" points="180.7132,-29.7454 190.0944,-24.8217 179.6903,-22.8205 180.7132,-29.7454"/>
</g>
</g>
</svg>
