<?xml version="1.0" encoding="UTF-8" standalone="no"?>
<!DOCTYPE svg PUBLIC "-//W3C//DTD SVG 1.1//EN"
 "http://www.w3.org/Graphics/SVG/1.1/DTD/svg11.dtd">
<!-- Generated by graphviz version 2.40.1 (20161225.0304)
 -->
<!-- Title: LibBBB::IO::Output::toggleOutput Pages: 1 -->
<svg width="527pt" height="92pt"
 viewBox="0.00 0.00 526.79 92.00" xmlns="http://www.w3.org/2000/svg" xmlns:xlink="http://www.w3.org/1999/xlink">
<g id="graph0" class="graph" transform="scale(1 1) rotate(0) translate(4 88)">
<title>LibBBB::IO::Output::toggleOutput</title>
<polygon fill="#ffffff" stroke="transparent" points="-4,4 -4,-88 522.79,-88 522.79,4 -4,4"/>
<!-- Node35 -->
<g id="node1" class="node">
<title>Node35</title>
<polygon fill="#bfbfbf" stroke="#000000" points="0,-25.5 0,-57.5 101.032,-57.5 101.032,-25.5 0,-25.5"/>
<text text-anchor="start" x="8" y="-44.5" font-family="Helvetica,sans-Serif" font-size="10.00" fill="#000000">LibBBB::IO::Output</text>
<text text-anchor="middle" x="50.516" y="-32.5" font-family="Helvetica,sans-Serif" font-size="10.00" fill="#000000">::toggleOutput</text>
</g>
<!-- Node36 -->
<g id="node2" class="node">
<title>Node36</title>
<g id="a_node2"><a xlink:href="classLibBBB_1_1IO_1_1Output.html#a70c6eac9a46013605717fef0ba6c2010" target="_top" xlink:title="toggleOutput method toggles the output once ">
<polygon fill="#ffffff" stroke="#000000" points="137.032,-25.5 137.032,-57.5 238.064,-57.5 238.064,-25.5 137.032,-25.5"/>
<text text-anchor="start" x="145.032" y="-44.5" font-family="Helvetica,sans-Serif" font-size="10.00" fill="#000000">LibBBB::IO::Output</text>
<text text-anchor="middle" x="187.548" y="-32.5" font-family="Helvetica,sans-Serif" font-size="10.00" fill="#000000">::toggleOutput</text>
</a>
</g>
</g>
<!-- Node35&#45;&gt;Node36 -->
<g id="edge1" class="edge">
<title>Node35&#45;&gt;Node36</title>
<path fill="none" stroke="#191970" d="M101.1523,-41.5C109.3911,-41.5 118.0007,-41.5 126.4577,-41.5"/>
<polygon fill="#191970" stroke="#191970" points="126.6624,-45.0001 136.6623,-41.5 126.6623,-38.0001 126.6624,-45.0001"/>
</g>
<!-- Node37 -->
<g id="node3" class="node">
<title>Node37</title>
<g id="a_node3"><a xlink:href="classLibBBB_1_1IO_1_1IOBase.html#a8ae8a79c81d61625f5b864abebe944a2" target="_top" xlink:title="getValue getter ">
<polygon fill="#ffffff" stroke="#000000" points="274.064,-51.5 274.064,-83.5 378.427,-83.5 378.427,-51.5 274.064,-51.5"/>
<text text-anchor="start" x="282.064" y="-70.5" font-family="Helvetica,sans-Serif" font-size="10.00" fill="#000000">LibBBB::IO::IOBase</text>
<text text-anchor="middle" x="326.2455" y="-58.5" font-family="Helvetica,sans-Serif" font-size="10.00" fill="#000000">::getValue</text>
</a>
</g>
</g>
<!-- Node36&#45;&gt;Node37 -->
<g id="edge2" class="edge">
<title>Node36&#45;&gt;Node37</title>
<path fill="none" stroke="#191970" d="M238.4063,-51.0338C246.7416,-52.5963 255.4613,-54.2309 264.0341,-55.8379"/>
<polygon fill="#191970" stroke="#191970" points="263.5246,-59.3033 273.9983,-57.7058 264.8144,-52.4232 263.5246,-59.3033"/>
</g>
<!-- Node39 -->
<g id="node5" class="node">
<title>Node39</title>
<g id="a_node5"><a xlink:href="classLibBBB_1_1IO_1_1Output.html#a6ae67445b434b37d11e75cb0391e0b3f" target="_top" xlink:title="setValue setter ">
<polygon fill="#ffffff" stroke="#000000" points="275.7295,-.5 275.7295,-32.5 376.7615,-32.5 376.7615,-.5 275.7295,-.5"/>
<text text-anchor="start" x="283.7295" y="-19.5" font-family="Helvetica,sans-Serif" font-size="10.00" fill="#000000">LibBBB::IO::Output</text>
<text text-anchor="middle" x="326.2455" y="-7.5" font-family="Helvetica,sans-Serif" font-size="10.00" fill="#000000">::setValue</text>
</a>
</g>
</g>
<!-- Node36&#45;&gt;Node39 -->
<g id="edge4" class="edge">
<title>Node36&#45;&gt;Node39</title>
<path fill="none" stroke="#191970" d="M238.4063,-32.3329C247.1692,-30.7534 256.3571,-29.0973 265.3523,-27.4759"/>
<polygon fill="#191970" stroke="#191970" points="266.1729,-30.8845 275.3934,-25.666 264.9311,-23.9955 266.1729,-30.8845"/>
</g>
<!-- Node38 -->
<g id="node4" class="node">
<title>Node38</title>
<g id="a_node4"><a xlink:href="classLibBBB_1_1IO_1_1IOBase.html#aa317b2515288dbe3905b675a9033e2fa" target="_top" xlink:title="read function that reads the value of the given file filename ">
<polygon fill="#ffffff" stroke="#000000" points="414.427,-51.5 414.427,-83.5 518.79,-83.5 518.79,-51.5 414.427,-51.5"/>
<text text-anchor="start" x="422.427" y="-70.5" font-family="Helvetica,sans-Serif" font-size="10.00" fill="#000000">LibBBB::IO::IOBase</text>
<text text-anchor="middle" x="466.6085" y="-58.5" font-family="Helvetica,sans-Serif" font-size="10.00" fill="#000000">::read</text>
</a>
</g>
</g>
<!-- Node37&#45;&gt;Node38 -->
<g id="edge3" class="edge">
<title>Node37&#45;&gt;Node38</title>
<path fill="none" stroke="#191970" d="M378.5115,-67.5C386.9148,-67.5 395.6854,-67.5 404.2959,-67.5"/>
<polygon fill="#191970" stroke="#191970" points="404.2989,-71.0001 414.2988,-67.5 404.2988,-64.0001 404.2989,-71.0001"/>
</g>
<!-- Node40 -->
<g id="node6" class="node">
<title>Node40</title>
<g id="a_node6"><a xlink:href="classLibBBB_1_1IO_1_1IOBase.html#a8b8069af640a6ca1d8ad885015d2e2e5" target="_top" xlink:title="write write function that writes a single string value to a file in the path provided ...">
<polygon fill="#ffffff" stroke="#000000" points="414.427,-.5 414.427,-32.5 518.79,-32.5 518.79,-.5 414.427,-.5"/>
<text text-anchor="start" x="422.427" y="-19.5" font-family="Helvetica,sans-Serif" font-size="10.00" fill="#000000">LibBBB::IO::IOBase</text>
<text text-anchor="middle" x="466.6085" y="-7.5" font-family="Helvetica,sans-Serif" font-size="10.00" fill="#000000">::write</text>
</a>
</g>
</g>
<!-- Node39&#45;&gt;Node40 -->
<g id="edge5" class="edge">
<title>Node39&#45;&gt;Node40</title>
<path fill="none" stroke="#191970" d="M376.9198,-16.5C385.7061,-16.5 394.9355,-16.5 403.9948,-16.5"/>
<polygon fill="#191970" stroke="#191970" points="404.118,-20.0001 414.1179,-16.5 404.1179,-13.0001 404.118,-20.0001"/>
</g>
</g>
</svg>
