<?xml version="1.0" encoding="UTF-8" standalone="no"?>
<!DOCTYPE svg PUBLIC "-//W3C//DTD SVG 1.1//EN"
 "http://www.w3.org/Graphics/SVG/1.1/DTD/svg11.dtd">
<!-- Generated by graphviz version 2.40.1 (20161225.0304)
 -->
<!-- Title: Core::IO::MotorControl::setPulseWidth Pages: 1 -->
<svg width="278pt" height="92pt"
 viewBox="0.00 0.00 278.24 92.00" xmlns="http://www.w3.org/2000/svg" xmlns:xlink="http://www.w3.org/1999/xlink">
<g id="graph0" class="graph" transform="scale(1 1) rotate(0) translate(4 88)">
<title>Core::IO::MotorControl::setPulseWidth</title>
<polygon fill="#ffffff" stroke="transparent" points="-4,4 -4,-88 274.236,-88 274.236,4 -4,4"/>
<!-- Node43 -->
<g id="node1" class="node">
<title>Node43</title>
<polygon fill="#bfbfbf" stroke="#000000" points="0,-25.5 0,-57.5 117.118,-57.5 117.118,-25.5 0,-25.5"/>
<text text-anchor="start" x="8" y="-44.5" font-family="Helvetica,sans-Serif" font-size="10.00" fill="#000000">Core::IO::MotorControl</text>
<text text-anchor="middle" x="58.559" y="-32.5" font-family="Helvetica,sans-Serif" font-size="10.00" fill="#000000">::setPulseWidth</text>
</g>
<!-- Node44 -->
<g id="node2" class="node">
<title>Node44</title>
<g id="a_node2"><a xlink:href="classCore_1_1IO_1_1MotorControl.html#a97ccba74028ff6057d25fe794350ab7f" target="_top" xlink:title="pulseWidth getter ">
<polygon fill="#ffffff" stroke="#000000" points="153.118,-51.5 153.118,-83.5 270.236,-83.5 270.236,-51.5 153.118,-51.5"/>
<text text-anchor="start" x="161.118" y="-70.5" font-family="Helvetica,sans-Serif" font-size="10.00" fill="#000000">Core::IO::MotorControl</text>
<text text-anchor="middle" x="211.677" y="-58.5" font-family="Helvetica,sans-Serif" font-size="10.00" fill="#000000">::pulseWidth</text>
</a>
</g>
</g>
<!-- Node43&#45;&gt;Node44 -->
<g id="edge1" class="edge">
<title>Node43&#45;&gt;Node44</title>
<path fill="none" stroke="#191970" d="M117.3205,-51.4779C125.7462,-52.9086 134.4764,-54.3911 143.0714,-55.8505"/>
<polygon fill="#191970" stroke="#191970" points="142.6279,-59.3252 153.0727,-57.5488 143.7998,-52.424 142.6279,-59.3252"/>
</g>
<!-- Node45 -->
<g id="node3" class="node">
<title>Node45</title>
<g id="a_node3"><a xlink:href="classCore_1_1IO_1_1MotorControl.html#ac8c377620913c11472dc67a4bb9622b6" target="_top" xlink:title="setPulseWidth sets the pulse width of the signal ">
<polygon fill="#ffffff" stroke="#000000" points="153.118,-.5 153.118,-32.5 270.236,-32.5 270.236,-.5 153.118,-.5"/>
<text text-anchor="start" x="161.118" y="-19.5" font-family="Helvetica,sans-Serif" font-size="10.00" fill="#000000">Core::IO::MotorControl</text>
<text text-anchor="middle" x="211.677" y="-7.5" font-family="Helvetica,sans-Serif" font-size="10.00" fill="#000000">::setPulseWidth</text>
</a>
</g>
</g>
<!-- Node43&#45;&gt;Node45 -->
<g id="edge2" class="edge">
<title>Node43&#45;&gt;Node45</title>
<path fill="none" stroke="#191970" d="M117.3205,-31.9058C125.7462,-30.5302 134.4764,-29.1048 143.0714,-27.7014"/>
<polygon fill="#191970" stroke="#191970" points="143.7674,-31.1342 153.0727,-26.0685 142.6394,-24.2257 143.7674,-31.1342"/>
</g>
</g>
</svg>
