<?xml version="1.0" encoding="UTF-8" standalone="no"?>
<!DOCTYPE svg PUBLIC "-//W3C//DTD SVG 1.1//EN"
 "http://www.w3.org/Graphics/SVG/1.1/DTD/svg11.dtd">
<!-- Generated by graphviz version 2.40.1 (20161225.0304)
 -->
<!-- Title: LibBBB::IO::Input::waitForEdgeThreaded Pages: 1 -->
<svg width="393pt" height="64pt"
 viewBox="0.00 0.00 392.53 64.00" xmlns="http://www.w3.org/2000/svg" xmlns:xlink="http://www.w3.org/1999/xlink">
<g id="graph0" class="graph" transform="scale(1 1) rotate(0) translate(4 60)">
<title>LibBBB::IO::Input::waitForEdgeThreaded</title>
<polygon fill="#ffffff" stroke="transparent" points="-4,4 -4,-60 388.533,-60 388.533,4 -4,4"/>
<!-- Node45 -->
<g id="node1" class="node">
<title>Node45</title>
<polygon fill="#bfbfbf" stroke="#000000" points="0,-.5 0,-32.5 114.911,-32.5 114.911,-.5 0,-.5"/>
<text text-anchor="start" x="8" y="-19.5" font-family="Helvetica,sans-Serif" font-size="10.00" fill="#000000">LibBBB::IO::Input::</text>
<text text-anchor="middle" x="57.4555" y="-7.5" font-family="Helvetica,sans-Serif" font-size="10.00" fill="#000000">waitForEdgeThreaded</text>
</g>
<!-- Node46 -->
<g id="node2" class="node">
<title>Node46</title>
<g id="a_node2"><a xlink:href="classLibBBB_1_1IO_1_1Input.html#a4e59f6e2c64f7a85adff569daf35b3d3" target="_top" xlink:title="Input constructs an input based on the given setup. The constructor will automatically export the pin...">
<polygon fill="#ffffff" stroke="#000000" points="150.911,-23.5 150.911,-55.5 249.722,-55.5 249.722,-23.5 150.911,-23.5"/>
<text text-anchor="start" x="158.911" y="-42.5" font-family="Helvetica,sans-Serif" font-size="10.00" fill="#000000">LibBBB::IO::Input::</text>
<text text-anchor="middle" x="200.3165" y="-30.5" font-family="Helvetica,sans-Serif" font-size="10.00" fill="#000000">Input</text>
</a>
</g>
</g>
<!-- Node45&#45;&gt;Node46 -->
<g id="edge1" class="edge">
<title>Node45&#45;&gt;Node46</title>
<path fill="none" stroke="#191970" d="M125.1752,-27.4026C133.7681,-28.786 142.4329,-30.181 150.6702,-31.5072"/>
<polygon fill="#191970" stroke="#191970" points="125.58,-23.9228 115.1507,-25.7887 124.4673,-30.8338 125.58,-23.9228"/>
</g>
<!-- Node47 -->
<g id="node3" class="node">
<title>Node47</title>
<g id="a_node3"><a xlink:href="structLibBBB_1_1IO_1_1Input_1_1Setup.html#a1ad926b46c1818dd934b0b99ddb63386" target="_top" xlink:title="LibBBB::IO::Input::\lSetup::Setup">
<polygon fill="#ffffff" stroke="#000000" points="285.722,-.5 285.722,-32.5 384.533,-32.5 384.533,-.5 285.722,-.5"/>
<text text-anchor="start" x="293.722" y="-19.5" font-family="Helvetica,sans-Serif" font-size="10.00" fill="#000000">LibBBB::IO::Input::</text>
<text text-anchor="middle" x="335.1275" y="-7.5" font-family="Helvetica,sans-Serif" font-size="10.00" fill="#000000">Setup::Setup</text>
</a>
</g>
</g>
<!-- Node45&#45;&gt;Node47 -->
<g id="edge3" class="edge">
<title>Node45&#45;&gt;Node47</title>
<path fill="none" stroke="#191970" d="M125.3246,-14.8771C133.9365,-14.7214 142.6298,-14.5886 150.911,-14.5 194.8245,-14.0302 205.809,-13.9859 249.722,-14.5 261.2897,-14.6354 273.7369,-14.874 285.4538,-15.1403"/>
<polygon fill="#191970" stroke="#191970" points="125.213,-11.3785 115.2818,-15.0693 125.347,-18.3772 125.213,-11.3785"/>
</g>
<!-- Node46&#45;&gt;Node47 -->
<g id="edge2" class="edge">
<title>Node46&#45;&gt;Node47</title>
<path fill="none" stroke="#191970" d="M259.7916,-29.353C268.4448,-27.8767 277.2747,-26.3702 285.7003,-24.9327"/>
<polygon fill="#191970" stroke="#191970" points="259.0186,-25.9342 249.7496,-31.0662 260.1959,-32.8345 259.0186,-25.9342"/>
</g>
</g>
</svg>
