<?xml version="1.0" encoding="UTF-8" standalone="no"?>
<!DOCTYPE svg PUBLIC "-//W3C//DTD SVG 1.1//EN"
 "http://www.w3.org/Graphics/SVG/1.1/DTD/svg11.dtd">
<!-- Generated by graphviz version 2.40.1 (20161225.0304)
 -->
<!-- Title: LibBBB::IO::ServoControl::setDesiredDegree Pages: 1 -->
<svg width="328pt" height="92pt"
 viewBox="0.00 0.00 327.72 92.00" xmlns="http://www.w3.org/2000/svg" xmlns:xlink="http://www.w3.org/1999/xlink">
<g id="graph0" class="graph" transform="scale(1 1) rotate(0) translate(4 88)">
<title>LibBBB::IO::ServoControl::setDesiredDegree</title>
<polygon fill="#ffffff" stroke="transparent" points="-4,4 -4,-88 323.719,-88 323.719,4 -4,4"/>
<!-- Node12 -->
<g id="node1" class="node">
<title>Node12</title>
<polygon fill="#bfbfbf" stroke="#000000" points="0,-25.5 0,-57.5 129.357,-57.5 129.357,-25.5 0,-25.5"/>
<text text-anchor="start" x="8" y="-44.5" font-family="Helvetica,sans-Serif" font-size="10.00" fill="#000000">LibBBB::IO::ServoControl</text>
<text text-anchor="middle" x="64.6785" y="-32.5" font-family="Helvetica,sans-Serif" font-size="10.00" fill="#000000">::setDesiredDegree</text>
</g>
<!-- Node13 -->
<g id="node2" class="node">
<title>Node13</title>
<g id="a_node2"><a xlink:href="classLibBBB_1_1IO_1_1MotorControl.html#a2caa62735bf2f443e88a9095287cbad2" target="_top" xlink:title="setPulseWidth sets the pulse width of the signal ">
<polygon fill="#ffffff" stroke="#000000" points="178.14,-51.5 178.14,-83.5 306.936,-83.5 306.936,-51.5 178.14,-51.5"/>
<text text-anchor="start" x="186.14" y="-70.5" font-family="Helvetica,sans-Serif" font-size="10.00" fill="#000000">LibBBB::IO::MotorControl</text>
<text text-anchor="middle" x="242.538" y="-58.5" font-family="Helvetica,sans-Serif" font-size="10.00" fill="#000000">::setPulseWidth</text>
</a>
</g>
</g>
<!-- Node12&#45;&gt;Node13 -->
<g id="edge1" class="edge">
<title>Node12&#45;&gt;Node13</title>
<path fill="none" stroke="#191970" d="M129.393,-50.9601C141.8544,-52.7818 155.0025,-54.7038 167.7525,-56.5676"/>
<polygon fill="#191970" stroke="#191970" points="167.4706,-60.0636 177.8717,-58.0469 168.4831,-53.1372 167.4706,-60.0636"/>
</g>
<!-- Node14 -->
<g id="node3" class="node">
<title>Node14</title>
<g id="a_node3"><a xlink:href="classLibBBB_1_1Math_1_1LinearConverter.html#ae5647c399171683e3516211bd5e4da2c" target="_top" xlink:title="convertXtoY getter. Uses y = mx + b. ">
<polygon fill="#ffffff" stroke="#000000" points="165.357,-.5 165.357,-32.5 319.719,-32.5 319.719,-.5 165.357,-.5"/>
<text text-anchor="start" x="173.357" y="-19.5" font-family="Helvetica,sans-Serif" font-size="10.00" fill="#000000">LibBBB::Math::LinearConverter</text>
<text text-anchor="middle" x="242.538" y="-7.5" font-family="Helvetica,sans-Serif" font-size="10.00" fill="#000000">::convertXtoY</text>
</a>
</g>
</g>
<!-- Node12&#45;&gt;Node14 -->
<g id="edge2" class="edge">
<title>Node12&#45;&gt;Node14</title>
<path fill="none" stroke="#191970" d="M129.393,-32.4037C137.7456,-31.2297 146.4067,-30.0122 155.0497,-28.7974"/>
<polygon fill="#191970" stroke="#191970" points="155.7524,-32.2331 165.1679,-27.3752 154.778,-25.3013 155.7524,-32.2331"/>
</g>
</g>
</svg>
