<?xml version="1.0" encoding="UTF-8" standalone="no"?>
<!DOCTYPE svg PUBLIC "-//W3C//DTD SVG 1.1//EN"
 "http://www.w3.org/Graphics/SVG/1.1/DTD/svg11.dtd">
<!-- Generated by graphviz version 2.40.1 (20161225.0304)
 -->
<!-- Title: LibBBB::IO::IOBase::setActiveHighOrLow Pages: 1 -->
<svg width="260pt" height="41pt"
 viewBox="0.00 0.00 260.49 41.00" xmlns="http://www.w3.org/2000/svg" xmlns:xlink="http://www.w3.org/1999/xlink">
<g id="graph0" class="graph" transform="scale(1 1) rotate(0) translate(4 37)">
<title>LibBBB::IO::IOBase::setActiveHighOrLow</title>
<polygon fill="#ffffff" stroke="transparent" points="-4,4 -4,-37 256.486,-37 256.486,4 -4,4"/>
<!-- Node41 -->
<g id="node1" class="node">
<title>Node41</title>
<polygon fill="#bfbfbf" stroke="#000000" points="0,-.5 0,-32.5 112.123,-32.5 112.123,-.5 0,-.5"/>
<text text-anchor="start" x="8" y="-19.5" font-family="Helvetica,sans-Serif" font-size="10.00" fill="#000000">LibBBB::IO::IOBase</text>
<text text-anchor="middle" x="56.0615" y="-7.5" font-family="Helvetica,sans-Serif" font-size="10.00" fill="#000000">::setActiveHighOrLow</text>
</g>
<!-- Node42 -->
<g id="node2" class="node">
<title>Node42</title>
<g id="a_node2"><a xlink:href="classLibBBB_1_1IO_1_1IOBase.html#a8b8069af640a6ca1d8ad885015d2e2e5" target="_top" xlink:title="write write function that writes a single string value to a file in the path provided ...">
<polygon fill="#ffffff" stroke="#000000" points="148.123,-.5 148.123,-32.5 252.486,-32.5 252.486,-.5 148.123,-.5"/>
<text text-anchor="start" x="156.123" y="-19.5" font-family="Helvetica,sans-Serif" font-size="10.00" fill="#000000">LibBBB::IO::IOBase</text>
<text text-anchor="middle" x="200.3045" y="-7.5" font-family="Helvetica,sans-Serif" font-size="10.00" fill="#000000">::write</text>
</a>
</g>
</g>
<!-- Node41&#45;&gt;Node42 -->
<g id="edge1" class="edge">
<title>Node41&#45;&gt;Node42</title>
<path fill="none" stroke="#191970" d="M112.2426,-16.5C120.5658,-16.5 129.1871,-16.5 137.6326,-16.5"/>
<polygon fill="#191970" stroke="#191970" points="137.8151,-20.0001 147.815,-16.5 137.815,-13.0001 137.8151,-20.0001"/>
</g>
</g>
</svg>
