<?xml version="1.0" encoding="UTF-8" standalone="no"?>
<!DOCTYPE svg PUBLIC "-//W3C//DTD SVG 1.1//EN"
 "http://www.w3.org/Graphics/SVG/1.1/DTD/svg11.dtd">
<!-- Generated by graphviz version 2.40.1 (20161225.0304)
 -->
<!-- Title: Core::IO::MotorControl::setDutyCycle Pages: 1 -->
<svg width="304pt" height="92pt"
 viewBox="0.00 0.00 303.80 92.00" xmlns="http://www.w3.org/2000/svg" xmlns:xlink="http://www.w3.org/1999/xlink">
<g id="graph0" class="graph" transform="scale(1 1) rotate(0) translate(4 88)">
<title>Core::IO::MotorControl::setDutyCycle</title>
<polygon fill="#ffffff" stroke="transparent" points="-4,4 -4,-88 299.802,-88 299.802,4 -4,4"/>
<!-- Node27 -->
<g id="node1" class="node">
<title>Node27</title>
<polygon fill="#bfbfbf" stroke="#000000" points="0,-25.5 0,-57.5 117.118,-57.5 117.118,-25.5 0,-25.5"/>
<text text-anchor="start" x="8" y="-44.5" font-family="Helvetica,sans-Serif" font-size="10.00" fill="#000000">Core::IO::MotorControl</text>
<text text-anchor="middle" x="58.559" y="-32.5" font-family="Helvetica,sans-Serif" font-size="10.00" fill="#000000">::setDutyCycle</text>
</g>
<!-- Node28 -->
<g id="node2" class="node">
<title>Node28</title>
<g id="a_node2"><a xlink:href="classCore_1_1IO_1_1MotorControl.html#ac8c377620913c11472dc67a4bb9622b6" target="_top" xlink:title="setPulseWidth sets the pulse width of the signal ">
<polygon fill="#ffffff" stroke="#000000" points="165.901,-51.5 165.901,-83.5 283.019,-83.5 283.019,-51.5 165.901,-51.5"/>
<text text-anchor="start" x="173.901" y="-70.5" font-family="Helvetica,sans-Serif" font-size="10.00" fill="#000000">Core::IO::MotorControl</text>
<text text-anchor="middle" x="224.46" y="-58.5" font-family="Helvetica,sans-Serif" font-size="10.00" fill="#000000">::setPulseWidth</text>
</a>
</g>
</g>
<!-- Node27&#45;&gt;Node28 -->
<g id="edge1" class="edge">
<title>Node27&#45;&gt;Node28</title>
<path fill="none" stroke="#191970" d="M117.5166,-50.7398C129.8627,-52.6747 142.9847,-54.7312 155.6531,-56.7166"/>
<polygon fill="#191970" stroke="#191970" points="155.2709,-60.1993 165.6922,-58.2899 156.3548,-53.2837 155.2709,-60.1993"/>
</g>
<!-- Node29 -->
<g id="node3" class="node">
<title>Node29</title>
<g id="a_node3"><a xlink:href="classCore_1_1Math_1_1LinearConverter.html#a9c23dfff74ecda38d7187d10fef90774" target="_top" xlink:title="convertXtoY getter. Uses y = mx + b. ">
<polygon fill="#ffffff" stroke="#000000" points="153.118,-.5 153.118,-32.5 295.802,-32.5 295.802,-.5 153.118,-.5"/>
<text text-anchor="start" x="161.118" y="-19.5" font-family="Helvetica,sans-Serif" font-size="10.00" fill="#000000">Core::Math::LinearConverter</text>
<text text-anchor="middle" x="224.46" y="-7.5" font-family="Helvetica,sans-Serif" font-size="10.00" fill="#000000">::convertXtoY</text>
</a>
</g>
</g>
<!-- Node27&#45;&gt;Node29 -->
<g id="edge2" class="edge">
<title>Node27&#45;&gt;Node29</title>
<path fill="none" stroke="#191970" d="M117.5166,-32.6155C125.7503,-31.3748 134.329,-30.082 142.8881,-28.7923"/>
<polygon fill="#191970" stroke="#191970" points="143.5382,-32.2339 152.905,-27.2828 142.495,-25.312 143.5382,-32.2339"/>
</g>
</g>
</svg>
