<?xml version="1.0" encoding="UTF-8" standalone="no"?>
<!DOCTYPE svg PUBLIC "-//W3C//DTD SVG 1.1//EN"
 "http://www.w3.org/Graphics/SVG/1.1/DTD/svg11.dtd">
<!-- Generated by graphviz version 2.40.1 (20161225.0304)
 -->
<!-- Title: Core::IO::Output::toggleOutput Pages: 1 -->
<svg width="288pt" height="92pt"
 viewBox="0.00 0.00 288.29 92.00" xmlns="http://www.w3.org/2000/svg" xmlns:xlink="http://www.w3.org/1999/xlink">
<g id="graph0" class="graph" transform="scale(1 1) rotate(0) translate(4 88)">
<title>Core::IO::Output::toggleOutput</title>
<polygon fill="#ffffff" stroke="transparent" points="-4,4 -4,-88 284.292,-88 284.292,4 -4,4"/>
<!-- Node32 -->
<g id="node1" class="node">
<title>Node32</title>
<polygon fill="#bfbfbf" stroke="#000000" points="0,-25.5 0,-57.5 122.146,-57.5 122.146,-25.5 0,-25.5"/>
<text text-anchor="start" x="8" y="-44.5" font-family="Helvetica,sans-Serif" font-size="10.00" fill="#000000">Core::IO::Output::toggle</text>
<text text-anchor="middle" x="61.073" y="-32.5" font-family="Helvetica,sans-Serif" font-size="10.00" fill="#000000">Output</text>
</g>
<!-- Node33 -->
<g id="node2" class="node">
<title>Node33</title>
<g id="a_node2"><a xlink:href="classCore_1_1IO_1_1Output.html#a22eae1b59ff21d5534d4d03acaa1dc74" target="_top" xlink:title="toggleOutput method toggles the output every using the time arguement. ">
<polygon fill="#ffffff" stroke="#000000" points="158.146,-51.5 158.146,-83.5 280.292,-83.5 280.292,-51.5 158.146,-51.5"/>
<text text-anchor="start" x="166.146" y="-70.5" font-family="Helvetica,sans-Serif" font-size="10.00" fill="#000000">Core::IO::Output::toggle</text>
<text text-anchor="middle" x="219.219" y="-58.5" font-family="Helvetica,sans-Serif" font-size="10.00" fill="#000000">Output</text>
</a>
</g>
</g>
<!-- Node32&#45;&gt;Node33 -->
<g id="edge1" class="edge">
<title>Node32&#45;&gt;Node33</title>
<path fill="none" stroke="#191970" d="M132.2242,-53.1976C140.8198,-54.6108 149.5415,-56.0447 157.9775,-57.4316"/>
<polygon fill="#191970" stroke="#191970" points="132.6517,-49.721 122.2164,-51.5523 131.5161,-56.6283 132.6517,-49.721"/>
</g>
<!-- Node34 -->
<g id="node3" class="node">
<title>Node34</title>
<g id="a_node3"><a xlink:href="structCore_1_1IO_1_1Output_1_1Setup.html#aa94d399cf6e529ff662a8d31f38bd35c" target="_top" xlink:title="Core::IO::Output::Setup\l::Setup">
<polygon fill="#ffffff" stroke="#000000" points="158.7005,-.5 158.7005,-32.5 279.7375,-32.5 279.7375,-.5 158.7005,-.5"/>
<text text-anchor="start" x="166.7005" y="-19.5" font-family="Helvetica,sans-Serif" font-size="10.00" fill="#000000">Core::IO::Output::Setup</text>
<text text-anchor="middle" x="219.219" y="-7.5" font-family="Helvetica,sans-Serif" font-size="10.00" fill="#000000">::Setup</text>
</a>
</g>
</g>
<!-- Node32&#45;&gt;Node34 -->
<g id="edge2" class="edge">
<title>Node32&#45;&gt;Node34</title>
<path fill="none" stroke="#191970" d="M132.3737,-30.2287C141.0981,-28.8495 149.9499,-27.4502 158.4988,-26.0988"/>
<polygon fill="#191970" stroke="#191970" points="131.5472,-26.8158 122.2164,-31.8343 132.6402,-33.7299 131.5472,-26.8158"/>
</g>
</g>
</svg>
