<?xml version="1.0" encoding="UTF-8" standalone="no"?>
<!DOCTYPE svg PUBLIC "-//W3C//DTD SVG 1.1//EN"
 "http://www.w3.org/Graphics/SVG/1.1/DTD/svg11.dtd">
<!-- Generated by graphviz version 2.40.1 (20161225.0304)
 -->
<!-- Title: LibBBB::IO::Input::setEdgeType Pages: 1 -->
<svg width="376pt" height="64pt"
 viewBox="0.00 0.00 376.43 64.00" xmlns="http://www.w3.org/2000/svg" xmlns:xlink="http://www.w3.org/1999/xlink">
<g id="graph0" class="graph" transform="scale(1 1) rotate(0) translate(4 60)">
<title>LibBBB::IO::Input::setEdgeType</title>
<polygon fill="#ffffff" stroke="transparent" points="-4,4 -4,-60 372.433,-60 372.433,4 -4,4"/>
<!-- Node33 -->
<g id="node1" class="node">
<title>Node33</title>
<polygon fill="#bfbfbf" stroke="#000000" points="0,-.5 0,-32.5 98.811,-32.5 98.811,-.5 0,-.5"/>
<text text-anchor="start" x="8" y="-19.5" font-family="Helvetica,sans-Serif" font-size="10.00" fill="#000000">LibBBB::IO::Input::</text>
<text text-anchor="middle" x="49.4055" y="-7.5" font-family="Helvetica,sans-Serif" font-size="10.00" fill="#000000">setEdgeType</text>
</g>
<!-- Node34 -->
<g id="node2" class="node">
<title>Node34</title>
<g id="a_node2"><a xlink:href="classLibBBB_1_1IO_1_1Input.html#a4e59f6e2c64f7a85adff569daf35b3d3" target="_top" xlink:title="Input constructs an input based on the given setup. The constructor will automatically export the pin...">
<polygon fill="#ffffff" stroke="#000000" points="134.811,-23.5 134.811,-55.5 233.622,-55.5 233.622,-23.5 134.811,-23.5"/>
<text text-anchor="start" x="142.811" y="-42.5" font-family="Helvetica,sans-Serif" font-size="10.00" fill="#000000">LibBBB::IO::Input::</text>
<text text-anchor="middle" x="184.2165" y="-30.5" font-family="Helvetica,sans-Serif" font-size="10.00" fill="#000000">Input</text>
</a>
</g>
</g>
<!-- Node33&#45;&gt;Node34 -->
<g id="edge1" class="edge">
<title>Node33&#45;&gt;Node34</title>
<path fill="none" stroke="#191970" d="M108.8806,-26.647C117.5338,-28.1233 126.3637,-29.6298 134.7893,-31.0673"/>
<polygon fill="#191970" stroke="#191970" points="109.2849,-23.1655 98.8386,-24.9338 108.1076,-30.0658 109.2849,-23.1655"/>
</g>
<!-- Node35 -->
<g id="node3" class="node">
<title>Node35</title>
<g id="a_node3"><a xlink:href="structLibBBB_1_1IO_1_1Input_1_1Setup.html#a1ad926b46c1818dd934b0b99ddb63386" target="_top" xlink:title="LibBBB::IO::Input::\lSetup::Setup">
<polygon fill="#ffffff" stroke="#000000" points="269.622,-.5 269.622,-32.5 368.433,-32.5 368.433,-.5 269.622,-.5"/>
<text text-anchor="start" x="277.622" y="-19.5" font-family="Helvetica,sans-Serif" font-size="10.00" fill="#000000">LibBBB::IO::Input::</text>
<text text-anchor="middle" x="319.0275" y="-7.5" font-family="Helvetica,sans-Serif" font-size="10.00" fill="#000000">Setup::Setup</text>
</a>
</g>
</g>
<!-- Node33&#45;&gt;Node35 -->
<g id="edge3" class="edge">
<title>Node33&#45;&gt;Node35</title>
<path fill="none" stroke="#191970" d="M109.1028,-14.9239C117.7281,-14.748 126.4967,-14.5973 134.811,-14.5 178.724,-13.9859 189.709,-13.9859 233.622,-14.5 245.1897,-14.6354 257.6369,-14.874 269.3538,-15.1403"/>
<polygon fill="#191970" stroke="#191970" points="109.0013,-11.4251 99.0792,-15.1403 109.1525,-18.4235 109.0013,-11.4251"/>
</g>
<!-- Node34&#45;&gt;Node35 -->
<g id="edge2" class="edge">
<title>Node34&#45;&gt;Node35</title>
<path fill="none" stroke="#191970" d="M243.6916,-29.353C252.3448,-27.8767 261.1747,-26.3702 269.6003,-24.9327"/>
<polygon fill="#191970" stroke="#191970" points="242.9186,-25.9342 233.6496,-31.0662 244.0959,-32.8345 242.9186,-25.9342"/>
</g>
</g>
</svg>
