<?xml version="1.0" encoding="UTF-8" standalone="no"?>
<!DOCTYPE svg PUBLIC "-//W3C//DTD SVG 1.1//EN"
 "http://www.w3.org/Graphics/SVG/1.1/DTD/svg11.dtd">
<!-- Generated by graphviz version 2.40.1 (20161225.0304)
 -->
<!-- Title: Core::IO::Output::changeToggleTime Pages: 1 -->
<svg width="293pt" height="41pt"
 viewBox="0.00 0.00 292.74 41.00" xmlns="http://www.w3.org/2000/svg" xmlns:xlink="http://www.w3.org/1999/xlink">
<g id="graph0" class="graph" transform="scale(1 1) rotate(0) translate(4 37)">
<title>Core::IO::Output::changeToggleTime</title>
<polygon fill="#ffffff" stroke="transparent" points="-4,4 -4,-37 288.744,-37 288.744,4 -4,4"/>
<!-- Node15 -->
<g id="node1" class="node">
<title>Node15</title>
<polygon fill="#bfbfbf" stroke="#000000" points="0,-.5 0,-32.5 127.707,-32.5 127.707,-.5 0,-.5"/>
<text text-anchor="start" x="8" y="-19.5" font-family="Helvetica,sans-Serif" font-size="10.00" fill="#000000">Core::IO::Output::change</text>
<text text-anchor="middle" x="63.8535" y="-7.5" font-family="Helvetica,sans-Serif" font-size="10.00" fill="#000000">ToggleTime</text>
</g>
<!-- Node16 -->
<g id="node2" class="node">
<title>Node16</title>
<g id="a_node2"><a xlink:href="structCore_1_1IO_1_1Output_1_1Setup.html#aa94d399cf6e529ff662a8d31f38bd35c" target="_top" xlink:title="Core::IO::Output::Setup\l::Setup">
<polygon fill="#ffffff" stroke="#000000" points="163.707,-.5 163.707,-32.5 284.744,-32.5 284.744,-.5 163.707,-.5"/>
<text text-anchor="start" x="171.707" y="-19.5" font-family="Helvetica,sans-Serif" font-size="10.00" fill="#000000">Core::IO::Output::Setup</text>
<text text-anchor="middle" x="224.2255" y="-7.5" font-family="Helvetica,sans-Serif" font-size="10.00" fill="#000000">::Setup</text>
</a>
</g>
</g>
<!-- Node15&#45;&gt;Node16 -->
<g id="edge1" class="edge">
<title>Node15&#45;&gt;Node16</title>
<path fill="none" stroke="#191970" d="M138.3771,-16.5C146.8091,-16.5 155.3249,-16.5 163.5493,-16.5"/>
<polygon fill="#191970" stroke="#191970" points="138.1589,-13.0001 128.1589,-16.5 138.1588,-20.0001 138.1589,-13.0001"/>
</g>
</g>
</svg>
