<?xml version="1.0" encoding="UTF-8" standalone="no"?>
<!DOCTYPE svg PUBLIC "-//W3C//DTD SVG 1.1//EN"
 "http://www.w3.org/Graphics/SVG/1.1/DTD/svg11.dtd">
<!-- Generated by graphviz version 2.40.1 (20161225.0304)
 -->
<!-- Title: Core::IO::UserLED::setState Pages: 1 -->
<svg width="396pt" height="64pt"
 viewBox="0.00 0.00 396.36 64.00" xmlns="http://www.w3.org/2000/svg" xmlns:xlink="http://www.w3.org/1999/xlink">
<g id="graph0" class="graph" transform="scale(1 1) rotate(0) translate(4 60)">
<title>Core::IO::UserLED::setState</title>
<polygon fill="#ffffff" stroke="transparent" points="-4,4 -4,-60 392.356,-60 392.356,4 -4,4"/>
<!-- Node16 -->
<g id="node1" class="node">
<title>Node16</title>
<polygon fill="#bfbfbf" stroke="#000000" points="0,-.5 0,-32.5 105.452,-32.5 105.452,-.5 0,-.5"/>
<text text-anchor="start" x="8" y="-19.5" font-family="Helvetica,sans-Serif" font-size="10.00" fill="#000000">Core::IO::UserLED::</text>
<text text-anchor="middle" x="52.726" y="-7.5" font-family="Helvetica,sans-Serif" font-size="10.00" fill="#000000">setState</text>
</g>
<!-- Node17 -->
<g id="node2" class="node">
<title>Node17</title>
<g id="a_node2"><a xlink:href="classCore_1_1IO_1_1UserLED.html#a4e161b02396d015ce4fd5434853e44bc" target="_top" xlink:title="changeBlinkTime method changes the time of the blink ">
<polygon fill="#ffffff" stroke="#000000" points="141.452,-23.5 141.452,-55.5 246.904,-55.5 246.904,-23.5 141.452,-23.5"/>
<text text-anchor="start" x="149.452" y="-42.5" font-family="Helvetica,sans-Serif" font-size="10.00" fill="#000000">Core::IO::UserLED::</text>
<text text-anchor="middle" x="194.178" y="-30.5" font-family="Helvetica,sans-Serif" font-size="10.00" fill="#000000">changeBlinkTime</text>
</a>
</g>
</g>
<!-- Node16&#45;&gt;Node17 -->
<g id="edge1" class="edge">
<title>Node16&#45;&gt;Node17</title>
<path fill="none" stroke="#191970" d="M115.7198,-26.7427C124.2552,-28.1306 132.9428,-29.5432 141.277,-30.8983"/>
<polygon fill="#191970" stroke="#191970" points="116.2321,-23.2802 105.7999,-25.1298 115.1086,-30.1894 116.2321,-23.2802"/>
</g>
<!-- Node18 -->
<g id="node3" class="node">
<title>Node18</title>
<g id="a_node3"><a xlink:href="structCore_1_1IO_1_1UserLED_1_1Setup.html#a72bdd70912a6322aba2da15c28a84fbe" target="_top" xlink:title="Core::IO::UserLED::\lSetup::Setup">
<polygon fill="#ffffff" stroke="#000000" points="282.904,-.5 282.904,-32.5 388.356,-32.5 388.356,-.5 282.904,-.5"/>
<text text-anchor="start" x="290.904" y="-19.5" font-family="Helvetica,sans-Serif" font-size="10.00" fill="#000000">Core::IO::UserLED::</text>
<text text-anchor="middle" x="335.63" y="-7.5" font-family="Helvetica,sans-Serif" font-size="10.00" fill="#000000">Setup::Setup</text>
</a>
</g>
</g>
<!-- Node16&#45;&gt;Node18 -->
<g id="edge3" class="edge">
<title>Node16&#45;&gt;Node18</title>
<path fill="none" stroke="#191970" d="M115.7791,-14.9037C124.4051,-14.7365 133.1468,-14.5936 141.452,-14.5 188.3166,-13.9719 200.0394,-13.9719 246.904,-14.5 258.4591,-14.6302 270.859,-14.8558 282.617,-15.1097"/>
<polygon fill="#191970" stroke="#191970" points="115.6651,-11.4052 105.739,-15.1097 115.8087,-18.4037 115.6651,-11.4052"/>
</g>
<!-- Node17&#45;&gt;Node18 -->
<g id="edge2" class="edge">
<title>Node17&#45;&gt;Node18</title>
<path fill="none" stroke="#191970" d="M257.1718,-29.2573C265.7072,-27.8694 274.3948,-26.4568 282.729,-25.1017"/>
<polygon fill="#191970" stroke="#191970" points="256.5606,-25.8106 247.2519,-30.8702 257.6841,-32.7198 256.5606,-25.8106"/>
</g>
</g>
</svg>
