<?xml version="1.0" encoding="UTF-8" standalone="no"?>
<!DOCTYPE svg PUBLIC "-//W3C//DTD SVG 1.1//EN"
 "http://www.w3.org/Graphics/SVG/1.1/DTD/svg11.dtd">
<!-- Generated by graphviz version 2.40.1 (20161225.0304)
 -->
<!-- Title: Core::IO::MotorControl::setFrequency Pages: 1 -->
<svg width="278pt" height="41pt"
 viewBox="0.00 0.00 278.24 41.00" xmlns="http://www.w3.org/2000/svg" xmlns:xlink="http://www.w3.org/1999/xlink">
<g id="graph0" class="graph" transform="scale(1 1) rotate(0) translate(4 37)">
<title>Core::IO::MotorControl::setFrequency</title>
<polygon fill="#ffffff" stroke="transparent" points="-4,4 -4,-37 274.236,-37 274.236,4 -4,4"/>
<!-- Node35 -->
<g id="node1" class="node">
<title>Node35</title>
<polygon fill="#bfbfbf" stroke="#000000" points="0,-.5 0,-32.5 117.118,-32.5 117.118,-.5 0,-.5"/>
<text text-anchor="start" x="8" y="-19.5" font-family="Helvetica,sans-Serif" font-size="10.00" fill="#000000">Core::IO::MotorControl</text>
<text text-anchor="middle" x="58.559" y="-7.5" font-family="Helvetica,sans-Serif" font-size="10.00" fill="#000000">::setFrequency</text>
</g>
<!-- Node36 -->
<g id="node2" class="node">
<title>Node36</title>
<g id="a_node2"><a xlink:href="classCore_1_1IO_1_1MotorControl.html#ab5df62720b22a5e50d3158018687886a" target="_top" xlink:title="frequency getter ">
<polygon fill="#ffffff" stroke="#000000" points="153.118,-.5 153.118,-32.5 270.236,-32.5 270.236,-.5 153.118,-.5"/>
<text text-anchor="start" x="161.118" y="-19.5" font-family="Helvetica,sans-Serif" font-size="10.00" fill="#000000">Core::IO::MotorControl</text>
<text text-anchor="middle" x="211.677" y="-7.5" font-family="Helvetica,sans-Serif" font-size="10.00" fill="#000000">::frequency</text>
</a>
</g>
</g>
<!-- Node35&#45;&gt;Node36 -->
<g id="edge1" class="edge">
<title>Node35&#45;&gt;Node36</title>
<path fill="none" stroke="#191970" d="M117.3205,-16.5C125.7462,-16.5 134.4764,-16.5 143.0714,-16.5"/>
<polygon fill="#191970" stroke="#191970" points="143.0728,-20.0001 153.0727,-16.5 143.0727,-13.0001 143.0728,-20.0001"/>
</g>
</g>
</svg>
