<?xml version="1.0" encoding="UTF-8" standalone="no"?>
<!DOCTYPE svg PUBLIC "-//W3C//DTD SVG 1.1//EN"
 "http://www.w3.org/Graphics/SVG/1.1/DTD/svg11.dtd">
<!-- Generated by graphviz version 2.40.1 (20161225.0304)
 -->
<!-- Title: Core::IO::Input::waitForEdge Pages: 1 -->
<svg width="473pt" height="64pt"
 viewBox="0.00 0.00 472.53 64.00" xmlns="http://www.w3.org/2000/svg" xmlns:xlink="http://www.w3.org/1999/xlink">
<g id="graph0" class="graph" transform="scale(1 1) rotate(0) translate(4 60)">
<title>Core::IO::Input::waitForEdge</title>
<polygon fill="#ffffff" stroke="transparent" points="-4,4 -4,-60 468.535,-60 468.535,4 -4,4"/>
<!-- Node40 -->
<g id="node1" class="node">
<title>Node40</title>
<polygon fill="#bfbfbf" stroke="#000000" points="0,-6.5 0,-26.5 143.252,-26.5 143.252,-6.5 0,-6.5"/>
<text text-anchor="middle" x="71.626" y="-13.5" font-family="Helvetica,sans-Serif" font-size="10.00" fill="#000000">Core::IO::Input::waitForEdge</text>
</g>
<!-- Node41 -->
<g id="node2" class="node">
<title>Node41</title>
<g id="a_node2"><a xlink:href="classCore_1_1IO_1_1Input.html#a6bf5d36ec1e0413c4f11f8bdd01792a0" target="_top" xlink:title="cancelWaitForEdge method cancels waiting for the edge. ">
<polygon fill="#ffffff" stroke="#000000" points="179.252,-23.5 179.252,-55.5 315.277,-55.5 315.277,-23.5 179.252,-23.5"/>
<text text-anchor="start" x="187.252" y="-42.5" font-family="Helvetica,sans-Serif" font-size="10.00" fill="#000000">Core::IO::Input::cancelWait</text>
<text text-anchor="middle" x="247.2645" y="-30.5" font-family="Helvetica,sans-Serif" font-size="10.00" fill="#000000">ForEdge</text>
</a>
</g>
</g>
<!-- Node40&#45;&gt;Node41 -->
<g id="edge1" class="edge">
<title>Node40&#45;&gt;Node41</title>
<path fill="none" stroke="#191970" d="M153.3988,-27.2082C162.0337,-28.339 170.7469,-29.48 179.2024,-30.5872"/>
<polygon fill="#191970" stroke="#191970" points="153.6881,-23.7163 143.3182,-25.8882 152.7791,-30.657 153.6881,-23.7163"/>
</g>
<!-- Node42 -->
<g id="node3" class="node">
<title>Node42</title>
<g id="a_node3"><a xlink:href="structCore_1_1IO_1_1Input_1_1Setup.html#a493b98ee230283215bd55b7ba739f60a" target="_top" xlink:title="Core::IO::Input::Setup\l::Setup">
<polygon fill="#ffffff" stroke="#000000" points="351.277,-.5 351.277,-32.5 464.535,-32.5 464.535,-.5 351.277,-.5"/>
<text text-anchor="start" x="359.277" y="-19.5" font-family="Helvetica,sans-Serif" font-size="10.00" fill="#000000">Core::IO::Input::Setup</text>
<text text-anchor="middle" x="407.906" y="-7.5" font-family="Helvetica,sans-Serif" font-size="10.00" fill="#000000">::Setup</text>
</a>
</g>
</g>
<!-- Node40&#45;&gt;Node42 -->
<g id="edge3" class="edge">
<title>Node40&#45;&gt;Node42</title>
<path fill="none" stroke="#191970" d="M153.5616,-14.819C162.2348,-14.6884 170.9244,-14.5774 179.252,-14.5 239.7049,-13.9384 254.825,-13.8475 315.277,-14.5 326.8576,-14.625 339.2513,-14.8379 351.0845,-15.0794"/>
<polygon fill="#191970" stroke="#191970" points="153.3532,-11.3218 143.4102,-14.9806 153.4646,-18.3209 153.3532,-11.3218"/>
</g>
<!-- Node41&#45;&gt;Node42 -->
<g id="edge2" class="edge">
<title>Node41&#45;&gt;Node42</title>
<path fill="none" stroke="#191970" d="M325.4099,-28.3115C333.9773,-27.0848 342.5778,-25.8534 350.821,-24.6732"/>
<polygon fill="#191970" stroke="#191970" points="324.7939,-24.8639 315.391,-29.7459 325.7861,-31.7932 324.7939,-24.8639"/>
</g>
</g>
</svg>
