<?xml version="1.0" encoding="UTF-8" standalone="no"?>
<!DOCTYPE svg PUBLIC "-//W3C//DTD SVG 1.1//EN"
 "http://www.w3.org/Graphics/SVG/1.1/DTD/svg11.dtd">
<!-- Generated by graphviz version 2.40.1 (20161225.0304)
 -->
<!-- Title: Core::IO::Input::setEdgeType Pages: 1 -->
<svg width="449pt" height="55pt"
 viewBox="0.00 0.00 448.67 55.00" xmlns="http://www.w3.org/2000/svg" xmlns:xlink="http://www.w3.org/1999/xlink">
<g id="graph0" class="graph" transform="scale(1 1) rotate(0) translate(4 51)">
<title>Core::IO::Input::setEdgeType</title>
<polygon fill="#ffffff" stroke="transparent" points="-4,4 -4,-51 444.67,-51 444.67,4 -4,4"/>
<!-- Node33 -->
<g id="node1" class="node">
<title>Node33</title>
<polygon fill="#bfbfbf" stroke="#000000" points="0,-6.5 0,-26.5 146.044,-26.5 146.044,-6.5 0,-6.5"/>
<text text-anchor="middle" x="73.022" y="-13.5" font-family="Helvetica,sans-Serif" font-size="10.00" fill="#000000">Core::IO::Input::setEdgeType</text>
</g>
<!-- Node34 -->
<g id="node2" class="node">
<title>Node34</title>
<g id="a_node2"><a xlink:href="classCore_1_1IO_1_1Input.html#ae490cffe2162d4538dd108b0bd1f3695" target="_top" xlink:title="Input constructs an input based on the given setup. The constructor will automatically export the pin...">
<polygon fill="#ffffff" stroke="#000000" points="182.044,-26.5 182.044,-46.5 291.412,-46.5 291.412,-26.5 182.044,-26.5"/>
<text text-anchor="middle" x="236.728" y="-33.5" font-family="Helvetica,sans-Serif" font-size="10.00" fill="#000000">Core::IO::Input::Input</text>
</a>
</g>
</g>
<!-- Node33&#45;&gt;Node34 -->
<g id="edge1" class="edge">
<title>Node33&#45;&gt;Node34</title>
<path fill="none" stroke="#191970" d="M156.3482,-26.68C164.9559,-27.7316 173.5419,-28.7805 181.7252,-29.7803"/>
<polygon fill="#191970" stroke="#191970" points="156.607,-23.1857 146.2563,-25.4471 155.758,-30.134 156.607,-23.1857"/>
</g>
<!-- Node35 -->
<g id="node3" class="node">
<title>Node35</title>
<g id="a_node3"><a xlink:href="structCore_1_1IO_1_1Input_1_1Setup.html#a493b98ee230283215bd55b7ba739f60a" target="_top" xlink:title="Core::IO::Input::Setup\l::Setup">
<polygon fill="#ffffff" stroke="#000000" points="327.412,-.5 327.412,-32.5 440.67,-32.5 440.67,-.5 327.412,-.5"/>
<text text-anchor="start" x="335.412" y="-19.5" font-family="Helvetica,sans-Serif" font-size="10.00" fill="#000000">Core::IO::Input::Setup</text>
<text text-anchor="middle" x="384.041" y="-7.5" font-family="Helvetica,sans-Serif" font-size="10.00" fill="#000000">::Setup</text>
</a>
</g>
</g>
<!-- Node33&#45;&gt;Node35 -->
<g id="edge3" class="edge">
<title>Node33&#45;&gt;Node35</title>
<path fill="none" stroke="#191970" d="M156.5871,-16.5C210.6176,-16.5 279.5107,-16.5 327.2469,-16.5"/>
<polygon fill="#191970" stroke="#191970" points="156.3354,-13.0001 146.3353,-16.5 156.3353,-20.0001 156.3354,-13.0001"/>
</g>
<!-- Node34&#45;&gt;Node35 -->
<g id="edge2" class="edge">
<title>Node34&#45;&gt;Node35</title>
<path fill="none" stroke="#191970" d="M301.5135,-27.7044C310.061,-26.5439 318.7701,-25.3615 327.1716,-24.2209"/>
<polygon fill="#191970" stroke="#191970" points="301.0201,-24.2392 291.5819,-29.0527 301.9619,-31.1755 301.0201,-24.2392"/>
</g>
</g>
</svg>
