<?xml version="1.0" encoding="UTF-8" standalone="no"?>
<!DOCTYPE svg PUBLIC "-//W3C//DTD SVG 1.1//EN"
 "http://www.w3.org/Graphics/SVG/1.1/DTD/svg11.dtd">
<!-- Generated by graphviz version 2.40.1 (20161225.0304)
 -->
<!-- Title: Core::IO::ServoControl::setDesiredDegree Pages: 1 -->
<svg width="304pt" height="92pt"
 viewBox="0.00 0.00 304.36 92.00" xmlns="http://www.w3.org/2000/svg" xmlns:xlink="http://www.w3.org/1999/xlink">
<g id="graph0" class="graph" transform="scale(1 1) rotate(0) translate(4 88)">
<title>Core::IO::ServoControl::setDesiredDegree</title>
<polygon fill="#ffffff" stroke="transparent" points="-4,4 -4,-88 300.363,-88 300.363,4 -4,4"/>
<!-- Node8 -->
<g id="node1" class="node">
<title>Node8</title>
<polygon fill="#bfbfbf" stroke="#000000" points="0,-25.5 0,-57.5 117.679,-57.5 117.679,-25.5 0,-25.5"/>
<text text-anchor="start" x="8" y="-44.5" font-family="Helvetica,sans-Serif" font-size="10.00" fill="#000000">Core::IO::ServoControl</text>
<text text-anchor="middle" x="58.8395" y="-32.5" font-family="Helvetica,sans-Serif" font-size="10.00" fill="#000000">::setDesiredDegree</text>
</g>
<!-- Node9 -->
<g id="node2" class="node">
<title>Node9</title>
<g id="a_node2"><a xlink:href="classCore_1_1IO_1_1MotorControl.html#ac8c377620913c11472dc67a4bb9622b6" target="_top" xlink:title="setPulseWidth sets the pulse width of the signal ">
<polygon fill="#ffffff" stroke="#000000" points="166.462,-51.5 166.462,-83.5 283.58,-83.5 283.58,-51.5 166.462,-51.5"/>
<text text-anchor="start" x="174.462" y="-70.5" font-family="Helvetica,sans-Serif" font-size="10.00" fill="#000000">Core::IO::MotorControl</text>
<text text-anchor="middle" x="225.021" y="-58.5" font-family="Helvetica,sans-Serif" font-size="10.00" fill="#000000">::setPulseWidth</text>
</a>
</g>
</g>
<!-- Node8&#45;&gt;Node9 -->
<g id="edge1" class="edge">
<title>Node8&#45;&gt;Node9</title>
<path fill="none" stroke="#191970" d="M117.8968,-50.7398C130.3374,-52.6862 143.5644,-54.7557 156.3243,-56.752"/>
<polygon fill="#191970" stroke="#191970" points="156.0126,-60.2458 166.4334,-58.3337 157.0947,-53.3299 156.0126,-60.2458"/>
</g>
<!-- Node10 -->
<g id="node3" class="node">
<title>Node10</title>
<g id="a_node3"><a xlink:href="classCore_1_1Math_1_1LinearConverter.html#a9c23dfff74ecda38d7187d10fef90774" target="_top" xlink:title="convertXtoY getter. Uses y = mx + b. ">
<polygon fill="#ffffff" stroke="#000000" points="153.679,-.5 153.679,-32.5 296.363,-32.5 296.363,-.5 153.679,-.5"/>
<text text-anchor="start" x="161.679" y="-19.5" font-family="Helvetica,sans-Serif" font-size="10.00" fill="#000000">Core::Math::LinearConverter</text>
<text text-anchor="middle" x="225.021" y="-7.5" font-family="Helvetica,sans-Serif" font-size="10.00" fill="#000000">::convertXtoY</text>
</a>
</g>
</g>
<!-- Node8&#45;&gt;Node10 -->
<g id="edge2" class="edge">
<title>Node8&#45;&gt;Node10</title>
<path fill="none" stroke="#191970" d="M117.8968,-32.6155C126.2114,-31.3647 134.8773,-30.061 143.5203,-28.7608"/>
<polygon fill="#191970" stroke="#191970" points="144.2654,-32.1882 153.6334,-27.2394 143.224,-25.2661 144.2654,-32.1882"/>
</g>
</g>
</svg>
