<?xml version="1.0" encoding="UTF-8" standalone="no"?>
<!DOCTYPE svg PUBLIC "-//W3C//DTD SVG 1.1//EN"
 "http://www.w3.org/Graphics/SVG/1.1/DTD/svg11.dtd">
<!-- Generated by graphviz version 2.40.1 (20161225.0304)
 -->
<!-- Title: LibBBB::IO::Output::toggleOutput Pages: 1 -->
<svg width="246pt" height="92pt"
 viewBox="0.00 0.00 246.06 92.00" xmlns="http://www.w3.org/2000/svg" xmlns:xlink="http://www.w3.org/1999/xlink">
<g id="graph0" class="graph" transform="scale(1 1) rotate(0) translate(4 88)">
<title>LibBBB::IO::Output::toggleOutput</title>
<polygon fill="#ffffff" stroke="transparent" points="-4,4 -4,-88 242.064,-88 242.064,4 -4,4"/>
<!-- Node32 -->
<g id="node1" class="node">
<title>Node32</title>
<polygon fill="#bfbfbf" stroke="#000000" points="0,-25.5 0,-57.5 101.032,-57.5 101.032,-25.5 0,-25.5"/>
<text text-anchor="start" x="8" y="-44.5" font-family="Helvetica,sans-Serif" font-size="10.00" fill="#000000">LibBBB::IO::Output</text>
<text text-anchor="middle" x="50.516" y="-32.5" font-family="Helvetica,sans-Serif" font-size="10.00" fill="#000000">::toggleOutput</text>
</g>
<!-- Node33 -->
<g id="node2" class="node">
<title>Node33</title>
<g id="a_node2"><a xlink:href="classLibBBB_1_1IO_1_1Output.html#a3620dfac4d3a9ee34c3a8e2ea39ae2dd" target="_top" xlink:title="toggleOutput method toggles the output every using the time arguement. ">
<polygon fill="#ffffff" stroke="#000000" points="137.032,-51.5 137.032,-83.5 238.064,-83.5 238.064,-51.5 137.032,-51.5"/>
<text text-anchor="start" x="145.032" y="-70.5" font-family="Helvetica,sans-Serif" font-size="10.00" fill="#000000">LibBBB::IO::Output</text>
<text text-anchor="middle" x="187.548" y="-58.5" font-family="Helvetica,sans-Serif" font-size="10.00" fill="#000000">::toggleOutput</text>
</a>
</g>
</g>
<!-- Node32&#45;&gt;Node33 -->
<g id="edge1" class="edge">
<title>Node32&#45;&gt;Node33</title>
<path fill="none" stroke="#191970" d="M111.0719,-52.9897C119.615,-54.6106 128.3255,-56.2633 136.6623,-57.8451"/>
<polygon fill="#191970" stroke="#191970" points="111.6295,-49.5331 101.1523,-51.1076 110.3246,-56.4104 111.6295,-49.5331"/>
</g>
<!-- Node34 -->
<g id="node3" class="node">
<title>Node34</title>
<g id="a_node3"><a xlink:href="structLibBBB_1_1IO_1_1Output_1_1Setup.html#ac7d4ee82c7eabd07ba140ec061c28adc" target="_top" xlink:title="LibBBB::IO::Output\l::Setup::Setup">
<polygon fill="#ffffff" stroke="#000000" points="137.032,-.5 137.032,-32.5 238.064,-32.5 238.064,-.5 137.032,-.5"/>
<text text-anchor="start" x="145.032" y="-19.5" font-family="Helvetica,sans-Serif" font-size="10.00" fill="#000000">LibBBB::IO::Output</text>
<text text-anchor="middle" x="187.548" y="-7.5" font-family="Helvetica,sans-Serif" font-size="10.00" fill="#000000">::Setup::Setup</text>
</a>
</g>
</g>
<!-- Node32&#45;&gt;Node34 -->
<g id="edge2" class="edge">
<title>Node32&#45;&gt;Node34</title>
<path fill="none" stroke="#191970" d="M111.0719,-30.4522C119.615,-28.8936 128.3255,-27.3045 136.6623,-25.7835"/>
<polygon fill="#191970" stroke="#191970" points="110.3618,-27.0239 101.1523,-32.262 111.6182,-33.9103 110.3618,-27.0239"/>
</g>
</g>
</svg>
