<?xml version="1.0" encoding="UTF-8" standalone="no"?>
<!DOCTYPE svg PUBLIC "-//W3C//DTD SVG 1.1//EN"
 "http://www.w3.org/Graphics/SVG/1.1/DTD/svg11.dtd">
<!-- Generated by graphviz version 2.40.1 (20161225.0304)
 -->
<!-- Title: LibBBB::IO::MotorControl::setFrequency Pages: 1 -->
<svg width="302pt" height="41pt"
 viewBox="0.00 0.00 301.59 41.00" xmlns="http://www.w3.org/2000/svg" xmlns:xlink="http://www.w3.org/1999/xlink">
<g id="graph0" class="graph" transform="scale(1 1) rotate(0) translate(4 37)">
<title>LibBBB::IO::MotorControl::setFrequency</title>
<polygon fill="#ffffff" stroke="transparent" points="-4,4 -4,-37 297.592,-37 297.592,4 -4,4"/>
<!-- Node35 -->
<g id="node1" class="node">
<title>Node35</title>
<polygon fill="#bfbfbf" stroke="#000000" points="0,-.5 0,-32.5 128.796,-32.5 128.796,-.5 0,-.5"/>
<text text-anchor="start" x="8" y="-19.5" font-family="Helvetica,sans-Serif" font-size="10.00" fill="#000000">LibBBB::IO::MotorControl</text>
<text text-anchor="middle" x="64.398" y="-7.5" font-family="Helvetica,sans-Serif" font-size="10.00" fill="#000000">::setFrequency</text>
</g>
<!-- Node36 -->
<g id="node2" class="node">
<title>Node36</title>
<g id="a_node2"><a xlink:href="classLibBBB_1_1IO_1_1MotorControl.html#abcbc2269fc2105710a221cc3fa6a8d92" target="_top" xlink:title="frequency getter ">
<polygon fill="#ffffff" stroke="#000000" points="164.796,-.5 164.796,-32.5 293.592,-32.5 293.592,-.5 164.796,-.5"/>
<text text-anchor="start" x="172.796" y="-19.5" font-family="Helvetica,sans-Serif" font-size="10.00" fill="#000000">LibBBB::IO::MotorControl</text>
<text text-anchor="middle" x="229.194" y="-7.5" font-family="Helvetica,sans-Serif" font-size="10.00" fill="#000000">::frequency</text>
</a>
</g>
</g>
<!-- Node35&#45;&gt;Node36 -->
<g id="edge1" class="edge">
<title>Node35&#45;&gt;Node36</title>
<path fill="none" stroke="#191970" d="M129.0568,-16.5C137.3907,-16.5 145.9788,-16.5 154.4578,-16.5"/>
<polygon fill="#191970" stroke="#191970" points="154.7217,-20.0001 164.7217,-16.5 154.7217,-13.0001 154.7217,-20.0001"/>
</g>
</g>
</svg>
