<?xml version="1.0" encoding="UTF-8" standalone="no"?>
<!DOCTYPE svg PUBLIC "-//W3C//DTD SVG 1.1//EN"
 "http://www.w3.org/Graphics/SVG/1.1/DTD/svg11.dtd">
<!-- Generated by graphviz version 2.40.1 (20161225.0304)
 -->
<!-- Title: LibBBB::Math::Range::lowValue Pages: 1 -->
<svg width="311pt" height="194pt"
 viewBox="0.00 0.00 310.50 194.00" xmlns="http://www.w3.org/2000/svg" xmlns:xlink="http://www.w3.org/1999/xlink">
<g id="graph0" class="graph" transform="scale(1 1) rotate(0) translate(4 190)">
<title>LibBBB::Math::Range::lowValue</title>
<polygon fill="#ffffff" stroke="transparent" points="-4,4 -4,-190 306.503,-190 306.503,4 -4,4"/>
<!-- Node11 -->
<g id="node1" class="node">
<title>Node11</title>
<polygon fill="#bfbfbf" stroke="#000000" points="0,-76.5 0,-108.5 112.141,-108.5 112.141,-76.5 0,-76.5"/>
<text text-anchor="start" x="8" y="-95.5" font-family="Helvetica,sans-Serif" font-size="10.00" fill="#000000">LibBBB::Math::Range</text>
<text text-anchor="middle" x="56.0705" y="-83.5" font-family="Helvetica,sans-Serif" font-size="10.00" fill="#000000">::lowValue</text>
</g>
<!-- Node12 -->
<g id="node2" class="node">
<title>Node12</title>
<g id="a_node2"><a xlink:href="classLibBBB_1_1Math_1_1LinearConverter.html#ae5647c399171683e3516211bd5e4da2c" target="_top" xlink:title="convertXtoY getter. Uses y = mx + b. ">
<polygon fill="#ffffff" stroke="#000000" points="148.141,-153.5 148.141,-185.5 302.503,-185.5 302.503,-153.5 148.141,-153.5"/>
<text text-anchor="start" x="156.141" y="-172.5" font-family="Helvetica,sans-Serif" font-size="10.00" fill="#000000">LibBBB::Math::LinearConverter</text>
<text text-anchor="middle" x="225.322" y="-160.5" font-family="Helvetica,sans-Serif" font-size="10.00" fill="#000000">&lt; int32_t &gt;::convertXtoY</text>
</a>
</g>
</g>
<!-- Node11&#45;&gt;Node12 -->
<g id="edge1" class="edge">
<title>Node11&#45;&gt;Node12</title>
<path fill="none" stroke="#191970" d="M90.5093,-114.1345C107.4522,-124.2065 128.4271,-135.8452 148.141,-144.5 155.3632,-147.6707 163.1189,-150.6505 170.8291,-153.3712"/>
<polygon fill="#191970" stroke="#191970" points="91.916,-110.8956 81.5451,-108.729 88.3013,-116.8901 91.916,-110.8956"/>
</g>
<!-- Node13 -->
<g id="node3" class="node">
<title>Node13</title>
<g id="a_node3"><a xlink:href="classLibBBB_1_1Math_1_1LinearConverter.html#aeb7daf591e9ff862110daf5abe8f8c65" target="_top" xlink:title="convertYtoX getter. Uses x = ( y &#45; b ) / m. ">
<polygon fill="#ffffff" stroke="#000000" points="148.141,-102.5 148.141,-134.5 302.503,-134.5 302.503,-102.5 148.141,-102.5"/>
<text text-anchor="start" x="156.141" y="-121.5" font-family="Helvetica,sans-Serif" font-size="10.00" fill="#000000">LibBBB::Math::LinearConverter</text>
<text text-anchor="middle" x="225.322" y="-109.5" font-family="Helvetica,sans-Serif" font-size="10.00" fill="#000000">&lt; int32_t &gt;::convertYtoX</text>
</a>
</g>
</g>
<!-- Node11&#45;&gt;Node13 -->
<g id="edge2" class="edge">
<title>Node11&#45;&gt;Node13</title>
<path fill="none" stroke="#191970" d="M122.524,-102.7084C130.9215,-103.9984 139.5695,-105.3269 148.1159,-106.6398"/>
<polygon fill="#191970" stroke="#191970" points="122.8443,-99.2167 112.4288,-101.1576 121.7814,-106.1355 122.8443,-99.2167"/>
</g>
<!-- Node14 -->
<g id="node4" class="node">
<title>Node14</title>
<g id="a_node4"><a xlink:href="classLibBBB_1_1Math_1_1LinearConverter_3_01double_01_4.html#ac647252d2911bc9f827f2c89183c8af8" target="_top" xlink:title="LibBBB::Math::LinearConverter\l\&lt; double \&gt;::convertXtoY">
<polygon fill="#ffffff" stroke="#000000" points="148.141,-51.5 148.141,-83.5 302.503,-83.5 302.503,-51.5 148.141,-51.5"/>
<text text-anchor="start" x="156.141" y="-70.5" font-family="Helvetica,sans-Serif" font-size="10.00" fill="#000000">LibBBB::Math::LinearConverter</text>
<text text-anchor="middle" x="225.322" y="-58.5" font-family="Helvetica,sans-Serif" font-size="10.00" fill="#000000">&lt; double &gt;::convertXtoY</text>
</a>
</g>
</g>
<!-- Node11&#45;&gt;Node14 -->
<g id="edge3" class="edge">
<title>Node11&#45;&gt;Node14</title>
<path fill="none" stroke="#191970" d="M122.524,-82.6842C130.9215,-81.4438 139.5695,-80.1664 148.1159,-78.9041"/>
<polygon fill="#191970" stroke="#191970" points="121.81,-79.2516 112.4288,-84.1754 122.8329,-86.1765 121.81,-79.2516"/>
</g>
<!-- Node15 -->
<g id="node5" class="node">
<title>Node15</title>
<g id="a_node5"><a xlink:href="classLibBBB_1_1Math_1_1LinearConverter_3_01double_01_4.html#a68e663eddf273f2c86f110fca2898060" target="_top" xlink:title="LibBBB::Math::LinearConverter\l\&lt; double \&gt;::convertYtoX">
<polygon fill="#ffffff" stroke="#000000" points="148.141,-.5 148.141,-32.5 302.503,-32.5 302.503,-.5 148.141,-.5"/>
<text text-anchor="start" x="156.141" y="-19.5" font-family="Helvetica,sans-Serif" font-size="10.00" fill="#000000">LibBBB::Math::LinearConverter</text>
<text text-anchor="middle" x="225.322" y="-7.5" font-family="Helvetica,sans-Serif" font-size="10.00" fill="#000000">&lt; double &gt;::convertYtoX</text>
</a>
</g>
</g>
<!-- Node11&#45;&gt;Node15 -->
<g id="edge4" class="edge">
<title>Node11&#45;&gt;Node15</title>
<path fill="none" stroke="#191970" d="M91.7545,-71.2519C108.5293,-61.7529 129.0087,-50.8432 148.141,-42.5 156.1766,-38.9959 164.847,-35.664 173.3734,-32.6265"/>
<polygon fill="#191970" stroke="#191970" points="89.7824,-68.3481 82.8484,-76.3588 93.2645,-74.4207 89.7824,-68.3481"/>
</g>
</g>
</svg>
