<?xml version="1.0" encoding="UTF-8" standalone="no"?>
<!DOCTYPE svg PUBLIC "-//W3C//DTD SVG 1.1//EN"
 "http://www.w3.org/Graphics/SVG/1.1/DTD/svg11.dtd">
<!-- Generated by graphviz version 2.40.1 (20161225.0304)
 -->
<!-- Title: LibBBB::Bluetooth::Manager::Interface::stateChange Pages: 1 -->
<svg width="255pt" height="53pt"
 viewBox="0.00 0.00 254.94 53.00" xmlns="http://www.w3.org/2000/svg" xmlns:xlink="http://www.w3.org/1999/xlink">
<g id="graph0" class="graph" transform="scale(1 1) rotate(0) translate(4 49)">
<title>LibBBB::Bluetooth::Manager::Interface::stateChange</title>
<polygon fill="#ffffff" stroke="transparent" points="-4,4 -4,-49 250.942,-49 250.942,4 -4,4"/>
<!-- Node6 -->
<g id="node1" class="node">
<title>Node6</title>
<polygon fill="#bfbfbf" stroke="#000000" points="0,-.5 0,-44.5 105.471,-44.5 105.471,-.5 0,-.5"/>
<text text-anchor="start" x="8" y="-31.5" font-family="Helvetica,sans-Serif" font-size="10.00" fill="#000000">LibBBB::Bluetooth::</text>
<text text-anchor="start" x="8" y="-19.5" font-family="Helvetica,sans-Serif" font-size="10.00" fill="#000000">Manager::Interface::</text>
<text text-anchor="middle" x="52.7355" y="-7.5" font-family="Helvetica,sans-Serif" font-size="10.00" fill="#000000">stateChange</text>
</g>
<!-- Node7 -->
<g id="node2" class="node">
<title>Node7</title>
<g id="a_node2"><a xlink:href="classLibBBB_1_1Bluetooth_1_1Manager_1_1Interface.html#a41fa850b8fa9d6f9c30dc272d9328a5f" target="_top" xlink:title="LibBBB::Bluetooth::\lManager::Interface::\l~Interface">
<polygon fill="#ffffff" stroke="#000000" points="141.471,-.5 141.471,-44.5 246.942,-44.5 246.942,-.5 141.471,-.5"/>
<text text-anchor="start" x="149.471" y="-31.5" font-family="Helvetica,sans-Serif" font-size="10.00" fill="#000000">LibBBB::Bluetooth::</text>
<text text-anchor="start" x="149.471" y="-19.5" font-family="Helvetica,sans-Serif" font-size="10.00" fill="#000000">Manager::Interface::</text>
<text text-anchor="middle" x="194.2065" y="-7.5" font-family="Helvetica,sans-Serif" font-size="10.00" fill="#000000">~Interface</text>
</a>
</g>
</g>
<!-- Node6&#45;&gt;Node7 -->
<g id="edge1" class="edge">
<title>Node6&#45;&gt;Node7</title>
<path fill="none" stroke="#191970" d="M116.0161,-22.5C124.4632,-22.5 133.0537,-22.5 141.2984,-22.5"/>
<polygon fill="#191970" stroke="#191970" points="115.8166,-19.0001 105.8166,-22.5 115.8165,-26.0001 115.8166,-19.0001"/>
</g>
</g>
</svg>
