<?xml version="1.0" encoding="UTF-8" standalone="no"?>
<!DOCTYPE svg PUBLIC "-//W3C//DTD SVG 1.1//EN"
 "http://www.w3.org/Graphics/SVG/1.1/DTD/svg11.dtd">
<!-- Generated by graphviz version 2.40.1 (20161225.0304)
 -->
<!-- Title: Sources Pages: 1 -->
<svg width="330pt" height="132pt"
 viewBox="0.00 0.00 330.00 132.00" xmlns="http://www.w3.org/2000/svg" xmlns:xlink="http://www.w3.org/1999/xlink">
<g id="graph0" class="graph" transform="scale(1 1) rotate(0) translate(4 128)">
<title>Sources</title>
<polygon fill="#ffffff" stroke="transparent" points="-4,4 -4,-128 326,-128 326,4 -4,4"/>
<g id="clust1" class="cluster">
<title>clusterdir_937900b87e0c7a5fa01190c395fb83f7</title>
<g id="a_clust1"><a xlink:href="dir_937900b87e0c7a5fa01190c395fb83f7.html" target="_top">
<polygon fill="#eeeeff" stroke="#000000" points="8,-64 8,-116 314,-116 314,-64 8,-64"/>
</a>
</g>
</g>
<!-- dir_937900b87e0c7a5fa01190c395fb83f7 -->
<g id="node1" class="node">
<title>dir_937900b87e0c7a5fa01190c395fb83f7</title>
<text text-anchor="middle" x="279" y="-87" font-family="Helvetica,sans-Serif" font-size="10.00" fill="#000000">Sources</text>
</g>
<!-- dir_b0a74778ccfe0ddf6a34d269afb83788 -->
<g id="node2" class="node">
<title>dir_b0a74778ccfe0ddf6a34d269afb83788</title>
<g id="a_node2"><a xlink:href="dir_b0a74778ccfe0ddf6a34d269afb83788.html" target="_top" xlink:title="IO">
<polygon fill="#ffffff" stroke="#000000" points="234,-108 180,-108 180,-72 234,-72 234,-108"/>
<text text-anchor="middle" x="207" y="-87" font-family="Helvetica,sans-Serif" font-size="10.00" fill="#000000">IO</text>
</a>
</g>
</g>
<!-- dir_692516b589a32b3bfce781ca9f6d1534 -->
<g id="node5" class="node">
<title>dir_692516b589a32b3bfce781ca9f6d1534</title>
<g id="a_node5"><a xlink:href="dir_692516b589a32b3bfce781ca9f6d1534.html" target="_top" xlink:title="Headers">
<polygon fill="#ffffff" stroke="#ff0000" points="152,-36 98,-36 98,0 152,0 152,-36"/>
<text text-anchor="middle" x="125" y="-15" font-family="Helvetica,sans-Serif" font-size="10.00" fill="#000000">Headers</text>
</a>
</g>
</g>
<!-- dir_b0a74778ccfe0ddf6a34d269afb83788&#45;&gt;dir_692516b589a32b3bfce781ca9f6d1534 -->
<g id="edge1" class="edge">
<title>dir_b0a74778ccfe0ddf6a34d269afb83788&#45;&gt;dir_692516b589a32b3bfce781ca9f6d1534</title>
<path fill="none" stroke="#000000" d="M186.3079,-71.8314C176.3052,-63.0485 164.145,-52.3712 153.3001,-42.8489"/>
<polygon fill="#000000" stroke="#000000" points="155.5092,-40.1308 145.6854,-36.1628 150.8906,-45.3909 155.5092,-40.1308"/>
<g id="a_edge1&#45;headlabel"><a xlink:href="dir_000001_000002.html" target="_top" xlink:title="6">
<text text-anchor="middle" x="160.0836" y="-37.369" font-family="Helvetica,sans-Serif" font-size="10.00" fill="#000000">6</text>
</a>
</g>
</g>
<!-- dir_fc23a414edb12a071a3dd6ecdf777782 -->
<g id="node3" class="node">
<title>dir_fc23a414edb12a071a3dd6ecdf777782</title>
<g id="a_node3"><a xlink:href="dir_fc23a414edb12a071a3dd6ecdf777782.html" target="_top" xlink:title="MotorControl">
<polygon fill="#ffffff" stroke="#000000" points="161.7783,-108 88.2217,-108 88.2217,-72 161.7783,-72 161.7783,-108"/>
<text text-anchor="middle" x="125" y="-87" font-family="Helvetica,sans-Serif" font-size="10.00" fill="#000000">MotorControl</text>
</a>
</g>
</g>
<!-- dir_fc23a414edb12a071a3dd6ecdf777782&#45;&gt;dir_692516b589a32b3bfce781ca9f6d1534 -->
<g id="edge2" class="edge">
<title>dir_fc23a414edb12a071a3dd6ecdf777782&#45;&gt;dir_692516b589a32b3bfce781ca9f6d1534</title>
<path fill="none" stroke="#000000" d="M125,-71.8314C125,-64.131 125,-54.9743 125,-46.4166"/>
<polygon fill="#000000" stroke="#000000" points="128.5001,-46.4132 125,-36.4133 121.5001,-46.4133 128.5001,-46.4132"/>
<g id="a_edge2&#45;headlabel"><a xlink:href="dir_000007_000002.html" target="_top" xlink:title="4">
<text text-anchor="middle" x="131.3393" y="-47.0079" font-family="Helvetica,sans-Serif" font-size="10.00" fill="#000000">4</text>
</a>
</g>
</g>
<!-- dir_1d7fca3ad78f976866fe1ec72a226b7c -->
<g id="node4" class="node">
<title>dir_1d7fca3ad78f976866fe1ec72a226b7c</title>
<g id="a_node4"><a xlink:href="dir_1d7fca3ad78f976866fe1ec72a226b7c.html" target="_top" xlink:title="PRU">
<polygon fill="#ffffff" stroke="#000000" points="70,-108 16,-108 16,-72 70,-72 70,-108"/>
<text text-anchor="middle" x="43" y="-87" font-family="Helvetica,sans-Serif" font-size="10.00" fill="#000000">PRU</text>
</a>
</g>
</g>
<!-- dir_1d7fca3ad78f976866fe1ec72a226b7c&#45;&gt;dir_692516b589a32b3bfce781ca9f6d1534 -->
<g id="edge3" class="edge">
<title>dir_1d7fca3ad78f976866fe1ec72a226b7c&#45;&gt;dir_692516b589a32b3bfce781ca9f6d1534</title>
<path fill="none" stroke="#000000" d="M63.6921,-71.8314C73.6948,-63.0485 85.855,-52.3712 96.6999,-42.8489"/>
<polygon fill="#000000" stroke="#000000" points="99.1094,-45.3909 104.3146,-36.1628 94.4908,-40.1308 99.1094,-45.3909"/>
<g id="a_edge3&#45;headlabel"><a xlink:href="dir_000005_000002.html" target="_top" xlink:title="2">
<text text-anchor="middle" x="98.2817" y="-46.8962" font-family="Helvetica,sans-Serif" font-size="10.00" fill="#000000">2</text>
</a>
</g>
</g>
</g>
</svg>
