<?xml version="1.0" encoding="UTF-8" standalone="no"?>
<!DOCTYPE svg PUBLIC "-//W3C//DTD SVG 1.1//EN"
 "http://www.w3.org/Graphics/SVG/1.1/DTD/svg11.dtd">
<!-- Generated by graphviz version 2.40.1 (20161225.0304)
 -->
<!-- Title: Sources Pages: 1 -->
<svg width="406pt" height="132pt"
 viewBox="0.00 0.00 406.00 132.00" xmlns="http://www.w3.org/2000/svg" xmlns:xlink="http://www.w3.org/1999/xlink">
<g id="graph0" class="graph" transform="scale(1 1) rotate(0) translate(4 128)">
<title>Sources</title>
<polygon fill="#ffffff" stroke="transparent" points="-4,4 -4,-128 402,-128 402,4 -4,4"/>
<g id="clust1" class="cluster">
<title>clusterdir_937900b87e0c7a5fa01190c395fb83f7</title>
<g id="a_clust1"><a xlink:href="dir_937900b87e0c7a5fa01190c395fb83f7.html" target="_top">
<polygon fill="#eeeeff" stroke="#000000" points="8,-64 8,-116 390,-116 390,-64 8,-64"/>
</a>
</g>
</g>
<!-- dir_937900b87e0c7a5fa01190c395fb83f7 -->
<g id="node1" class="node">
<title>dir_937900b87e0c7a5fa01190c395fb83f7</title>
<text text-anchor="middle" x="355" y="-87" font-family="Helvetica,sans-Serif" font-size="10.00" fill="#000000">Sources</text>
</g>
<!-- dir_8bf99b4de30a745cae89483bcba61e36 -->
<g id="node2" class="node">
<title>dir_8bf99b4de30a745cae89483bcba61e36</title>
<g id="a_node2"><a xlink:href="dir_8bf99b4de30a745cae89483bcba61e36.html" target="_top" xlink:title="Bluetooth">
<polygon fill="#ffffff" stroke="#000000" points="310.2415,-108 251.7585,-108 251.7585,-72 310.2415,-72 310.2415,-108"/>
<text text-anchor="middle" x="281" y="-87" font-family="Helvetica,sans-Serif" font-size="10.00" fill="#000000">Bluetooth</text>
</a>
</g>
</g>
<!-- dir_692516b589a32b3bfce781ca9f6d1534 -->
<g id="node6" class="node">
<title>dir_692516b589a32b3bfce781ca9f6d1534</title>
<g id="a_node6"><a xlink:href="dir_692516b589a32b3bfce781ca9f6d1534.html" target="_top" xlink:title="Headers">
<polygon fill="#ffffff" stroke="#ff0000" points="193,-36 139,-36 139,0 193,0 193,-36"/>
<text text-anchor="middle" x="166" y="-15" font-family="Helvetica,sans-Serif" font-size="10.00" fill="#000000">Headers</text>
</a>
</g>
</g>
<!-- dir_8bf99b4de30a745cae89483bcba61e36&#45;&gt;dir_692516b589a32b3bfce781ca9f6d1534 -->
<g id="edge2" class="edge">
<title>dir_8bf99b4de30a745cae89483bcba61e36&#45;&gt;dir_692516b589a32b3bfce781ca9f6d1534</title>
<path fill="none" stroke="#000000" d="M254.976,-71.884C250.9913,-69.2004 246.9051,-66.4991 243,-64 229.7856,-55.5434 215.0462,-46.6184 202.0289,-38.9034"/>
<polygon fill="#000000" stroke="#000000" points="203.7239,-35.8397 193.3319,-33.7762 200.1689,-41.8698 203.7239,-35.8397"/>
<g id="a_edge2&#45;headlabel"><a xlink:href="dir_000005_000000.html" target="_top" xlink:title="3">
<text text-anchor="middle" x="208.2623" y="-32.2193" font-family="Helvetica,sans-Serif" font-size="10.00" fill="#000000">3</text>
</a>
</g>
</g>
<!-- dir_b0a74778ccfe0ddf6a34d269afb83788 -->
<g id="node3" class="node">
<title>dir_b0a74778ccfe0ddf6a34d269afb83788</title>
<g id="a_node3"><a xlink:href="dir_b0a74778ccfe0ddf6a34d269afb83788.html" target="_top" xlink:title="IO">
<polygon fill="#ffffff" stroke="#000000" points="234,-108 180,-108 180,-72 234,-72 234,-108"/>
<text text-anchor="middle" x="207" y="-87" font-family="Helvetica,sans-Serif" font-size="10.00" fill="#000000">IO</text>
</a>
</g>
</g>
<!-- dir_b0a74778ccfe0ddf6a34d269afb83788&#45;&gt;dir_692516b589a32b3bfce781ca9f6d1534 -->
<g id="edge1" class="edge">
<title>dir_b0a74778ccfe0ddf6a34d269afb83788&#45;&gt;dir_692516b589a32b3bfce781ca9f6d1534</title>
<path fill="none" stroke="#000000" d="M196.654,-71.8314C192.0763,-63.7925 186.5948,-54.1666 181.5412,-45.2918"/>
<polygon fill="#000000" stroke="#000000" points="184.4752,-43.3712 176.4853,-36.4133 178.3923,-46.8351 184.4752,-43.3712"/>
<g id="a_edge1&#45;headlabel"><a xlink:href="dir_000003_000000.html" target="_top" xlink:title="8">
<text text-anchor="middle" x="188.7212" y="-42.0899" font-family="Helvetica,sans-Serif" font-size="10.00" fill="#000000">8</text>
</a>
</g>
</g>
<!-- dir_fc23a414edb12a071a3dd6ecdf777782 -->
<g id="node4" class="node">
<title>dir_fc23a414edb12a071a3dd6ecdf777782</title>
<g id="a_node4"><a xlink:href="dir_fc23a414edb12a071a3dd6ecdf777782.html" target="_top" xlink:title="MotorControl">
<polygon fill="#ffffff" stroke="#000000" points="161.7783,-108 88.2217,-108 88.2217,-72 161.7783,-72 161.7783,-108"/>
<text text-anchor="middle" x="125" y="-87" font-family="Helvetica,sans-Serif" font-size="10.00" fill="#000000">MotorControl</text>
</a>
</g>
</g>
<!-- dir_fc23a414edb12a071a3dd6ecdf777782&#45;&gt;dir_692516b589a32b3bfce781ca9f6d1534 -->
<g id="edge3" class="edge">
<title>dir_fc23a414edb12a071a3dd6ecdf777782&#45;&gt;dir_692516b589a32b3bfce781ca9f6d1534</title>
<path fill="none" stroke="#000000" d="M135.346,-71.8314C139.9237,-63.7925 145.4052,-54.1666 150.4588,-45.2918"/>
<polygon fill="#000000" stroke="#000000" points="153.6077,-46.8351 155.5147,-36.4133 147.5248,-43.3712 153.6077,-46.8351"/>
<g id="a_edge3&#45;headlabel"><a xlink:href="dir_000009_000000.html" target="_top" xlink:title="4">
<text text-anchor="middle" x="154.2963" y="-48.3637" font-family="Helvetica,sans-Serif" font-size="10.00" fill="#000000">4</text>
</a>
</g>
</g>
<!-- dir_1d7fca3ad78f976866fe1ec72a226b7c -->
<g id="node5" class="node">
<title>dir_1d7fca3ad78f976866fe1ec72a226b7c</title>
<g id="a_node5"><a xlink:href="dir_1d7fca3ad78f976866fe1ec72a226b7c.html" target="_top" xlink:title="PRU">
<polygon fill="#ffffff" stroke="#000000" points="70,-108 16,-108 16,-72 70,-72 70,-108"/>
<text text-anchor="middle" x="43" y="-87" font-family="Helvetica,sans-Serif" font-size="10.00" fill="#000000">PRU</text>
</a>
</g>
</g>
<!-- dir_1d7fca3ad78f976866fe1ec72a226b7c&#45;&gt;dir_692516b589a32b3bfce781ca9f6d1534 -->
<g id="edge4" class="edge">
<title>dir_1d7fca3ad78f976866fe1ec72a226b7c&#45;&gt;dir_692516b589a32b3bfce781ca9f6d1534</title>
<path fill="none" stroke="#000000" d="M67.0847,-71.9081C71.0059,-69.1662 75.0708,-66.4412 79,-64 95.2564,-53.9001 113.9434,-43.8316 129.8216,-35.7009"/>
<polygon fill="#000000" stroke="#000000" points="131.4655,-38.7917 138.8062,-31.152 128.3035,-32.5465 131.4655,-38.7917"/>
<g id="a_edge4&#45;headlabel"><a xlink:href="dir_000007_000000.html" target="_top" xlink:title="2">
<text text-anchor="middle" x="129.541" y="-39.9484" font-family="Helvetica,sans-Serif" font-size="10.00" fill="#000000">2</text>
</a>
</g>
</g>
</g>
</svg>
