<?xml version="1.0" encoding="UTF-8" standalone="no"?>
<!DOCTYPE svg PUBLIC "-//W3C//DTD SVG 1.1//EN"
 "http://www.w3.org/Graphics/SVG/1.1/DTD/svg11.dtd">
<!-- Generated by graphviz version 2.40.1 (20161225.0304)
 -->
<!-- Title: IO Pages: 1 -->
<svg width="94pt" height="152pt"
 viewBox="0.00 0.00 94.00 152.00" xmlns="http://www.w3.org/2000/svg" xmlns:xlink="http://www.w3.org/1999/xlink">
<g id="graph0" class="graph" transform="scale(1 1) rotate(0) translate(4 148)">
<title>IO</title>
<polygon fill="#ffffff" stroke="transparent" points="-4,4 -4,-148 90,-148 90,4 -4,4"/>
<g id="clust1" class="cluster">
<title>clusterdir_937900b87e0c7a5fa01190c395fb83f7</title>
<g id="a_clust1"><a xlink:href="dir_937900b87e0c7a5fa01190c395fb83f7.html" target="_top" xlink:title="Sources">
<polygon fill="#ddddee" stroke="#000000" points="8,-64 8,-136 78,-136 78,-64 8,-64"/>
<text text-anchor="middle" x="43" y="-123" font-family="Helvetica,sans-Serif" font-size="10.00" fill="#000000">Sources</text>
</a>
</g>
</g>
<!-- dir_b0a74778ccfe0ddf6a34d269afb83788 -->
<g id="node1" class="node">
<title>dir_b0a74778ccfe0ddf6a34d269afb83788</title>
<g id="a_node1"><a xlink:href="dir_b0a74778ccfe0ddf6a34d269afb83788.html" target="_top" xlink:title="IO">
<polygon fill="#eeeeff" stroke="#000000" points="70,-108 16,-108 16,-72 70,-72 70,-108"/>
<text text-anchor="middle" x="43" y="-87" font-family="Helvetica,sans-Serif" font-size="10.00" fill="#000000">IO</text>
</a>
</g>
</g>
<!-- dir_692516b589a32b3bfce781ca9f6d1534 -->
<g id="node2" class="node">
<title>dir_692516b589a32b3bfce781ca9f6d1534</title>
<g id="a_node2"><a xlink:href="dir_692516b589a32b3bfce781ca9f6d1534.html" target="_top" xlink:title="Headers">
<polygon fill="#ffffff" stroke="#ff0000" points="70,-36 16,-36 16,0 70,0 70,-36"/>
<text text-anchor="middle" x="43" y="-15" font-family="Helvetica,sans-Serif" font-size="10.00" fill="#000000">Headers</text>
</a>
</g>
</g>
<!-- dir_b0a74778ccfe0ddf6a34d269afb83788&#45;&gt;dir_692516b589a32b3bfce781ca9f6d1534 -->
<g id="edge1" class="edge">
<title>dir_b0a74778ccfe0ddf6a34d269afb83788&#45;&gt;dir_692516b589a32b3bfce781ca9f6d1534</title>
<path fill="none" stroke="#000000" d="M43,-71.8314C43,-64.131 43,-54.9743 43,-46.4166"/>
<polygon fill="#000000" stroke="#000000" points="46.5001,-46.4132 43,-36.4133 39.5001,-46.4133 46.5001,-46.4132"/>
<g id="a_edge1&#45;headlabel"><a xlink:href="dir_000003_000000.html" target="_top" xlink:title="8">
<text text-anchor="middle" x="49.3393" y="-47.0079" font-family="Helvetica,sans-Serif" font-size="10.00" fill="#000000">8</text>
</a>
</g>
</g>
</g>
</svg>
