<?xml version="1.0" encoding="UTF-8" standalone="no"?>
<!DOCTYPE svg PUBLIC "-//W3C//DTD SVG 1.1//EN"
 "http://www.w3.org/Graphics/SVG/1.1/DTD/svg11.dtd">
<!-- Generated by graphviz version 2.40.1 (20161225.0304)
 -->
<!-- Title: MotorControl Pages: 1 -->
<svg width="114pt" height="152pt"
 viewBox="0.00 0.00 114.00 152.00" xmlns="http://www.w3.org/2000/svg" xmlns:xlink="http://www.w3.org/1999/xlink">
<g id="graph0" class="graph" transform="scale(1 1) rotate(0) translate(4 148)">
<title>MotorControl</title>
<polygon fill="#ffffff" stroke="transparent" points="-4,4 -4,-148 110,-148 110,4 -4,4"/>
<g id="clust1" class="cluster">
<title>clusterdir_692516b589a32b3bfce781ca9f6d1534</title>
<g id="a_clust1"><a xlink:href="dir_692516b589a32b3bfce781ca9f6d1534.html" target="_top" xlink:title="Headers">
<polygon fill="#ddddee" stroke="#000000" points="8,-64 8,-136 98,-136 98,-64 8,-64"/>
<text text-anchor="middle" x="53" y="-123" font-family="Helvetica,sans-Serif" font-size="10.00" fill="#000000">Headers</text>
</a>
</g>
</g>
<!-- dir_23bd72dd42950db4d48a962f5b5382b8 -->
<g id="node1" class="node">
<title>dir_23bd72dd42950db4d48a962f5b5382b8</title>
<g id="a_node1"><a xlink:href="dir_23bd72dd42950db4d48a962f5b5382b8.html" target="_top" xlink:title="MotorControl">
<polygon fill="#eeeeff" stroke="#000000" points="89.7783,-108 16.2217,-108 16.2217,-72 89.7783,-72 89.7783,-108"/>
<text text-anchor="middle" x="53" y="-87" font-family="Helvetica,sans-Serif" font-size="10.00" fill="#000000">MotorControl</text>
</a>
</g>
</g>
<!-- dir_4ae85480af0002fa906ef2901617f71b -->
<g id="node2" class="node">
<title>dir_4ae85480af0002fa906ef2901617f71b</title>
<g id="a_node2"><a xlink:href="dir_4ae85480af0002fa906ef2901617f71b.html" target="_top" xlink:title="Math">
<polygon fill="none" stroke="#000000" points="80,-36 26,-36 26,0 80,0 80,-36"/>
<text text-anchor="middle" x="53" y="-15" font-family="Helvetica,sans-Serif" font-size="10.00" fill="#000000">Math</text>
</a>
</g>
</g>
<!-- dir_23bd72dd42950db4d48a962f5b5382b8&#45;&gt;dir_4ae85480af0002fa906ef2901617f71b -->
<g id="edge1" class="edge">
<title>dir_23bd72dd42950db4d48a962f5b5382b8&#45;&gt;dir_4ae85480af0002fa906ef2901617f71b</title>
<path fill="none" stroke="#000000" d="M53,-71.8314C53,-64.131 53,-54.9743 53,-46.4166"/>
<polygon fill="#000000" stroke="#000000" points="56.5001,-46.4132 53,-36.4133 49.5001,-46.4133 56.5001,-46.4132"/>
<g id="a_edge1&#45;headlabel"><a xlink:href="dir_000008_000004.html" target="_top" xlink:title="1">
<text text-anchor="middle" x="59.3393" y="-47.0079" font-family="Helvetica,sans-Serif" font-size="10.00" fill="#000000">1</text>
</a>
</g>
</g>
</g>
</svg>
