<?xml version="1.0" encoding="UTF-8" standalone="no"?>
<!DOCTYPE svg PUBLIC "-//W3C//DTD SVG 1.1//EN"
 "http://www.w3.org/Graphics/SVG/1.1/DTD/svg11.dtd">
<!-- Generated by graphviz version 2.40.1 (20161225.0304)
 -->
<!-- Title: Bluetooth Pages: 1 -->
<svg width="98pt" height="152pt"
 viewBox="0.00 0.00 98.00 152.00" xmlns="http://www.w3.org/2000/svg" xmlns:xlink="http://www.w3.org/1999/xlink">
<g id="graph0" class="graph" transform="scale(1 1) rotate(0) translate(4 148)">
<title>Bluetooth</title>
<polygon fill="#ffffff" stroke="transparent" points="-4,4 -4,-148 94,-148 94,4 -4,4"/>
<g id="clust1" class="cluster">
<title>clusterdir_937900b87e0c7a5fa01190c395fb83f7</title>
<g id="a_clust1"><a xlink:href="dir_937900b87e0c7a5fa01190c395fb83f7.html" target="_top" xlink:title="Sources">
<polygon fill="#ddddee" stroke="#000000" points="8,-64 8,-136 82,-136 82,-64 8,-64"/>
<text text-anchor="middle" x="45" y="-123" font-family="Helvetica,sans-Serif" font-size="10.00" fill="#000000">Sources</text>
</a>
</g>
</g>
<!-- dir_8bf99b4de30a745cae89483bcba61e36 -->
<g id="node1" class="node">
<title>dir_8bf99b4de30a745cae89483bcba61e36</title>
<g id="a_node1"><a xlink:href="dir_8bf99b4de30a745cae89483bcba61e36.html" target="_top" xlink:title="Bluetooth">
<polygon fill="#eeeeff" stroke="#000000" points="74.2415,-108 15.7585,-108 15.7585,-72 74.2415,-72 74.2415,-108"/>
<text text-anchor="middle" x="45" y="-87" font-family="Helvetica,sans-Serif" font-size="10.00" fill="#000000">Bluetooth</text>
</a>
</g>
</g>
<!-- dir_692516b589a32b3bfce781ca9f6d1534 -->
<g id="node2" class="node">
<title>dir_692516b589a32b3bfce781ca9f6d1534</title>
<g id="a_node2"><a xlink:href="dir_692516b589a32b3bfce781ca9f6d1534.html" target="_top" xlink:title="Headers">
<polygon fill="#ffffff" stroke="#ff0000" points="72,-36 18,-36 18,0 72,0 72,-36"/>
<text text-anchor="middle" x="45" y="-15" font-family="Helvetica,sans-Serif" font-size="10.00" fill="#000000">Headers</text>
</a>
</g>
</g>
<!-- dir_8bf99b4de30a745cae89483bcba61e36&#45;&gt;dir_692516b589a32b3bfce781ca9f6d1534 -->
<g id="edge1" class="edge">
<title>dir_8bf99b4de30a745cae89483bcba61e36&#45;&gt;dir_692516b589a32b3bfce781ca9f6d1534</title>
<path fill="none" stroke="#000000" d="M45,-71.8314C45,-64.131 45,-54.9743 45,-46.4166"/>
<polygon fill="#000000" stroke="#000000" points="48.5001,-46.4132 45,-36.4133 41.5001,-46.4133 48.5001,-46.4132"/>
<g id="a_edge1&#45;headlabel"><a xlink:href="dir_000005_000000.html" target="_top" xlink:title="3">
<text text-anchor="middle" x="51.3393" y="-47.0079" font-family="Helvetica,sans-Serif" font-size="10.00" fill="#000000">3</text>
</a>
</g>
</g>
</g>
</svg>
