<?xml version="1.0" encoding="UTF-8" standalone="no"?>
<!DOCTYPE svg PUBLIC "-//W3C//DTD SVG 1.1//EN"
 "http://www.w3.org/Graphics/SVG/1.1/DTD/svg11.dtd">
<!-- Generated by graphviz version 2.40.1 (20161225.0304)
 -->
<!-- Title: Headers Pages: 1 -->
<svg width="406pt" height="148pt"
 viewBox="0.00 0.00 406.00 148.00" xmlns="http://www.w3.org/2000/svg" xmlns:xlink="http://www.w3.org/1999/xlink">
<g id="graph0" class="graph" transform="scale(1 1) rotate(0) translate(4 144)">
<title>Headers</title>
<polygon fill="#ffffff" stroke="transparent" points="-4,4 -4,-144 402,-144 402,4 -4,4"/>
<g id="clust1" class="cluster">
<title>clusterdir_692516b589a32b3bfce781ca9f6d1534</title>
<g id="a_clust1"><a xlink:href="dir_692516b589a32b3bfce781ca9f6d1534.html" target="_top">
<polygon fill="#eeeeff" stroke="#000000" points="8,-8 8,-132 390,-132 390,-8 8,-8"/>
</a>
</g>
</g>
<!-- dir_692516b589a32b3bfce781ca9f6d1534 -->
<g id="node1" class="node">
<title>dir_692516b589a32b3bfce781ca9f6d1534</title>
<text text-anchor="middle" x="355" y="-103" font-family="Helvetica,sans-Serif" font-size="10.00" fill="#000000">Headers</text>
</g>
<!-- dir_ed44d66cb3f6f4cc5167e7340fb98542 -->
<g id="node2" class="node">
<title>dir_ed44d66cb3f6f4cc5167e7340fb98542</title>
<g id="a_node2"><a xlink:href="dir_ed44d66cb3f6f4cc5167e7340fb98542.html" target="_top" xlink:title="Bluetooth">
<polygon fill="#ffffff" stroke="#000000" points="310.2415,-124 251.7585,-124 251.7585,-88 310.2415,-88 310.2415,-124"/>
<text text-anchor="middle" x="281" y="-103" font-family="Helvetica,sans-Serif" font-size="10.00" fill="#000000">Bluetooth</text>
</a>
</g>
</g>
<!-- dir_8f5c5f852b8ca40ba87d5c12ceb920be -->
<g id="node3" class="node">
<title>dir_8f5c5f852b8ca40ba87d5c12ceb920be</title>
<g id="a_node3"><a xlink:href="dir_8f5c5f852b8ca40ba87d5c12ceb920be.html" target="_top" xlink:title="IO">
<polygon fill="#ffffff" stroke="#000000" points="234,-124 180,-124 180,-88 234,-88 234,-124"/>
<text text-anchor="middle" x="207" y="-103" font-family="Helvetica,sans-Serif" font-size="10.00" fill="#000000">IO</text>
</a>
</g>
</g>
<!-- dir_4ae85480af0002fa906ef2901617f71b -->
<g id="node4" class="node">
<title>dir_4ae85480af0002fa906ef2901617f71b</title>
<g id="a_node4"><a xlink:href="dir_4ae85480af0002fa906ef2901617f71b.html" target="_top" xlink:title="Math">
<polygon fill="#ffffff" stroke="#000000" points="152,-52 98,-52 98,-16 152,-16 152,-52"/>
<text text-anchor="middle" x="125" y="-31" font-family="Helvetica,sans-Serif" font-size="10.00" fill="#000000">Math</text>
</a>
</g>
</g>
<!-- dir_23bd72dd42950db4d48a962f5b5382b8 -->
<g id="node5" class="node">
<title>dir_23bd72dd42950db4d48a962f5b5382b8</title>
<g id="a_node5"><a xlink:href="dir_23bd72dd42950db4d48a962f5b5382b8.html" target="_top" xlink:title="MotorControl">
<polygon fill="#ffffff" stroke="#000000" points="161.7783,-124 88.2217,-124 88.2217,-88 161.7783,-88 161.7783,-124"/>
<text text-anchor="middle" x="125" y="-103" font-family="Helvetica,sans-Serif" font-size="10.00" fill="#000000">MotorControl</text>
</a>
</g>
</g>
<!-- dir_23bd72dd42950db4d48a962f5b5382b8&#45;&gt;dir_4ae85480af0002fa906ef2901617f71b -->
<g id="edge1" class="edge">
<title>dir_23bd72dd42950db4d48a962f5b5382b8&#45;&gt;dir_4ae85480af0002fa906ef2901617f71b</title>
<path fill="none" stroke="#000000" d="M125,-87.8314C125,-80.131 125,-70.9743 125,-62.4166"/>
<polygon fill="#000000" stroke="#000000" points="128.5001,-62.4132 125,-52.4133 121.5001,-62.4133 128.5001,-62.4132"/>
<g id="a_edge1&#45;headlabel"><a xlink:href="dir_000010_000006.html" target="_top" xlink:title="1">
<text text-anchor="middle" x="131.3393" y="-63.0079" font-family="Helvetica,sans-Serif" font-size="10.00" fill="#000000">1</text>
</a>
</g>
</g>
<!-- dir_e3b2ad2d6faa034c1772eaffac1879a1 -->
<g id="node6" class="node">
<title>dir_e3b2ad2d6faa034c1772eaffac1879a1</title>
<g id="a_node6"><a xlink:href="dir_e3b2ad2d6faa034c1772eaffac1879a1.html" target="_top" xlink:title="PRU">
<polygon fill="#ffffff" stroke="#000000" points="70,-124 16,-124 16,-88 70,-88 70,-124"/>
<text text-anchor="middle" x="43" y="-103" font-family="Helvetica,sans-Serif" font-size="10.00" fill="#000000">PRU</text>
</a>
</g>
</g>
</g>
</svg>
