<?xml version="1.0" encoding="UTF-8" standalone="no"?>
<!DOCTYPE svg PUBLIC "-//W3C//DTD SVG 1.1//EN"
 "http://www.w3.org/Graphics/SVG/1.1/DTD/svg11.dtd">
<!-- Generated by graphviz version 2.40.1 (20161225.0304)
 -->
<!-- Title: Graphical Class Hierarchy Pages: 1 -->
<svg width="226pt" height="68pt"
 viewBox="0.00 0.00 226.04 68.00" xmlns="http://www.w3.org/2000/svg" xmlns:xlink="http://www.w3.org/1999/xlink">
<g id="graph0" class="graph" transform="scale(1 1) rotate(0) translate(4 64)">
<title>Graphical Class Hierarchy</title>
<polygon fill="#ffffff" stroke="transparent" points="-4,4 -4,-64 222.039,-64 222.039,4 -4,4"/>
<!-- Node0 -->
<g id="node1" class="node">
<title>Node0</title>
<g id="a_node1"><a xlink:href="classCore_1_1IO_1_1IOBase.html" target="_top" xlink:title="The IOBase class is the base class for all GPIO. This class contains all of the methods to call into ...">
<polygon fill="#ffffff" stroke="#000000" points="0,-19.5 0,-39.5 92.685,-39.5 92.685,-19.5 0,-19.5"/>
<text text-anchor="middle" x="46.3425" y="-26.5" font-family="Helvetica,sans-Serif" font-size="10.00" fill="#000000">Core::IO::IOBase</text>
</a>
</g>
</g>
<!-- Node1 -->
<g id="node2" class="node">
<title>Node1</title>
<g id="a_node2"><a xlink:href="classCore_1_1IO_1_1Input.html" target="_top" xlink:title="The Input class represents a GPIO pin that is set up as an input. This class allows the user to add a...">
<polygon fill="#ffffff" stroke="#000000" points="132.5745,-39.5 132.5745,-59.5 214.1495,-59.5 214.1495,-39.5 132.5745,-39.5"/>
<text text-anchor="middle" x="173.362" y="-46.5" font-family="Helvetica,sans-Serif" font-size="10.00" fill="#000000">Core::IO::Input</text>
</a>
</g>
</g>
<!-- Node0&#45;&gt;Node1 -->
<g id="edge1" class="edge">
<title>Node0&#45;&gt;Node1</title>
<path fill="none" stroke="#191970" d="M103.0452,-38.4282C112.8777,-39.9764 122.9303,-41.5592 132.2458,-43.026"/>
<polygon fill="#191970" stroke="#191970" points="103.3413,-34.9318 92.9186,-36.8337 102.2525,-41.8466 103.3413,-34.9318"/>
</g>
<!-- Node2 -->
<g id="node3" class="node">
<title>Node2</title>
<g id="a_node3"><a xlink:href="classCore_1_1IO_1_1Output.html" target="_top" xlink:title="The Output class represents a GPIO pin that is set up as an output. This class has the ability to tog...">
<polygon fill="#ffffff" stroke="#000000" points="128.685,-.5 128.685,-20.5 218.039,-20.5 218.039,-.5 128.685,-.5"/>
<text text-anchor="middle" x="173.362" y="-7.5" font-family="Helvetica,sans-Serif" font-size="10.00" fill="#000000">Core::IO::Output</text>
</a>
</g>
</g>
<!-- Node0&#45;&gt;Node2 -->
<g id="edge2" class="edge">
<title>Node0&#45;&gt;Node2</title>
<path fill="none" stroke="#191970" d="M102.8713,-21.0442C111.4492,-19.7611 120.1991,-18.4523 128.4847,-17.2129"/>
<polygon fill="#191970" stroke="#191970" points="102.2908,-17.592 92.9186,-22.533 103.3264,-24.515 102.2908,-17.592"/>
</g>
</g>
</svg>
