<?xml version="1.0" encoding="UTF-8" standalone="no"?>
<!DOCTYPE svg PUBLIC "-//W3C//DTD SVG 1.1//EN"
 "http://www.w3.org/Graphics/SVG/1.1/DTD/svg11.dtd">
<!-- Generated by graphviz version 2.40.1 (20161225.0304)
 -->
<!-- Title: Graphical Class Hierarchy Pages: 1 -->
<svg width="249pt" height="68pt"
 viewBox="0.00 0.00 249.39 68.00" xmlns="http://www.w3.org/2000/svg" xmlns:xlink="http://www.w3.org/1999/xlink">
<g id="graph0" class="graph" transform="scale(1 1) rotate(0) translate(4 64)">
<title>Graphical Class Hierarchy</title>
<polygon fill="#ffffff" stroke="transparent" points="-4,4 -4,-64 245.395,-64 245.395,4 -4,4"/>
<!-- Node0 -->
<g id="node1" class="node">
<title>Node0</title>
<g id="a_node1"><a xlink:href="classLibBBB_1_1IO_1_1IOBase.html" target="_top" xlink:title="The IOBase class is the base class for all GPIO. This class contains all of the methods to call into ...">
<polygon fill="#ffffff" stroke="#000000" points="0,-19.5 0,-39.5 104.363,-39.5 104.363,-19.5 0,-19.5"/>
<text text-anchor="middle" x="52.1815" y="-26.5" font-family="Helvetica,sans-Serif" font-size="10.00" fill="#000000">LibBBB::IO::IOBase</text>
</a>
</g>
</g>
<!-- Node1 -->
<g id="node2" class="node">
<title>Node1</title>
<g id="a_node2"><a xlink:href="classLibBBB_1_1IO_1_1Input.html" target="_top" xlink:title="The Input class represents a GPIO pin that is set up as an input. This class allows the user to add a...">
<polygon fill="#ffffff" stroke="#000000" points="144.2525,-39.5 144.2525,-59.5 237.5055,-59.5 237.5055,-39.5 144.2525,-39.5"/>
<text text-anchor="middle" x="190.879" y="-46.5" font-family="Helvetica,sans-Serif" font-size="10.00" fill="#000000">LibBBB::IO::Input</text>
</a>
</g>
</g>
<!-- Node0&#45;&gt;Node1 -->
<g id="edge1" class="edge">
<title>Node0&#45;&gt;Node1</title>
<path fill="none" stroke="#191970" d="M114.7173,-38.5176C124.5046,-39.9289 134.4748,-41.3666 143.8377,-42.7167"/>
<polygon fill="#191970" stroke="#191970" points="115.0143,-35.0243 104.6171,-37.0611 114.0151,-41.9526 115.0143,-35.0243"/>
</g>
<!-- Node2 -->
<g id="node3" class="node">
<title>Node2</title>
<g id="a_node3"><a xlink:href="classLibBBB_1_1IO_1_1Output.html" target="_top" xlink:title="The Output class represents a GPIO pin that is set up as an output. This class has the ability to tog...">
<polygon fill="#ffffff" stroke="#000000" points="140.363,-.5 140.363,-20.5 241.395,-20.5 241.395,-.5 140.363,-.5"/>
<text text-anchor="middle" x="190.879" y="-7.5" font-family="Helvetica,sans-Serif" font-size="10.00" fill="#000000">LibBBB::IO::Output</text>
</a>
</g>
</g>
<!-- Node0&#45;&gt;Node2 -->
<g id="edge2" class="edge">
<title>Node0&#45;&gt;Node2</title>
<path fill="none" stroke="#191970" d="M114.5848,-20.9514C123.1589,-19.7769 131.8761,-18.5827 140.205,-17.4418"/>
<polygon fill="#191970" stroke="#191970" points="114.0495,-17.492 104.6171,-22.3169 114.9996,-24.4272 114.0495,-17.492"/>
</g>
</g>
</svg>
