<?xml version="1.0" encoding="UTF-8" standalone="no"?>
<!DOCTYPE svg PUBLIC "-//W3C//DTD SVG 1.1//EN"
 "http://www.w3.org/Graphics/SVG/1.1/DTD/svg11.dtd">
<!-- Generated by graphviz version 2.40.1 (20161225.0304)
 -->
<!-- Title: Input.cpp Pages: 1 -->
<svg width="419pt" height="200pt"
 viewBox="0.00 0.00 418.57 200.00" xmlns="http://www.w3.org/2000/svg" xmlns:xlink="http://www.w3.org/1999/xlink">
<g id="graph0" class="graph" transform="scale(1 1) rotate(0) translate(4 196)">
<title>Input.cpp</title>
<polygon fill="#ffffff" stroke="transparent" points="-4,4 -4,-196 414.5695,-196 414.5695,4 -4,4"/>
<!-- Node0 -->
<g id="node1" class="node">
<title>Node0</title>
<polygon fill="#bfbfbf" stroke="#000000" points="154.2755,-171.5 154.2755,-191.5 211.4075,-191.5 211.4075,-171.5 154.2755,-171.5"/>
<text text-anchor="middle" x="182.8415" y="-178.5" font-family="Helvetica,sans-Serif" font-size="10.00" fill="#000000">Input.cpp</text>
</g>
<!-- Node1 -->
<g id="node2" class="node">
<title>Node1</title>
<g id="a_node2"><a xlink:href="Input_8h.html" target="_top" xlink:title="Input.h">
<polygon fill="#ffffff" stroke="#000000" points="8.555,-114.5 8.555,-134.5 55.128,-134.5 55.128,-114.5 8.555,-114.5"/>
<text text-anchor="middle" x="31.8415" y="-121.5" font-family="Helvetica,sans-Serif" font-size="10.00" fill="#000000">Input.h</text>
</a>
</g>
</g>
<!-- Node0&#45;&gt;Node1 -->
<g id="edge1" class="edge">
<title>Node0&#45;&gt;Node1</title>
<path fill="none" stroke="#191970" d="M156.1933,-171.4408C130.7061,-161.8198 92.2026,-147.2853 64.7993,-136.941"/>
<polygon fill="#191970" stroke="#191970" points="65.8419,-133.5936 55.2502,-133.3364 63.3697,-140.1425 65.8419,-133.5936"/>
</g>
<!-- Node4 -->
<g id="node5" class="node">
<title>Node4</title>
<polygon fill="#ffffff" stroke="#bfbfbf" points="61.1745,-.5 61.1745,-20.5 110.5085,-20.5 110.5085,-.5 61.1745,-.5"/>
<text text-anchor="middle" x="85.8415" y="-7.5" font-family="Helvetica,sans-Serif" font-size="10.00" fill="#000000">fstream</text>
</g>
<!-- Node0&#45;&gt;Node4 -->
<g id="edge8" class="edge">
<title>Node0&#45;&gt;Node4</title>
<path fill="none" stroke="#191970" d="M154.2327,-171.6592C137.1437,-164.2674 116.5478,-152.396 104.8415,-135 83.5747,-103.3967 82.4542,-57.1475 83.9086,-30.8234"/>
<polygon fill="#191970" stroke="#191970" points="87.4206,-30.7886 84.6665,-20.558 80.4396,-30.2731 87.4206,-30.7886"/>
</g>
<!-- Node5 -->
<g id="node6" class="node">
<title>Node5</title>
<polygon fill="#ffffff" stroke="#bfbfbf" points="114.2255,-114.5 114.2255,-134.5 177.4575,-134.5 177.4575,-114.5 114.2255,-114.5"/>
<text text-anchor="middle" x="145.8415" y="-121.5" font-family="Helvetica,sans-Serif" font-size="10.00" fill="#000000">sys/epoll.h</text>
</g>
<!-- Node0&#45;&gt;Node5 -->
<g id="edge5" class="edge">
<title>Node0&#45;&gt;Node5</title>
<path fill="none" stroke="#191970" d="M176.2266,-171.3095C171.1756,-163.5282 164.0747,-152.589 158.0075,-143.2423"/>
<polygon fill="#191970" stroke="#191970" points="160.7796,-141.0844 152.3991,-134.6022 154.9081,-144.8957 160.7796,-141.0844"/>
</g>
<!-- Node6 -->
<g id="node7" class="node">
<title>Node6</title>
<polygon fill="#ffffff" stroke="#bfbfbf" points="195.335,-114.5 195.335,-134.5 246.348,-134.5 246.348,-114.5 195.335,-114.5"/>
<text text-anchor="middle" x="220.8415" y="-121.5" font-family="Helvetica,sans-Serif" font-size="10.00" fill="#000000">unistd.h</text>
</g>
<!-- Node0&#45;&gt;Node6 -->
<g id="edge6" class="edge">
<title>Node0&#45;&gt;Node6</title>
<path fill="none" stroke="#191970" d="M189.6351,-171.3095C194.8767,-163.4472 202.2676,-152.3608 208.541,-142.9507"/>
<polygon fill="#191970" stroke="#191970" points="211.4718,-144.8642 214.1067,-134.6022 205.6474,-140.9813 211.4718,-144.8642"/>
</g>
<!-- Node7 -->
<g id="node8" class="node">
<title>Node7</title>
<polygon fill="#ffffff" stroke="#bfbfbf" points="264.5045,-114.5 264.5045,-134.5 307.1785,-134.5 307.1785,-114.5 264.5045,-114.5"/>
<text text-anchor="middle" x="285.8415" y="-121.5" font-family="Helvetica,sans-Serif" font-size="10.00" fill="#000000">fcntl.h</text>
</g>
<!-- Node0&#45;&gt;Node7 -->
<g id="edge7" class="edge">
<title>Node0&#45;&gt;Node7</title>
<path fill="none" stroke="#191970" d="M201.2558,-171.3095C217.2209,-162.4745 240.5424,-149.5684 258.6558,-139.5445"/>
<polygon fill="#191970" stroke="#191970" points="260.5317,-142.5066 267.5866,-134.6022 257.1423,-136.3819 260.5317,-142.5066"/>
</g>
<!-- Node8 -->
<g id="node9" class="node">
<title>Node8</title>
<g id="a_node9"><a xlink:href="ThreadHelper_8h.html" target="_top" xlink:title="ThreadHelper.h">
<polygon fill="#ffffff" stroke="#000000" points="325.1135,-114.5 325.1135,-134.5 410.5695,-134.5 410.5695,-114.5 325.1135,-114.5"/>
<text text-anchor="middle" x="367.8415" y="-121.5" font-family="Helvetica,sans-Serif" font-size="10.00" fill="#000000">ThreadHelper.h</text>
</a>
</g>
</g>
<!-- Node0&#45;&gt;Node8 -->
<g id="edge9" class="edge">
<title>Node0&#45;&gt;Node8</title>
<path fill="none" stroke="#191970" d="M211.7478,-172.5938C242.178,-163.2179 290.4054,-148.3587 325.2042,-137.6369"/>
<polygon fill="#191970" stroke="#191970" points="326.5607,-140.8814 335.0868,-134.592 324.4995,-134.1917 326.5607,-140.8814"/>
</g>
<!-- Node2 -->
<g id="node3" class="node">
<title>Node2</title>
<g id="a_node3"><a xlink:href="IOBase_8h.html" target="_top" xlink:title="IOBase.h">
<polygon fill="#ffffff" stroke="#000000" points="0,-57.5 0,-77.5 57.683,-77.5 57.683,-57.5 0,-57.5"/>
<text text-anchor="middle" x="28.8415" y="-64.5" font-family="Helvetica,sans-Serif" font-size="10.00" fill="#000000">IOBase.h</text>
</a>
</g>
</g>
<!-- Node1&#45;&gt;Node2 -->
<g id="edge2" class="edge">
<title>Node1&#45;&gt;Node2</title>
<path fill="none" stroke="#191970" d="M31.3052,-114.3095C30.9169,-106.9335 30.3794,-96.72 29.9054,-87.715"/>
<polygon fill="#191970" stroke="#191970" points="33.394,-87.4044 29.3732,-77.6022 26.4037,-87.7724 33.394,-87.4044"/>
</g>
<!-- Node3 -->
<g id="node4" class="node">
<title>Node3</title>
<polygon fill="#ffffff" stroke="#bfbfbf" points="2.619,-.5 2.619,-20.5 43.064,-20.5 43.064,-.5 2.619,-.5"/>
<text text-anchor="middle" x="22.8415" y="-7.5" font-family="Helvetica,sans-Serif" font-size="10.00" fill="#000000">string</text>
</g>
<!-- Node2&#45;&gt;Node3 -->
<g id="edge3" class="edge">
<title>Node2&#45;&gt;Node3</title>
<path fill="none" stroke="#191970" d="M27.7688,-57.3095C26.9924,-49.9335 25.9173,-39.72 24.9694,-30.715"/>
<polygon fill="#191970" stroke="#191970" points="28.4326,-30.1809 23.9049,-20.6022 21.4711,-30.9137 28.4326,-30.1809"/>
</g>
<!-- Node2&#45;&gt;Node4 -->
<g id="edge4" class="edge">
<title>Node2&#45;&gt;Node4</title>
<path fill="none" stroke="#191970" d="M39.032,-57.3095C47.2186,-49.1229 58.9005,-37.441 68.546,-27.7955"/>
<polygon fill="#191970" stroke="#191970" points="71.1431,-30.1482 75.7393,-20.6022 66.1933,-25.1984 71.1431,-30.1482"/>
</g>
<!-- Node9 -->
<g id="node10" class="node">
<title>Node9</title>
<polygon fill="#ffffff" stroke="#bfbfbf" points="338.721,-57.5 338.721,-77.5 396.962,-77.5 396.962,-57.5 338.721,-57.5"/>
<text text-anchor="middle" x="367.8415" y="-64.5" font-family="Helvetica,sans-Serif" font-size="10.00" fill="#000000">pthread.h</text>
</g>
<!-- Node8&#45;&gt;Node9 -->
<g id="edge10" class="edge">
<title>Node8&#45;&gt;Node9</title>
<path fill="none" stroke="#191970" d="M367.8415,-114.3095C367.8415,-106.9335 367.8415,-96.72 367.8415,-87.715"/>
<polygon fill="#191970" stroke="#191970" points="371.3416,-87.6022 367.8415,-77.6022 364.3416,-87.6023 371.3416,-87.6022"/>
</g>
</g>
</svg>
