<?xml version="1.0" encoding="UTF-8" standalone="no"?>
<!DOCTYPE svg PUBLIC "-//W3C//DTD SVG 1.1//EN"
 "http://www.w3.org/Graphics/SVG/1.1/DTD/svg11.dtd">
<!-- Generated by graphviz version 2.40.1 (20161225.0304)
 -->
<!-- Title: IOBase.h Pages: 1 -->
<svg width="116pt" height="86pt"
 viewBox="0.00 0.00 115.89 86.00" xmlns="http://www.w3.org/2000/svg" xmlns:xlink="http://www.w3.org/1999/xlink">
<g id="graph0" class="graph" transform="scale(1 1) rotate(0) translate(4 82)">
<title>IOBase.h</title>
<polygon fill="#ffffff" stroke="transparent" points="-4,4 -4,-82 111.8895,-82 111.8895,4 -4,4"/>
<!-- Node0 -->
<g id="node1" class="node">
<title>Node0</title>
<polygon fill="#bfbfbf" stroke="#000000" points="22.381,-57.5 22.381,-77.5 80.064,-77.5 80.064,-57.5 22.381,-57.5"/>
<text text-anchor="middle" x="51.2225" y="-64.5" font-family="Helvetica,sans-Serif" font-size="10.00" fill="#000000">IOBase.h</text>
</g>
<!-- Node1 -->
<g id="node2" class="node">
<title>Node1</title>
<polygon fill="#ffffff" stroke="#bfbfbf" points="0,-.5 0,-20.5 40.445,-20.5 40.445,-.5 0,-.5"/>
<text text-anchor="middle" x="20.2225" y="-7.5" font-family="Helvetica,sans-Serif" font-size="10.00" fill="#000000">string</text>
</g>
<!-- Node0&#45;&gt;Node1 -->
<g id="edge1" class="edge">
<title>Node0&#45;&gt;Node1</title>
<path fill="none" stroke="#191970" d="M45.6803,-57.3095C41.4925,-49.6093 35.6228,-38.8166 30.5748,-29.5349"/>
<polygon fill="#191970" stroke="#191970" points="33.5692,-27.7149 25.7167,-20.6022 27.4198,-31.0593 33.5692,-27.7149"/>
</g>
<!-- Node2 -->
<g id="node3" class="node">
<title>Node2</title>
<polygon fill="#ffffff" stroke="#bfbfbf" points="58.5555,-.5 58.5555,-20.5 107.8895,-20.5 107.8895,-.5 58.5555,-.5"/>
<text text-anchor="middle" x="83.2225" y="-7.5" font-family="Helvetica,sans-Serif" font-size="10.00" fill="#000000">fstream</text>
</g>
<!-- Node0&#45;&gt;Node2 -->
<g id="edge2" class="edge">
<title>Node0&#45;&gt;Node2</title>
<path fill="none" stroke="#191970" d="M56.9435,-57.3095C61.2664,-49.6093 67.3255,-38.8166 72.5363,-29.5349"/>
<polygon fill="#191970" stroke="#191970" points="75.7076,-31.0355 77.5511,-20.6022 69.6037,-27.6087 75.7076,-31.0355"/>
</g>
</g>
</svg>
