<?xml version="1.0" encoding="UTF-8" standalone="no"?>
<!DOCTYPE svg PUBLIC "-//W3C//DTD SVG 1.1//EN"
 "http://www.w3.org/Graphics/SVG/1.1/DTD/svg11.dtd">
<!-- Generated by graphviz version 2.40.1 (20161225.0304)
 -->
<!-- Title: IOBase.h Pages: 1 -->
<svg width="226pt" height="143pt"
 viewBox="0.00 0.00 225.69 143.00" xmlns="http://www.w3.org/2000/svg" xmlns:xlink="http://www.w3.org/1999/xlink">
<g id="graph0" class="graph" transform="scale(1 1) rotate(0) translate(4 139)">
<title>IOBase.h</title>
<polygon fill="#ffffff" stroke="transparent" points="-4,4 -4,-139 221.687,-139 221.687,4 -4,4"/>
<!-- Node3 -->
<g id="node1" class="node">
<title>Node3</title>
<polygon fill="#bfbfbf" stroke="#000000" points="75.7245,-114.5 75.7245,-134.5 133.4075,-134.5 133.4075,-114.5 75.7245,-114.5"/>
<text text-anchor="middle" x="104.566" y="-121.5" font-family="Helvetica,sans-Serif" font-size="10.00" fill="#000000">IOBase.h</text>
</g>
<!-- Node4 -->
<g id="node2" class="node">
<title>Node4</title>
<g id="a_node2"><a xlink:href="Input_8h.html" target="_top" xlink:title="Input.h">
<polygon fill="#ffffff" stroke="#000000" points="8.2795,-57.5 8.2795,-77.5 54.8525,-77.5 54.8525,-57.5 8.2795,-57.5"/>
<text text-anchor="middle" x="31.566" y="-64.5" font-family="Helvetica,sans-Serif" font-size="10.00" fill="#000000">Input.h</text>
</a>
</g>
</g>
<!-- Node3&#45;&gt;Node4 -->
<g id="edge1" class="edge">
<title>Node3&#45;&gt;Node4</title>
<path fill="none" stroke="#191970" d="M83.3777,-107.9557C70.8029,-98.137 55.2667,-86.006 44.5039,-77.6022"/>
<polygon fill="#191970" stroke="#191970" points="81.4791,-110.9138 91.5151,-114.3095 85.7872,-105.3965 81.4791,-110.9138"/>
</g>
<!-- Node6 -->
<g id="node4" class="node">
<title>Node6</title>
<g id="a_node4"><a xlink:href="Output_8h.html" target="_top" xlink:title="Output.h">
<polygon fill="#ffffff" stroke="#000000" points="77.39,-57.5 77.39,-77.5 131.742,-77.5 131.742,-57.5 77.39,-57.5"/>
<text text-anchor="middle" x="104.566" y="-64.5" font-family="Helvetica,sans-Serif" font-size="10.00" fill="#000000">Output.h</text>
</a>
</g>
</g>
<!-- Node3&#45;&gt;Node6 -->
<g id="edge3" class="edge">
<title>Node3&#45;&gt;Node6</title>
<path fill="none" stroke="#191970" d="M104.566,-104.1771C104.566,-95.1625 104.566,-84.9556 104.566,-77.6022"/>
<polygon fill="#191970" stroke="#191970" points="101.0661,-104.3095 104.566,-114.3095 108.0661,-104.3096 101.0661,-104.3095"/>
</g>
<!-- Node8 -->
<g id="node6" class="node">
<title>Node8</title>
<g id="a_node6"><a xlink:href="IOBase_8cpp.html" target="_top" xlink:title="IOBase.cpp">
<polygon fill="#ffffff" stroke="#000000" points="149.445,-57.5 149.445,-77.5 217.687,-77.5 217.687,-57.5 149.445,-57.5"/>
<text text-anchor="middle" x="183.566" y="-64.5" font-family="Helvetica,sans-Serif" font-size="10.00" fill="#000000">IOBase.cpp</text>
</a>
</g>
</g>
<!-- Node3&#45;&gt;Node8 -->
<g id="edge5" class="edge">
<title>Node3&#45;&gt;Node8</title>
<path fill="none" stroke="#191970" d="M127.1042,-108.2383C140.7803,-98.3707 157.8053,-86.0868 169.5647,-77.6022"/>
<polygon fill="#191970" stroke="#191970" points="124.7512,-105.62 118.6896,-114.3095 128.8471,-111.2967 124.7512,-105.62"/>
</g>
<!-- Node5 -->
<g id="node3" class="node">
<title>Node5</title>
<g id="a_node3"><a xlink:href="Input_8cpp.html" target="_top" xlink:title="Input.cpp">
<polygon fill="#ffffff" stroke="#000000" points="0,-.5 0,-20.5 57.132,-20.5 57.132,-.5 0,-.5"/>
<text text-anchor="middle" x="28.566" y="-7.5" font-family="Helvetica,sans-Serif" font-size="10.00" fill="#000000">Input.cpp</text>
</a>
</g>
</g>
<!-- Node4&#45;&gt;Node5 -->
<g id="edge2" class="edge">
<title>Node4&#45;&gt;Node5</title>
<path fill="none" stroke="#191970" d="M30.4964,-47.1771C30.0219,-38.1625 29.4847,-27.9556 29.0977,-20.6022"/>
<polygon fill="#191970" stroke="#191970" points="27.0088,-47.5074 31.0297,-57.3095 33.9991,-47.1394 27.0088,-47.5074"/>
</g>
<!-- Node7 -->
<g id="node5" class="node">
<title>Node7</title>
<g id="a_node5"><a xlink:href="Output_8cpp.html" target="_top" xlink:title="Output.cpp">
<polygon fill="#ffffff" stroke="#000000" points="75.1105,-.5 75.1105,-20.5 140.0215,-20.5 140.0215,-.5 75.1105,-.5"/>
<text text-anchor="middle" x="107.566" y="-7.5" font-family="Helvetica,sans-Serif" font-size="10.00" fill="#000000">Output.cpp</text>
</a>
</g>
</g>
<!-- Node6&#45;&gt;Node7 -->
<g id="edge4" class="edge">
<title>Node6&#45;&gt;Node7</title>
<path fill="none" stroke="#191970" d="M105.6356,-47.1771C106.1101,-38.1625 106.6473,-27.9556 107.0343,-20.6022"/>
<polygon fill="#191970" stroke="#191970" points="102.1329,-47.1394 105.1023,-57.3095 109.1232,-47.5074 102.1329,-47.1394"/>
</g>
</g>
</svg>
