<?xml version="1.0" encoding="UTF-8" standalone="no"?>
<!DOCTYPE svg PUBLIC "-//W3C//DTD SVG 1.1//EN"
 "http://www.w3.org/Graphics/SVG/1.1/DTD/svg11.dtd">
<!-- Generated by graphviz version 2.40.1 (20161225.0304)
 -->
<!-- Title: IOBase.cpp Pages: 1 -->
<svg width="227pt" height="143pt"
 viewBox="0.00 0.00 226.73 143.00" xmlns="http://www.w3.org/2000/svg" xmlns:xlink="http://www.w3.org/1999/xlink">
<g id="graph0" class="graph" transform="scale(1 1) rotate(0) translate(4 139)">
<title>IOBase.cpp</title>
<polygon fill="#ffffff" stroke="transparent" points="-4,4 -4,-139 222.729,-139 222.729,4 -4,4"/>
<!-- Node0 -->
<g id="node1" class="node">
<title>Node0</title>
<polygon fill="#bfbfbf" stroke="#000000" points="90.1015,-114.5 90.1015,-134.5 158.3435,-134.5 158.3435,-114.5 90.1015,-114.5"/>
<text text-anchor="middle" x="124.2225" y="-121.5" font-family="Helvetica,sans-Serif" font-size="10.00" fill="#000000">IOBase.cpp</text>
</g>
<!-- Node1 -->
<g id="node2" class="node">
<title>Node1</title>
<g id="a_node2"><a xlink:href="IOBase_8h.html" target="_top" xlink:title="IOBase.h">
<polygon fill="#ffffff" stroke="#000000" points="22.381,-57.5 22.381,-77.5 80.064,-77.5 80.064,-57.5 22.381,-57.5"/>
<text text-anchor="middle" x="51.2225" y="-64.5" font-family="Helvetica,sans-Serif" font-size="10.00" fill="#000000">IOBase.h</text>
</a>
</g>
</g>
<!-- Node0&#45;&gt;Node1 -->
<g id="edge1" class="edge">
<title>Node0&#45;&gt;Node1</title>
<path fill="none" stroke="#191970" d="M111.1716,-114.3095C100.3755,-105.8798 84.8331,-93.7439 72.2792,-83.9415"/>
<polygon fill="#191970" stroke="#191970" points="74.1964,-80.998 64.1604,-77.6022 69.8883,-86.5153 74.1964,-80.998"/>
</g>
<!-- Node4 -->
<g id="node5" class="node">
<title>Node4</title>
<polygon fill="#ffffff" stroke="#bfbfbf" points="98.445,-57.5 98.445,-77.5 150,-77.5 150,-57.5 98.445,-57.5"/>
<text text-anchor="middle" x="124.2225" y="-64.5" font-family="Helvetica,sans-Serif" font-size="10.00" fill="#000000">sstream</text>
</g>
<!-- Node0&#45;&gt;Node4 -->
<g id="edge4" class="edge">
<title>Node0&#45;&gt;Node4</title>
<path fill="none" stroke="#191970" d="M124.2225,-114.3095C124.2225,-106.9335 124.2225,-96.72 124.2225,-87.715"/>
<polygon fill="#191970" stroke="#191970" points="127.7226,-87.6022 124.2225,-77.6022 120.7226,-87.6023 127.7226,-87.6022"/>
</g>
<!-- Node5 -->
<g id="node6" class="node">
<title>Node5</title>
<polygon fill="#ffffff" stroke="#bfbfbf" points="167.716,-57.5 167.716,-77.5 218.729,-77.5 218.729,-57.5 167.716,-57.5"/>
<text text-anchor="middle" x="193.2225" y="-64.5" font-family="Helvetica,sans-Serif" font-size="10.00" fill="#000000">unistd.h</text>
</g>
<!-- Node0&#45;&gt;Node5 -->
<g id="edge5" class="edge">
<title>Node0&#45;&gt;Node5</title>
<path fill="none" stroke="#191970" d="M136.5583,-114.3095C146.6647,-105.9608 161.1715,-93.9769 172.9766,-84.2249"/>
<polygon fill="#191970" stroke="#191970" points="175.5129,-86.6695 180.9935,-77.6022 171.0547,-81.2727 175.5129,-86.6695"/>
</g>
<!-- Node2 -->
<g id="node3" class="node">
<title>Node2</title>
<polygon fill="#ffffff" stroke="#bfbfbf" points="0,-.5 0,-20.5 40.445,-20.5 40.445,-.5 0,-.5"/>
<text text-anchor="middle" x="20.2225" y="-7.5" font-family="Helvetica,sans-Serif" font-size="10.00" fill="#000000">string</text>
</g>
<!-- Node1&#45;&gt;Node2 -->
<g id="edge2" class="edge">
<title>Node1&#45;&gt;Node2</title>
<path fill="none" stroke="#191970" d="M45.6803,-57.3095C41.4925,-49.6093 35.6228,-38.8166 30.5748,-29.5349"/>
<polygon fill="#191970" stroke="#191970" points="33.5692,-27.7149 25.7167,-20.6022 27.4198,-31.0593 33.5692,-27.7149"/>
</g>
<!-- Node3 -->
<g id="node4" class="node">
<title>Node3</title>
<polygon fill="#ffffff" stroke="#bfbfbf" points="58.5555,-.5 58.5555,-20.5 107.8895,-20.5 107.8895,-.5 58.5555,-.5"/>
<text text-anchor="middle" x="83.2225" y="-7.5" font-family="Helvetica,sans-Serif" font-size="10.00" fill="#000000">fstream</text>
</g>
<!-- Node1&#45;&gt;Node3 -->
<g id="edge3" class="edge">
<title>Node1&#45;&gt;Node3</title>
<path fill="none" stroke="#191970" d="M56.9435,-57.3095C61.2664,-49.6093 67.3255,-38.8166 72.5363,-29.5349"/>
<polygon fill="#191970" stroke="#191970" points="75.7076,-31.0355 77.5511,-20.6022 69.6037,-27.6087 75.7076,-31.0355"/>
</g>
</g>
</svg>
