<?xml version="1.0" encoding="UTF-8" standalone="no"?>
<!DOCTYPE svg PUBLIC "-//W3C//DTD SVG 1.1//EN"
 "http://www.w3.org/Graphics/SVG/1.1/DTD/svg11.dtd">
<!-- Generated by graphviz version 2.40.1 (20161225.0304)
 -->
<!-- Title: LinearConverter.h Pages: 1 -->
<svg width="126pt" height="86pt"
 viewBox="0.00 0.00 125.62 86.00" xmlns="http://www.w3.org/2000/svg" xmlns:xlink="http://www.w3.org/1999/xlink">
<g id="graph0" class="graph" transform="scale(1 1) rotate(0) translate(4 82)">
<title>LinearConverter.h</title>
<polygon fill="#ffffff" stroke="transparent" points="-4,4 -4,-82 121.6235,-82 121.6235,4 -4,4"/>
<!-- Node0 -->
<g id="node1" class="node">
<title>Node0</title>
<polygon fill="#bfbfbf" stroke="#000000" points="12.8895,-57.5 12.8895,-77.5 108.9035,-77.5 108.9035,-57.5 12.8895,-57.5"/>
<text text-anchor="middle" x="60.8965" y="-64.5" font-family="Helvetica,sans-Serif" font-size="10.00" fill="#000000">LinearConverter.h</text>
</g>
<!-- Node1 -->
<g id="node2" class="node">
<title>Node1</title>
<g id="a_node2"><a xlink:href="Range_8h.html" target="_top" xlink:title="Range.h">
<polygon fill="#ffffff" stroke="#000000" points="0,-.5 0,-20.5 53.793,-20.5 53.793,-.5 0,-.5"/>
<text text-anchor="middle" x="26.8965" y="-7.5" font-family="Helvetica,sans-Serif" font-size="10.00" fill="#000000">Range.h</text>
</a>
</g>
</g>
<!-- Node0&#45;&gt;Node1 -->
<g id="edge1" class="edge">
<title>Node0&#45;&gt;Node1</title>
<path fill="none" stroke="#191970" d="M54.818,-57.3095C50.1765,-49.5282 43.6514,-38.589 38.0761,-29.2423"/>
<polygon fill="#191970" stroke="#191970" points="41.0511,-27.3975 32.9224,-20.6022 35.0394,-30.9834 41.0511,-27.3975"/>
</g>
<!-- Node2 -->
<g id="node3" class="node">
<title>Node2</title>
<polygon fill="#ffffff" stroke="#bfbfbf" points="72.1695,-.5 72.1695,-20.5 117.6235,-20.5 117.6235,-.5 72.1695,-.5"/>
<text text-anchor="middle" x="94.8965" y="-7.5" font-family="Helvetica,sans-Serif" font-size="10.00" fill="#000000">stdio.h</text>
</g>
<!-- Node0&#45;&gt;Node2 -->
<g id="edge2" class="edge">
<title>Node0&#45;&gt;Node2</title>
<path fill="none" stroke="#191970" d="M66.975,-57.3095C71.6165,-49.5282 78.1416,-38.589 83.7169,-29.2423"/>
<polygon fill="#191970" stroke="#191970" points="86.7536,-30.9834 88.8706,-20.6022 80.7419,-27.3975 86.7536,-30.9834"/>
</g>
</g>
</svg>
