<?xml version="1.0" encoding="UTF-8" standalone="no"?>
<!DOCTYPE svg PUBLIC "-//W3C//DTD SVG 1.1//EN"
 "http://www.w3.org/Graphics/SVG/1.1/DTD/svg11.dtd">
<!-- Generated by graphviz version 2.40.1 (20161225.0304)
 -->
<!-- Title: ManagerPRUs.h Pages: 1 -->
<svg width="220pt" height="86pt"
 viewBox="0.00 0.00 219.57 86.00" xmlns="http://www.w3.org/2000/svg" xmlns:xlink="http://www.w3.org/1999/xlink">
<g id="graph0" class="graph" transform="scale(1 1) rotate(0) translate(4 82)">
<title>ManagerPRUs.h</title>
<polygon fill="#ffffff" stroke="transparent" points="-4,4 -4,-82 215.566,-82 215.566,4 -4,4"/>
<!-- Node2 -->
<g id="node1" class="node">
<title>Node2</title>
<polygon fill="#bfbfbf" stroke="#000000" points="58.3885,-57.5 58.3885,-77.5 148.2865,-77.5 148.2865,-57.5 58.3885,-57.5"/>
<text text-anchor="middle" x="103.3375" y="-64.5" font-family="Helvetica,sans-Serif" font-size="10.00" fill="#000000">ManagerPRUs.h</text>
</g>
<!-- Node3 -->
<g id="node2" class="node">
<title>Node3</title>
<g id="a_node2"><a xlink:href="MotorControl_8cpp.html" target="_top" xlink:title="MotorControl.cpp">
<polygon fill="#ffffff" stroke="#000000" points="0,-.5 0,-20.5 92.675,-20.5 92.675,-.5 0,-.5"/>
<text text-anchor="middle" x="46.3375" y="-7.5" font-family="Helvetica,sans-Serif" font-size="10.00" fill="#000000">MotorControl.cpp</text>
</a>
</g>
</g>
<!-- Node2&#45;&gt;Node3 -->
<g id="edge1" class="edge">
<title>Node2&#45;&gt;Node3</title>
<path fill="none" stroke="#191970" d="M85.9379,-50.1004C76.2778,-40.4403 64.6011,-28.7636 56.4397,-20.6022"/>
<polygon fill="#191970" stroke="#191970" points="83.6011,-52.7133 93.147,-57.3095 88.5508,-47.7636 83.6011,-52.7133"/>
</g>
<!-- Node4 -->
<g id="node3" class="node">
<title>Node4</title>
<g id="a_node3"><a xlink:href="ManagerPRUs_8cpp.html" target="_top" xlink:title="ManagerPRUs.cpp">
<polygon fill="#ffffff" stroke="#000000" points="111.109,-.5 111.109,-20.5 211.566,-20.5 211.566,-.5 111.109,-.5"/>
<text text-anchor="middle" x="161.3375" y="-7.5" font-family="Helvetica,sans-Serif" font-size="10.00" fill="#000000">ManagerPRUs.cpp</text>
</a>
</g>
</g>
<!-- Node2&#45;&gt;Node4 -->
<g id="edge2" class="edge">
<title>Node2&#45;&gt;Node4</title>
<path fill="none" stroke="#191970" d="M121.0424,-50.1004C130.872,-40.4403 142.7535,-28.7636 151.058,-20.6022"/>
<polygon fill="#191970" stroke="#191970" points="118.3858,-47.8039 113.7067,-57.3095 123.2923,-52.7965 118.3858,-47.8039"/>
</g>
</g>
</svg>
