<?xml version="1.0" encoding="UTF-8" standalone="no"?>
<!DOCTYPE svg PUBLIC "-//W3C//DTD SVG 1.1//EN"
 "http://www.w3.org/Graphics/SVG/1.1/DTD/svg11.dtd">
<!-- Generated by graphviz version 2.40.1 (20161225.0304)
 -->
<!-- Title: ManagerPRUs.cpp Pages: 1 -->
<svg width="632pt" height="143pt"
 viewBox="0.00 0.00 631.68 143.00" xmlns="http://www.w3.org/2000/svg" xmlns:xlink="http://www.w3.org/1999/xlink">
<g id="graph0" class="graph" transform="scale(1 1) rotate(0) translate(4 139)">
<title>ManagerPRUs.cpp</title>
<polygon fill="#ffffff" stroke="transparent" points="-4,4 -4,-139 627.676,-139 627.676,4 -4,4"/>
<!-- Node0 -->
<g id="node1" class="node">
<title>Node0</title>
<polygon fill="#bfbfbf" stroke="#000000" points="292.7205,-114.5 292.7205,-134.5 393.1775,-134.5 393.1775,-114.5 292.7205,-114.5"/>
<text text-anchor="middle" x="342.949" y="-121.5" font-family="Helvetica,sans-Serif" font-size="10.00" fill="#000000">ManagerPRUs.cpp</text>
</g>
<!-- Node1 -->
<g id="node2" class="node">
<title>Node1</title>
<g id="a_node2"><a xlink:href="ManagerPRUs_8h.html" target="_top" xlink:title="ManagerPRUs.h">
<polygon fill="#ffffff" stroke="#000000" points="0,-57.5 0,-77.5 89.898,-77.5 89.898,-57.5 0,-57.5"/>
<text text-anchor="middle" x="44.949" y="-64.5" font-family="Helvetica,sans-Serif" font-size="10.00" fill="#000000">ManagerPRUs.h</text>
</a>
</g>
</g>
<!-- Node0&#45;&gt;Node1 -->
<g id="edge1" class="edge">
<title>Node0&#45;&gt;Node1</title>
<path fill="none" stroke="#191970" d="M292.4689,-114.9367C245.3359,-105.9947 172.7409,-92.1895 100.2528,-78.2462"/>
<polygon fill="#191970" stroke="#191970" points="100.5091,-74.7314 90.0278,-76.2784 99.1861,-81.6053 100.5091,-74.7314"/>
</g>
<!-- Node3 -->
<g id="node4" class="node">
<title>Node3</title>
<g id="a_node4"><a xlink:href="PRUDefinitions_8h.html" target="_top" xlink:title="PRUDefinitions.h">
<polygon fill="#ffffff" stroke="#000000" points="107.8915,-57.5 107.8915,-77.5 200.0065,-77.5 200.0065,-57.5 107.8915,-57.5"/>
<text text-anchor="middle" x="153.949" y="-64.5" font-family="Helvetica,sans-Serif" font-size="10.00" fill="#000000">PRUDefinitions.h</text>
</a>
</g>
</g>
<!-- Node0&#45;&gt;Node3 -->
<g id="edge3" class="edge">
<title>Node0&#45;&gt;Node3</title>
<path fill="none" stroke="#191970" d="M309.5947,-114.4408C278.2478,-104.9869 231.1701,-90.7889 197.0011,-80.484"/>
<polygon fill="#191970" stroke="#191970" points="197.8719,-77.091 187.2872,-77.5544 195.8507,-83.7928 197.8719,-77.091"/>
</g>
<!-- Node4 -->
<g id="node5" class="node">
<title>Node4</title>
<polygon fill="#ffffff" stroke="#bfbfbf" points="217.612,-57.5 217.612,-77.5 260.286,-77.5 260.286,-57.5 217.612,-57.5"/>
<text text-anchor="middle" x="238.949" y="-64.5" font-family="Helvetica,sans-Serif" font-size="10.00" fill="#000000">fcntl.h</text>
</g>
<!-- Node0&#45;&gt;Node4 -->
<g id="edge4" class="edge">
<title>Node0&#45;&gt;Node4</title>
<path fill="none" stroke="#191970" d="M324.3559,-114.3095C308.2358,-105.4745 284.6879,-92.5684 266.3987,-82.5445"/>
<polygon fill="#191970" stroke="#191970" points="267.8326,-79.3393 257.3811,-77.6022 264.4682,-85.4778 267.8326,-79.3393"/>
</g>
<!-- Node5 -->
<g id="node6" class="node">
<title>Node5</title>
<polygon fill="#ffffff" stroke="#bfbfbf" points="278.4425,-57.5 278.4425,-77.5 329.4555,-77.5 329.4555,-57.5 278.4425,-57.5"/>
<text text-anchor="middle" x="303.949" y="-64.5" font-family="Helvetica,sans-Serif" font-size="10.00" fill="#000000">unistd.h</text>
</g>
<!-- Node0&#45;&gt;Node5 -->
<g id="edge5" class="edge">
<title>Node0&#45;&gt;Node5</title>
<path fill="none" stroke="#191970" d="M335.9766,-114.3095C330.5971,-106.4472 323.0116,-95.3608 316.5732,-85.9507"/>
<polygon fill="#191970" stroke="#191970" points="319.3965,-83.8789 310.8611,-77.6022 313.6194,-87.8317 319.3965,-83.8789"/>
</g>
<!-- Node6 -->
<g id="node7" class="node">
<title>Node6</title>
<polygon fill="#ffffff" stroke="#bfbfbf" points="347.0025,-57.5 347.0025,-77.5 416.8955,-77.5 416.8955,-57.5 347.0025,-57.5"/>
<text text-anchor="middle" x="381.949" y="-64.5" font-family="Helvetica,sans-Serif" font-size="10.00" fill="#000000">sys/mman.h</text>
</g>
<!-- Node0&#45;&gt;Node6 -->
<g id="edge6" class="edge">
<title>Node0&#45;&gt;Node6</title>
<path fill="none" stroke="#191970" d="M349.9214,-114.3095C355.3009,-106.4472 362.8864,-95.3608 369.3248,-85.9507"/>
<polygon fill="#191970" stroke="#191970" points="372.2786,-87.8317 375.0369,-77.6022 366.5015,-83.8789 372.2786,-87.8317"/>
</g>
<!-- Node7 -->
<g id="node8" class="node">
<title>Node7</title>
<polygon fill="#ffffff" stroke="#bfbfbf" points="434.5575,-57.5 434.5575,-77.5 483.3405,-77.5 483.3405,-57.5 434.5575,-57.5"/>
<text text-anchor="middle" x="458.949" y="-64.5" font-family="Helvetica,sans-Serif" font-size="10.00" fill="#000000">string.h</text>
</g>
<!-- Node0&#45;&gt;Node7 -->
<g id="edge7" class="edge">
<title>Node0&#45;&gt;Node7</title>
<path fill="none" stroke="#191970" d="M363.4204,-114.4408C381.6951,-105.461 408.6807,-92.2008 429.3133,-82.0624"/>
<polygon fill="#191970" stroke="#191970" points="430.8606,-85.2019 438.292,-77.6504 427.7734,-78.9193 430.8606,-85.2019"/>
</g>
<!-- Node8 -->
<g id="node9" class="node">
<title>Node8</title>
<polygon fill="#ffffff" stroke="#bfbfbf" points="501.552,-57.5 501.552,-77.5 560.346,-77.5 560.346,-57.5 501.552,-57.5"/>
<text text-anchor="middle" x="530.949" y="-64.5" font-family="Helvetica,sans-Serif" font-size="10.00" fill="#000000">stdexcept</text>
</g>
<!-- Node0&#45;&gt;Node8 -->
<g id="edge8" class="edge">
<title>Node0&#45;&gt;Node8</title>
<path fill="none" stroke="#191970" d="M376.1269,-114.4408C408.4592,-104.6379 457.6159,-89.734 491.8356,-79.3588"/>
<polygon fill="#191970" stroke="#191970" points="492.9479,-82.679 501.5022,-76.428 490.9168,-75.9802 492.9479,-82.679"/>
</g>
<!-- Node9 -->
<g id="node10" class="node">
<title>Node9</title>
<polygon fill="#ffffff" stroke="#bfbfbf" points="578.222,-57.5 578.222,-77.5 623.676,-77.5 623.676,-57.5 578.222,-57.5"/>
<text text-anchor="middle" x="600.949" y="-64.5" font-family="Helvetica,sans-Serif" font-size="10.00" fill="#000000">stdio.h</text>
</g>
<!-- Node0&#45;&gt;Node9 -->
<g id="edge9" class="edge">
<title>Node0&#45;&gt;Node9</title>
<path fill="none" stroke="#191970" d="M393.6002,-115.7892C437.4092,-107.871 502.585,-95.1745 567.9121,-78.0582"/>
<polygon fill="#191970" stroke="#191970" points="569.2041,-81.3365 577.971,-75.3873 567.4077,-74.5709 569.2041,-81.3365"/>
</g>
<!-- Node2 -->
<g id="node3" class="node">
<title>Node2</title>
<polygon fill="#ffffff" stroke="#bfbfbf" points="20.8325,-.5 20.8325,-20.5 69.0655,-20.5 69.0655,-.5 20.8325,-.5"/>
<text text-anchor="middle" x="44.949" y="-7.5" font-family="Helvetica,sans-Serif" font-size="10.00" fill="#000000">stdint.h</text>
</g>
<!-- Node1&#45;&gt;Node2 -->
<g id="edge2" class="edge">
<title>Node1&#45;&gt;Node2</title>
<path fill="none" stroke="#191970" d="M44.949,-57.3095C44.949,-49.9335 44.949,-39.72 44.949,-30.715"/>
<polygon fill="#191970" stroke="#191970" points="48.4491,-30.6022 44.949,-20.6022 41.4491,-30.6023 48.4491,-30.6022"/>
</g>
</g>
</svg>
