<?xml version="1.0" encoding="UTF-8" standalone="no"?>
<!DOCTYPE svg PUBLIC "-//W3C//DTD SVG 1.1//EN"
 "http://www.w3.org/Graphics/SVG/1.1/DTD/svg11.dtd">
<!-- Generated by graphviz version 2.40.1 (20161225.0304)
 -->
<!-- Title: MotorControl.cpp Pages: 1 -->
<svg width="516pt" height="200pt"
 viewBox="0.00 0.00 515.68 200.00" xmlns="http://www.w3.org/2000/svg" xmlns:xlink="http://www.w3.org/1999/xlink">
<g id="graph0" class="graph" transform="scale(1 1) rotate(0) translate(4 196)">
<title>MotorControl.cpp</title>
<polygon fill="#ffffff" stroke="transparent" points="-4,4 -4,-196 511.6829,-196 511.6829,4 -4,4"/>
<!-- Node0 -->
<g id="node1" class="node">
<title>Node0</title>
<polygon fill="#bfbfbf" stroke="#000000" points="164.6174,-171.5 164.6174,-191.5 257.2924,-191.5 257.2924,-171.5 164.6174,-171.5"/>
<text text-anchor="middle" x="210.9549" y="-178.5" font-family="Helvetica,sans-Serif" font-size="10.00" fill="#000000">MotorControl.cpp</text>
</g>
<!-- Node1 -->
<g id="node2" class="node">
<title>Node1</title>
<g id="a_node2"><a xlink:href="MotorControl_8h.html" target="_top" xlink:title="MotorControl.h">
<polygon fill="#ffffff" stroke="#000000" points="321.8969,-114.5 321.8969,-134.5 404.0129,-134.5 404.0129,-114.5 321.8969,-114.5"/>
<text text-anchor="middle" x="362.9549" y="-121.5" font-family="Helvetica,sans-Serif" font-size="10.00" fill="#000000">MotorControl.h</text>
</a>
</g>
</g>
<!-- Node0&#45;&gt;Node1 -->
<g id="edge1" class="edge">
<title>Node0&#45;&gt;Node1</title>
<path fill="none" stroke="#191970" d="M237.7795,-171.4408C262.4487,-162.1898 299.232,-148.3961 326.5478,-138.1527"/>
<polygon fill="#191970" stroke="#191970" points="328.0088,-141.3428 336.1432,-134.5544 325.5509,-134.7885 328.0088,-141.3428"/>
</g>
<!-- Node6 -->
<g id="node7" class="node">
<title>Node6</title>
<polygon fill="#ffffff" stroke="#bfbfbf" points="101.2279,-.5 101.2279,-20.5 146.6819,-20.5 146.6819,-.5 101.2279,-.5"/>
<text text-anchor="middle" x="123.9549" y="-7.5" font-family="Helvetica,sans-Serif" font-size="10.00" fill="#000000">stdio.h</text>
</g>
<!-- Node0&#45;&gt;Node6 -->
<g id="edge9" class="edge">
<title>Node0&#45;&gt;Node6</title>
<path fill="none" stroke="#191970" d="M164.3312,-177.3854C110.8315,-171.5854 28.0044,-158.9329 8.9549,-135 -24.4906,-92.9807 48.2102,-47.5928 92.7021,-24.9985"/>
<polygon fill="#191970" stroke="#191970" points="94.3117,-28.1071 101.7196,-20.5325 91.205,-21.8342 94.3117,-28.1071"/>
</g>
<!-- Node7 -->
<g id="node8" class="node">
<title>Node7</title>
<polygon fill="#ffffff" stroke="#bfbfbf" points="126.3419,-114.5 126.3419,-134.5 169.5679,-134.5 169.5679,-114.5 126.3419,-114.5"/>
<text text-anchor="middle" x="147.9549" y="-121.5" font-family="Helvetica,sans-Serif" font-size="10.00" fill="#000000">cmath</text>
</g>
<!-- Node0&#45;&gt;Node7 -->
<g id="edge7" class="edge">
<title>Node0&#45;&gt;Node7</title>
<path fill="none" stroke="#191970" d="M199.6917,-171.3095C190.5538,-163.0419 177.4757,-151.2093 166.7549,-141.5096"/>
<polygon fill="#191970" stroke="#191970" points="168.8841,-138.716 159.1205,-134.6022 164.1877,-143.9068 168.8841,-138.716"/>
</g>
<!-- Node8 -->
<g id="node9" class="node">
<title>Node8</title>
<polygon fill="#ffffff" stroke="#bfbfbf" points="187.6729,-114.5 187.6729,-134.5 234.2369,-134.5 234.2369,-114.5 187.6729,-114.5"/>
<text text-anchor="middle" x="210.9549" y="-121.5" font-family="Helvetica,sans-Serif" font-size="10.00" fill="#000000">math.h</text>
</g>
<!-- Node0&#45;&gt;Node8 -->
<g id="edge8" class="edge">
<title>Node0&#45;&gt;Node8</title>
<path fill="none" stroke="#191970" d="M210.9549,-171.3095C210.9549,-163.9335 210.9549,-153.72 210.9549,-144.715"/>
<polygon fill="#191970" stroke="#191970" points="214.455,-144.6022 210.9549,-134.6022 207.455,-144.6023 214.455,-144.6022"/>
</g>
<!-- Node9 -->
<g id="node10" class="node">
<title>Node9</title>
<polygon fill="#ffffff" stroke="#bfbfbf" points="252.4484,-114.5 252.4484,-134.5 303.4614,-134.5 303.4614,-114.5 252.4484,-114.5"/>
<text text-anchor="middle" x="277.9549" y="-121.5" font-family="Helvetica,sans-Serif" font-size="10.00" fill="#000000">unistd.h</text>
</g>
<!-- Node0&#45;&gt;Node9 -->
<g id="edge10" class="edge">
<title>Node0&#45;&gt;Node9</title>
<path fill="none" stroke="#191970" d="M222.9331,-171.3095C232.7465,-162.9608 246.8329,-150.9769 258.2958,-141.2249"/>
<polygon fill="#191970" stroke="#191970" points="260.7317,-143.7479 266.0803,-134.6022 256.1958,-138.4162 260.7317,-143.7479"/>
</g>
<!-- Node10 -->
<g id="node11" class="node">
<title>Node10</title>
<g id="a_node11"><a xlink:href="ManagerPRUs_8h.html" target="_top" xlink:title="ManagerPRUs.h">
<polygon fill="#ffffff" stroke="#000000" points="18.0059,-114.5 18.0059,-134.5 107.9039,-134.5 107.9039,-114.5 18.0059,-114.5"/>
<text text-anchor="middle" x="62.9549" y="-121.5" font-family="Helvetica,sans-Serif" font-size="10.00" fill="#000000">ManagerPRUs.h</text>
</a>
</g>
</g>
<!-- Node0&#45;&gt;Node10 -->
<g id="edge11" class="edge">
<title>Node0&#45;&gt;Node10</title>
<path fill="none" stroke="#191970" d="M184.8361,-171.4408C160.89,-162.2183 125.2211,-148.4809 98.6497,-138.2473"/>
<polygon fill="#191970" stroke="#191970" points="99.9001,-134.9784 89.3103,-134.6504 97.3843,-141.5106 99.9001,-134.9784"/>
</g>
<!-- Node11 -->
<g id="node12" class="node">
<title>Node11</title>
<g id="a_node12"><a xlink:href="ThreadHelper_8h.html" target="_top" xlink:title="ThreadHelper.h">
<polygon fill="#ffffff" stroke="#000000" points="422.2269,-114.5 422.2269,-134.5 507.6829,-134.5 507.6829,-114.5 422.2269,-114.5"/>
<text text-anchor="middle" x="464.9549" y="-121.5" font-family="Helvetica,sans-Serif" font-size="10.00" fill="#000000">ThreadHelper.h</text>
</a>
</g>
</g>
<!-- Node0&#45;&gt;Node11 -->
<g id="edge13" class="edge">
<title>Node0&#45;&gt;Node11</title>
<path fill="none" stroke="#191970" d="M255.7803,-171.4408C299.433,-161.6447 365.785,-146.7547 412.0139,-136.3805"/>
<polygon fill="#191970" stroke="#191970" points="412.8572,-139.7783 421.8481,-134.1736 411.3244,-132.9482 412.8572,-139.7783"/>
</g>
<!-- Node2 -->
<g id="node3" class="node">
<title>Node2</title>
<polygon fill="#ffffff" stroke="#bfbfbf" points="67.8384,-57.5 67.8384,-77.5 116.0714,-77.5 116.0714,-57.5 67.8384,-57.5"/>
<text text-anchor="middle" x="91.9549" y="-64.5" font-family="Helvetica,sans-Serif" font-size="10.00" fill="#000000">stdint.h</text>
</g>
<!-- Node1&#45;&gt;Node2 -->
<g id="edge2" class="edge">
<title>Node1&#45;&gt;Node2</title>
<path fill="none" stroke="#191970" d="M321.7958,-115.8429C268.2983,-104.5907 175.851,-85.146 126.0648,-74.6744"/>
<polygon fill="#191970" stroke="#191970" points="126.6242,-71.2156 116.1179,-72.5822 125.1833,-78.0657 126.6242,-71.2156"/>
</g>
<!-- Node3 -->
<g id="node4" class="node">
<title>Node3</title>
<polygon fill="#ffffff" stroke="#bfbfbf" points="384.8344,-57.5 384.8344,-77.5 443.0754,-77.5 443.0754,-57.5 384.8344,-57.5"/>
<text text-anchor="middle" x="413.9549" y="-64.5" font-family="Helvetica,sans-Serif" font-size="10.00" fill="#000000">pthread.h</text>
</g>
<!-- Node1&#45;&gt;Node3 -->
<g id="edge3" class="edge">
<title>Node1&#45;&gt;Node3</title>
<path fill="none" stroke="#191970" d="M372.0727,-114.3095C379.325,-106.204 389.6431,-94.672 398.2231,-85.0826"/>
<polygon fill="#191970" stroke="#191970" points="400.8564,-87.3885 404.916,-77.6022 395.6397,-82.7209 400.8564,-87.3885"/>
</g>
<!-- Node4 -->
<g id="node5" class="node">
<title>Node4</title>
<g id="a_node5"><a xlink:href="LinearConverter_8h.html" target="_top" xlink:title="LinearConverter.h">
<polygon fill="#ffffff" stroke="#000000" points="190.9479,-57.5 190.9479,-77.5 286.9619,-77.5 286.9619,-57.5 190.9479,-57.5"/>
<text text-anchor="middle" x="238.9549" y="-64.5" font-family="Helvetica,sans-Serif" font-size="10.00" fill="#000000">LinearConverter.h</text>
</a>
</g>
</g>
<!-- Node1&#45;&gt;Node4 -->
<g id="edge4" class="edge">
<title>Node1&#45;&gt;Node4</title>
<path fill="none" stroke="#191970" d="M341.0716,-114.4408C321.4486,-105.4205 292.4299,-92.0813 270.3368,-81.9255"/>
<polygon fill="#191970" stroke="#191970" points="271.5844,-78.647 261.0365,-77.6504 268.6607,-85.0072 271.5844,-78.647"/>
</g>
<!-- Node5 -->
<g id="node6" class="node">
<title>Node5</title>
<g id="a_node6"><a xlink:href="Range_8h.html" target="_top" xlink:title="Range.h">
<polygon fill="#ffffff" stroke="#000000" points="212.0584,-.5 212.0584,-20.5 265.8514,-20.5 265.8514,-.5 212.0584,-.5"/>
<text text-anchor="middle" x="238.9549" y="-7.5" font-family="Helvetica,sans-Serif" font-size="10.00" fill="#000000">Range.h</text>
</a>
</g>
</g>
<!-- Node4&#45;&gt;Node5 -->
<g id="edge5" class="edge">
<title>Node4&#45;&gt;Node5</title>
<path fill="none" stroke="#191970" d="M238.9549,-57.3095C238.9549,-49.9335 238.9549,-39.72 238.9549,-30.715"/>
<polygon fill="#191970" stroke="#191970" points="242.455,-30.6022 238.9549,-20.6022 235.455,-30.6023 242.455,-30.6022"/>
</g>
<!-- Node4&#45;&gt;Node6 -->
<g id="edge6" class="edge">
<title>Node4&#45;&gt;Node6</title>
<path fill="none" stroke="#191970" d="M218.6599,-57.4408C200.6244,-48.5014 174.0307,-35.3202 153.6119,-25.1996"/>
<polygon fill="#191970" stroke="#191970" points="154.948,-21.9555 144.4338,-20.6504 151.8393,-28.2273 154.948,-21.9555"/>
</g>
<!-- Node10&#45;&gt;Node2 -->
<g id="edge12" class="edge">
<title>Node10&#45;&gt;Node2</title>
<path fill="none" stroke="#191970" d="M68.1395,-114.3095C72.0572,-106.6093 77.5482,-95.8166 82.2705,-86.5349"/>
<polygon fill="#191970" stroke="#191970" points="85.4,-88.1021 86.8152,-77.6022 79.161,-84.9279 85.4,-88.1021"/>
</g>
<!-- Node11&#45;&gt;Node3 -->
<g id="edge14" class="edge">
<title>Node11&#45;&gt;Node3</title>
<path fill="none" stroke="#191970" d="M455.8371,-114.3095C448.5848,-106.204 438.2666,-94.672 429.6866,-85.0826"/>
<polygon fill="#191970" stroke="#191970" points="432.2701,-82.7209 422.9937,-77.6022 427.0534,-87.3885 432.2701,-82.7209"/>
</g>
</g>
</svg>
