<?xml version="1.0" encoding="UTF-8" standalone="no"?>
<!DOCTYPE svg PUBLIC "-//W3C//DTD SVG 1.1//EN"
 "http://www.w3.org/Graphics/SVG/1.1/DTD/svg11.dtd">
<!-- Generated by graphviz version 2.40.1 (20161225.0304)
 -->
<!-- Title: MotorControl.cpp Pages: 1 -->
<svg width="561pt" height="200pt"
 viewBox="0.00 0.00 560.68 200.00" xmlns="http://www.w3.org/2000/svg" xmlns:xlink="http://www.w3.org/1999/xlink">
<g id="graph0" class="graph" transform="scale(1 1) rotate(0) translate(4 196)">
<title>MotorControl.cpp</title>
<polygon fill="#ffffff" stroke="transparent" points="-4,4 -4,-196 556.677,-196 556.677,4 -4,4"/>
<!-- Node0 -->
<g id="node1" class="node">
<title>Node0</title>
<polygon fill="#bfbfbf" stroke="#000000" points="210.6115,-171.5 210.6115,-191.5 303.2865,-191.5 303.2865,-171.5 210.6115,-171.5"/>
<text text-anchor="middle" x="256.949" y="-178.5" font-family="Helvetica,sans-Serif" font-size="10.00" fill="#000000">MotorControl.cpp</text>
</g>
<!-- Node1 -->
<g id="node2" class="node">
<title>Node1</title>
<g id="a_node2"><a xlink:href="MotorControl_8h.html" target="_top" xlink:title="MotorControl.h">
<polygon fill="#ffffff" stroke="#000000" points="366.891,-114.5 366.891,-134.5 449.007,-134.5 449.007,-114.5 366.891,-114.5"/>
<text text-anchor="middle" x="407.949" y="-121.5" font-family="Helvetica,sans-Serif" font-size="10.00" fill="#000000">MotorControl.h</text>
</a>
</g>
</g>
<!-- Node0&#45;&gt;Node1 -->
<g id="edge1" class="edge">
<title>Node0&#45;&gt;Node1</title>
<path fill="none" stroke="#191970" d="M283.5972,-171.4408C308.1041,-162.1898 344.6454,-148.3961 371.7814,-138.1527"/>
<polygon fill="#191970" stroke="#191970" points="373.1941,-141.3605 381.3137,-134.5544 370.722,-134.8116 373.1941,-141.3605"/>
</g>
<!-- Node6 -->
<g id="node7" class="node">
<title>Node6</title>
<polygon fill="#ffffff" stroke="#bfbfbf" points="108.336,-114.5 108.336,-134.5 151.562,-134.5 151.562,-114.5 108.336,-114.5"/>
<text text-anchor="middle" x="129.949" y="-121.5" font-family="Helvetica,sans-Serif" font-size="10.00" fill="#000000">cmath</text>
</g>
<!-- Node0&#45;&gt;Node6 -->
<g id="edge6" class="edge">
<title>Node0&#45;&gt;Node6</title>
<path fill="none" stroke="#191970" d="M234.5363,-171.4408C214.0992,-162.2682 183.7113,-148.6296 160.9501,-138.4139"/>
<polygon fill="#191970" stroke="#191970" points="162.2698,-135.1699 151.7134,-134.2683 159.4035,-141.5562 162.2698,-135.1699"/>
</g>
<!-- Node7 -->
<g id="node8" class="node">
<title>Node7</title>
<polygon fill="#ffffff" stroke="#bfbfbf" points="169.667,-114.5 169.667,-134.5 216.231,-134.5 216.231,-114.5 169.667,-114.5"/>
<text text-anchor="middle" x="192.949" y="-121.5" font-family="Helvetica,sans-Serif" font-size="10.00" fill="#000000">math.h</text>
</g>
<!-- Node0&#45;&gt;Node7 -->
<g id="edge7" class="edge">
<title>Node0&#45;&gt;Node7</title>
<path fill="none" stroke="#191970" d="M245.5071,-171.3095C236.2241,-163.0419 222.9384,-151.2093 212.0475,-141.5096"/>
<polygon fill="#191970" stroke="#191970" points="214.0874,-138.6395 204.2919,-134.6022 209.4317,-143.8668 214.0874,-138.6395"/>
</g>
<!-- Node8 -->
<g id="node9" class="node">
<title>Node8</title>
<polygon fill="#ffffff" stroke="#bfbfbf" points="234.222,-114.5 234.222,-134.5 279.676,-134.5 279.676,-114.5 234.222,-114.5"/>
<text text-anchor="middle" x="256.949" y="-121.5" font-family="Helvetica,sans-Serif" font-size="10.00" fill="#000000">stdio.h</text>
</g>
<!-- Node0&#45;&gt;Node8 -->
<g id="edge8" class="edge">
<title>Node0&#45;&gt;Node8</title>
<path fill="none" stroke="#191970" d="M256.949,-171.3095C256.949,-163.9335 256.949,-153.72 256.949,-144.715"/>
<polygon fill="#191970" stroke="#191970" points="260.4491,-144.6022 256.949,-134.6022 253.4491,-144.6023 260.4491,-144.6022"/>
</g>
<!-- Node9 -->
<g id="node10" class="node">
<title>Node9</title>
<polygon fill="#ffffff" stroke="#bfbfbf" points="297.4425,-114.5 297.4425,-134.5 348.4555,-134.5 348.4555,-114.5 297.4425,-114.5"/>
<text text-anchor="middle" x="322.949" y="-121.5" font-family="Helvetica,sans-Serif" font-size="10.00" fill="#000000">unistd.h</text>
</g>
<!-- Node0&#45;&gt;Node9 -->
<g id="edge9" class="edge">
<title>Node0&#45;&gt;Node9</title>
<path fill="none" stroke="#191970" d="M268.7485,-171.3095C278.4154,-162.9608 292.2915,-150.9769 303.5833,-141.2249"/>
<polygon fill="#191970" stroke="#191970" points="305.9711,-143.7874 311.2517,-134.6022 301.3957,-138.4896 305.9711,-143.7874"/>
</g>
<!-- Node10 -->
<g id="node11" class="node">
<title>Node10</title>
<g id="a_node11"><a xlink:href="ManagerPRUs_8h.html" target="_top" xlink:title="ManagerPRUs.h">
<polygon fill="#ffffff" stroke="#000000" points="0,-114.5 0,-134.5 89.898,-134.5 89.898,-114.5 0,-114.5"/>
<text text-anchor="middle" x="44.949" y="-121.5" font-family="Helvetica,sans-Serif" font-size="10.00" fill="#000000">ManagerPRUs.h</text>
</a>
</g>
</g>
<!-- Node0&#45;&gt;Node10 -->
<g id="edge10" class="edge">
<title>Node0&#45;&gt;Node10</title>
<path fill="none" stroke="#191970" d="M219.5357,-171.4408C184.0723,-161.9058 130.6595,-147.5448 92.2565,-137.2195"/>
<polygon fill="#191970" stroke="#191970" points="92.9101,-133.771 82.3443,-134.5544 91.0925,-140.5309 92.9101,-133.771"/>
</g>
<!-- Node11 -->
<g id="node12" class="node">
<title>Node11</title>
<g id="a_node12"><a xlink:href="ThreadHelper_8h.html" target="_top" xlink:title="ThreadHelper.h">
<polygon fill="#ffffff" stroke="#000000" points="467.221,-114.5 467.221,-134.5 552.677,-134.5 552.677,-114.5 467.221,-114.5"/>
<text text-anchor="middle" x="509.949" y="-121.5" font-family="Helvetica,sans-Serif" font-size="10.00" fill="#000000">ThreadHelper.h</text>
</a>
</g>
</g>
<!-- Node0&#45;&gt;Node11 -->
<g id="edge12" class="edge">
<title>Node0&#45;&gt;Node11</title>
<path fill="none" stroke="#191970" d="M301.5979,-171.4408C345.0788,-161.6447 411.1696,-146.7547 457.2165,-136.3805"/>
<polygon fill="#191970" stroke="#191970" points="458.0258,-139.7859 467.012,-134.1736 456.4872,-132.9571 458.0258,-139.7859"/>
</g>
<!-- Node2 -->
<g id="node3" class="node">
<title>Node2</title>
<polygon fill="#ffffff" stroke="#bfbfbf" points="157.8325,-57.5 157.8325,-77.5 206.0655,-77.5 206.0655,-57.5 157.8325,-57.5"/>
<text text-anchor="middle" x="181.949" y="-64.5" font-family="Helvetica,sans-Serif" font-size="10.00" fill="#000000">stdint.h</text>
</g>
<!-- Node1&#45;&gt;Node2 -->
<g id="edge2" class="edge">
<title>Node1&#45;&gt;Node2</title>
<path fill="none" stroke="#191970" d="M368.065,-114.4408C324.8419,-103.5394 256.607,-86.3297 215.8693,-76.0551"/>
<polygon fill="#191970" stroke="#191970" points="216.689,-72.6523 206.1366,-73.6004 214.977,-79.4398 216.689,-72.6523"/>
</g>
<!-- Node3 -->
<g id="node4" class="node">
<title>Node3</title>
<polygon fill="#ffffff" stroke="#bfbfbf" points="476.8285,-57.5 476.8285,-77.5 535.0695,-77.5 535.0695,-57.5 476.8285,-57.5"/>
<text text-anchor="middle" x="505.949" y="-64.5" font-family="Helvetica,sans-Serif" font-size="10.00" fill="#000000">pthread.h</text>
</g>
<!-- Node1&#45;&gt;Node3 -->
<g id="edge3" class="edge">
<title>Node1&#45;&gt;Node3</title>
<path fill="none" stroke="#191970" d="M425.4694,-114.3095C440.5202,-105.5556 462.4423,-92.8049 479.6074,-82.8211"/>
<polygon fill="#191970" stroke="#191970" points="481.6958,-85.6555 488.5802,-77.6022 478.1763,-79.6046 481.6958,-85.6555"/>
</g>
<!-- Node4 -->
<g id="node5" class="node">
<title>Node4</title>
<g id="a_node5"><a xlink:href="LinearConverter_8h.html" target="_top" xlink:title="LinearConverter.h">
<polygon fill="#ffffff" stroke="#000000" points="359.942,-57.5 359.942,-77.5 455.956,-77.5 455.956,-57.5 359.942,-57.5"/>
<text text-anchor="middle" x="407.949" y="-64.5" font-family="Helvetica,sans-Serif" font-size="10.00" fill="#000000">LinearConverter.h</text>
</a>
</g>
</g>
<!-- Node1&#45;&gt;Node4 -->
<g id="edge4" class="edge">
<title>Node1&#45;&gt;Node4</title>
<path fill="none" stroke="#191970" d="M407.949,-114.3095C407.949,-106.9335 407.949,-96.72 407.949,-87.715"/>
<polygon fill="#191970" stroke="#191970" points="411.4491,-87.6022 407.949,-77.6022 404.4491,-87.6023 411.4491,-87.6022"/>
</g>
<!-- Node5 -->
<g id="node6" class="node">
<title>Node5</title>
<g id="a_node6"><a xlink:href="Range_8h.html" target="_top" xlink:title="Range.h">
<polygon fill="#ffffff" stroke="#000000" points="381.0525,-.5 381.0525,-20.5 434.8455,-20.5 434.8455,-.5 381.0525,-.5"/>
<text text-anchor="middle" x="407.949" y="-7.5" font-family="Helvetica,sans-Serif" font-size="10.00" fill="#000000">Range.h</text>
</a>
</g>
</g>
<!-- Node4&#45;&gt;Node5 -->
<g id="edge5" class="edge">
<title>Node4&#45;&gt;Node5</title>
<path fill="none" stroke="#191970" d="M407.949,-57.3095C407.949,-49.9335 407.949,-39.72 407.949,-30.715"/>
<polygon fill="#191970" stroke="#191970" points="411.4491,-30.6022 407.949,-20.6022 404.4491,-30.6023 411.4491,-30.6022"/>
</g>
<!-- Node10&#45;&gt;Node2 -->
<g id="edge11" class="edge">
<title>Node10&#45;&gt;Node2</title>
<path fill="none" stroke="#191970" d="M69.1265,-114.4408C91.0984,-105.2992 123.7322,-91.7216 148.258,-81.5174"/>
<polygon fill="#191970" stroke="#191970" points="149.6641,-84.7233 157.5524,-77.6504 146.9751,-78.2604 149.6641,-84.7233"/>
</g>
<!-- Node11&#45;&gt;Node3 -->
<g id="edge13" class="edge">
<title>Node11&#45;&gt;Node3</title>
<path fill="none" stroke="#191970" d="M509.2339,-114.3095C508.7163,-106.9335 507.9995,-96.72 507.3676,-87.715"/>
<polygon fill="#191970" stroke="#191970" points="510.8495,-87.3327 506.6579,-77.6022 503.8666,-87.8227 510.8495,-87.3327"/>
</g>
</g>
</svg>
