<?xml version="1.0" encoding="UTF-8" standalone="no"?>
<!DOCTYPE svg PUBLIC "-//W3C//DTD SVG 1.1//EN"
 "http://www.w3.org/Graphics/SVG/1.1/DTD/svg11.dtd">
<!-- Generated by graphviz version 2.40.1 (20161225.0304)
 -->
<!-- Title: MotorControl.h Pages: 1 -->
<svg width="207pt" height="143pt"
 viewBox="0.00 0.00 206.96 143.00" xmlns="http://www.w3.org/2000/svg" xmlns:xlink="http://www.w3.org/1999/xlink">
<g id="graph0" class="graph" transform="scale(1 1) rotate(0) translate(4 139)">
<title>MotorControl.h</title>
<polygon fill="#ffffff" stroke="transparent" points="-4,4 -4,-139 202.9555,-139 202.9555,4 -4,4"/>
<!-- Node6 -->
<g id="node1" class="node">
<title>Node6</title>
<polygon fill="#bfbfbf" stroke="#000000" points="58.56,-114.5 58.56,-134.5 140.676,-134.5 140.676,-114.5 58.56,-114.5"/>
<text text-anchor="middle" x="99.618" y="-121.5" font-family="Helvetica,sans-Serif" font-size="10.00" fill="#000000">MotorControl.h</text>
</g>
<!-- Node7 -->
<g id="node2" class="node">
<title>Node7</title>
<g id="a_node2"><a xlink:href="ServoControl_8h.html" target="_top" xlink:title="ServoControl.h">
<polygon fill="#ffffff" stroke="#000000" points="5.2795,-57.5 5.2795,-77.5 87.9565,-77.5 87.9565,-57.5 5.2795,-57.5"/>
<text text-anchor="middle" x="46.618" y="-64.5" font-family="Helvetica,sans-Serif" font-size="10.00" fill="#000000">ServoControl.h</text>
</a>
</g>
</g>
<!-- Node6&#45;&gt;Node7 -->
<g id="edge1" class="edge">
<title>Node6&#45;&gt;Node7</title>
<path fill="none" stroke="#191970" d="M83.172,-106.8128C74.2425,-97.2094 63.5248,-85.6828 56.0113,-77.6022"/>
<polygon fill="#191970" stroke="#191970" points="80.77,-109.3695 90.1427,-114.3095 85.8964,-104.6028 80.77,-109.3695"/>
</g>
<!-- Node9 -->
<g id="node4" class="node">
<title>Node9</title>
<g id="a_node4"><a xlink:href="MotorControl_8cpp.html" target="_top" xlink:title="MotorControl.cpp">
<polygon fill="#ffffff" stroke="#000000" points="106.2805,-57.5 106.2805,-77.5 198.9555,-77.5 198.9555,-57.5 106.2805,-57.5"/>
<text text-anchor="middle" x="152.618" y="-64.5" font-family="Helvetica,sans-Serif" font-size="10.00" fill="#000000">MotorControl.cpp</text>
</a>
</g>
</g>
<!-- Node6&#45;&gt;Node9 -->
<g id="edge3" class="edge">
<title>Node6&#45;&gt;Node9</title>
<path fill="none" stroke="#191970" d="M116.064,-106.8128C124.9935,-97.2094 135.7112,-85.6828 143.2247,-77.6022"/>
<polygon fill="#191970" stroke="#191970" points="113.3396,-104.6028 109.0933,-114.3095 118.466,-109.3695 113.3396,-104.6028"/>
</g>
<!-- Node8 -->
<g id="node3" class="node">
<title>Node8</title>
<g id="a_node3"><a xlink:href="ServoControl_8cpp.html" target="_top" xlink:title="ServoControl.cpp">
<polygon fill="#ffffff" stroke="#000000" points="0,-.5 0,-20.5 93.236,-20.5 93.236,-.5 0,-.5"/>
<text text-anchor="middle" x="46.618" y="-7.5" font-family="Helvetica,sans-Serif" font-size="10.00" fill="#000000">ServoControl.cpp</text>
</a>
</g>
</g>
<!-- Node7&#45;&gt;Node8 -->
<g id="edge2" class="edge">
<title>Node7&#45;&gt;Node8</title>
<path fill="none" stroke="#191970" d="M46.618,-47.1771C46.618,-38.1625 46.618,-27.9556 46.618,-20.6022"/>
<polygon fill="#191970" stroke="#191970" points="43.1181,-47.3095 46.618,-57.3095 50.1181,-47.3096 43.1181,-47.3095"/>
</g>
</g>
</svg>
