<?xml version="1.0" encoding="UTF-8" standalone="no"?>
<!DOCTYPE svg PUBLIC "-//W3C//DTD SVG 1.1//EN"
 "http://www.w3.org/Graphics/SVG/1.1/DTD/svg11.dtd">
<!-- Generated by graphviz version 2.40.1 (20161225.0304)
 -->
<!-- Title: MotorControl.h Pages: 1 -->
<svg width="246pt" height="143pt"
 viewBox="0.00 0.00 246.12 143.00" xmlns="http://www.w3.org/2000/svg" xmlns:xlink="http://www.w3.org/1999/xlink">
<g id="graph0" class="graph" transform="scale(1 1) rotate(0) translate(4 139)">
<title>MotorControl.h</title>
<polygon fill="#ffffff" stroke="transparent" points="-4,4 -4,-139 242.1235,-139 242.1235,4 -4,4"/>
<!-- Node0 -->
<g id="node1" class="node">
<title>Node0</title>
<polygon fill="#bfbfbf" stroke="#000000" points="54.0585,-114.5 54.0585,-134.5 136.1745,-134.5 136.1745,-114.5 54.0585,-114.5"/>
<text text-anchor="middle" x="95.1165" y="-121.5" font-family="Helvetica,sans-Serif" font-size="10.00" fill="#000000">MotorControl.h</text>
</g>
<!-- Node1 -->
<g id="node2" class="node">
<title>Node1</title>
<polygon fill="#ffffff" stroke="#bfbfbf" points="0,-57.5 0,-77.5 48.233,-77.5 48.233,-57.5 0,-57.5"/>
<text text-anchor="middle" x="24.1165" y="-64.5" font-family="Helvetica,sans-Serif" font-size="10.00" fill="#000000">stdint.h</text>
</g>
<!-- Node0&#45;&gt;Node1 -->
<g id="edge1" class="edge">
<title>Node0&#45;&gt;Node1</title>
<path fill="none" stroke="#191970" d="M82.4231,-114.3095C71.9229,-105.8798 56.8063,-93.7439 44.5963,-83.9415"/>
<polygon fill="#191970" stroke="#191970" points="46.6891,-81.1333 36.7,-77.6022 42.3068,-86.5919 46.6891,-81.1333"/>
</g>
<!-- Node2 -->
<g id="node3" class="node">
<title>Node2</title>
<polygon fill="#ffffff" stroke="#bfbfbf" points="65.996,-57.5 65.996,-77.5 124.237,-77.5 124.237,-57.5 65.996,-57.5"/>
<text text-anchor="middle" x="95.1165" y="-64.5" font-family="Helvetica,sans-Serif" font-size="10.00" fill="#000000">pthread.h</text>
</g>
<!-- Node0&#45;&gt;Node2 -->
<g id="edge2" class="edge">
<title>Node0&#45;&gt;Node2</title>
<path fill="none" stroke="#191970" d="M95.1165,-114.3095C95.1165,-106.9335 95.1165,-96.72 95.1165,-87.715"/>
<polygon fill="#191970" stroke="#191970" points="98.6166,-87.6022 95.1165,-77.6022 91.6166,-87.6023 98.6166,-87.6022"/>
</g>
<!-- Node3 -->
<g id="node4" class="node">
<title>Node3</title>
<g id="a_node4"><a xlink:href="LinearConverter_8h.html" target="_top" xlink:title="LinearConverter.h">
<polygon fill="#ffffff" stroke="#000000" points="142.1095,-57.5 142.1095,-77.5 238.1235,-77.5 238.1235,-57.5 142.1095,-57.5"/>
<text text-anchor="middle" x="190.1165" y="-64.5" font-family="Helvetica,sans-Serif" font-size="10.00" fill="#000000">LinearConverter.h</text>
</a>
</g>
</g>
<!-- Node0&#45;&gt;Node3 -->
<g id="edge3" class="edge">
<title>Node0&#45;&gt;Node3</title>
<path fill="none" stroke="#191970" d="M112.1006,-114.3095C126.6906,-105.5556 147.9417,-92.8049 164.5813,-82.8211"/>
<polygon fill="#191970" stroke="#191970" points="166.5053,-85.7485 173.2794,-77.6022 162.9037,-79.746 166.5053,-85.7485"/>
</g>
<!-- Node4 -->
<g id="node5" class="node">
<title>Node4</title>
<g id="a_node5"><a xlink:href="Range_8h.html" target="_top" xlink:title="Range.h">
<polygon fill="#ffffff" stroke="#000000" points="163.22,-.5 163.22,-20.5 217.013,-20.5 217.013,-.5 163.22,-.5"/>
<text text-anchor="middle" x="190.1165" y="-7.5" font-family="Helvetica,sans-Serif" font-size="10.00" fill="#000000">Range.h</text>
</a>
</g>
</g>
<!-- Node3&#45;&gt;Node4 -->
<g id="edge4" class="edge">
<title>Node3&#45;&gt;Node4</title>
<path fill="none" stroke="#191970" d="M190.1165,-57.3095C190.1165,-49.9335 190.1165,-39.72 190.1165,-30.715"/>
<polygon fill="#191970" stroke="#191970" points="193.6166,-30.6022 190.1165,-20.6022 186.6166,-30.6023 193.6166,-30.6022"/>
</g>
</g>
</svg>
