<?xml version="1.0" encoding="UTF-8" standalone="no"?>
<!DOCTYPE svg PUBLIC "-//W3C//DTD SVG 1.1//EN"
 "http://www.w3.org/Graphics/SVG/1.1/DTD/svg11.dtd">
<!-- Generated by graphviz version 2.40.1 (20161225.0304)
 -->
<!-- Title: Core::IO::enumToString Pages: 1 -->
<svg width="413pt" height="41pt"
 viewBox="0.00 0.00 413.03 41.00" xmlns="http://www.w3.org/2000/svg" xmlns:xlink="http://www.w3.org/1999/xlink">
<g id="graph0" class="graph" transform="scale(1 1) rotate(0) translate(4 37)">
<title>Core::IO::enumToString</title>
<polygon fill="#ffffff" stroke="transparent" points="-4,4 -4,-37 409.032,-37 409.032,4 -4,4"/>
<!-- Node1 -->
<g id="node1" class="node">
<title>Node1</title>
<polygon fill="#bfbfbf" stroke="#000000" points="0,-6.5 0,-26.5 122.128,-26.5 122.128,-6.5 0,-6.5"/>
<text text-anchor="middle" x="61.064" y="-13.5" font-family="Helvetica,sans-Serif" font-size="10.00" fill="#000000">Core::IO::enumToString</text>
</g>
<!-- Node2 -->
<g id="node2" class="node">
<title>Node2</title>
<g id="a_node2"><a xlink:href="classCore_1_1IO_1_1UserLED.html#a05d1f33cbf17cdb0974a06a03f5fbd01" target="_top" xlink:title="UserLED constructs an instance of a user led. ">
<polygon fill="#ffffff" stroke="#000000" points="158.128,-.5 158.128,-32.5 263.58,-32.5 263.58,-.5 158.128,-.5"/>
<text text-anchor="start" x="166.128" y="-19.5" font-family="Helvetica,sans-Serif" font-size="10.00" fill="#000000">Core::IO::UserLED::</text>
<text text-anchor="middle" x="210.854" y="-7.5" font-family="Helvetica,sans-Serif" font-size="10.00" fill="#000000">UserLED</text>
</a>
</g>
</g>
<!-- Node1&#45;&gt;Node2 -->
<g id="edge1" class="edge">
<title>Node1&#45;&gt;Node2</title>
<path fill="none" stroke="#191970" d="M132.4571,-16.5C141.0532,-16.5 149.711,-16.5 157.9761,-16.5"/>
<polygon fill="#191970" stroke="#191970" points="132.4216,-13.0001 122.4215,-16.5 132.4215,-20.0001 132.4216,-13.0001"/>
</g>
<!-- Node3 -->
<g id="node3" class="node">
<title>Node3</title>
<g id="a_node3"><a xlink:href="structCore_1_1IO_1_1UserLED_1_1Setup.html#a72bdd70912a6322aba2da15c28a84fbe" target="_top" xlink:title="Core::IO::UserLED::\lSetup::Setup">
<polygon fill="#ffffff" stroke="#000000" points="299.58,-.5 299.58,-32.5 405.032,-32.5 405.032,-.5 299.58,-.5"/>
<text text-anchor="start" x="307.58" y="-19.5" font-family="Helvetica,sans-Serif" font-size="10.00" fill="#000000">Core::IO::UserLED::</text>
<text text-anchor="middle" x="352.306" y="-7.5" font-family="Helvetica,sans-Serif" font-size="10.00" fill="#000000">Setup::Setup</text>
</a>
</g>
</g>
<!-- Node2&#45;&gt;Node3 -->
<g id="edge2" class="edge">
<title>Node2&#45;&gt;Node3</title>
<path fill="none" stroke="#191970" d="M274.1261,-16.5C282.5721,-16.5 291.1614,-16.5 299.405,-16.5"/>
<polygon fill="#191970" stroke="#191970" points="273.928,-13.0001 263.9279,-16.5 273.9279,-20.0001 273.928,-13.0001"/>
</g>
</g>
</svg>
