<?xml version="1.0" encoding="UTF-8" standalone="no"?>
<!DOCTYPE svg PUBLIC "-//W3C//DTD SVG 1.1//EN"
 "http://www.w3.org/Graphics/SVG/1.1/DTD/svg11.dtd">
<!-- Generated by graphviz version 2.40.1 (20161225.0304)
 -->
<!-- Title: LibBBB::IO::enumToString Pages: 1 -->
<svg width="437pt" height="41pt"
 viewBox="0.00 0.00 436.95 41.00" xmlns="http://www.w3.org/2000/svg" xmlns:xlink="http://www.w3.org/1999/xlink">
<g id="graph0" class="graph" transform="scale(1 1) rotate(0) translate(4 37)">
<title>LibBBB::IO::enumToString</title>
<polygon fill="#ffffff" stroke="transparent" points="-4,4 -4,-37 432.95,-37 432.95,4 -4,4"/>
<!-- Node1 -->
<g id="node1" class="node">
<title>Node1</title>
<polygon fill="#bfbfbf" stroke="#000000" points="0,-6.5 0,-26.5 133.806,-26.5 133.806,-6.5 0,-6.5"/>
<text text-anchor="middle" x="66.903" y="-13.5" font-family="Helvetica,sans-Serif" font-size="10.00" fill="#000000">LibBBB::IO::enumToString</text>
</g>
<!-- Node2 -->
<g id="node2" class="node">
<title>Node2</title>
<g id="a_node2"><a xlink:href="classLibBBB_1_1IO_1_1UserLED.html#a958bf7b3257913811343c7972b7dec52" target="_top" xlink:title="UserLED constructs an instance of a user led. ">
<polygon fill="#ffffff" stroke="#000000" points="169.806,-.5 169.806,-32.5 281.378,-32.5 281.378,-.5 169.806,-.5"/>
<text text-anchor="start" x="177.806" y="-19.5" font-family="Helvetica,sans-Serif" font-size="10.00" fill="#000000">LibBBB::IO::UserLED</text>
<text text-anchor="middle" x="225.592" y="-7.5" font-family="Helvetica,sans-Serif" font-size="10.00" fill="#000000">::UserLED</text>
</a>
</g>
</g>
<!-- Node1&#45;&gt;Node2 -->
<g id="edge1" class="edge">
<title>Node1&#45;&gt;Node2</title>
<path fill="none" stroke="#191970" d="M144.2425,-16.5C152.8289,-16.5 161.4466,-16.5 169.693,-16.5"/>
<polygon fill="#191970" stroke="#191970" points="144.2015,-13.0001 134.2014,-16.5 144.2014,-20.0001 144.2015,-13.0001"/>
</g>
<!-- Node3 -->
<g id="node3" class="node">
<title>Node3</title>
<g id="a_node3"><a xlink:href="structLibBBB_1_1IO_1_1UserLED_1_1Setup.html#a25c259e98aa65d6594d0031eb0463b01" target="_top" xlink:title="LibBBB::IO::UserLED\l::Setup::Setup">
<polygon fill="#ffffff" stroke="#000000" points="317.378,-.5 317.378,-32.5 428.95,-32.5 428.95,-.5 317.378,-.5"/>
<text text-anchor="start" x="325.378" y="-19.5" font-family="Helvetica,sans-Serif" font-size="10.00" fill="#000000">LibBBB::IO::UserLED</text>
<text text-anchor="middle" x="373.164" y="-7.5" font-family="Helvetica,sans-Serif" font-size="10.00" fill="#000000">::Setup::Setup</text>
</a>
</g>
</g>
<!-- Node2&#45;&gt;Node3 -->
<g id="edge2" class="edge">
<title>Node2&#45;&gt;Node3</title>
<path fill="none" stroke="#191970" d="M291.4247,-16.5C300.0612,-16.5 308.8446,-16.5 317.2945,-16.5"/>
<polygon fill="#191970" stroke="#191970" points="291.3827,-13.0001 281.3826,-16.5 291.3826,-20.0001 291.3827,-13.0001"/>
</g>
</g>
</svg>
