<?xml version="1.0" encoding="UTF-8" standalone="no"?>
<!DOCTYPE svg PUBLIC "-//W3C//DTD SVG 1.1//EN"
 "http://www.w3.org/Graphics/SVG/1.1/DTD/svg11.dtd">
<!-- Generated by graphviz version 2.40.1 (20161225.0304)
 -->
<!-- Title: Output.cpp Pages: 1 -->
<svg width="156pt" height="200pt"
 viewBox="0.00 0.00 155.73 200.00" xmlns="http://www.w3.org/2000/svg" xmlns:xlink="http://www.w3.org/1999/xlink">
<g id="graph0" class="graph" transform="scale(1 1) rotate(0) translate(4 196)">
<title>Output.cpp</title>
<polygon fill="#ffffff" stroke="transparent" points="-4,4 -4,-196 151.729,-196 151.729,4 -4,4"/>
<!-- Node0 -->
<g id="node1" class="node">
<title>Node0</title>
<polygon fill="#bfbfbf" stroke="#000000" points="53.767,-171.5 53.767,-191.5 118.678,-191.5 118.678,-171.5 53.767,-171.5"/>
<text text-anchor="middle" x="86.2225" y="-178.5" font-family="Helvetica,sans-Serif" font-size="10.00" fill="#000000">Output.cpp</text>
</g>
<!-- Node1 -->
<g id="node2" class="node">
<title>Node1</title>
<g id="a_node2"><a xlink:href="Output_8h.html" target="_top" xlink:title="Output.h">
<polygon fill="#ffffff" stroke="#000000" points="24.0465,-114.5 24.0465,-134.5 78.3985,-134.5 78.3985,-114.5 24.0465,-114.5"/>
<text text-anchor="middle" x="51.2225" y="-121.5" font-family="Helvetica,sans-Serif" font-size="10.00" fill="#000000">Output.h</text>
</a>
</g>
</g>
<!-- Node0&#45;&gt;Node1 -->
<g id="edge1" class="edge">
<title>Node0&#45;&gt;Node1</title>
<path fill="none" stroke="#191970" d="M79.9652,-171.3095C75.1872,-163.5282 68.4702,-152.589 62.7309,-143.2423"/>
<polygon fill="#191970" stroke="#191970" points="65.6409,-141.2925 57.4256,-134.6022 59.6757,-144.9554 65.6409,-141.2925"/>
</g>
<!-- Node5 -->
<g id="node6" class="node">
<title>Node5</title>
<polygon fill="#ffffff" stroke="#bfbfbf" points="96.716,-114.5 96.716,-134.5 147.729,-134.5 147.729,-114.5 96.716,-114.5"/>
<text text-anchor="middle" x="122.2225" y="-121.5" font-family="Helvetica,sans-Serif" font-size="10.00" fill="#000000">unistd.h</text>
</g>
<!-- Node0&#45;&gt;Node5 -->
<g id="edge5" class="edge">
<title>Node0&#45;&gt;Node5</title>
<path fill="none" stroke="#191970" d="M92.6586,-171.3095C97.5731,-163.5282 104.4821,-152.589 110.3853,-143.2423"/>
<polygon fill="#191970" stroke="#191970" points="113.4614,-144.9261 115.8421,-134.6022 107.5429,-141.1881 113.4614,-144.9261"/>
</g>
<!-- Node2 -->
<g id="node3" class="node">
<title>Node2</title>
<g id="a_node3"><a xlink:href="IOBase_8h.html" target="_top" xlink:title="IOBase.h">
<polygon fill="#ffffff" stroke="#000000" points="22.381,-57.5 22.381,-77.5 80.064,-77.5 80.064,-57.5 22.381,-57.5"/>
<text text-anchor="middle" x="51.2225" y="-64.5" font-family="Helvetica,sans-Serif" font-size="10.00" fill="#000000">IOBase.h</text>
</a>
</g>
</g>
<!-- Node1&#45;&gt;Node2 -->
<g id="edge2" class="edge">
<title>Node1&#45;&gt;Node2</title>
<path fill="none" stroke="#191970" d="M51.2225,-114.3095C51.2225,-106.9335 51.2225,-96.72 51.2225,-87.715"/>
<polygon fill="#191970" stroke="#191970" points="54.7226,-87.6022 51.2225,-77.6022 47.7226,-87.6023 54.7226,-87.6022"/>
</g>
<!-- Node3 -->
<g id="node4" class="node">
<title>Node3</title>
<polygon fill="#ffffff" stroke="#bfbfbf" points="0,-.5 0,-20.5 40.445,-20.5 40.445,-.5 0,-.5"/>
<text text-anchor="middle" x="20.2225" y="-7.5" font-family="Helvetica,sans-Serif" font-size="10.00" fill="#000000">string</text>
</g>
<!-- Node2&#45;&gt;Node3 -->
<g id="edge3" class="edge">
<title>Node2&#45;&gt;Node3</title>
<path fill="none" stroke="#191970" d="M45.6803,-57.3095C41.4925,-49.6093 35.6228,-38.8166 30.5748,-29.5349"/>
<polygon fill="#191970" stroke="#191970" points="33.5692,-27.7149 25.7167,-20.6022 27.4198,-31.0593 33.5692,-27.7149"/>
</g>
<!-- Node4 -->
<g id="node5" class="node">
<title>Node4</title>
<polygon fill="#ffffff" stroke="#bfbfbf" points="58.5555,-.5 58.5555,-20.5 107.8895,-20.5 107.8895,-.5 58.5555,-.5"/>
<text text-anchor="middle" x="83.2225" y="-7.5" font-family="Helvetica,sans-Serif" font-size="10.00" fill="#000000">fstream</text>
</g>
<!-- Node2&#45;&gt;Node4 -->
<g id="edge4" class="edge">
<title>Node2&#45;&gt;Node4</title>
<path fill="none" stroke="#191970" d="M56.9435,-57.3095C61.2664,-49.6093 67.3255,-38.8166 72.5363,-29.5349"/>
<polygon fill="#191970" stroke="#191970" points="75.7076,-31.0355 77.5511,-20.6022 69.6037,-27.6087 75.7076,-31.0355"/>
</g>
</g>
</svg>
