<?xml version="1.0" encoding="UTF-8" standalone="no"?>
<!DOCTYPE svg PUBLIC "-//W3C//DTD SVG 1.1//EN"
 "http://www.w3.org/Graphics/SVG/1.1/DTD/svg11.dtd">
<!-- Generated by graphviz version 2.40.1 (20161225.0304)
 -->
<!-- Title: Range.h Pages: 1 -->
<svg width="207pt" height="257pt"
 viewBox="0.00 0.00 206.96 257.00" xmlns="http://www.w3.org/2000/svg" xmlns:xlink="http://www.w3.org/1999/xlink">
<g id="graph0" class="graph" transform="scale(1 1) rotate(0) translate(4 253)">
<title>Range.h</title>
<polygon fill="#ffffff" stroke="transparent" points="-4,4 -4,-253 202.9555,-253 202.9555,4 -4,4"/>
<!-- Node1 -->
<g id="node1" class="node">
<title>Node1</title>
<polygon fill="#bfbfbf" stroke="#000000" points="72.7215,-228.5 72.7215,-248.5 126.5145,-248.5 126.5145,-228.5 72.7215,-228.5"/>
<text text-anchor="middle" x="99.618" y="-235.5" font-family="Helvetica,sans-Serif" font-size="10.00" fill="#000000">Range.h</text>
</g>
<!-- Node2 -->
<g id="node2" class="node">
<title>Node2</title>
<g id="a_node2"><a xlink:href="LinearConverter_8h.html" target="_top" xlink:title="LinearConverter.h">
<polygon fill="#ffffff" stroke="#000000" points="51.611,-171.5 51.611,-191.5 147.625,-191.5 147.625,-171.5 51.611,-171.5"/>
<text text-anchor="middle" x="99.618" y="-178.5" font-family="Helvetica,sans-Serif" font-size="10.00" fill="#000000">LinearConverter.h</text>
</a>
</g>
</g>
<!-- Node1&#45;&gt;Node2 -->
<g id="edge1" class="edge">
<title>Node1&#45;&gt;Node2</title>
<path fill="none" stroke="#191970" d="M99.618,-218.1771C99.618,-209.1625 99.618,-198.9556 99.618,-191.6022"/>
<polygon fill="#191970" stroke="#191970" points="96.1181,-218.3095 99.618,-228.3095 103.1181,-218.3096 96.1181,-218.3095"/>
</g>
<!-- Node3 -->
<g id="node3" class="node">
<title>Node3</title>
<g id="a_node3"><a xlink:href="MotorControl_8h.html" target="_top" xlink:title="MotorControl.h">
<polygon fill="#ffffff" stroke="#000000" points="58.56,-114.5 58.56,-134.5 140.676,-134.5 140.676,-114.5 58.56,-114.5"/>
<text text-anchor="middle" x="99.618" y="-121.5" font-family="Helvetica,sans-Serif" font-size="10.00" fill="#000000">MotorControl.h</text>
</a>
</g>
</g>
<!-- Node2&#45;&gt;Node3 -->
<g id="edge2" class="edge">
<title>Node2&#45;&gt;Node3</title>
<path fill="none" stroke="#191970" d="M99.618,-161.1771C99.618,-152.1625 99.618,-141.9556 99.618,-134.6022"/>
<polygon fill="#191970" stroke="#191970" points="96.1181,-161.3095 99.618,-171.3095 103.1181,-161.3096 96.1181,-161.3095"/>
</g>
<!-- Node4 -->
<g id="node4" class="node">
<title>Node4</title>
<g id="a_node4"><a xlink:href="ServoControl_8h.html" target="_top" xlink:title="ServoControl.h">
<polygon fill="#ffffff" stroke="#000000" points="5.2795,-57.5 5.2795,-77.5 87.9565,-77.5 87.9565,-57.5 5.2795,-57.5"/>
<text text-anchor="middle" x="46.618" y="-64.5" font-family="Helvetica,sans-Serif" font-size="10.00" fill="#000000">ServoControl.h</text>
</a>
</g>
</g>
<!-- Node3&#45;&gt;Node4 -->
<g id="edge3" class="edge">
<title>Node3&#45;&gt;Node4</title>
<path fill="none" stroke="#191970" d="M83.172,-106.8128C74.2425,-97.2094 63.5248,-85.6828 56.0113,-77.6022"/>
<polygon fill="#191970" stroke="#191970" points="80.77,-109.3695 90.1427,-114.3095 85.8964,-104.6028 80.77,-109.3695"/>
</g>
<!-- Node6 -->
<g id="node6" class="node">
<title>Node6</title>
<g id="a_node6"><a xlink:href="MotorControl_8cpp.html" target="_top" xlink:title="MotorControl.cpp">
<polygon fill="#ffffff" stroke="#000000" points="106.2805,-57.5 106.2805,-77.5 198.9555,-77.5 198.9555,-57.5 106.2805,-57.5"/>
<text text-anchor="middle" x="152.618" y="-64.5" font-family="Helvetica,sans-Serif" font-size="10.00" fill="#000000">MotorControl.cpp</text>
</a>
</g>
</g>
<!-- Node3&#45;&gt;Node6 -->
<g id="edge5" class="edge">
<title>Node3&#45;&gt;Node6</title>
<path fill="none" stroke="#191970" d="M116.064,-106.8128C124.9935,-97.2094 135.7112,-85.6828 143.2247,-77.6022"/>
<polygon fill="#191970" stroke="#191970" points="113.3396,-104.6028 109.0933,-114.3095 118.466,-109.3695 113.3396,-104.6028"/>
</g>
<!-- Node5 -->
<g id="node5" class="node">
<title>Node5</title>
<g id="a_node5"><a xlink:href="ServoControl_8cpp.html" target="_top" xlink:title="ServoControl.cpp">
<polygon fill="#ffffff" stroke="#000000" points="0,-.5 0,-20.5 93.236,-20.5 93.236,-.5 0,-.5"/>
<text text-anchor="middle" x="46.618" y="-7.5" font-family="Helvetica,sans-Serif" font-size="10.00" fill="#000000">ServoControl.cpp</text>
</a>
</g>
</g>
<!-- Node4&#45;&gt;Node5 -->
<g id="edge4" class="edge">
<title>Node4&#45;&gt;Node5</title>
<path fill="none" stroke="#191970" d="M46.618,-47.1771C46.618,-38.1625 46.618,-27.9556 46.618,-20.6022"/>
<polygon fill="#191970" stroke="#191970" points="43.1181,-47.3095 46.618,-57.3095 50.1181,-47.3096 43.1181,-47.3095"/>
</g>
</g>
</svg>
