<?xml version="1.0" encoding="UTF-8" standalone="no"?>
<!DOCTYPE svg PUBLIC "-//W3C//DTD SVG 1.1//EN"
 "http://www.w3.org/Graphics/SVG/1.1/DTD/svg11.dtd">
<!-- Generated by graphviz version 2.40.1 (20161225.0304)
 -->
<!-- Title: ServoControl.cpp Pages: 1 -->
<svg width="246pt" height="257pt"
 viewBox="0.00 0.00 246.12 257.00" xmlns="http://www.w3.org/2000/svg" xmlns:xlink="http://www.w3.org/1999/xlink">
<g id="graph0" class="graph" transform="scale(1 1) rotate(0) translate(4 253)">
<title>ServoControl.cpp</title>
<polygon fill="#ffffff" stroke="transparent" points="-4,4 -4,-253 242.1235,-253 242.1235,4 -4,4"/>
<!-- Node0 -->
<g id="node1" class="node">
<title>Node0</title>
<polygon fill="#bfbfbf" stroke="#000000" points="48.4985,-228.5 48.4985,-248.5 141.7345,-248.5 141.7345,-228.5 48.4985,-228.5"/>
<text text-anchor="middle" x="95.1165" y="-235.5" font-family="Helvetica,sans-Serif" font-size="10.00" fill="#000000">ServoControl.cpp</text>
</g>
<!-- Node1 -->
<g id="node2" class="node">
<title>Node1</title>
<g id="a_node2"><a xlink:href="ServoControl_8h.html" target="_top" xlink:title="ServoControl.h">
<polygon fill="#ffffff" stroke="#000000" points="53.778,-171.5 53.778,-191.5 136.455,-191.5 136.455,-171.5 53.778,-171.5"/>
<text text-anchor="middle" x="95.1165" y="-178.5" font-family="Helvetica,sans-Serif" font-size="10.00" fill="#000000">ServoControl.h</text>
</a>
</g>
</g>
<!-- Node0&#45;&gt;Node1 -->
<g id="edge1" class="edge">
<title>Node0&#45;&gt;Node1</title>
<path fill="none" stroke="#191970" d="M95.1165,-228.3095C95.1165,-220.9335 95.1165,-210.72 95.1165,-201.715"/>
<polygon fill="#191970" stroke="#191970" points="98.6166,-201.6022 95.1165,-191.6022 91.6166,-201.6023 98.6166,-201.6022"/>
</g>
<!-- Node2 -->
<g id="node3" class="node">
<title>Node2</title>
<g id="a_node3"><a xlink:href="MotorControl_8h.html" target="_top" xlink:title="MotorControl.h">
<polygon fill="#ffffff" stroke="#000000" points="54.0585,-114.5 54.0585,-134.5 136.1745,-134.5 136.1745,-114.5 54.0585,-114.5"/>
<text text-anchor="middle" x="95.1165" y="-121.5" font-family="Helvetica,sans-Serif" font-size="10.00" fill="#000000">MotorControl.h</text>
</a>
</g>
</g>
<!-- Node1&#45;&gt;Node2 -->
<g id="edge2" class="edge">
<title>Node1&#45;&gt;Node2</title>
<path fill="none" stroke="#191970" d="M95.1165,-171.3095C95.1165,-163.9335 95.1165,-153.72 95.1165,-144.715"/>
<polygon fill="#191970" stroke="#191970" points="98.6166,-144.6022 95.1165,-134.6022 91.6166,-144.6023 98.6166,-144.6022"/>
</g>
<!-- Node3 -->
<g id="node4" class="node">
<title>Node3</title>
<polygon fill="#ffffff" stroke="#bfbfbf" points="0,-57.5 0,-77.5 48.233,-77.5 48.233,-57.5 0,-57.5"/>
<text text-anchor="middle" x="24.1165" y="-64.5" font-family="Helvetica,sans-Serif" font-size="10.00" fill="#000000">stdint.h</text>
</g>
<!-- Node2&#45;&gt;Node3 -->
<g id="edge3" class="edge">
<title>Node2&#45;&gt;Node3</title>
<path fill="none" stroke="#191970" d="M82.4231,-114.3095C71.9229,-105.8798 56.8063,-93.7439 44.5963,-83.9415"/>
<polygon fill="#191970" stroke="#191970" points="46.6891,-81.1333 36.7,-77.6022 42.3068,-86.5919 46.6891,-81.1333"/>
</g>
<!-- Node4 -->
<g id="node5" class="node">
<title>Node4</title>
<polygon fill="#ffffff" stroke="#bfbfbf" points="65.996,-57.5 65.996,-77.5 124.237,-77.5 124.237,-57.5 65.996,-57.5"/>
<text text-anchor="middle" x="95.1165" y="-64.5" font-family="Helvetica,sans-Serif" font-size="10.00" fill="#000000">pthread.h</text>
</g>
<!-- Node2&#45;&gt;Node4 -->
<g id="edge4" class="edge">
<title>Node2&#45;&gt;Node4</title>
<path fill="none" stroke="#191970" d="M95.1165,-114.3095C95.1165,-106.9335 95.1165,-96.72 95.1165,-87.715"/>
<polygon fill="#191970" stroke="#191970" points="98.6166,-87.6022 95.1165,-77.6022 91.6166,-87.6023 98.6166,-87.6022"/>
</g>
<!-- Node5 -->
<g id="node6" class="node">
<title>Node5</title>
<g id="a_node6"><a xlink:href="LinearConverter_8h.html" target="_top" xlink:title="LinearConverter.h">
<polygon fill="#ffffff" stroke="#000000" points="142.1095,-57.5 142.1095,-77.5 238.1235,-77.5 238.1235,-57.5 142.1095,-57.5"/>
<text text-anchor="middle" x="190.1165" y="-64.5" font-family="Helvetica,sans-Serif" font-size="10.00" fill="#000000">LinearConverter.h</text>
</a>
</g>
</g>
<!-- Node2&#45;&gt;Node5 -->
<g id="edge5" class="edge">
<title>Node2&#45;&gt;Node5</title>
<path fill="none" stroke="#191970" d="M112.1006,-114.3095C126.6906,-105.5556 147.9417,-92.8049 164.5813,-82.8211"/>
<polygon fill="#191970" stroke="#191970" points="166.5053,-85.7485 173.2794,-77.6022 162.9037,-79.746 166.5053,-85.7485"/>
</g>
<!-- Node6 -->
<g id="node7" class="node">
<title>Node6</title>
<g id="a_node7"><a xlink:href="Range_8h.html" target="_top" xlink:title="Range.h">
<polygon fill="#ffffff" stroke="#000000" points="163.22,-.5 163.22,-20.5 217.013,-20.5 217.013,-.5 163.22,-.5"/>
<text text-anchor="middle" x="190.1165" y="-7.5" font-family="Helvetica,sans-Serif" font-size="10.00" fill="#000000">Range.h</text>
</a>
</g>
</g>
<!-- Node5&#45;&gt;Node6 -->
<g id="edge6" class="edge">
<title>Node5&#45;&gt;Node6</title>
<path fill="none" stroke="#191970" d="M190.1165,-57.3095C190.1165,-49.9335 190.1165,-39.72 190.1165,-30.715"/>
<polygon fill="#191970" stroke="#191970" points="193.6166,-30.6022 190.1165,-20.6022 186.6166,-30.6023 193.6166,-30.6022"/>
</g>
</g>
</svg>
