<?xml version="1.0" encoding="UTF-8" standalone="no"?>
<!DOCTYPE svg PUBLIC "-//W3C//DTD SVG 1.1//EN"
 "http://www.w3.org/Graphics/SVG/1.1/DTD/svg11.dtd">
<!-- Generated by graphviz version 2.40.1 (20161225.0304)
 -->
<!-- Title: LibBBB::IO::Input::Setup::Setup Pages: 1 -->
<svg width="689pt" height="464pt"
 viewBox="0.00 0.00 689.34 464.00" xmlns="http://www.w3.org/2000/svg" xmlns:xlink="http://www.w3.org/1999/xlink">
<g id="graph0" class="graph" transform="scale(1 1) rotate(0) translate(4 460)">
<title>LibBBB::IO::Input::Setup::Setup</title>
<polygon fill="#ffffff" stroke="transparent" points="-4,4 -4,-460 685.34,-460 685.34,4 -4,4"/>
<!-- Node0 -->
<g id="node1" class="node">
<title>Node0</title>
<polygon fill="#bfbfbf" stroke="#000000" points="0,-205.5 0,-237.5 98.811,-237.5 98.811,-205.5 0,-205.5"/>
<text text-anchor="start" x="8" y="-224.5" font-family="Helvetica,sans-Serif" font-size="10.00" fill="#000000">LibBBB::IO::Input::</text>
<text text-anchor="middle" x="49.4055" y="-212.5" font-family="Helvetica,sans-Serif" font-size="10.00" fill="#000000">Setup::Setup</text>
</g>
<!-- Node1 -->
<g id="node2" class="node">
<title>Node1</title>
<g id="a_node2"><a xlink:href="classLibBBB_1_1IO_1_1Input.html#a4e59f6e2c64f7a85adff569daf35b3d3" target="_top" xlink:title="Input constructs an input based on the given setup. The constructor will automatically export the pin...">
<polygon fill="#ffffff" stroke="#000000" points="137.023,-372.5 137.023,-404.5 235.834,-404.5 235.834,-372.5 137.023,-372.5"/>
<text text-anchor="start" x="145.023" y="-391.5" font-family="Helvetica,sans-Serif" font-size="10.00" fill="#000000">LibBBB::IO::Input::</text>
<text text-anchor="middle" x="186.4285" y="-379.5" font-family="Helvetica,sans-Serif" font-size="10.00" fill="#000000">Input</text>
</a>
</g>
</g>
<!-- Node0&#45;&gt;Node1 -->
<g id="edge1" class="edge">
<title>Node0&#45;&gt;Node1</title>
<path fill="none" stroke="#191970" d="M56.56,-237.8597C69.1699,-265.2579 97.5796,-321.0023 134.811,-357.5 138.2238,-360.8456 142.0639,-363.9849 146.0699,-366.8849"/>
<polygon fill="#191970" stroke="#191970" points="144.1852,-369.8351 154.4418,-372.4909 148.08,-364.0187 144.1852,-369.8351"/>
</g>
<!-- Node2 -->
<g id="node3" class="node">
<title>Node2</title>
<g id="a_node3"><a xlink:href="classLibBBB_1_1IO_1_1Input.html#a9144216b06e8bff7a46a6c9aa246ad5e" target="_top" xlink:title="setEdgeType sets the desired edge ">
<polygon fill="#ffffff" stroke="#000000" points="282.096,-423.5 282.096,-455.5 380.907,-455.5 380.907,-423.5 282.096,-423.5"/>
<text text-anchor="start" x="290.096" y="-442.5" font-family="Helvetica,sans-Serif" font-size="10.00" fill="#000000">LibBBB::IO::Input::</text>
<text text-anchor="middle" x="331.5015" y="-430.5" font-family="Helvetica,sans-Serif" font-size="10.00" fill="#000000">setEdgeType</text>
</a>
</g>
</g>
<!-- Node0&#45;&gt;Node2 -->
<g id="edge11" class="edge">
<title>Node0&#45;&gt;Node2</title>
<path fill="none" stroke="#191970" d="M51.2799,-237.737C56.5961,-275.6793 75.4574,-370.2806 134.811,-414.5 173.7003,-443.4732 229.3556,-448.1284 271.5453,-446.4565"/>
<polygon fill="#191970" stroke="#191970" points="271.8869,-449.9435 281.6897,-445.924 271.5199,-442.9531 271.8869,-449.9435"/>
</g>
<!-- Node5 -->
<g id="node6" class="node">
<title>Node5</title>
<g id="a_node6"><a xlink:href="classLibBBB_1_1IO_1_1Input.html#a3a448ebc4e13f3813b6b80566af3fe79" target="_top" xlink:title="waitForEdgeThreaded does the same thing as waitForEdge(), but does so in a threaded manner...">
<polygon fill="#ffffff" stroke="#000000" points="274.046,-321.5 274.046,-353.5 388.957,-353.5 388.957,-321.5 274.046,-321.5"/>
<text text-anchor="start" x="282.046" y="-340.5" font-family="Helvetica,sans-Serif" font-size="10.00" fill="#000000">LibBBB::IO::Input::</text>
<text text-anchor="middle" x="331.5015" y="-328.5" font-family="Helvetica,sans-Serif" font-size="10.00" fill="#000000">waitForEdgeThreaded</text>
</a>
</g>
</g>
<!-- Node0&#45;&gt;Node5 -->
<g id="edge19" class="edge">
<title>Node0&#45;&gt;Node5</title>
<path fill="none" stroke="#191970" d="M57.2507,-237.5227C69.8777,-261.322 97.1607,-305.2679 134.811,-324.5 174.2014,-344.6209 223.954,-347.7383 263.5647,-345.8927"/>
<polygon fill="#191970" stroke="#191970" points="263.8847,-349.3801 273.6649,-345.3059 263.4787,-342.3919 263.8847,-349.3801"/>
</g>
<!-- Node7 -->
<g id="node8" class="node">
<title>Node7</title>
<g id="a_node8"><a xlink:href="classLibBBB_1_1IO_1_1Input.html#ab70913a918406a621c8a4d1778917f03" target="_top" xlink:title="~Input destroys the input. This automatically unexports the pin. ">
<polygon fill="#ffffff" stroke="#000000" points="137.023,-282.5 137.023,-314.5 235.834,-314.5 235.834,-282.5 137.023,-282.5"/>
<text text-anchor="start" x="145.023" y="-301.5" font-family="Helvetica,sans-Serif" font-size="10.00" fill="#000000">LibBBB::IO::Input::</text>
<text text-anchor="middle" x="186.4285" y="-289.5" font-family="Helvetica,sans-Serif" font-size="10.00" fill="#000000">~Input</text>
</a>
</g>
</g>
<!-- Node0&#45;&gt;Node7 -->
<g id="edge8" class="edge">
<title>Node0&#45;&gt;Node7</title>
<path fill="none" stroke="#191970" d="M74.445,-237.6187C91.2726,-248.2329 114.0806,-262.2026 134.811,-273.5 137.479,-274.954 140.2444,-276.4166 143.046,-277.865"/>
<polygon fill="#191970" stroke="#191970" points="141.5394,-281.0252 152.0427,-282.4153 144.6988,-274.7787 141.5394,-281.0252"/>
</g>
<!-- Node8 -->
<g id="node9" class="node">
<title>Node8</title>
<g id="a_node9"><a xlink:href="classLibBBB_1_1IO_1_1Input.html#a042ab20fe19f0ca17d09bf22bb16b2bf" target="_top" xlink:title="setDebounceTime sets the debounce time of the input. This ensures the input is in the proper state fo...">
<polygon fill="#ffffff" stroke="#000000" points="137.023,-231.5 137.023,-263.5 235.834,-263.5 235.834,-231.5 137.023,-231.5"/>
<text text-anchor="start" x="145.023" y="-250.5" font-family="Helvetica,sans-Serif" font-size="10.00" fill="#000000">LibBBB::IO::Input::</text>
<text text-anchor="middle" x="186.4285" y="-238.5" font-family="Helvetica,sans-Serif" font-size="10.00" fill="#000000">setDebounceTime</text>
</a>
</g>
</g>
<!-- Node0&#45;&gt;Node8 -->
<g id="edge9" class="edge">
<title>Node0&#45;&gt;Node8</title>
<path fill="none" stroke="#191970" d="M98.8739,-230.8866C107.8812,-232.5957 117.3655,-234.3953 126.6334,-236.1539"/>
<polygon fill="#191970" stroke="#191970" points="126.0952,-239.6142 136.5724,-238.0399 127.4002,-232.7369 126.0952,-239.6142"/>
</g>
<!-- Node9 -->
<g id="node10" class="node">
<title>Node9</title>
<g id="a_node10"><a xlink:href="classLibBBB_1_1IO_1_1Input.html#a0acdacb6841ff6144d14ee861081033e" target="_top" xlink:title="getDebounceTime getter ">
<polygon fill="#ffffff" stroke="#000000" points="137.023,-180.5 137.023,-212.5 235.834,-212.5 235.834,-180.5 137.023,-180.5"/>
<text text-anchor="start" x="145.023" y="-199.5" font-family="Helvetica,sans-Serif" font-size="10.00" fill="#000000">LibBBB::IO::Input::</text>
<text text-anchor="middle" x="186.4285" y="-187.5" font-family="Helvetica,sans-Serif" font-size="10.00" fill="#000000">getDebounceTime</text>
</a>
</g>
</g>
<!-- Node0&#45;&gt;Node9 -->
<g id="edge10" class="edge">
<title>Node0&#45;&gt;Node9</title>
<path fill="none" stroke="#191970" d="M98.8739,-212.4744C107.8812,-210.831 117.3655,-209.1006 126.6334,-207.4097"/>
<polygon fill="#191970" stroke="#191970" points="127.3631,-210.8344 136.5724,-205.5963 126.1066,-203.9481 127.3631,-210.8344"/>
</g>
<!-- Node10 -->
<g id="node11" class="node">
<title>Node10</title>
<g id="a_node11"><a xlink:href="classLibBBB_1_1IO_1_1Input.html#ad13e7774b58c80b4fc4fd79e1794b182" target="_top" xlink:title="getEdgeType getter ">
<polygon fill="#ffffff" stroke="#000000" points="282.096,-135.5 282.096,-167.5 380.907,-167.5 380.907,-135.5 282.096,-135.5"/>
<text text-anchor="start" x="290.096" y="-154.5" font-family="Helvetica,sans-Serif" font-size="10.00" fill="#000000">LibBBB::IO::Input::</text>
<text text-anchor="middle" x="331.5015" y="-142.5" font-family="Helvetica,sans-Serif" font-size="10.00" fill="#000000">getEdgeType</text>
</a>
</g>
</g>
<!-- Node0&#45;&gt;Node10 -->
<g id="edge12" class="edge">
<title>Node0&#45;&gt;Node10</title>
<path fill="none" stroke="#191970" d="M70.9838,-205.3305C87.5425,-193.8315 111.4542,-179.1235 134.811,-171.5 179.2358,-157.0001 232.0402,-152.2663 271.746,-151.012"/>
<polygon fill="#191970" stroke="#191970" points="271.8942,-154.5095 281.8031,-150.7594 271.7183,-147.5117 271.8942,-154.5095"/>
</g>
<!-- Node12 -->
<g id="node13" class="node">
<title>Node12</title>
<g id="a_node13"><a xlink:href="classLibBBB_1_1IO_1_1Input.html#ab581bd59f9ca5bfb2e45ebdc81b5e3cc" target="_top" xlink:title="setEdgeCallback setter ">
<polygon fill="#ffffff" stroke="#000000" points="137.023,-90.5 137.023,-122.5 235.834,-122.5 235.834,-90.5 137.023,-90.5"/>
<text text-anchor="start" x="145.023" y="-109.5" font-family="Helvetica,sans-Serif" font-size="10.00" fill="#000000">LibBBB::IO::Input::</text>
<text text-anchor="middle" x="186.4285" y="-97.5" font-family="Helvetica,sans-Serif" font-size="10.00" fill="#000000">setEdgeCallback</text>
</a>
</g>
</g>
<!-- Node0&#45;&gt;Node12 -->
<g id="edge14" class="edge">
<title>Node0&#45;&gt;Node12</title>
<path fill="none" stroke="#191970" d="M63.5302,-205.4917C79.7087,-187.6828 107.516,-158.6388 134.811,-137.5 139.0983,-134.1797 143.7675,-130.9321 148.4879,-127.8641"/>
<polygon fill="#191970" stroke="#191970" points="150.3469,-130.8296 156.9684,-122.5587 146.6344,-124.8952 150.3469,-130.8296"/>
</g>
<!-- Node13 -->
<g id="node14" class="node">
<title>Node13</title>
<g id="a_node14"><a xlink:href="classLibBBB_1_1IO_1_1Input.html#a0934c43a3f6be5e62dfc733552e5074d" target="_top" xlink:title="waitForEdge method is a blocking wait for edge. Therefore, the callee will halt its thread until this...">
<polygon fill="#ffffff" stroke="#000000" points="282.096,-42.5 282.096,-74.5 380.907,-74.5 380.907,-42.5 282.096,-42.5"/>
<text text-anchor="start" x="290.096" y="-61.5" font-family="Helvetica,sans-Serif" font-size="10.00" fill="#000000">LibBBB::IO::Input::</text>
<text text-anchor="middle" x="331.5015" y="-49.5" font-family="Helvetica,sans-Serif" font-size="10.00" fill="#000000">waitForEdge</text>
</a>
</g>
</g>
<!-- Node0&#45;&gt;Node13 -->
<g id="edge15" class="edge">
<title>Node0&#45;&gt;Node13</title>
<path fill="none" stroke="#191970" d="M54.1194,-205.1536C63.7551,-174.9929 88.7804,-110.9858 134.811,-81.5 175.2439,-55.5999 230.1021,-51.1144 271.6114,-52.3863"/>
<polygon fill="#191970" stroke="#191970" points="271.7198,-55.8941 281.8601,-52.8242 272.0187,-48.9004 271.7198,-55.8941"/>
</g>
<!-- Node16 -->
<g id="node17" class="node">
<title>Node16</title>
<g id="a_node17"><a xlink:href="classLibBBB_1_1IO_1_1Input.html#a463bb83321475919ec672e9ac75b31b1" target="_top" xlink:title="cancelWaitForEdge method cancels waiting for the edge. ">
<polygon fill="#ffffff" stroke="#000000" points="134.811,-.5 134.811,-32.5 238.046,-32.5 238.046,-.5 134.811,-.5"/>
<text text-anchor="start" x="142.811" y="-19.5" font-family="Helvetica,sans-Serif" font-size="10.00" fill="#000000">LibBBB::IO::Input::</text>
<text text-anchor="middle" x="186.4285" y="-7.5" font-family="Helvetica,sans-Serif" font-size="10.00" fill="#000000">cancelWaitForEdge</text>
</a>
</g>
</g>
<!-- Node0&#45;&gt;Node16 -->
<g id="edge20" class="edge">
<title>Node0&#45;&gt;Node16</title>
<path fill="none" stroke="#191970" d="M53.9267,-205.3097C63.8298,-172.2615 90.1857,-96.0673 134.811,-47.5 137.8368,-44.207 141.2927,-41.1488 144.9507,-38.339"/>
<polygon fill="#191970" stroke="#191970" points="146.9932,-41.1816 153.1925,-32.5898 142.9883,-35.4405 146.9932,-41.1816"/>
</g>
<!-- Node1&#45;&gt;Node2 -->
<g id="edge2" class="edge">
<title>Node1&#45;&gt;Node2</title>
<path fill="none" stroke="#191970" d="M232.3305,-404.6367C246.2245,-409.5211 261.6326,-414.9378 276.08,-420.0167"/>
<polygon fill="#191970" stroke="#191970" points="275.3033,-423.4536 285.8981,-423.4683 277.6249,-416.8498 275.3033,-423.4536"/>
</g>
<!-- Node4 -->
<g id="node5" class="node">
<title>Node4</title>
<g id="a_node5"><a xlink:href="classLibBBB_1_1IO_1_1IOBase.html#aa98e79cb377720c663e79411a32a5678" target="_top" xlink:title="setActiveHighOrLow setter ">
<polygon fill="#ffffff" stroke="#000000" points="275.44,-372.5 275.44,-404.5 387.563,-404.5 387.563,-372.5 275.44,-372.5"/>
<text text-anchor="start" x="283.44" y="-391.5" font-family="Helvetica,sans-Serif" font-size="10.00" fill="#000000">LibBBB::IO::IOBase</text>
<text text-anchor="middle" x="331.5015" y="-379.5" font-family="Helvetica,sans-Serif" font-size="10.00" fill="#000000">::setActiveHighOrLow</text>
</a>
</g>
</g>
<!-- Node1&#45;&gt;Node4 -->
<g id="edge4" class="edge">
<title>Node1&#45;&gt;Node4</title>
<path fill="none" stroke="#191970" d="M235.9486,-388.5C245.3305,-388.5 255.2854,-388.5 265.09,-388.5"/>
<polygon fill="#191970" stroke="#191970" points="265.2227,-392.0001 275.2227,-388.5 265.2227,-385.0001 265.2227,-392.0001"/>
</g>
<!-- Node1&#45;&gt;Node5 -->
<g id="edge6" class="edge">
<title>Node1&#45;&gt;Node5</title>
<path fill="none" stroke="#191970" d="M232.3305,-372.3633C246.2245,-367.4789 261.6326,-362.0622 276.08,-356.9833"/>
<polygon fill="#191970" stroke="#191970" points="277.6249,-360.1502 285.8981,-353.5317 275.3033,-353.5464 277.6249,-360.1502"/>
</g>
<!-- Node3 -->
<g id="node4" class="node">
<title>Node3</title>
<g id="a_node4"><a xlink:href="classLibBBB_1_1IO_1_1IOBase.html#a8b8069af640a6ca1d8ad885015d2e2e5" target="_top" xlink:title="write write function that writes a single string value to a file in the path provided ...">
<polygon fill="#ffffff" stroke="#000000" points="430.7855,-397.5 430.7855,-429.5 535.1485,-429.5 535.1485,-397.5 430.7855,-397.5"/>
<text text-anchor="start" x="438.7855" y="-416.5" font-family="Helvetica,sans-Serif" font-size="10.00" fill="#000000">LibBBB::IO::IOBase</text>
<text text-anchor="middle" x="482.967" y="-404.5" font-family="Helvetica,sans-Serif" font-size="10.00" fill="#000000">::write</text>
</a>
</g>
</g>
<!-- Node2&#45;&gt;Node3 -->
<g id="edge3" class="edge">
<title>Node2&#45;&gt;Node3</title>
<path fill="none" stroke="#191970" d="M381.097,-430.9866C393.7473,-428.8151 407.5067,-426.4532 420.7023,-424.1881"/>
<polygon fill="#191970" stroke="#191970" points="421.3919,-427.621 430.6556,-422.4796 420.2076,-420.7219 421.3919,-427.621"/>
</g>
<!-- Node4&#45;&gt;Node3 -->
<g id="edge5" class="edge">
<title>Node4&#45;&gt;Node3</title>
<path fill="none" stroke="#191970" d="M387.9017,-397.8091C398.4823,-399.5555 409.6025,-401.3909 420.3584,-403.1662"/>
<polygon fill="#191970" stroke="#191970" points="420.0931,-406.6697 430.5296,-404.845 421.2331,-399.7631 420.0931,-406.6697"/>
</g>
<!-- Node6 -->
<g id="node7" class="node">
<title>Node6</title>
<g id="a_node7"><a xlink:href="classLibBBB_1_1ThreadHelper.html#a6999e18135496ef252b1c43c374c20f9" target="_top" xlink:title="startDetachedThread ">
<polygon fill="#ffffff" stroke="#000000" points="424.957,-321.5 424.957,-353.5 540.977,-353.5 540.977,-321.5 424.957,-321.5"/>
<text text-anchor="start" x="432.957" y="-340.5" font-family="Helvetica,sans-Serif" font-size="10.00" fill="#000000">LibBBB::ThreadHelper</text>
<text text-anchor="middle" x="482.967" y="-328.5" font-family="Helvetica,sans-Serif" font-size="10.00" fill="#000000">::startDetachedThread</text>
</a>
</g>
</g>
<!-- Node5&#45;&gt;Node6 -->
<g id="edge7" class="edge">
<title>Node5&#45;&gt;Node6</title>
<path fill="none" stroke="#191970" d="M389.1962,-337.5C397.6086,-337.5 406.3363,-337.5 414.9305,-337.5"/>
<polygon fill="#191970" stroke="#191970" points="414.931,-341.0001 424.931,-337.5 414.9309,-334.0001 414.931,-341.0001"/>
</g>
<!-- Node11 -->
<g id="node12" class="node">
<title>Node11</title>
<g id="a_node12"><a xlink:href="classLibBBB_1_1IO_1_1IOBase.html#aa317b2515288dbe3905b675a9033e2fa" target="_top" xlink:title="read function that reads the value of the given file filename ">
<polygon fill="#ffffff" stroke="#000000" points="576.977,-87.5 576.977,-119.5 681.34,-119.5 681.34,-87.5 576.977,-87.5"/>
<text text-anchor="start" x="584.977" y="-106.5" font-family="Helvetica,sans-Serif" font-size="10.00" fill="#000000">LibBBB::IO::IOBase</text>
<text text-anchor="middle" x="629.1585" y="-94.5" font-family="Helvetica,sans-Serif" font-size="10.00" fill="#000000">::read</text>
</a>
</g>
</g>
<!-- Node10&#45;&gt;Node11 -->
<g id="edge13" class="edge">
<title>Node10&#45;&gt;Node11</title>
<path fill="none" stroke="#191970" d="M381.0622,-150.1731C423.8039,-148.2779 486.9814,-143.6756 540.977,-132.5 552.8131,-130.0503 565.2826,-126.5468 576.9986,-122.8174"/>
<polygon fill="#191970" stroke="#191970" points="578.226,-126.0982 586.6323,-119.6496 576.0394,-119.4485 578.226,-126.0982"/>
</g>
<!-- Node14 -->
<g id="node15" class="node">
<title>Node14</title>
<g id="a_node15"><a xlink:href="classLibBBB_1_1IO_1_1IOBase.html#a71d8f1f57eb6de8ed0187eaad8902b1c" target="_top" xlink:title="path getter ">
<polygon fill="#ffffff" stroke="#000000" points="430.7855,-90.5 430.7855,-122.5 535.1485,-122.5 535.1485,-90.5 430.7855,-90.5"/>
<text text-anchor="start" x="438.7855" y="-109.5" font-family="Helvetica,sans-Serif" font-size="10.00" fill="#000000">LibBBB::IO::IOBase</text>
<text text-anchor="middle" x="482.967" y="-97.5" font-family="Helvetica,sans-Serif" font-size="10.00" fill="#000000">::path</text>
</a>
</g>
</g>
<!-- Node13&#45;&gt;Node14 -->
<g id="edge16" class="edge">
<title>Node13&#45;&gt;Node14</title>
<path fill="none" stroke="#191970" d="M381.097,-74.217C394.2879,-78.3972 408.6846,-82.9596 422.3908,-87.3032"/>
<polygon fill="#191970" stroke="#191970" points="421.6317,-90.7341 432.2218,-90.4187 423.7464,-84.0611 421.6317,-90.7341"/>
</g>
<!-- Node15 -->
<g id="node16" class="node">
<title>Node15</title>
<g id="a_node16"><a xlink:href="classLibBBB_1_1IO_1_1IOBase.html#a8ae8a79c81d61625f5b864abebe944a2" target="_top" xlink:title="getValue getter ">
<polygon fill="#ffffff" stroke="#000000" points="430.7855,-39.5 430.7855,-71.5 535.1485,-71.5 535.1485,-39.5 430.7855,-39.5"/>
<text text-anchor="start" x="438.7855" y="-58.5" font-family="Helvetica,sans-Serif" font-size="10.00" fill="#000000">LibBBB::IO::IOBase</text>
<text text-anchor="middle" x="482.967" y="-46.5" font-family="Helvetica,sans-Serif" font-size="10.00" fill="#000000">::getValue</text>
</a>
</g>
</g>
<!-- Node13&#45;&gt;Node15 -->
<g id="edge17" class="edge">
<title>Node13&#45;&gt;Node15</title>
<path fill="none" stroke="#191970" d="M381.097,-57.5177C393.6233,-57.2696 407.237,-56.9999 420.3141,-56.7409"/>
<polygon fill="#191970" stroke="#191970" points="420.7269,-60.2335 430.6556,-56.5361 420.5882,-53.2349 420.7269,-60.2335"/>
</g>
<!-- Node15&#45;&gt;Node11 -->
<g id="edge18" class="edge">
<title>Node15&#45;&gt;Node11</title>
<path fill="none" stroke="#191970" d="M532.0533,-71.6168C544.348,-75.6536 557.6622,-80.0251 570.3752,-84.1993"/>
<polygon fill="#191970" stroke="#191970" points="569.36,-87.5498 579.9529,-87.344 571.5437,-80.8991 569.36,-87.5498"/>
</g>
<!-- Node16&#45;&gt;Node13 -->
<g id="edge21" class="edge">
<title>Node16&#45;&gt;Node13</title>
<path fill="none" stroke="#191970" d="M238.3934,-31.5443C249.335,-34.712 260.9574,-38.0768 272.1468,-41.3162"/>
<polygon fill="#191970" stroke="#191970" points="271.2615,-44.7036 281.8404,-44.1226 273.2082,-37.9797 271.2615,-44.7036"/>
</g>
</g>
</svg>
