<?xml version="1.0" encoding="UTF-8" standalone="no"?>
<!DOCTYPE svg PUBLIC "-//W3C//DTD SVG 1.1//EN"
 "http://www.w3.org/Graphics/SVG/1.1/DTD/svg11.dtd">
<!-- Generated by graphviz version 2.40.1 (20161225.0304)
 -->
<!-- Title: Core::IO::Output::Setup::Setup Pages: 1 -->
<svg width="635pt" height="311pt"
 viewBox="0.00 0.00 634.56 311.00" xmlns="http://www.w3.org/2000/svg" xmlns:xlink="http://www.w3.org/1999/xlink">
<g id="graph0" class="graph" transform="scale(1 1) rotate(0) translate(4 307)">
<title>Core::IO::Output::Setup::Setup</title>
<polygon fill="#ffffff" stroke="transparent" points="-4,4 -4,-307 630.563,-307 630.563,4 -4,4"/>
<!-- Node0 -->
<g id="node1" class="node">
<title>Node0</title>
<polygon fill="#bfbfbf" stroke="#000000" points="0,-141.5 0,-173.5 121.037,-173.5 121.037,-141.5 0,-141.5"/>
<text text-anchor="start" x="8" y="-160.5" font-family="Helvetica,sans-Serif" font-size="10.00" fill="#000000">Core::IO::Output::Setup</text>
<text text-anchor="middle" x="60.5185" y="-148.5" font-family="Helvetica,sans-Serif" font-size="10.00" fill="#000000">::Setup</text>
</g>
<!-- Node1 -->
<g id="node2" class="node">
<title>Node1</title>
<g id="a_node2"><a xlink:href="classCore_1_1IO_1_1Output.html#a559026dddbca6a26a97e819eef81d7eb" target="_top" xlink:title="Output constructs an output based on the given setup. The constructor will automatically export the p...">
<polygon fill="#ffffff" stroke="#000000" points="164.8105,-282.5 164.8105,-302.5 289.7365,-302.5 289.7365,-282.5 164.8105,-282.5"/>
<text text-anchor="middle" x="227.2735" y="-289.5" font-family="Helvetica,sans-Serif" font-size="10.00" fill="#000000">Core::IO::Output::Output</text>
</a>
</g>
</g>
<!-- Node0&#45;&gt;Node1 -->
<g id="edge1" class="edge">
<title>Node0&#45;&gt;Node1</title>
<path fill="none" stroke="#191970" d="M69.5006,-173.6881C84.3542,-198.9304 116.466,-247.4665 157.037,-273.5 159.9424,-275.3643 163.0279,-277.0471 166.2219,-278.566"/>
<polygon fill="#191970" stroke="#191970" points="164.8752,-281.7964 175.4512,-282.4265 167.5765,-275.3386 164.8752,-281.7964"/>
</g>
<!-- Node2 -->
<g id="node3" class="node">
<title>Node2</title>
<g id="a_node3"><a xlink:href="classCore_1_1IO_1_1Output.html#af46291a08663c1b35471f78d21d8e562" target="_top" xlink:title="~Output destroys the output. This automatically unexports the pin. ">
<polygon fill="#ffffff" stroke="#000000" points="179.8175,-231.5 179.8175,-263.5 274.7295,-263.5 274.7295,-231.5 179.8175,-231.5"/>
<text text-anchor="start" x="187.8175" y="-250.5" font-family="Helvetica,sans-Serif" font-size="10.00" fill="#000000">Core::IO::Output::</text>
<text text-anchor="middle" x="227.2735" y="-238.5" font-family="Helvetica,sans-Serif" font-size="10.00" fill="#000000">~Output</text>
</a>
</g>
</g>
<!-- Node0&#45;&gt;Node2 -->
<g id="edge2" class="edge">
<title>Node0&#45;&gt;Node2</title>
<path fill="none" stroke="#191970" d="M84.9898,-173.71C104.1927,-186.1209 131.8064,-203.2953 157.037,-216.5 164.0118,-220.1503 171.5068,-223.7664 178.9108,-227.1697"/>
<polygon fill="#191970" stroke="#191970" points="177.6394,-230.4357 188.1944,-231.3533 180.5154,-224.0538 177.6394,-230.4357"/>
</g>
<!-- Node3 -->
<g id="node4" class="node">
<title>Node3</title>
<g id="a_node4"><a xlink:href="classCore_1_1IO_1_1Output.html#a07bdc8e3bbaedf9113bd56fe50c85131" target="_top" xlink:title="setValue setter ">
<polygon fill="#ffffff" stroke="#000000" points="335.455,-160.5 335.455,-180.5 469.27,-180.5 469.27,-160.5 335.455,-160.5"/>
<text text-anchor="middle" x="402.3625" y="-167.5" font-family="Helvetica,sans-Serif" font-size="10.00" fill="#000000">Core::IO::Output::setValue</text>
</a>
</g>
</g>
<!-- Node0&#45;&gt;Node3 -->
<g id="edge3" class="edge">
<title>Node0&#45;&gt;Node3</title>
<path fill="none" stroke="#191970" d="M110.1056,-173.5344C125.0274,-177.6293 141.5534,-181.451 157.037,-183.5 213.5843,-190.9829 278.0024,-187.0997 326.6351,-181.6836"/>
<polygon fill="#191970" stroke="#191970" points="327.2348,-185.1376 336.7647,-180.5082 326.4279,-178.1843 327.2348,-185.1376"/>
</g>
<!-- Node5 -->
<g id="node6" class="node">
<title>Node5</title>
<g id="a_node6"><a xlink:href="classCore_1_1IO_1_1Output.html#aafb89faa9029c3fdcf3dfe7b9e3f35e6" target="_top" xlink:title="isToggling getter ">
<polygon fill="#ffffff" stroke="#000000" points="157.037,-51.5 157.037,-71.5 297.51,-71.5 297.51,-51.5 157.037,-51.5"/>
<text text-anchor="middle" x="227.2735" y="-58.5" font-family="Helvetica,sans-Serif" font-size="10.00" fill="#000000">Core::IO::Output::isToggling</text>
</a>
</g>
</g>
<!-- Node0&#45;&gt;Node5 -->
<g id="edge5" class="edge">
<title>Node0&#45;&gt;Node5</title>
<path fill="none" stroke="#191970" d="M76.4746,-141.286C94.5088,-123.8481 125.4837,-96.4799 157.037,-80.5 161.0764,-78.4543 165.3615,-76.609 169.7444,-74.948"/>
<polygon fill="#191970" stroke="#191970" points="171.1285,-78.173 179.4381,-71.6002 168.8433,-71.5564 171.1285,-78.173"/>
</g>
<!-- Node6 -->
<g id="node7" class="node">
<title>Node6</title>
<g id="a_node7"><a xlink:href="classCore_1_1IO_1_1Output.html#a9fff26b25ba74b5ddbd4781f90d11c88" target="_top" xlink:title="toggleOutput method toggles the output once ">
<polygon fill="#ffffff" stroke="#000000" points="166.2005,-141.5 166.2005,-173.5 288.3465,-173.5 288.3465,-141.5 166.2005,-141.5"/>
<text text-anchor="start" x="174.2005" y="-160.5" font-family="Helvetica,sans-Serif" font-size="10.00" fill="#000000">Core::IO::Output::toggle</text>
<text text-anchor="middle" x="227.2735" y="-148.5" font-family="Helvetica,sans-Serif" font-size="10.00" fill="#000000">Output</text>
</a>
</g>
</g>
<!-- Node0&#45;&gt;Node6 -->
<g id="edge6" class="edge">
<title>Node0&#45;&gt;Node6</title>
<path fill="none" stroke="#191970" d="M121.1926,-157.5C132.5006,-157.5 144.4117,-157.5 156.0038,-157.5"/>
<polygon fill="#191970" stroke="#191970" points="156.0855,-161.0001 166.0854,-157.5 156.0854,-154.0001 156.0855,-161.0001"/>
</g>
<!-- Node9 -->
<g id="node10" class="node">
<title>Node9</title>
<g id="a_node10"><a xlink:href="classCore_1_1IO_1_1Output.html#af39b2a51849766d1a01e74c35b22d755" target="_top" xlink:title="changeToggleTime changes the toggling time ">
<polygon fill="#ffffff" stroke="#000000" points="163.42,-.5 163.42,-32.5 291.127,-32.5 291.127,-.5 163.42,-.5"/>
<text text-anchor="start" x="171.42" y="-19.5" font-family="Helvetica,sans-Serif" font-size="10.00" fill="#000000">Core::IO::Output::change</text>
<text text-anchor="middle" x="227.2735" y="-7.5" font-family="Helvetica,sans-Serif" font-size="10.00" fill="#000000">ToggleTime</text>
</a>
</g>
</g>
<!-- Node0&#45;&gt;Node9 -->
<g id="edge10" class="edge">
<title>Node0&#45;&gt;Node9</title>
<path fill="none" stroke="#191970" d="M69.9972,-141.2761C85.2949,-116.4261 117.7235,-68.9409 157.037,-41.5 159.1265,-40.0415 161.3101,-38.6595 163.5608,-37.3508"/>
<polygon fill="#191970" stroke="#191970" points="165.2832,-40.3997 172.5184,-32.66 162.0359,-34.1985 165.2832,-40.3997"/>
</g>
<!-- Node10 -->
<g id="node11" class="node">
<title>Node10</title>
<g id="a_node11"><a xlink:href="classCore_1_1IO_1_1Output.html#ad9478f061317492c4d1191702324dca4" target="_top" xlink:title="cancelToggle cancels toggling ">
<polygon fill="#ffffff" stroke="#000000" points="165.3695,-90.5 165.3695,-122.5 289.1775,-122.5 289.1775,-90.5 165.3695,-90.5"/>
<text text-anchor="start" x="173.3695" y="-109.5" font-family="Helvetica,sans-Serif" font-size="10.00" fill="#000000">Core::IO::Output::cancel</text>
<text text-anchor="middle" x="227.2735" y="-97.5" font-family="Helvetica,sans-Serif" font-size="10.00" fill="#000000">Toggle</text>
</a>
</g>
</g>
<!-- Node0&#45;&gt;Node10 -->
<g id="edge11" class="edge">
<title>Node0&#45;&gt;Node10</title>
<path fill="none" stroke="#191970" d="M113.2808,-141.3633C129.7121,-136.338 147.9855,-130.7493 165.0032,-125.5446"/>
<polygon fill="#191970" stroke="#191970" points="166.3153,-128.8034 174.8544,-122.5317 164.268,-122.1095 166.3153,-128.8034"/>
</g>
<!-- Node4 -->
<g id="node5" class="node">
<title>Node4</title>
<g id="a_node5"><a xlink:href="classCore_1_1IO_1_1IOBase.html#a6a095d6e076e588f343984044a3bb084" target="_top" xlink:title="write write function that writes a single string value to a file in the path provided ...">
<polygon fill="#ffffff" stroke="#000000" points="507.215,-160.5 507.215,-180.5 626.563,-180.5 626.563,-160.5 507.215,-160.5"/>
<text text-anchor="middle" x="566.889" y="-167.5" font-family="Helvetica,sans-Serif" font-size="10.00" fill="#000000">Core::IO::IOBase::write</text>
</a>
</g>
</g>
<!-- Node3&#45;&gt;Node4 -->
<g id="edge4" class="edge">
<title>Node3&#45;&gt;Node4</title>
<path fill="none" stroke="#191970" d="M469.2817,-170.5C478.3958,-170.5 487.7703,-170.5 496.9363,-170.5"/>
<polygon fill="#191970" stroke="#191970" points="497.1713,-174.0001 507.1713,-170.5 497.1712,-167.0001 497.1713,-174.0001"/>
</g>
<!-- Node6&#45;&gt;Node3 -->
<g id="edge9" class="edge">
<title>Node6&#45;&gt;Node3</title>
<path fill="none" stroke="#191970" d="M288.5111,-162.0468C300.2986,-162.922 312.7876,-163.8492 325.0081,-164.7566"/>
<polygon fill="#191970" stroke="#191970" points="324.9571,-168.2624 335.1888,-165.5125 325.4754,-161.2816 324.9571,-168.2624"/>
</g>
<!-- Node7 -->
<g id="node8" class="node">
<title>Node7</title>
<g id="a_node8"><a xlink:href="classCore_1_1IO_1_1IOBase.html#a5516fd4c88b5d0557f19c0c77add9dbf" target="_top" xlink:title="getValue getter ">
<polygon fill="#ffffff" stroke="#000000" points="333.51,-121.5 333.51,-141.5 471.215,-141.5 471.215,-121.5 333.51,-121.5"/>
<text text-anchor="middle" x="402.3625" y="-128.5" font-family="Helvetica,sans-Serif" font-size="10.00" fill="#000000">Core::IO::IOBase::getValue</text>
</a>
</g>
</g>
<!-- Node6&#45;&gt;Node7 -->
<g id="edge7" class="edge">
<title>Node6&#45;&gt;Node7</title>
<path fill="none" stroke="#191970" d="M288.5111,-148.4065C300.2216,-146.6675 312.6244,-144.8257 324.7684,-143.0224"/>
<polygon fill="#191970" stroke="#191970" points="325.5103,-146.4507 334.8877,-141.5197 324.482,-139.5266 325.5103,-146.4507"/>
</g>
<!-- Node8 -->
<g id="node9" class="node">
<title>Node8</title>
<g id="a_node9"><a xlink:href="classCore_1_1IO_1_1IOBase.html#ab27139c5454e00719c3b5d8d17d6a8e8" target="_top" xlink:title="read function that reads the value of the given file filename ">
<polygon fill="#ffffff" stroke="#000000" points="507.7645,-121.5 507.7645,-141.5 626.0135,-141.5 626.0135,-121.5 507.7645,-121.5"/>
<text text-anchor="middle" x="566.889" y="-128.5" font-family="Helvetica,sans-Serif" font-size="10.00" fill="#000000">Core::IO::IOBase::read</text>
</a>
</g>
</g>
<!-- Node7&#45;&gt;Node8 -->
<g id="edge8" class="edge">
<title>Node7&#45;&gt;Node8</title>
<path fill="none" stroke="#191970" d="M471.6597,-131.5C480.1508,-131.5 488.831,-131.5 497.326,-131.5"/>
<polygon fill="#191970" stroke="#191970" points="497.5711,-135.0001 507.5711,-131.5 497.571,-128.0001 497.5711,-135.0001"/>
</g>
<!-- Node10&#45;&gt;Node3 -->
<g id="edge14" class="edge">
<title>Node10&#45;&gt;Node3</title>
<path fill="none" stroke="#191970" d="M273.3385,-122.5665C281.467,-125.6805 289.7932,-129.0532 297.51,-132.5 314.0287,-139.8784 316.6918,-144.8325 333.51,-151.5 338.9748,-153.6665 344.7767,-155.6821 350.6035,-157.5285"/>
<polygon fill="#191970" stroke="#191970" points="349.7933,-160.9397 360.3779,-160.4728 351.8123,-154.2372 349.7933,-160.9397"/>
</g>
<!-- Node10&#45;&gt;Node7 -->
<g id="edge13" class="edge">
<title>Node10&#45;&gt;Node7</title>
<path fill="none" stroke="#191970" d="M289.4963,-115.3845C300.5196,-116.9584 312.129,-118.6161 323.5388,-120.2452"/>
<polygon fill="#191970" stroke="#191970" points="323.1001,-123.718 333.4945,-121.6667 324.0897,-116.7883 323.1001,-123.718"/>
</g>
<!-- Node11 -->
<g id="node12" class="node">
<title>Node11</title>
<g id="a_node12"><a xlink:href="classCore_1_1IO_1_1IOBase.html#adb7dec70c1c39b19d2166c8fdea6b1f9" target="_top" xlink:title="path getter ">
<polygon fill="#ffffff" stroke="#000000" points="343.513,-82.5 343.513,-102.5 461.212,-102.5 461.212,-82.5 343.513,-82.5"/>
<text text-anchor="middle" x="402.3625" y="-89.5" font-family="Helvetica,sans-Serif" font-size="10.00" fill="#000000">Core::IO::IOBase::path</text>
</a>
</g>
</g>
<!-- Node10&#45;&gt;Node11 -->
<g id="edge12" class="edge">
<title>Node10&#45;&gt;Node11</title>
<path fill="none" stroke="#191970" d="M289.4963,-101.5247C303.5751,-100.399 318.6099,-99.1968 332.964,-98.0491"/>
<polygon fill="#191970" stroke="#191970" points="333.5831,-101.5108 343.2723,-97.2248 333.0251,-94.5331 333.5831,-101.5108"/>
</g>
</g>
</svg>
