<?xml version="1.0" encoding="UTF-8" standalone="no"?>
<!DOCTYPE svg PUBLIC "-//W3C//DTD SVG 1.1//EN"
 "http://www.w3.org/Graphics/SVG/1.1/DTD/svg11.dtd">
<!-- Generated by graphviz version 2.40.1 (20161225.0304)
 -->
<!-- Title: LibBBB::IO::UserLED::Setup::Setup Pages: 1 -->
<svg width="589pt" height="227pt"
 viewBox="0.00 0.00 588.97 227.00" xmlns="http://www.w3.org/2000/svg" xmlns:xlink="http://www.w3.org/1999/xlink">
<g id="graph0" class="graph" transform="scale(1 1) rotate(0) translate(4 223)">
<title>LibBBB::IO::UserLED::Setup::Setup</title>
<polygon fill="#ffffff" stroke="transparent" points="-4,4 -4,-223 584.97,-223 584.97,4 -4,4"/>
<!-- Node0 -->
<g id="node1" class="node">
<title>Node0</title>
<polygon fill="#bfbfbf" stroke="#000000" points="0,-90.5 0,-122.5 111.572,-122.5 111.572,-90.5 0,-90.5"/>
<text text-anchor="start" x="8" y="-109.5" font-family="Helvetica,sans-Serif" font-size="10.00" fill="#000000">LibBBB::IO::UserLED</text>
<text text-anchor="middle" x="55.786" y="-97.5" font-family="Helvetica,sans-Serif" font-size="10.00" fill="#000000">::Setup::Setup</text>
</g>
<!-- Node1 -->
<g id="node2" class="node">
<title>Node1</title>
<g id="a_node2"><a xlink:href="classLibBBB_1_1IO_1_1UserLED.html#a958bf7b3257913811343c7972b7dec52" target="_top" xlink:title="UserLED constructs an instance of a user led. ">
<polygon fill="#ffffff" stroke="#000000" points="147.572,-186.5 147.572,-218.5 259.144,-218.5 259.144,-186.5 147.572,-186.5"/>
<text text-anchor="start" x="155.572" y="-205.5" font-family="Helvetica,sans-Serif" font-size="10.00" fill="#000000">LibBBB::IO::UserLED</text>
<text text-anchor="middle" x="203.358" y="-193.5" font-family="Helvetica,sans-Serif" font-size="10.00" fill="#000000">::UserLED</text>
</a>
</g>
</g>
<!-- Node0&#45;&gt;Node1 -->
<g id="edge1" class="edge">
<title>Node0&#45;&gt;Node1</title>
<path fill="none" stroke="#191970" d="M73.8363,-122.555C91.7042,-137.928 120.268,-161.1387 147.572,-177.5 150.0471,-178.9831 152.6257,-180.4332 155.2578,-181.8406"/>
<polygon fill="#191970" stroke="#191970" points="153.8392,-185.0454 164.341,-186.4466 157.0051,-178.8022 153.8392,-185.0454"/>
</g>
<!-- Node3 -->
<g id="node4" class="node">
<title>Node3</title>
<g id="a_node4"><a xlink:href="classLibBBB_1_1IO_1_1UserLED.html#a0273b7090979ffedfd6cfb0422d886c4" target="_top" xlink:title="~UserLED destroys the LED. ">
<polygon fill="#ffffff" stroke="#000000" points="147.572,-135.5 147.572,-167.5 259.144,-167.5 259.144,-135.5 147.572,-135.5"/>
<text text-anchor="start" x="155.572" y="-154.5" font-family="Helvetica,sans-Serif" font-size="10.00" fill="#000000">LibBBB::IO::UserLED</text>
<text text-anchor="middle" x="203.358" y="-142.5" font-family="Helvetica,sans-Serif" font-size="10.00" fill="#000000">::~UserLED</text>
</a>
</g>
</g>
<!-- Node0&#45;&gt;Node3 -->
<g id="edge3" class="edge">
<title>Node0&#45;&gt;Node3</title>
<path fill="none" stroke="#191970" d="M108.6461,-122.6189C119.1572,-125.8241 130.2859,-129.2177 141.078,-132.5086"/>
<polygon fill="#191970" stroke="#191970" points="140.2809,-135.9246 150.867,-135.4936 142.3227,-129.229 140.2809,-135.9246"/>
</g>
<!-- Node4 -->
<g id="node5" class="node">
<title>Node4</title>
<g id="a_node5"><a xlink:href="classLibBBB_1_1IO_1_1UserLED.html#a5d6714d1ddc854308c1d4cc5448ded07" target="_top" xlink:title="setState method sets the state of the LED ">
<polygon fill="#ffffff" stroke="#000000" points="306.261,-48.5 306.261,-80.5 417.833,-80.5 417.833,-48.5 306.261,-48.5"/>
<text text-anchor="start" x="314.261" y="-67.5" font-family="Helvetica,sans-Serif" font-size="10.00" fill="#000000">LibBBB::IO::UserLED</text>
<text text-anchor="middle" x="362.047" y="-55.5" font-family="Helvetica,sans-Serif" font-size="10.00" fill="#000000">::setState</text>
</a>
</g>
</g>
<!-- Node0&#45;&gt;Node4 -->
<g id="edge4" class="edge">
<title>Node0&#45;&gt;Node4</title>
<path fill="none" stroke="#191970" d="M111.6952,-103.1915C152.6811,-100.3016 209.583,-95.3217 259.144,-87.5 271.1517,-85.605 283.8539,-83.1454 296.0824,-80.5418"/>
<polygon fill="#191970" stroke="#191970" points="297.1935,-83.8818 306.2173,-78.3301 295.7009,-77.0427 297.1935,-83.8818"/>
</g>
<!-- Node5 -->
<g id="node6" class="node">
<title>Node5</title>
<g id="a_node6"><a xlink:href="classLibBBB_1_1IO_1_1UserLED.html#a98c0a865b590a4149e3b5a8d8c97d6cd" target="_top" xlink:title="state getter ">
<polygon fill="#ffffff" stroke="#000000" points="467.174,-.5 467.174,-32.5 578.746,-32.5 578.746,-.5 467.174,-.5"/>
<text text-anchor="start" x="475.174" y="-19.5" font-family="Helvetica,sans-Serif" font-size="10.00" fill="#000000">LibBBB::IO::UserLED</text>
<text text-anchor="middle" x="522.96" y="-7.5" font-family="Helvetica,sans-Serif" font-size="10.00" fill="#000000">::state</text>
</a>
</g>
</g>
<!-- Node0&#45;&gt;Node5 -->
<g id="edge7" class="edge">
<title>Node0&#45;&gt;Node5</title>
<path fill="none" stroke="#191970" d="M70.8768,-90.2713C87.732,-73.3811 116.7254,-47.8434 147.572,-36.5 250.5995,1.3868 380.2917,-1.8779 457.1349,-8.574"/>
<polygon fill="#191970" stroke="#191970" points="456.8805,-12.0653 467.1584,-9.4933 457.5199,-5.0945 456.8805,-12.0653"/>
</g>
<!-- Node7 -->
<g id="node8" class="node">
<title>Node7</title>
<g id="a_node8"><a xlink:href="classLibBBB_1_1IO_1_1UserLED.html#a3ae6a5944f06980dee85eb4504ec9eb0" target="_top" xlink:title="changeBlinkTime method changes the time of the blink ">
<polygon fill="#ffffff" stroke="#000000" points="147.572,-45.5 147.572,-77.5 259.144,-77.5 259.144,-45.5 147.572,-45.5"/>
<text text-anchor="start" x="155.572" y="-64.5" font-family="Helvetica,sans-Serif" font-size="10.00" fill="#000000">LibBBB::IO::UserLED</text>
<text text-anchor="middle" x="203.358" y="-52.5" font-family="Helvetica,sans-Serif" font-size="10.00" fill="#000000">::changeBlinkTime</text>
</a>
</g>
</g>
<!-- Node0&#45;&gt;Node7 -->
<g id="edge8" class="edge">
<title>Node0&#45;&gt;Node7</title>
<path fill="none" stroke="#191970" d="M108.6461,-90.3811C119.1572,-87.1759 130.2859,-83.7823 141.078,-80.4914"/>
<polygon fill="#191970" stroke="#191970" points="142.3227,-83.771 150.867,-77.5064 140.2809,-77.0754 142.3227,-83.771"/>
</g>
<!-- Node2 -->
<g id="node3" class="node">
<title>Node2</title>
<g id="a_node3"><a xlink:href="namespaceLibBBB_1_1IO.html#a01392ab9bdaf95b9edb9f12fa4e8e215" target="_top" xlink:title="LibBBB::IO::enumToString">
<polygon fill="#ffffff" stroke="#000000" points="295.144,-192.5 295.144,-212.5 428.95,-212.5 428.95,-192.5 295.144,-192.5"/>
<text text-anchor="middle" x="362.047" y="-199.5" font-family="Helvetica,sans-Serif" font-size="10.00" fill="#000000">LibBBB::IO::enumToString</text>
</a>
</g>
</g>
<!-- Node1&#45;&gt;Node2 -->
<g id="edge2" class="edge">
<title>Node1&#45;&gt;Node2</title>
<path fill="none" stroke="#191970" d="M259.3058,-202.5C267.5794,-202.5 276.2258,-202.5 284.8385,-202.5"/>
<polygon fill="#191970" stroke="#191970" points="284.9094,-206.0001 294.9094,-202.5 284.9094,-199.0001 284.9094,-206.0001"/>
</g>
<!-- Node4&#45;&gt;Node5 -->
<g id="edge5" class="edge">
<title>Node4&#45;&gt;Node5</title>
<path fill="none" stroke="#191970" d="M416.0763,-48.3832C429.9486,-44.2451 445,-39.7553 459.3092,-35.4869"/>
<polygon fill="#191970" stroke="#191970" points="460.491,-38.7868 469.0733,-32.5743 458.49,-32.0789 460.491,-38.7868"/>
</g>
<!-- Node6 -->
<g id="node7" class="node">
<title>Node6</title>
<g id="a_node7"><a xlink:href="classLibBBB_1_1ThreadHelper.html#a6999e18135496ef252b1c43c374c20f9" target="_top" xlink:title="startDetachedThread ">
<polygon fill="#ffffff" stroke="#000000" points="464.95,-51.5 464.95,-83.5 580.97,-83.5 580.97,-51.5 464.95,-51.5"/>
<text text-anchor="start" x="472.95" y="-70.5" font-family="Helvetica,sans-Serif" font-size="10.00" fill="#000000">LibBBB::ThreadHelper</text>
<text text-anchor="middle" x="522.96" y="-58.5" font-family="Helvetica,sans-Serif" font-size="10.00" fill="#000000">::startDetachedThread</text>
</a>
</g>
</g>
<!-- Node4&#45;&gt;Node6 -->
<g id="edge6" class="edge">
<title>Node4&#45;&gt;Node6</title>
<path fill="none" stroke="#191970" d="M417.875,-65.5408C429.7179,-65.7616 442.3488,-65.9971 454.597,-66.2255"/>
<polygon fill="#191970" stroke="#191970" points="454.7063,-69.728 464.7699,-66.4151 454.8369,-62.7292 454.7063,-69.728"/>
</g>
<!-- Node7&#45;&gt;Node4 -->
<g id="edge9" class="edge">
<title>Node7&#45;&gt;Node4</title>
<path fill="none" stroke="#191970" d="M259.3058,-62.5577C271.1571,-62.7817 283.7732,-63.0202 295.9599,-63.2506"/>
<polygon fill="#191970" stroke="#191970" points="296.0051,-66.752 306.0695,-63.4418 296.1375,-59.7533 296.0051,-66.752"/>
</g>
</g>
</svg>
