<?xml version="1.0" encoding="UTF-8" standalone="no"?>
<!DOCTYPE svg PUBLIC "-//W3C//DTD SVG 1.1//EN"
 "http://www.w3.org/Graphics/SVG/1.1/DTD/svg11.dtd">
<!-- Generated by graphviz version 2.40.1 (20161225.0304)
 -->
<!-- Title: LibBBB::IO::Output::Setup::Setup Pages: 1 -->
<svg width="533pt" height="335pt"
 viewBox="0.00 0.00 532.89 335.00" xmlns="http://www.w3.org/2000/svg" xmlns:xlink="http://www.w3.org/1999/xlink">
<g id="graph0" class="graph" transform="scale(1 1) rotate(0) translate(4 331)">
<title>LibBBB::IO::Output::Setup::Setup</title>
<polygon fill="#ffffff" stroke="transparent" points="-4,4 -4,-331 528.891,-331 528.891,4 -4,4"/>
<!-- Node0 -->
<g id="node1" class="node">
<title>Node0</title>
<polygon fill="#bfbfbf" stroke="#000000" points="0,-153.5 0,-185.5 101.032,-185.5 101.032,-153.5 0,-153.5"/>
<text text-anchor="start" x="8" y="-172.5" font-family="Helvetica,sans-Serif" font-size="10.00" fill="#000000">LibBBB::IO::Output</text>
<text text-anchor="middle" x="50.516" y="-160.5" font-family="Helvetica,sans-Serif" font-size="10.00" fill="#000000">::Setup::Setup</text>
</g>
<!-- Node1 -->
<g id="node2" class="node">
<title>Node1</title>
<g id="a_node2"><a xlink:href="classLibBBB_1_1IO_1_1Output.html#ac8610e35f05b7facdf904c7f3033381b" target="_top" xlink:title="Output constructs an output based on the given setup. The constructor will automatically export the p...">
<polygon fill="#ffffff" stroke="#000000" points="140.0825,-294.5 140.0825,-326.5 241.1145,-326.5 241.1145,-294.5 140.0825,-294.5"/>
<text text-anchor="start" x="148.0825" y="-313.5" font-family="Helvetica,sans-Serif" font-size="10.00" fill="#000000">LibBBB::IO::Output</text>
<text text-anchor="middle" x="190.5985" y="-301.5" font-family="Helvetica,sans-Serif" font-size="10.00" fill="#000000">::Output</text>
</a>
</g>
</g>
<!-- Node0&#45;&gt;Node1 -->
<g id="edge1" class="edge">
<title>Node0&#45;&gt;Node1</title>
<path fill="none" stroke="#191970" d="M59.1354,-185.7377C72.8046,-210.18 101.5735,-256.6311 137.032,-285.5 138.5541,-286.7392 140.1477,-287.9328 141.7937,-289.0807"/>
<polygon fill="#191970" stroke="#191970" points="140.0354,-292.1091 150.371,-294.4385 143.7439,-286.1721 140.0354,-292.1091"/>
</g>
<!-- Node2 -->
<g id="node3" class="node">
<title>Node2</title>
<g id="a_node3"><a xlink:href="classLibBBB_1_1IO_1_1Output.html#aeb10fe82d25a97cf13bcc750190cac27" target="_top" xlink:title="~Output destroys the output. This automatically unexports the pin. ">
<polygon fill="#ffffff" stroke="#000000" points="140.0825,-243.5 140.0825,-275.5 241.1145,-275.5 241.1145,-243.5 140.0825,-243.5"/>
<text text-anchor="start" x="148.0825" y="-262.5" font-family="Helvetica,sans-Serif" font-size="10.00" fill="#000000">LibBBB::IO::Output</text>
<text text-anchor="middle" x="190.5985" y="-250.5" font-family="Helvetica,sans-Serif" font-size="10.00" fill="#000000">::~Output</text>
</a>
</g>
</g>
<!-- Node0&#45;&gt;Node2 -->
<g id="edge2" class="edge">
<title>Node0&#45;&gt;Node2</title>
<path fill="none" stroke="#191970" d="M73.3424,-185.746C90.6103,-197.8685 115.0268,-214.6557 137.032,-228.5 142.1591,-231.7256 147.6257,-235.0339 153.0338,-238.2321"/>
<polygon fill="#191970" stroke="#191970" points="151.6095,-241.4535 162.0094,-243.4763 155.1408,-235.4095 151.6095,-241.4535"/>
</g>
<!-- Node3 -->
<g id="node4" class="node">
<title>Node3</title>
<g id="a_node4"><a xlink:href="classLibBBB_1_1IO_1_1Output.html#a6ae67445b434b37d11e75cb0391e0b3f" target="_top" xlink:title="setValue setter ">
<polygon fill="#ffffff" stroke="#000000" points="281.8305,-175.5 281.8305,-207.5 382.8625,-207.5 382.8625,-175.5 281.8305,-175.5"/>
<text text-anchor="start" x="289.8305" y="-194.5" font-family="Helvetica,sans-Serif" font-size="10.00" fill="#000000">LibBBB::IO::Output</text>
<text text-anchor="middle" x="332.3465" y="-182.5" font-family="Helvetica,sans-Serif" font-size="10.00" fill="#000000">::setValue</text>
</a>
</g>
</g>
<!-- Node0&#45;&gt;Node3 -->
<g id="edge3" class="edge">
<title>Node0&#45;&gt;Node3</title>
<path fill="none" stroke="#191970" d="M94.8554,-185.5292C108.2278,-189.6239 123.0667,-193.4469 137.032,-195.5 181.6958,-202.0662 232.7158,-200.7229 271.4079,-197.92"/>
<polygon fill="#191970" stroke="#191970" points="271.7731,-201.4023 281.472,-197.1382 271.2309,-194.4233 271.7731,-201.4023"/>
</g>
<!-- Node5 -->
<g id="node6" class="node">
<title>Node5</title>
<g id="a_node6"><a xlink:href="classLibBBB_1_1IO_1_1Output.html#ab3936146b148bfe33ddf8f02ef64d5bf" target="_top" xlink:title="isToggling getter ">
<polygon fill="#ffffff" stroke="#000000" points="140.0825,-51.5 140.0825,-83.5 241.1145,-83.5 241.1145,-51.5 140.0825,-51.5"/>
<text text-anchor="start" x="148.0825" y="-70.5" font-family="Helvetica,sans-Serif" font-size="10.00" fill="#000000">LibBBB::IO::Output</text>
<text text-anchor="middle" x="190.5985" y="-58.5" font-family="Helvetica,sans-Serif" font-size="10.00" fill="#000000">::isToggling</text>
</a>
</g>
</g>
<!-- Node0&#45;&gt;Node5 -->
<g id="edge5" class="edge">
<title>Node0&#45;&gt;Node5</title>
<path fill="none" stroke="#191970" d="M65.9371,-153.2212C82.4028,-136.4837 109.8201,-110.4049 137.032,-92.5 139.17,-91.0933 141.3997,-89.7234 143.683,-88.3965"/>
<polygon fill="#191970" stroke="#191970" points="145.5632,-91.3581 152.6749,-83.5049 142.2181,-85.2091 145.5632,-91.3581"/>
</g>
<!-- Node6 -->
<g id="node7" class="node">
<title>Node6</title>
<g id="a_node7"><a xlink:href="classLibBBB_1_1IO_1_1Output.html#a70c6eac9a46013605717fef0ba6c2010" target="_top" xlink:title="toggleOutput method toggles the output once ">
<polygon fill="#ffffff" stroke="#000000" points="140.0825,-153.5 140.0825,-185.5 241.1145,-185.5 241.1145,-153.5 140.0825,-153.5"/>
<text text-anchor="start" x="148.0825" y="-172.5" font-family="Helvetica,sans-Serif" font-size="10.00" fill="#000000">LibBBB::IO::Output</text>
<text text-anchor="middle" x="190.5985" y="-160.5" font-family="Helvetica,sans-Serif" font-size="10.00" fill="#000000">::toggleOutput</text>
</a>
</g>
</g>
<!-- Node0&#45;&gt;Node6 -->
<g id="edge6" class="edge">
<title>Node0&#45;&gt;Node6</title>
<path fill="none" stroke="#191970" d="M101.089,-169.5C110.2974,-169.5 119.9934,-169.5 129.4683,-169.5"/>
<polygon fill="#191970" stroke="#191970" points="129.6293,-173.0001 139.6292,-169.5 129.6292,-166.0001 129.6293,-173.0001"/>
</g>
<!-- Node9 -->
<g id="node10" class="node">
<title>Node9</title>
<g id="a_node10"><a xlink:href="classLibBBB_1_1IO_1_1Output.html#aa29e923ee8405b56a89ff7e43469ec8c" target="_top" xlink:title="changeToggleTime changes the toggling time ">
<polygon fill="#ffffff" stroke="#000000" points="137.032,-.5 137.032,-32.5 244.165,-32.5 244.165,-.5 137.032,-.5"/>
<text text-anchor="start" x="145.032" y="-19.5" font-family="Helvetica,sans-Serif" font-size="10.00" fill="#000000">LibBBB::IO::Output</text>
<text text-anchor="middle" x="190.5985" y="-7.5" font-family="Helvetica,sans-Serif" font-size="10.00" fill="#000000">::changeToggleTime</text>
</a>
</g>
</g>
<!-- Node0&#45;&gt;Node9 -->
<g id="edge10" class="edge">
<title>Node0&#45;&gt;Node9</title>
<path fill="none" stroke="#191970" d="M57.8728,-153.2877C70.6089,-126.7828 99.0856,-73.8886 137.032,-41.5 138.3736,-40.3549 139.7766,-39.2508 141.2266,-38.1875"/>
<polygon fill="#191970" stroke="#191970" points="143.4551,-40.9141 149.9458,-32.5402 139.6497,-35.0388 143.4551,-40.9141"/>
</g>
<!-- Node10 -->
<g id="node11" class="node">
<title>Node10</title>
<g id="a_node11"><a xlink:href="classLibBBB_1_1IO_1_1Output.html#a4fd232f60d3148259f6d5d91e842950a" target="_top" xlink:title="cancelToggle cancels toggling ">
<polygon fill="#ffffff" stroke="#000000" points="140.0825,-102.5 140.0825,-134.5 241.1145,-134.5 241.1145,-102.5 140.0825,-102.5"/>
<text text-anchor="start" x="148.0825" y="-121.5" font-family="Helvetica,sans-Serif" font-size="10.00" fill="#000000">LibBBB::IO::Output</text>
<text text-anchor="middle" x="190.5985" y="-109.5" font-family="Helvetica,sans-Serif" font-size="10.00" fill="#000000">::cancelToggle</text>
</a>
</g>
</g>
<!-- Node0&#45;&gt;Node10 -->
<g id="edge11" class="edge">
<title>Node0&#45;&gt;Node10</title>
<path fill="none" stroke="#191970" d="M94.839,-153.3633C108.2551,-148.4789 123.1331,-143.0622 137.0835,-137.9833"/>
<polygon fill="#191970" stroke="#191970" points="138.3646,-141.2417 146.5639,-134.5317 135.9698,-134.664 138.3646,-141.2417"/>
</g>
<!-- Node4 -->
<g id="node5" class="node">
<title>Node4</title>
<g id="a_node5"><a xlink:href="classLibBBB_1_1IO_1_1IOBase.html#a8b8069af640a6ca1d8ad885015d2e2e5" target="_top" xlink:title="write write function that writes a single string value to a file in the path provided ...">
<polygon fill="#ffffff" stroke="#000000" points="420.528,-175.5 420.528,-207.5 524.891,-207.5 524.891,-175.5 420.528,-175.5"/>
<text text-anchor="start" x="428.528" y="-194.5" font-family="Helvetica,sans-Serif" font-size="10.00" fill="#000000">LibBBB::IO::IOBase</text>
<text text-anchor="middle" x="472.7095" y="-182.5" font-family="Helvetica,sans-Serif" font-size="10.00" fill="#000000">::write</text>
</a>
</g>
</g>
<!-- Node3&#45;&gt;Node4 -->
<g id="edge4" class="edge">
<title>Node3&#45;&gt;Node4</title>
<path fill="none" stroke="#191970" d="M383.0208,-191.5C391.8071,-191.5 401.0365,-191.5 410.0958,-191.5"/>
<polygon fill="#191970" stroke="#191970" points="410.219,-195.0001 420.2189,-191.5 410.2189,-188.0001 410.219,-195.0001"/>
</g>
<!-- Node6&#45;&gt;Node3 -->
<g id="edge9" class="edge">
<title>Node6&#45;&gt;Node3</title>
<path fill="none" stroke="#191970" d="M241.3724,-177.3804C251.1435,-178.8969 261.4702,-180.4996 271.5217,-182.0597"/>
<polygon fill="#191970" stroke="#191970" points="271.0322,-185.5255 281.4507,-183.6007 272.1058,-178.6083 271.0322,-185.5255"/>
</g>
<!-- Node7 -->
<g id="node8" class="node">
<title>Node7</title>
<g id="a_node8"><a xlink:href="classLibBBB_1_1IO_1_1IOBase.html#a8ae8a79c81d61625f5b864abebe944a2" target="_top" xlink:title="getValue getter ">
<polygon fill="#ffffff" stroke="#000000" points="280.165,-124.5 280.165,-156.5 384.528,-156.5 384.528,-124.5 280.165,-124.5"/>
<text text-anchor="start" x="288.165" y="-143.5" font-family="Helvetica,sans-Serif" font-size="10.00" fill="#000000">LibBBB::IO::IOBase</text>
<text text-anchor="middle" x="332.3465" y="-131.5" font-family="Helvetica,sans-Serif" font-size="10.00" fill="#000000">::getValue</text>
</a>
</g>
</g>
<!-- Node6&#45;&gt;Node7 -->
<g id="edge7" class="edge">
<title>Node6&#45;&gt;Node7</title>
<path fill="none" stroke="#191970" d="M241.3724,-159.1122C250.6879,-157.2064 260.5085,-155.1972 270.1142,-153.232"/>
<polygon fill="#191970" stroke="#191970" points="270.9207,-156.6396 280.0162,-151.2062 269.5176,-149.7816 270.9207,-156.6396"/>
</g>
<!-- Node8 -->
<g id="node9" class="node">
<title>Node8</title>
<g id="a_node9"><a xlink:href="classLibBBB_1_1IO_1_1IOBase.html#aa317b2515288dbe3905b675a9033e2fa" target="_top" xlink:title="read function that reads the value of the given file filename ">
<polygon fill="#ffffff" stroke="#000000" points="420.528,-124.5 420.528,-156.5 524.891,-156.5 524.891,-124.5 420.528,-124.5"/>
<text text-anchor="start" x="428.528" y="-143.5" font-family="Helvetica,sans-Serif" font-size="10.00" fill="#000000">LibBBB::IO::IOBase</text>
<text text-anchor="middle" x="472.7095" y="-131.5" font-family="Helvetica,sans-Serif" font-size="10.00" fill="#000000">::read</text>
</a>
</g>
</g>
<!-- Node7&#45;&gt;Node8 -->
<g id="edge8" class="edge">
<title>Node7&#45;&gt;Node8</title>
<path fill="none" stroke="#191970" d="M384.6125,-140.5C393.0158,-140.5 401.7864,-140.5 410.3969,-140.5"/>
<polygon fill="#191970" stroke="#191970" points="410.3999,-144.0001 420.3998,-140.5 410.3998,-137.0001 410.3999,-144.0001"/>
</g>
<!-- Node10&#45;&gt;Node3 -->
<g id="edge14" class="edge">
<title>Node10&#45;&gt;Node3</title>
<path fill="none" stroke="#191970" d="M224.8549,-134.5165C231.3261,-137.7138 237.9969,-141.1286 244.165,-144.5 260.6187,-153.4933 263.6884,-157.5486 280.165,-166.5 282.8586,-167.9634 285.6514,-169.4331 288.4816,-170.8868"/>
<polygon fill="#191970" stroke="#191970" points="287.0646,-174.0917 297.5723,-175.4483 290.2041,-167.8351 287.0646,-174.0917"/>
</g>
<!-- Node10&#45;&gt;Node7 -->
<g id="edge13" class="edge">
<title>Node10&#45;&gt;Node7</title>
<path fill="none" stroke="#191970" d="M241.3724,-126.3804C250.6879,-127.8262 260.5085,-129.3504 270.1142,-130.8412"/>
<polygon fill="#191970" stroke="#191970" points="269.5977,-134.3029 280.0162,-132.3781 270.6714,-127.3857 269.5977,-134.3029"/>
</g>
<!-- Node11 -->
<g id="node12" class="node">
<title>Node11</title>
<g id="a_node12"><a xlink:href="classLibBBB_1_1IO_1_1IOBase.html#a71d8f1f57eb6de8ed0187eaad8902b1c" target="_top" xlink:title="path getter ">
<polygon fill="#ffffff" stroke="#000000" points="280.165,-73.5 280.165,-105.5 384.528,-105.5 384.528,-73.5 280.165,-73.5"/>
<text text-anchor="start" x="288.165" y="-92.5" font-family="Helvetica,sans-Serif" font-size="10.00" fill="#000000">LibBBB::IO::IOBase</text>
<text text-anchor="middle" x="332.3465" y="-80.5" font-family="Helvetica,sans-Serif" font-size="10.00" fill="#000000">::path</text>
</a>
</g>
</g>
<!-- Node10&#45;&gt;Node11 -->
<g id="edge12" class="edge">
<title>Node10&#45;&gt;Node11</title>
<path fill="none" stroke="#191970" d="M241.3724,-108.1122C250.6879,-106.2064 260.5085,-104.1972 270.1142,-102.232"/>
<polygon fill="#191970" stroke="#191970" points="270.9207,-105.6396 280.0162,-100.2062 269.5176,-98.7816 270.9207,-105.6396"/>
</g>
</g>
</svg>
