<?xml version="1.0" encoding="UTF-8" standalone="no"?>
<!DOCTYPE svg PUBLIC "-//W3C//DTD SVG 1.1//EN"
 "http://www.w3.org/Graphics/SVG/1.1/DTD/svg11.dtd">
<!-- Generated by graphviz version 2.40.1 (20161225.0304)
 -->
<!-- Title: Core::IO::Input::Setup::Setup Pages: 1 -->
<svg width="837pt" height="412pt"
 viewBox="0.00 0.00 836.63 412.35" xmlns="http://www.w3.org/2000/svg" xmlns:xlink="http://www.w3.org/1999/xlink">
<g id="graph0" class="graph" transform="scale(1 1) rotate(0) translate(4 408.3476)">
<title>Core::IO::Input::Setup::Setup</title>
<polygon fill="#ffffff" stroke="transparent" points="-4,4 -4,-408.3476 832.634,-408.3476 832.634,4 -4,4"/>
<!-- Node0 -->
<g id="node1" class="node">
<title>Node0</title>
<polygon fill="#bfbfbf" stroke="#000000" points="0,-193.5 0,-225.5 113.258,-225.5 113.258,-193.5 0,-193.5"/>
<text text-anchor="start" x="8" y="-212.5" font-family="Helvetica,sans-Serif" font-size="10.00" fill="#000000">Core::IO::Input::Setup</text>
<text text-anchor="middle" x="56.629" y="-200.5" font-family="Helvetica,sans-Serif" font-size="10.00" fill="#000000">::Setup</text>
</g>
<!-- Node1 -->
<g id="node2" class="node">
<title>Node1</title>
<g id="a_node2"><a xlink:href="classCore_1_1IO_1_1Input.html#ae490cffe2162d4538dd108b0bd1f3695" target="_top" xlink:title="Input constructs an input based on the given setup. The constructor will automatically export the pin...">
<polygon fill="#ffffff" stroke="#000000" points="178.9835,-336.5 178.9835,-356.5 288.3515,-356.5 288.3515,-336.5 178.9835,-336.5"/>
<text text-anchor="middle" x="233.6675" y="-343.5" font-family="Helvetica,sans-Serif" font-size="10.00" fill="#000000">Core::IO::Input::Input</text>
</a>
</g>
</g>
<!-- Node0&#45;&gt;Node1 -->
<g id="edge1" class="edge">
<title>Node0&#45;&gt;Node1</title>
<path fill="none" stroke="#191970" d="M65.7691,-225.819C80.2888,-250.256 110.9419,-296.1844 149.258,-321.5 156.3153,-326.1628 164.2662,-329.9779 172.3946,-333.094"/>
<polygon fill="#191970" stroke="#191970" points="171.3803,-336.447 181.9751,-336.4398 173.6882,-329.8384 171.3803,-336.447"/>
</g>
<!-- Node2 -->
<g id="node3" class="node">
<title>Node2</title>
<g id="a_node3"><a xlink:href="classCore_1_1IO_1_1Input.html#a508adf10c37a35a1284b45132159ad85" target="_top" xlink:title="setEdgeType sets the desired edge ">
<polygon fill="#ffffff" stroke="#000000" points="354.3565,-381.5 354.3565,-401.5 500.4005,-401.5 500.4005,-381.5 354.3565,-381.5"/>
<text text-anchor="middle" x="427.3785" y="-388.5" font-family="Helvetica,sans-Serif" font-size="10.00" fill="#000000">Core::IO::Input::setEdgeType</text>
</a>
</g>
</g>
<!-- Node0&#45;&gt;Node2 -->
<g id="edge11" class="edge">
<title>Node0&#45;&gt;Node2</title>
<path fill="none" stroke="#191970" d="M60.8682,-225.8683C70.3832,-258.9335 96.8263,-333.3566 149.258,-366.5 209.7857,-404.7611 293.0534,-407.1934 352.6708,-402.4044"/>
<polygon fill="#191970" stroke="#191970" points="353.1206,-405.8783 362.7712,-401.5063 352.5005,-398.9058 353.1206,-405.8783"/>
</g>
<!-- Node5 -->
<g id="node6" class="node">
<title>Node5</title>
<g id="a_node6"><a xlink:href="classCore_1_1IO_1_1Input.html#a35ee0fc0d31172da73135b8ddc543fff" target="_top" xlink:title="waitForEdgeThreaded does the same thing as waitForEdge(), but does so in a threaded manner...">
<polygon fill="#ffffff" stroke="#000000" points="367.4255,-279.5 367.4255,-311.5 487.3315,-311.5 487.3315,-279.5 367.4255,-279.5"/>
<text text-anchor="start" x="375.4255" y="-298.5" font-family="Helvetica,sans-Serif" font-size="10.00" fill="#000000">Core::IO::Input::waitFor</text>
<text text-anchor="middle" x="427.3785" y="-286.5" font-family="Helvetica,sans-Serif" font-size="10.00" fill="#000000">EdgeThreaded</text>
</a>
</g>
</g>
<!-- Node0&#45;&gt;Node5 -->
<g id="edge19" class="edge">
<title>Node0&#45;&gt;Node5</title>
<path fill="none" stroke="#191970" d="M69.3201,-225.5703C85.5146,-244.6698 115.5052,-275.5768 149.258,-288.5 216.3838,-314.201 299.4503,-312.387 357.2415,-306.3626"/>
<polygon fill="#191970" stroke="#191970" points="357.8167,-309.8203 367.3689,-305.2369 357.0434,-302.8631 357.8167,-309.8203"/>
</g>
<!-- Node7 -->
<g id="node8" class="node">
<title>Node7</title>
<g id="a_node8"><a xlink:href="classCore_1_1IO_1_1Input.html#a0d76aba41f92c2d72d830c2e87a1e7c1" target="_top" xlink:title="~Input destroys the input. This automatically unexports the pin. ">
<polygon fill="#ffffff" stroke="#000000" points="176.064,-258.5 176.064,-278.5 291.271,-278.5 291.271,-258.5 176.064,-258.5"/>
<text text-anchor="middle" x="233.6675" y="-265.5" font-family="Helvetica,sans-Serif" font-size="10.00" fill="#000000">Core::IO::Input::~Input</text>
</a>
</g>
</g>
<!-- Node0&#45;&gt;Node7 -->
<g id="edge8" class="edge">
<title>Node0&#45;&gt;Node7</title>
<path fill="none" stroke="#191970" d="M89.9237,-225.6686C107.3065,-233.6482 129.1025,-242.943 149.258,-249.5 156.5898,-251.8852 164.3749,-254.0777 172.1367,-256.059"/>
<polygon fill="#191970" stroke="#191970" points="171.3745,-259.4757 181.92,-258.4542 173.0392,-252.6765 171.3745,-259.4757"/>
</g>
<!-- Node8 -->
<g id="node9" class="node">
<title>Node8</title>
<g id="a_node9"><a xlink:href="classCore_1_1IO_1_1Input.html#a7c79c442524c3ebf2456013de666f06e" target="_top" xlink:title="setDebounceTime sets the debounce time of the input. This ensures the input is in the proper state fo...">
<polygon fill="#ffffff" stroke="#000000" points="149.5375,-219.5 149.5375,-239.5 317.7975,-239.5 317.7975,-219.5 149.5375,-219.5"/>
<text text-anchor="middle" x="233.6675" y="-226.5" font-family="Helvetica,sans-Serif" font-size="10.00" fill="#000000">Core::IO::Input::setDebounceTime</text>
</a>
</g>
</g>
<!-- Node0&#45;&gt;Node8 -->
<g id="edge9" class="edge">
<title>Node0&#45;&gt;Node8</title>
<path fill="none" stroke="#191970" d="M113.6196,-215.9382C121.9186,-216.8757 130.6429,-217.8613 139.4427,-218.8554"/>
<polygon fill="#191970" stroke="#191970" points="139.0616,-222.3346 149.3914,-219.9793 139.8475,-215.3788 139.0616,-222.3346"/>
</g>
<!-- Node9 -->
<g id="node10" class="node">
<title>Node9</title>
<g id="a_node10"><a xlink:href="classCore_1_1IO_1_1Input.html#ab57cb0d55fc3fa920123f9e661eda1db" target="_top" xlink:title="getDebounceTime getter ">
<polygon fill="#ffffff" stroke="#000000" points="149.258,-180.5 149.258,-200.5 318.077,-200.5 318.077,-180.5 149.258,-180.5"/>
<text text-anchor="middle" x="233.6675" y="-187.5" font-family="Helvetica,sans-Serif" font-size="10.00" fill="#000000">Core::IO::Input::getDebounceTime</text>
</a>
</g>
</g>
<!-- Node0&#45;&gt;Node9 -->
<g id="edge10" class="edge">
<title>Node0&#45;&gt;Node9</title>
<path fill="none" stroke="#191970" d="M113.6196,-203.3837C121.7567,-202.5104 130.3027,-201.5932 138.9278,-200.6676"/>
<polygon fill="#191970" stroke="#191970" points="139.5001,-204.1264 149.0695,-199.5792 138.7531,-197.1663 139.5001,-204.1264"/>
</g>
<!-- Node10 -->
<g id="node11" class="node">
<title>Node10</title>
<g id="a_node11"><a xlink:href="classCore_1_1IO_1_1Input.html#a95ed615611d3f5dc6952f2fd9a647f8f" target="_top" xlink:title="getEdgeType getter ">
<polygon fill="#ffffff" stroke="#000000" points="354.077,-135.5 354.077,-155.5 500.68,-155.5 500.68,-135.5 354.077,-135.5"/>
<text text-anchor="middle" x="427.3785" y="-142.5" font-family="Helvetica,sans-Serif" font-size="10.00" fill="#000000">Core::IO::Input::getEdgeType</text>
</a>
</g>
</g>
<!-- Node0&#45;&gt;Node10 -->
<g id="edge12" class="edge">
<title>Node0&#45;&gt;Node10</title>
<path fill="none" stroke="#191970" d="M89.2719,-193.3296C106.6637,-185.4344 128.6661,-176.5666 149.258,-171.5 213.3172,-155.7382 287.8282,-149.386 343.5952,-146.8937"/>
<polygon fill="#191970" stroke="#191970" points="343.9366,-150.3827 353.7833,-146.4719 343.647,-143.3887 343.9366,-150.3827"/>
</g>
<!-- Node12 -->
<g id="node13" class="node">
<title>Node12</title>
<g id="a_node13"><a xlink:href="classCore_1_1IO_1_1Input.html#af505f10ed01aa26257a8709ba7211ba6" target="_top" xlink:title="setEdgeCallback setter ">
<polygon fill="#ffffff" stroke="#000000" points="171.759,-90.5 171.759,-122.5 295.576,-122.5 295.576,-90.5 171.759,-90.5"/>
<text text-anchor="start" x="179.759" y="-109.5" font-family="Helvetica,sans-Serif" font-size="10.00" fill="#000000">Core::IO::Input::setEdge</text>
<text text-anchor="middle" x="233.6675" y="-97.5" font-family="Helvetica,sans-Serif" font-size="10.00" fill="#000000">Callback</text>
</a>
</g>
</g>
<!-- Node0&#45;&gt;Node12 -->
<g id="edge14" class="edge">
<title>Node0&#45;&gt;Node12</title>
<path fill="none" stroke="#191970" d="M73.9141,-193.3867C91.7,-177.4791 120.7582,-153.3054 149.258,-137.5 156.6176,-133.4185 164.6204,-129.6814 172.6694,-126.3245"/>
<polygon fill="#191970" stroke="#191970" points="174.1123,-129.5172 182.1035,-122.5607 171.5184,-123.0155 174.1123,-129.5172"/>
</g>
<!-- Node13 -->
<g id="node14" class="node">
<title>Node13</title>
<g id="a_node14"><a xlink:href="classCore_1_1IO_1_1Input.html#a6ebaffcb31befe3e8ad3f1c753875499" target="_top" xlink:title="waitForEdge method is a blocking wait for edge. Therefore, the callee will halt its thread until this...">
<polygon fill="#ffffff" stroke="#000000" points="355.7525,-51.5 355.7525,-71.5 499.0045,-71.5 499.0045,-51.5 355.7525,-51.5"/>
<text text-anchor="middle" x="427.3785" y="-58.5" font-family="Helvetica,sans-Serif" font-size="10.00" fill="#000000">Core::IO::Input::waitForEdge</text>
</a>
</g>
</g>
<!-- Node0&#45;&gt;Node13 -->
<g id="edge15" class="edge">
<title>Node0&#45;&gt;Node13</title>
<path fill="none" stroke="#191970" d="M62.8451,-193.4193C74.7552,-165.0817 103.7233,-106.8554 149.258,-81.5 211.7291,-46.7139 294.6977,-45.4111 353.7142,-50.5339"/>
<polygon fill="#191970" stroke="#191970" points="353.4217,-54.0218 363.7076,-51.4823 354.0831,-47.0531 353.4217,-54.0218"/>
</g>
<!-- Node16 -->
<g id="node17" class="node">
<title>Node16</title>
<g id="a_node17"><a xlink:href="classCore_1_1IO_1_1Input.html#a6bf5d36ec1e0413c4f11f8bdd01792a0" target="_top" xlink:title="cancelWaitForEdge method cancels waiting for the edge. ">
<polygon fill="#ffffff" stroke="#000000" points="165.655,-.5 165.655,-32.5 301.68,-32.5 301.68,-.5 165.655,-.5"/>
<text text-anchor="start" x="173.655" y="-19.5" font-family="Helvetica,sans-Serif" font-size="10.00" fill="#000000">Core::IO::Input::cancelWait</text>
<text text-anchor="middle" x="233.6675" y="-7.5" font-family="Helvetica,sans-Serif" font-size="10.00" fill="#000000">ForEdge</text>
</a>
</g>
</g>
<!-- Node0&#45;&gt;Node16 -->
<g id="edge20" class="edge">
<title>Node0&#45;&gt;Node16</title>
<path fill="none" stroke="#191970" d="M61.5986,-193.4833C72.3724,-161.3019 100.8828,-88.3845 149.258,-47.5 153.8411,-43.6266 158.9508,-40.2175 164.3257,-37.2206"/>
<polygon fill="#191970" stroke="#191970" points="166.222,-40.1842 173.5755,-32.5569 163.0705,-33.9338 166.222,-40.1842"/>
</g>
<!-- Node1&#45;&gt;Node2 -->
<g id="edge2" class="edge">
<title>Node1&#45;&gt;Node2</title>
<path fill="none" stroke="#191970" d="M277.14,-356.5989C305.8026,-363.2573 343.5357,-372.0229 374.0159,-379.1036"/>
<polygon fill="#191970" stroke="#191970" points="373.5184,-382.5812 384.0511,-381.4348 375.1024,-375.7627 373.5184,-382.5812"/>
</g>
<!-- Node4 -->
<g id="node5" class="node">
<title>Node4</title>
<g id="a_node5"><a xlink:href="classCore_1_1IO_1_1IOBase.html#aca37988be943985f905a71ddae003214" target="_top" xlink:title="setActiveHighOrLow setter ">
<polygon fill="#ffffff" stroke="#000000" points="357.975,-330.5 357.975,-362.5 496.782,-362.5 496.782,-330.5 357.975,-330.5"/>
<text text-anchor="start" x="365.975" y="-349.5" font-family="Helvetica,sans-Serif" font-size="10.00" fill="#000000">Core::IO::IOBase::setActive</text>
<text text-anchor="middle" x="427.3785" y="-337.5" font-family="Helvetica,sans-Serif" font-size="10.00" fill="#000000">HighOrLow</text>
</a>
</g>
</g>
<!-- Node1&#45;&gt;Node4 -->
<g id="edge4" class="edge">
<title>Node1&#45;&gt;Node4</title>
<path fill="none" stroke="#191970" d="M288.4006,-346.5C306.8726,-346.5 327.8832,-346.5 347.8743,-346.5"/>
<polygon fill="#191970" stroke="#191970" points="347.9024,-350.0001 357.9024,-346.5 347.9023,-343.0001 347.9024,-350.0001"/>
</g>
<!-- Node1&#45;&gt;Node5 -->
<g id="edge6" class="edge">
<title>Node1&#45;&gt;Node5</title>
<path fill="none" stroke="#191970" d="M271.9386,-336.424C296.2019,-330.036 328.3221,-321.5795 357.0635,-314.0125"/>
<polygon fill="#191970" stroke="#191970" points="358.291,-317.3086 367.0703,-311.3779 356.5087,-310.5393 358.291,-317.3086"/>
</g>
<!-- Node3 -->
<g id="node4" class="node">
<title>Node3</title>
<g id="a_node4"><a xlink:href="classCore_1_1IO_1_1IOBase.html#a6a095d6e076e588f343984044a3bb084" target="_top" xlink:title="write write function that writes a single string value to a file in the path provided ...">
<polygon fill="#ffffff" stroke="#000000" points="545.8585,-358.5 545.8585,-378.5 665.2065,-378.5 665.2065,-358.5 545.8585,-358.5"/>
<text text-anchor="middle" x="605.5325" y="-365.5" font-family="Helvetica,sans-Serif" font-size="10.00" fill="#000000">Core::IO::IOBase::write</text>
</a>
</g>
</g>
<!-- Node2&#45;&gt;Node3 -->
<g id="edge3" class="edge">
<title>Node2&#45;&gt;Node3</title>
<path fill="none" stroke="#191970" d="M500.6118,-382.0455C512.1913,-380.5505 524.14,-379.0079 535.6406,-377.5232"/>
<polygon fill="#191970" stroke="#191970" points="536.142,-380.9876 545.6115,-376.2359 535.2456,-374.0452 536.142,-380.9876"/>
</g>
<!-- Node4&#45;&gt;Node3 -->
<g id="edge5" class="edge">
<title>Node4&#45;&gt;Node3</title>
<path fill="none" stroke="#191970" d="M497.0229,-355.1003C509.7289,-356.6693 522.9894,-358.3069 535.7008,-359.8766"/>
<polygon fill="#191970" stroke="#191970" points="535.4027,-363.3663 545.7563,-361.1183 536.2607,-356.419 535.4027,-363.3663"/>
</g>
<!-- Node6 -->
<g id="node7" class="node">
<title>Node6</title>
<g id="a_node7"><a xlink:href="classCore_1_1ThreadHelper.html#a138066760eabf36c1681bbd177db0446" target="_top" xlink:title="startDetachedThread ">
<polygon fill="#ffffff" stroke="#000000" points="547.797,-279.5 547.797,-311.5 663.268,-311.5 663.268,-279.5 547.797,-279.5"/>
<text text-anchor="start" x="555.797" y="-298.5" font-family="Helvetica,sans-Serif" font-size="10.00" fill="#000000">Core::ThreadHelper</text>
<text text-anchor="middle" x="605.5325" y="-286.5" font-family="Helvetica,sans-Serif" font-size="10.00" fill="#000000">::startDetachedThread</text>
</a>
</g>
</g>
<!-- Node5&#45;&gt;Node6 -->
<g id="edge7" class="edge">
<title>Node5&#45;&gt;Node6</title>
<path fill="none" stroke="#191970" d="M487.6933,-295.5C503.7436,-295.5 521.1895,-295.5 537.6163,-295.5"/>
<polygon fill="#191970" stroke="#191970" points="537.691,-299.0001 547.691,-295.5 537.691,-292.0001 537.691,-299.0001"/>
</g>
<!-- Node11 -->
<g id="node12" class="node">
<title>Node11</title>
<g id="a_node12"><a xlink:href="classCore_1_1IO_1_1IOBase.html#ab27139c5454e00719c3b5d8d17d6a8e8" target="_top" xlink:title="read function that reads the value of the given file filename ">
<polygon fill="#ffffff" stroke="#000000" points="710.385,-96.5 710.385,-116.5 828.634,-116.5 828.634,-96.5 710.385,-96.5"/>
<text text-anchor="middle" x="769.5095" y="-103.5" font-family="Helvetica,sans-Serif" font-size="10.00" fill="#000000">Core::IO::IOBase::read</text>
</a>
</g>
</g>
<!-- Node10&#45;&gt;Node11 -->
<g id="edge13" class="edge">
<title>Node10&#45;&gt;Node11</title>
<path fill="none" stroke="#191970" d="M500.7013,-138.9556C549.8935,-134.3495 616.1056,-127.7342 674.385,-120.5 682.7195,-119.4654 691.4522,-118.2968 700.1046,-117.0867"/>
<polygon fill="#191970" stroke="#191970" points="700.7882,-120.5248 710.1963,-115.6527 699.8034,-113.5944 700.7882,-120.5248"/>
</g>
<!-- Node14 -->
<g id="node15" class="node">
<title>Node14</title>
<g id="a_node15"><a xlink:href="classCore_1_1IO_1_1IOBase.html#adb7dec70c1c39b19d2166c8fdea6b1f9" target="_top" xlink:title="path getter ">
<polygon fill="#ffffff" stroke="#000000" points="546.683,-90.5 546.683,-110.5 664.382,-110.5 664.382,-90.5 546.683,-90.5"/>
<text text-anchor="middle" x="605.5325" y="-97.5" font-family="Helvetica,sans-Serif" font-size="10.00" fill="#000000">Core::IO::IOBase::path</text>
</a>
</g>
</g>
<!-- Node13&#45;&gt;Node14 -->
<g id="edge16" class="edge">
<title>Node13&#45;&gt;Node14</title>
<path fill="none" stroke="#191970" d="M473.2576,-71.5435C496.6357,-76.6612 525.2516,-82.9256 549.8802,-88.3171"/>
<polygon fill="#191970" stroke="#191970" points="549.2917,-91.771 559.8089,-90.4906 550.7887,-84.933 549.2917,-91.771"/>
</g>
<!-- Node15 -->
<g id="node16" class="node">
<title>Node15</title>
<g id="a_node16"><a xlink:href="classCore_1_1IO_1_1IOBase.html#a5516fd4c88b5d0557f19c0c77add9dbf" target="_top" xlink:title="getValue getter ">
<polygon fill="#ffffff" stroke="#000000" points="536.68,-51.5 536.68,-71.5 674.385,-71.5 674.385,-51.5 536.68,-51.5"/>
<text text-anchor="middle" x="605.5325" y="-58.5" font-family="Helvetica,sans-Serif" font-size="10.00" fill="#000000">Core::IO::IOBase::getValue</text>
</a>
</g>
</g>
<!-- Node13&#45;&gt;Node15 -->
<g id="edge17" class="edge">
<title>Node13&#45;&gt;Node15</title>
<path fill="none" stroke="#191970" d="M499.0705,-61.5C508.0625,-61.5 517.3004,-61.5 526.3982,-61.5"/>
<polygon fill="#191970" stroke="#191970" points="526.5898,-65.0001 536.5898,-61.5 526.5897,-58.0001 526.5898,-65.0001"/>
</g>
<!-- Node15&#45;&gt;Node11 -->
<g id="edge18" class="edge">
<title>Node15&#45;&gt;Node11</title>
<path fill="none" stroke="#191970" d="M642.3321,-71.5989C666.1731,-78.1415 697.4276,-86.7187 722.9862,-93.7327"/>
<polygon fill="#191970" stroke="#191970" points="722.2629,-97.1635 732.8327,-96.4348 724.1155,-90.4131 722.2629,-97.1635"/>
</g>
<!-- Node16&#45;&gt;Node13 -->
<g id="edge21" class="edge">
<title>Node16&#45;&gt;Node13</title>
<path fill="none" stroke="#191970" d="M301.6904,-32.302C325.5136,-37.8363 351.8976,-43.9654 374.3164,-49.1734"/>
<polygon fill="#191970" stroke="#191970" points="373.7818,-52.6424 384.3145,-51.496 375.3658,-45.8239 373.7818,-52.6424"/>
</g>
</g>
</svg>
