<?xml version="1.0" encoding="UTF-8" standalone="no"?>
<!DOCTYPE svg PUBLIC "-//W3C//DTD SVG 1.1//EN"
 "http://www.w3.org/Graphics/SVG/1.1/DTD/svg11.dtd">
<!-- Generated by graphviz version 2.40.1 (20161225.0304)
 -->
<!-- Title: ThreadHelper.h Pages: 1 -->
<svg width="383pt" height="86pt"
 viewBox="0.00 0.00 382.57 86.00" xmlns="http://www.w3.org/2000/svg" xmlns:xlink="http://www.w3.org/1999/xlink">
<g id="graph0" class="graph" transform="scale(1 1) rotate(0) translate(4 82)">
<title>ThreadHelper.h</title>
<polygon fill="#ffffff" stroke="transparent" points="-4,4 -4,-82 378.5735,-82 378.5735,4 -4,4"/>
<!-- Node2 -->
<g id="node1" class="node">
<title>Node2</title>
<polygon fill="#bfbfbf" stroke="#000000" points="120.838,-57.5 120.838,-77.5 206.294,-77.5 206.294,-57.5 120.838,-57.5"/>
<text text-anchor="middle" x="163.566" y="-64.5" font-family="Helvetica,sans-Serif" font-size="10.00" fill="#000000">ThreadHelper.h</text>
</g>
<!-- Node3 -->
<g id="node2" class="node">
<title>Node3</title>
<g id="a_node2"><a xlink:href="Input_8cpp.html" target="_top" xlink:title="Input.cpp">
<polygon fill="#ffffff" stroke="#000000" points="0,-.5 0,-20.5 57.132,-20.5 57.132,-.5 0,-.5"/>
<text text-anchor="middle" x="28.566" y="-7.5" font-family="Helvetica,sans-Serif" font-size="10.00" fill="#000000">Input.cpp</text>
</a>
</g>
</g>
<!-- Node2&#45;&gt;Node3 -->
<g id="edge1" class="edge">
<title>Node2&#45;&gt;Node3</title>
<path fill="none" stroke="#191970" d="M130.2866,-53.4487C106.2083,-43.2823 74.231,-29.7808 52.6065,-20.6504"/>
<polygon fill="#191970" stroke="#191970" points="129.1675,-56.7753 139.7415,-57.4408 131.8904,-50.3266 129.1675,-56.7753"/>
</g>
<!-- Node4 -->
<g id="node3" class="node">
<title>Node4</title>
<g id="a_node3"><a xlink:href="UserLED_8cpp.html" target="_top" xlink:title="UserLED.cpp">
<polygon fill="#ffffff" stroke="#000000" points="74.8405,-.5 74.8405,-20.5 150.2915,-20.5 150.2915,-.5 74.8405,-.5"/>
<text text-anchor="middle" x="112.566" y="-7.5" font-family="Helvetica,sans-Serif" font-size="10.00" fill="#000000">UserLED.cpp</text>
</a>
</g>
</g>
<!-- Node2&#45;&gt;Node4 -->
<g id="edge2" class="edge">
<title>Node2&#45;&gt;Node4</title>
<path fill="none" stroke="#191970" d="M147.7406,-49.8128C139.1481,-40.2094 128.8348,-28.6828 121.6048,-20.6022"/>
<polygon fill="#191970" stroke="#191970" points="145.1719,-52.1909 154.4482,-57.3095 150.3886,-47.5233 145.1719,-52.1909"/>
</g>
<!-- Node5 -->
<g id="node4" class="node">
<title>Node5</title>
<g id="a_node4"><a xlink:href="MotorControl_8cpp.html" target="_top" xlink:title="MotorControl.cpp">
<polygon fill="#ffffff" stroke="#000000" points="168.2285,-.5 168.2285,-20.5 260.9035,-20.5 260.9035,-.5 168.2285,-.5"/>
<text text-anchor="middle" x="214.566" y="-7.5" font-family="Helvetica,sans-Serif" font-size="10.00" fill="#000000">MotorControl.cpp</text>
</a>
</g>
</g>
<!-- Node2&#45;&gt;Node5 -->
<g id="edge3" class="edge">
<title>Node2&#45;&gt;Node5</title>
<path fill="none" stroke="#191970" d="M179.3914,-49.8128C187.9839,-40.2094 198.2972,-28.6828 205.5272,-20.6022"/>
<polygon fill="#191970" stroke="#191970" points="176.7434,-47.5233 172.6838,-57.3095 181.9601,-52.1909 176.7434,-47.5233"/>
</g>
<!-- Node6 -->
<g id="node5" class="node">
<title>Node6</title>
<g id="a_node5"><a xlink:href="ThreadHelper_8cpp.html" target="_top" xlink:title="ThreadHelper.cpp">
<polygon fill="#ffffff" stroke="#000000" points="278.5585,-.5 278.5585,-20.5 374.5735,-20.5 374.5735,-.5 278.5585,-.5"/>
<text text-anchor="middle" x="326.566" y="-7.5" font-family="Helvetica,sans-Serif" font-size="10.00" fill="#000000">ThreadHelper.cpp</text>
</a>
</g>
</g>
<!-- Node2&#45;&gt;Node6 -->
<g id="edge4" class="edge">
<title>Node2&#45;&gt;Node6</title>
<path fill="none" stroke="#191970" d="M201.8546,-54.1107C231.2263,-43.8396 271.132,-29.8849 297.814,-20.5544"/>
<polygon fill="#191970" stroke="#191970" points="200.6161,-50.8359 192.3319,-57.4408 202.9268,-57.4436 200.6161,-50.8359"/>
</g>
</g>
</svg>
