<?xml version="1.0" encoding="UTF-8" standalone="no"?>
<!DOCTYPE svg PUBLIC "-//W3C//DTD SVG 1.1//EN"
 "http://www.w3.org/Graphics/SVG/1.1/DTD/svg11.dtd">
<!-- Generated by graphviz version 2.40.1 (20161225.0304)
 -->
<!-- Title: ThreadHelper.h Pages: 1 -->
<svg width="517pt" height="86pt"
 viewBox="0.00 0.00 517.30 86.00" xmlns="http://www.w3.org/2000/svg" xmlns:xlink="http://www.w3.org/1999/xlink">
<g id="graph0" class="graph" transform="scale(1 1) rotate(0) translate(4 82)">
<title>ThreadHelper.h</title>
<polygon fill="#ffffff" stroke="transparent" points="-4,4 -4,-82 513.303,-82 513.303,4 -4,4"/>
<!-- Node2 -->
<g id="node1" class="node">
<title>Node2</title>
<polygon fill="#bfbfbf" stroke="#000000" points="204.5675,-57.5 204.5675,-77.5 290.0235,-77.5 290.0235,-57.5 204.5675,-57.5"/>
<text text-anchor="middle" x="247.2955" y="-64.5" font-family="Helvetica,sans-Serif" font-size="10.00" fill="#000000">ThreadHelper.h</text>
</g>
<!-- Node3 -->
<g id="node2" class="node">
<title>Node3</title>
<g id="a_node2"><a xlink:href="BluetoothManager_8cpp.html" target="_top" xlink:title="BluetoothManager.cpp">
<polygon fill="#ffffff" stroke="#000000" points="0,-.5 0,-20.5 116.591,-20.5 116.591,-.5 0,-.5"/>
<text text-anchor="middle" x="58.2955" y="-7.5" font-family="Helvetica,sans-Serif" font-size="10.00" fill="#000000">BluetoothManager.cpp</text>
</a>
</g>
</g>
<!-- Node2&#45;&gt;Node3 -->
<g id="edge1" class="edge">
<title>Node2&#45;&gt;Node3</title>
<path fill="none" stroke="#191970" d="M204.2259,-54.5107C170.0524,-44.2045 122.9752,-30.0066 91.6337,-20.5544"/>
<polygon fill="#191970" stroke="#191970" points="203.3565,-57.9042 213.9412,-57.4408 205.3777,-51.2023 203.3565,-57.9042"/>
</g>
<!-- Node4 -->
<g id="node3" class="node">
<title>Node4</title>
<g id="a_node3"><a xlink:href="Input_8cpp.html" target="_top" xlink:title="Input.cpp">
<polygon fill="#ffffff" stroke="#000000" points="134.7295,-.5 134.7295,-20.5 191.8615,-20.5 191.8615,-.5 134.7295,-.5"/>
<text text-anchor="middle" x="163.2955" y="-7.5" font-family="Helvetica,sans-Serif" font-size="10.00" fill="#000000">Input.cpp</text>
</a>
</g>
</g>
<!-- Node2&#45;&gt;Node4 -->
<g id="edge2" class="edge">
<title>Node2&#45;&gt;Node4</title>
<path fill="none" stroke="#191970" d="M223.7453,-51.5195C209.1344,-41.605 190.8057,-29.1676 178.183,-20.6022"/>
<polygon fill="#191970" stroke="#191970" points="222.0379,-54.5907 232.278,-57.3095 225.9685,-48.7983 222.0379,-54.5907"/>
</g>
<!-- Node5 -->
<g id="node4" class="node">
<title>Node5</title>
<g id="a_node4"><a xlink:href="UserLED_8cpp.html" target="_top" xlink:title="UserLED.cpp">
<polygon fill="#ffffff" stroke="#000000" points="209.57,-.5 209.57,-20.5 285.021,-20.5 285.021,-.5 209.57,-.5"/>
<text text-anchor="middle" x="247.2955" y="-7.5" font-family="Helvetica,sans-Serif" font-size="10.00" fill="#000000">UserLED.cpp</text>
</a>
</g>
</g>
<!-- Node2&#45;&gt;Node5 -->
<g id="edge3" class="edge">
<title>Node2&#45;&gt;Node5</title>
<path fill="none" stroke="#191970" d="M247.2955,-47.1771C247.2955,-38.1625 247.2955,-27.9556 247.2955,-20.6022"/>
<polygon fill="#191970" stroke="#191970" points="243.7956,-47.3095 247.2955,-57.3095 250.7956,-47.3096 243.7956,-47.3095"/>
</g>
<!-- Node6 -->
<g id="node5" class="node">
<title>Node6</title>
<g id="a_node5"><a xlink:href="MotorControl_8cpp.html" target="_top" xlink:title="MotorControl.cpp">
<polygon fill="#ffffff" stroke="#000000" points="302.958,-.5 302.958,-20.5 395.633,-20.5 395.633,-.5 302.958,-.5"/>
<text text-anchor="middle" x="349.2955" y="-7.5" font-family="Helvetica,sans-Serif" font-size="10.00" fill="#000000">MotorControl.cpp</text>
</a>
</g>
</g>
<!-- Node2&#45;&gt;Node6 -->
<g id="edge4" class="edge">
<title>Node2&#45;&gt;Node6</title>
<path fill="none" stroke="#191970" d="M274.3969,-52.3551C292.3686,-42.3121 315.4564,-29.4101 331.2178,-20.6022"/>
<polygon fill="#191970" stroke="#191970" points="272.5531,-49.376 265.5311,-57.3095 275.9679,-55.4866 272.5531,-49.376"/>
</g>
<!-- Node7 -->
<g id="node6" class="node">
<title>Node7</title>
<g id="a_node6"><a xlink:href="ThreadHelper_8cpp.html" target="_top" xlink:title="ThreadHelper.cpp">
<polygon fill="#ffffff" stroke="#000000" points="413.288,-.5 413.288,-20.5 509.303,-20.5 509.303,-.5 413.288,-.5"/>
<text text-anchor="middle" x="461.2955" y="-7.5" font-family="Helvetica,sans-Serif" font-size="10.00" fill="#000000">ThreadHelper.cpp</text>
</a>
</g>
</g>
<!-- Node2&#45;&gt;Node7 -->
<g id="edge5" class="edge">
<title>Node2&#45;&gt;Node7</title>
<path fill="none" stroke="#191970" d="M295.069,-54.7753C333.8395,-44.4486 387.7556,-30.0877 423.5474,-20.5544"/>
<polygon fill="#191970" stroke="#191970" points="293.824,-51.4848 285.0618,-57.4408 295.6258,-58.249 293.824,-51.4848"/>
</g>
</g>
</svg>
