<?xml version="1.0" encoding="UTF-8" standalone="no"?>
<!DOCTYPE svg PUBLIC "-//W3C//DTD SVG 1.1//EN"
 "http://www.w3.org/Graphics/SVG/1.1/DTD/svg11.dtd">
<!-- Generated by graphviz version 2.40.1 (20161225.0304)
 -->
<!-- Title: UserLED.cpp Pages: 1 -->
<svg width="334pt" height="143pt"
 viewBox="0.00 0.00 333.95 143.00" xmlns="http://www.w3.org/2000/svg" xmlns:xlink="http://www.w3.org/1999/xlink">
<g id="graph0" class="graph" transform="scale(1 1) rotate(0) translate(4 139)">
<title>UserLED.cpp</title>
<polygon fill="#ffffff" stroke="transparent" points="-4,4 -4,-139 329.9505,-139 329.9505,4 -4,4"/>
<!-- Node0 -->
<g id="node1" class="node">
<title>Node0</title>
<polygon fill="#bfbfbf" stroke="#000000" points="123.497,-114.5 123.497,-134.5 198.948,-134.5 198.948,-114.5 123.497,-114.5"/>
<text text-anchor="middle" x="161.2225" y="-121.5" font-family="Helvetica,sans-Serif" font-size="10.00" fill="#000000">UserLED.cpp</text>
</g>
<!-- Node1 -->
<g id="node2" class="node">
<title>Node1</title>
<g id="a_node2"><a xlink:href="UserLED_8h.html" target="_top" xlink:title="UserLED.h">
<polygon fill="#ffffff" stroke="#000000" points="18.7765,-57.5 18.7765,-77.5 83.6685,-77.5 83.6685,-57.5 18.7765,-57.5"/>
<text text-anchor="middle" x="51.2225" y="-64.5" font-family="Helvetica,sans-Serif" font-size="10.00" fill="#000000">UserLED.h</text>
</a>
</g>
</g>
<!-- Node0&#45;&gt;Node1 -->
<g id="edge1" class="edge">
<title>Node0&#45;&gt;Node1</title>
<path fill="none" stroke="#191970" d="M141.8099,-114.4408C124.6366,-105.5419 99.3511,-92.4394 79.8556,-82.3371"/>
<polygon fill="#191970" stroke="#191970" points="81.3001,-79.1437 70.811,-77.6504 78.0795,-85.3589 81.3001,-79.1437"/>
</g>
<!-- Node4 -->
<g id="node5" class="node">
<title>Node4</title>
<polygon fill="#ffffff" stroke="#bfbfbf" points="101.716,-57.5 101.716,-77.5 152.729,-77.5 152.729,-57.5 101.716,-57.5"/>
<text text-anchor="middle" x="127.2225" y="-64.5" font-family="Helvetica,sans-Serif" font-size="10.00" fill="#000000">unistd.h</text>
</g>
<!-- Node0&#45;&gt;Node4 -->
<g id="edge4" class="edge">
<title>Node0&#45;&gt;Node4</title>
<path fill="none" stroke="#191970" d="M155.144,-114.3095C150.5025,-106.5282 143.9774,-95.589 138.4021,-86.2423"/>
<polygon fill="#191970" stroke="#191970" points="141.3771,-84.3975 133.2484,-77.6022 135.3654,-87.9834 141.3771,-84.3975"/>
</g>
<!-- Node5 -->
<g id="node6" class="node">
<title>Node5</title>
<polygon fill="#ffffff" stroke="#bfbfbf" points="170.445,-57.5 170.445,-77.5 222,-77.5 222,-57.5 170.445,-57.5"/>
<text text-anchor="middle" x="196.2225" y="-64.5" font-family="Helvetica,sans-Serif" font-size="10.00" fill="#000000">sstream</text>
</g>
<!-- Node0&#45;&gt;Node5 -->
<g id="edge5" class="edge">
<title>Node0&#45;&gt;Node5</title>
<path fill="none" stroke="#191970" d="M167.4798,-114.3095C172.2578,-106.5282 178.9748,-95.589 184.7141,-86.2423"/>
<polygon fill="#191970" stroke="#191970" points="187.7693,-87.9554 190.0194,-77.6022 181.8041,-84.2925 187.7693,-87.9554"/>
</g>
<!-- Node6 -->
<g id="node7" class="node">
<title>Node6</title>
<g id="a_node7"><a xlink:href="ThreadHelper_8h.html" target="_top" xlink:title="ThreadHelper.h">
<polygon fill="#ffffff" stroke="#000000" points="240.4945,-57.5 240.4945,-77.5 325.9505,-77.5 325.9505,-57.5 240.4945,-57.5"/>
<text text-anchor="middle" x="283.2225" y="-64.5" font-family="Helvetica,sans-Serif" font-size="10.00" fill="#000000">ThreadHelper.h</text>
</a>
</g>
</g>
<!-- Node0&#45;&gt;Node6 -->
<g id="edge6" class="edge">
<title>Node0&#45;&gt;Node6</title>
<path fill="none" stroke="#191970" d="M182.7528,-114.4408C202.0593,-105.4205 230.61,-92.0813 252.3468,-81.9255"/>
<polygon fill="#191970" stroke="#191970" points="253.9186,-85.0544 261.497,-77.6504 250.9556,-78.7124 253.9186,-85.0544"/>
</g>
<!-- Node2 -->
<g id="node3" class="node">
<title>Node2</title>
<polygon fill="#ffffff" stroke="#bfbfbf" points="0,-.5 0,-20.5 40.445,-20.5 40.445,-.5 0,-.5"/>
<text text-anchor="middle" x="20.2225" y="-7.5" font-family="Helvetica,sans-Serif" font-size="10.00" fill="#000000">string</text>
</g>
<!-- Node1&#45;&gt;Node2 -->
<g id="edge2" class="edge">
<title>Node1&#45;&gt;Node2</title>
<path fill="none" stroke="#191970" d="M45.6803,-57.3095C41.4925,-49.6093 35.6228,-38.8166 30.5748,-29.5349"/>
<polygon fill="#191970" stroke="#191970" points="33.5692,-27.7149 25.7167,-20.6022 27.4198,-31.0593 33.5692,-27.7149"/>
</g>
<!-- Node3 -->
<g id="node4" class="node">
<title>Node3</title>
<polygon fill="#ffffff" stroke="#bfbfbf" points="58.5555,-.5 58.5555,-20.5 107.8895,-20.5 107.8895,-.5 58.5555,-.5"/>
<text text-anchor="middle" x="83.2225" y="-7.5" font-family="Helvetica,sans-Serif" font-size="10.00" fill="#000000">fstream</text>
</g>
<!-- Node1&#45;&gt;Node3 -->
<g id="edge3" class="edge">
<title>Node1&#45;&gt;Node3</title>
<path fill="none" stroke="#191970" d="M56.9435,-57.3095C61.2664,-49.6093 67.3255,-38.8166 72.5363,-29.5349"/>
<polygon fill="#191970" stroke="#191970" points="75.7076,-31.0355 77.5511,-20.6022 69.6037,-27.6087 75.7076,-31.0355"/>
</g>
<!-- Node7 -->
<g id="node8" class="node">
<title>Node7</title>
<polygon fill="#ffffff" stroke="#bfbfbf" points="254.102,-.5 254.102,-20.5 312.343,-20.5 312.343,-.5 254.102,-.5"/>
<text text-anchor="middle" x="283.2225" y="-7.5" font-family="Helvetica,sans-Serif" font-size="10.00" fill="#000000">pthread.h</text>
</g>
<!-- Node6&#45;&gt;Node7 -->
<g id="edge7" class="edge">
<title>Node6&#45;&gt;Node7</title>
<path fill="none" stroke="#191970" d="M283.2225,-57.3095C283.2225,-49.9335 283.2225,-39.72 283.2225,-30.715"/>
<polygon fill="#191970" stroke="#191970" points="286.7226,-30.6022 283.2225,-20.6022 279.7226,-30.6023 286.7226,-30.6022"/>
</g>
</g>
</svg>
